<?xml version="1.0" encoding="utf-8"?>
<!-- Generator: Adobe Illustrator 17.1.0, SVG Export Plug-In . SVG Version: 6.00 Build 0)  -->
<!DOCTYPE svg PUBLIC "-//W3C//DTD SVG 1.1//EN" "http://www.w3.org/Graphics/SVG/1.1/DTD/svg11.dtd">
<svg version="1.1" xmlns="http://www.w3.org/2000/svg" xmlns:xlink="http://www.w3.org/1999/xlink" x="0px" y="0px"
	 viewBox="0 0 100 100" enable-background="new 0 0 100 100" xml:space="preserve">
<g id="Layer_1">
	<g id="Your_Icon_5_" display="none">
		<path display="inline" fill="#D8ABAB" d="M-6127,446.1c0,0-37.7,16.8-80.9,52.3c219.5-467.7,487.5-448.7,487.5-448.7
			c-587.5-168.9-717.3,122.8-724.3,393.4c-115.7-244.5-348.7-466.9-812.9-232.4c0,0,380.1,32.3,676.6,298.7
			c-629.8-302.3-623.1,598.3-623.1,598.3c149.7-314.6,397.1-400.3,580.6-416.6c-7.5,13.6-11.6,28.3-11.6,44
			c0,48.1,38.7,89,93.4,106.2c-191,223.9-200.3,514.3-172.3,698.2c41.8,274.8,117,400.9,117,400.9h406c0,0-130.2-193.2-204.1-431.2
			c-70.8-227.8-31.6-422.5,51.2-569.1c26.3,14.5,57.4,23.1,90.9,23.1c94.1,0,170.3-65.8,170.3-147.2c0-41.8-20.3-79.3-52.6-106.2
			c20.5-3.8,436.2-62.2,553.1,367.7C-5455.8,1051.1-5449.1,217.6-6127,446.1z"/>
	</g>
	<g>
		<path d="M38.5,77.1c2.2,0,3.3-1.9,3.3-1.9c-2.2-2.6-4.7-5.5-6.9-8.9c-2.5-3.9-4.7-8.4-5.8-13.8c1.3,1.1,3.3,2.5,6.1,4.1
			c7.1,4,11.6,4.3,11.6,4.3c-1-6.1-6-12-7.9-13.2c-1.9-1.1-4-1.4-6-1.2c1.3-0.7,2.7-1.6,4.2-2.6c6.2-4.2,9.2-8.8,9.2-8.8
			c-5.5-1.6-9.8-0.6-13.4,2c-1.9,1.3-3.6,3.1-4.9,5.3c-0.1-1.8-0.6-3.6-1.6-5.4c-1-1.7-5.8-7.1-9.7-7c0,0-0.4,5,3,11.2
			c0.4,0.8,0.9,1.5,1.3,2.2c-0.9-0.2-1.8-0.4-2.8-0.5c-2.3-0.2-10-0.1-14.4,4.2c0,0,3.9,2.4,12,3.1c1.1,0.1,2.1,0.2,3,0.2
			c-1.1,0.7-2.1,1.5-3,2.4c-3.1,3.2-4.8,7.3-4.2,13c0,0,5-2.2,10.3-7.7c1.7-1.8,3-3.4,4.1-4.8c0.4,5.5,1.6,10.2,3.3,14.1
			c1.3,3,2.8,5.5,4.5,7.5C34,75.2,35.3,77.1,38.5,77.1z"/>
		<path d="M56.1,74.4c-3.7,0-5.5-3.2-5.5-3.2c1.5-1.8,3-3.6,4.4-5.6c-2.4-0.2-4.9-0.4-7.4-0.4c-4.5,0-8.7,0.4-12.6,1.1
			c2.2,3.4,4.6,6.3,6.9,8.9c0,0-1.1,1.9-3.3,1.9c-3.2,0-4.6-1.9-4.6-1.9c-1.7-2-3.2-4.5-4.5-7.5c-8.6,2.6-14.2,7-14.2,11.9
			c0,7.9,64.7,7.9,64.7,0c0-5.3-6.3-9.9-15.8-12.4c-0.4,1.1-0.9,2.2-1.4,3.1C61.5,72.7,61.5,74.4,56.1,74.4z"/>
		<path d="M95.9,32.3c-5-5-14-5.1-16.6-4.9c-1.2,0.1-2.3,0.3-3.3,0.5c0.5-0.7,1-1.6,1.5-2.5c3.9-7.2,3.4-12.9,3.4-12.9
			c-4.4-0.1-10,6.1-11.2,8.1c-1.2,2-1.7,4.1-1.8,6.2c-1.4-2.5-3.4-4.6-5.6-6.1c-4.2-3-9.2-4.1-15.5-2.3c0,0,3.5,5.2,10.6,10.1
			c1.8,1.2,3.5,2.2,4.9,3c-2.4-0.3-4.8,0.1-7,1.4c-2.3,1.3-7.9,8.2-9.1,15.2c0,0,5.3-0.3,13.5-5c3.3-1.9,5.5-3.5,7.1-4.7
			C65,47.7,60.8,57.3,55,65.5c-1.4,2-2.9,3.8-4.4,5.6c0,0,1.9,3.2,5.5,3.2c5.4,0,5.3-1.7,6.6-4.1c0.5-0.9,1-2,1.4-3.1
			c3.9-10,6.3-27.6,6.3-27.6s2.7,3.4,4.7,5.5c6.1,6.3,11.8,8.9,11.8,8.9c0.8-6.6-1.2-11.3-4.8-15c-1-1-2.2-2-3.5-2.8
			c1,0,2.2-0.1,3.4-0.2C91.4,35,95.9,32.3,95.9,32.3z"/>
	</g>
</g>
<g id="Layer_2">
</g>
</svg>
