<?xml version="1.0" encoding="utf-8"?>
<!-- Generator: Adobe Illustrator 17.1.0, SVG Export Plug-In . SVG Version: 6.00 Build 0)  -->
<!DOCTYPE svg PUBLIC "-//W3C//DTD SVG 1.1//EN" "http://www.w3.org/Graphics/SVG/1.1/DTD/svg11.dtd">
<svg version="1.1" id="Layer_3" xmlns="http://www.w3.org/2000/svg" xmlns:xlink="http://www.w3.org/1999/xlink" x="0px" y="0px"
	 viewBox="0 0 100 100" enable-background="new 0 0 100 100" xml:space="preserve">
<path d="M85.5,22.1c0-3.3-1.9-6.7-4.8-8.7c-2.8-1.9-6.6-3-10.5-3c-3.9,0-7.7,1.1-10.5,3c-2,1.4-3.5,3.4-4.2,5.5
	c-1.3-1.2-3.2-1.9-5.4-1.9s-4,0.7-5.4,1.9c-0.8-2.2-2.3-4.2-4.2-5.5c-2.8-1.9-6.6-3-10.5-3c-3.9,0-7.7,1.1-10.5,3
	c-2.9,2-4.8,5.4-4.8,8.7c0,3.1,1.7,5.2,3.4,6.7H2.2v24.3h5.2v33.5h85.2V53.1h5.2V28.8H82.1C83.8,27.3,85.5,25.2,85.5,22.1z
	 M40.6,79.7H14.3V53.1h26.3V79.7z M40.6,46.2H9V35.6h31.6V46.2z M40.6,28.3H29.9c-3,0-5.8-0.8-7.9-2.2c-2.5-1.7-2.8-2.9-2.8-4
	c0-1.8,1.1-3.7,2.8-4.9c2.1-1.4,4.9-2.2,7.9-2.2c3,0,5.8,0.8,7.9,2.2c1.7,1.2,2.8,3.1,2.8,4.9V28.3z M45.2,28.8L45.2,28.8
	C45.2,28.8,45.2,28.8,45.2,28.8L45.2,28.8z M54.8,28.8L54.8,28.8C54.8,28.8,54.8,28.8,54.8,28.8L54.8,28.8z M59.4,22.1
	c0-1.8,1.1-3.7,2.8-4.9c2.1-1.4,4.9-2.2,7.9-2.2c3,0,5.8,0.8,7.9,2.2c1.7,1.2,2.8,3.1,2.8,4.9c0,1.1-0.3,2.3-2.8,4
	c-2.1,1.4-4.9,2.2-7.9,2.2H59.4V22.1z M85.7,79.7H59.4V53.1h26.3V79.7z M91,35.6v10.6H59.4V35.6H91z"/>
</svg>
