<?xml version="1.0" encoding="utf-8"?>
<svg id="icon-gift-certificate" viewBox="0 0 512 512" width="112" height="112" xmlns="http://www.w3.org/2000/svg">
  <path d="m438 113c0-17-10-34-25-44-14-10-34-16-54-16-20 0-39 6-53 16-11 7-18 17-22 28-6-6-16-10-27-10-12 0-21 4-28 10-4-11-12-22-22-28-14-10-33-16-53-16-20 0-40 6-54 16-15 10-25 27-25 44 0 16 9 27 18 34l-82 0 0 125 27 0 0 171 436 0 0-171 27 0 0-125-81 0c9-7 18-18 18-34z m-230 295l-135 0 0-136 135 0z m0-171l-162 0 0-55 162 0z m0-92l-55 0c-15 0-30-4-40-11-13-9-15-15-15-21 0-9 6-19 15-25 10-7 25-11 40-11 15 0 30 4 41 11 8 6 14 16 14 25z m23 2z m50 0z m23-34c0-9 6-19 14-25 11-7 26-11 41-11 15 0 30 4 40 11 9 6 15 16 15 25 0 6-2 12-15 21-10 7-25 11-40 11l-55 0z m135 295l-135 0 0-136 135 0z m27-226l0 55-162 0 0-55z" fill="#0e2b51" />
</svg>