<?xml version="1.0" encoding="utf-8"?>
<svg id="icon-sun" viewBox="0 0 512 512" width="112" height="112" xmlns="http://www.w3.org/2000/svg">
  <path d="m256 144c-62 0-112 50-112 112c0 62 50 112 112 112c62 0 112-50 112-112c0-62-50-112-112-112z m0 192c-44 0-80-36-80-80c0-44 36-80 80-80c44 0 80 36 80 80c0 44-36 80-80 80z m0-224c9 0 16-7 16-16l0-32c0-9-7-16-16-16c-9 0-16 7-16 16l0 32c0 9 7 16 16 16z m0 288c-9 0-16 7-16 16l0 32c0 9 7 16 16 16c9 0 16-7 16-16l0-32c0-9-7-16-16-16z m124-246l23-22c6-7 6-17 0-23c-6-6-16-6-23 0l-22 23c-6 6-6 16 0 22c6 6 16 6 22 0z m-248 204l-23 22c-6 7-6 17 0 23c6 6 16 6 23 0l22-23c6-6 6-16 0-22c-6-6-16-6-22 0z m-20-102c0-9-7-16-16-16l-32 0c-9 0-16 7-16 16c0 9 7 16 16 16l32 0c9 0 16-7 16-16z m336-16l-32 0c-9 0-16 7-16 16c0 9 7 16 16 16l32 0c9 0 16-7 16-16c0-9-7-16-16-16z m-316-86c6 6 16 6 22 0c6-6 6-16 0-22l-22-23c-7-6-17-6-23 0c-6 6-6 16 0 23z m248 204c-6-6-16-6-22 0c-6 6-6 16 0 22l22 23c7 6 17 6 23 0c6-6 6-16 0-23z" fill="#0e2b51" />
</svg>