<?xml version="1.0" encoding="utf-8"?>
<svg id="icon-price-guarantee" viewBox="0 0 512 512" width="112" height="112" xmlns="http://www.w3.org/2000/svg">
  <path d="m411 256c0 86-70 155-155 155-85 0-155-69-155-155 0-86 69-155 155-155 86 0 155 69 155 155z m-55-55l-31-26-98 119-57-49-20 24 83 67z m-118-166c10-6 26-6 36 0l17 10c11 5 28 10 40 10l20 0c11 0 26 8 31 19l10 17c6 10 19 23 29 29l17 10c11 5 19 20 19 31l0 20c0 12 4 29 10 40l10 17c6 10 6 26 0 36l-10 17c-5 11-10 28-10 40l0 20c0 11-8 26-19 31l-17 10c-10 6-23 19-29 29l-10 17c-5 11-20 19-31 19l-20 0c-12 0-29 4-40 10l-17 10c-10 6-26 6-36 0l-17-10c-11-5-28-10-40-10l-20 0c-11 0-26-8-31-19l-10-17c-6-10-19-23-29-29l-17-10c-11-5-19-20-19-31l0-20c0-12-4-29-10-40l-10-17c-6-10-6-26 0-36l10-17c5-11 10-28 10-40l0-20c0-11 8-26 19-31l17-10c10-6 23-19 29-29l10-17c5-11 20-19 31-19l20 0c12 0 29-4 40-10z m193 221c0-96-78-175-175-175-97 0-175 79-175 175 0 96 79 175 175 175 96 0 175-79 175-175z" fill="#0e2b51" />
</svg>