<?xml version="1.0" encoding="utf-8"?>
<svg id="icon-hail-black" viewBox="0 0 512 512" width="112" height="112" xmlns="http://www.w3.org/2000/svg">
  <path d="m400 64c-5 0-11 0-16 1c-30-41-77-65-128-65c-51 0-98 24-128 65c-5-1-11-1-16-1c-62 0-112 50-112 112c0 62 50 112 112 112c14 0 27-2 40-7c29 25 66 39 104 39c39 0 75-14 104-39c13 5 26 7 40 7c62 0 112-50 112-112c0-62-50-112-112-112z m-304 256c-18 0-32 14-32 32c0 18 14 32 32 32c18 0 32-14 32-32c0-18-14-32-32-32z m160 32c-18 0-32 14-32 32c0 18 14 32 32 32c18 0 32-14 32-32c0-18-14-32-32-32z m160-32c-18 0-32 14-32 32c0 18 14 32 32 32c18 0 32-14 32-32c0-18-14-32-32-32z m-64 128c-18 0-32 14-32 32c0 18 14 32 32 32c18 0 32-14 32-32c0-18-14-32-32-32z m-192 0c-18 0-32 14-32 32c0 18 14 32 32 32c18 0 32-14 32-32c0-18-14-32-32-32z" fill="#0e2b51" />
</svg>