<?xml version="1.0" encoding="utf-8"?>
<svg id="icon-ellipsis" viewBox="0 0 512 512" width="112" height="112" xmlns="http://www.w3.org/2000/svg">
  <path d="m311 357l0 54c0 8-3 15-8 20c-5 5-12 8-20 8l-54 0c-8 0-15-3-20-8c-5-5-8-12-8-20l0-54c0-8 3-15 8-20c5-5 12-8 20-8l54 0c8 0 15 3 20 8c5 5 8 12 8 20z m0-147l0 55c0 8-3 14-8 20c-5 5-12 8-20 8l-54 0c-8 0-15-3-20-8c-5-6-8-12-8-20l0-55c0-7 3-14 8-19c5-5 12-8 20-8l54 0c8 0 15 3 20 8c5 5 8 12 8 19z m0-146l0 55c0 7-3 14-8 19c-5 6-12 8-20 8l-54 0c-8 0-15-2-20-8c-5-5-8-12-8-19l0-55c0-8 3-14 8-19c5-6 12-8 20-8l54 0c8 0 15 2 20 8c5 5 8 11 8 19z" fill="#0e2b51" />
</svg>