<?xml version="1.0" encoding="utf-8"?>
<svg id="icon-sort-numeric-two" viewBox="0 0 512 512" width="112" height="112" xmlns="http://www.w3.org/2000/svg">
  <path d="m421 375c0-12-4-23-12-33c-9-10-19-15-30-15c-10 0-18 3-24 10c-5 7-8 16-8 27c0 11 3 20 10 27c7 8 17 11 30 11c9 0 17-2 24-7c7-6 10-12 10-20z m-174 36c0 3-1 5-3 7l-91 91c-2 2-4 3-7 3c-2 0-4-1-6-3l-92-91c-3-3-3-6-2-10c2-4 5-6 9-6l55 0l0-393c0-3 1-5 2-6c2-2 4-3 7-3l55 0c2 0 5 1 6 3c2 1 3 3 3 6l0 393l55 0c2 0 5 1 6 3c2 2 3 4 3 6z m214-19c0 12-1 23-4 34c-2 12-6 23-11 33c-6 10-12 19-20 27c-7 8-17 14-28 19c-11 5-23 7-36 7c-12 0-22-2-31-5c-5-1-9-3-12-4l11-32c3 1 6 2 9 3c7 2 14 4 21 4c16 0 29-6 39-17c9-11 16-25 19-42l-1 0c-4 5-10 8-17 11c-8 3-16 4-25 4c-20 0-36-7-49-20c-13-14-19-30-19-50c0-20 7-37 20-51c14-13 31-20 52-20c24 0 43 9 59 27c15 18 23 42 23 72z m-8-205l0 32l-134 0l0-32l47 0l0-124c0-1 0-3 0-5c1-2 1-4 1-5l0-4l-1 0l-2 3c-2 2-4 5-7 9l-18 16l-24-24l55-53l35 0l0 187z" fill="#0e2b51" />
</svg>