<?xml version="1.0" encoding="utf-8"?>
<svg id="icon-wind" viewBox="0 0 512 512" width="112" height="112" xmlns="http://www.w3.org/2000/svg">
  <path d="m431 192c-26 0-48 22-48 48c0 6 1 11 3 16l-307 0c-9 0-16 7-16 16c0 9 7 16 16 16l352 0c27 0 48-21 48-48c0-26-21-48-48-48z m-352 32l192 0c27 0 48-21 48-48c0-26-21-48-48-48c-26 0-48 22-48 48c0 6 1 11 3 16l-147 0c-9 0-16 7-16 16c0 9 7 16 16 16z m256 96c-1 0-2 0-3 0c0 0-1 0-2 0l-246 0c-12 0-21 7-21 16c0 9 9 16 21 16l206 0c-2 5-3 10-3 16c0 27 22 48 48 48c27 0 48-21 48-48c0-26-21-48-48-48z" fill="#0e2b51" />
</svg>