<?xml version="1.0" encoding="utf-8"?>
<svg id="icon-credit-card" viewBox="0 0 512 512" width="112" height="112" xmlns="http://www.w3.org/2000/svg">
  <path d="m469 51c12 0 22 4 30 13c9 8 13 18 13 30l0 324c0 12-4 22-13 30c-8 9-18 13-30 13l-426 0c-12 0-22-4-30-13c-9-8-13-18-13-30l0-324c0-12 4-22 13-30c8-9 18-13 30-13z m-426 34c-3 0-5 1-6 3c-2 2-3 4-3 6l0 60l444 0l0-60c0-2-1-4-3-6c-1-2-3-3-6-3z m426 342c3 0 5-1 6-3c2-2 3-4 3-6l0-162l-444 0l0 162c0 2 1 4 3 6c1 2 3 3 6 3z m-401-34l0-35l69 0l0 35z m103 0l0-35l102 0l0 35z" fill="#0e2b51" />
</svg>