<?xml version="1.0" encoding="utf-8"?>
<svg id="icon-camera" viewBox="0 0 512 512" width="112" height="112" xmlns="http://www.w3.org/2000/svg">
  <path d="m256 196c21 0 39 8 54 23c15 15 23 33 23 54c0 21-8 39-23 54c-15 15-33 23-54 23c-21 0-39-8-54-23c-15-15-23-33-23-54c0-21 8-39 23-54c15-15 33-23 54-23z m188-111c19 0 35 7 48 20c13 14 20 30 20 49l0 239c0 18-7 34-20 48c-13 13-29 20-48 20l-376 0c-19 0-35-7-48-20c-13-14-20-30-20-48l0-239c0-19 7-35 20-49c13-13 29-20 48-20l60 0l14-36c3-9 9-16 18-22c9-7 18-10 28-10l136 0c10 0 19 3 28 10c9 6 15 13 18 22l14 36z m-188 308c33 0 61-12 84-36c24-23 35-51 35-84c0-33-11-61-35-84c-23-24-51-35-84-35c-33 0-61 11-84 35c-24 23-35 51-35 84c0 33 11 61 35 84c23 24 51 36 84 36z" fill="#0e2b51" />
</svg>