<?xml version="1.0" encoding="utf-8"?>
<svg id="icon-pinterest-square" viewBox="0 0 512 512" width="112" height="112" xmlns="http://www.w3.org/2000/svg">
  <path d="m393 37c23 0 42 8 58 24c16 16 24 35 24 58l0 274c0 23-8 42-24 58c-16 16-35 24-58 24l-207 0c16-23 26-43 31-60c2-6 7-26 15-59c4 7 11 14 21 19c10 5 21 8 32 8c35 0 63-14 85-42c21-28 32-64 32-107c0-16-3-31-10-46c-6-15-16-29-27-40c-12-12-27-21-44-28c-17-7-36-10-56-10c-20 0-38 2-56 8c-17 5-32 13-43 22c-12 9-23 19-31 31c-9 12-15 24-19 37c-4 12-6 25-6 37c0 20 3 37 11 52c8 15 19 25 33 31c3 1 5 1 7 0c2-1 3-2 4-5c2-9 3-14 4-18c2-4 1-8-3-12c-9-11-14-26-14-42c0-29 10-53 30-74c19-20 45-30 77-30c28 0 50 8 66 23c16 15 24 35 24 60c0 32-6 59-19 82c-13 22-30 33-50 33c-11 0-20-4-27-12c-7-8-10-18-7-30c2-6 4-15 8-26c3-11 6-21 8-29c2-8 3-16 3-21c0-10-2-18-7-24c-5-6-13-9-22-9c-12 0-21 5-30 16c-8 11-12 24-12 40c0 14 3 25 7 35l-28 118c-4 19-5 43-2 72l-52 0c-23 0-42-8-58-24c-16-16-24-35-24-58l0-274c0-23 8-42 24-58c16-16 35-24 58-24z" fill="#0e2b51" />
</svg>