<?xml version="1.0" encoding="utf-8"?>
<svg id="icon-asterisk" viewBox="0 0 512 512" width="112" height="112" xmlns="http://www.w3.org/2000/svg">
  <path d="m442 300c8 5 14 12 17 22c2 10 1 19-4 28l-18 31c-5 9-12 15-22 17c-10 3-19 2-28-3l-76-44l0 88c0 10-4 18-11 26c-7 7-16 10-26 10l-36 0c-10 0-19-3-26-10c-7-8-11-16-11-26l0-88l-76 44c-9 5-18 6-28 3c-10-2-17-8-22-17l-18-31c-5-9-6-18-4-28c3-10 9-17 17-22l76-44l-76-44c-8-5-14-12-17-22c-2-10-1-19 4-28l18-31c5-9 12-15 22-17c10-3 19-2 28 3l76 44l0-88c0-10 4-18 11-26c7-7 16-10 26-10l36 0c10 0 19 3 26 10c7 8 11 16 11 26l0 88l76-44c9-5 18-6 28-3c10 2 17 8 22 17l18 31c5 9 6 18 4 28c-3 10-9 17-17 22l-76 44z" fill="#0e2b51" />
</svg>