<?xml version="1.0" encoding="utf-8"?>
<svg id="icon-rss-two" viewBox="0 0 512 512" width="112" height="112" xmlns="http://www.w3.org/2000/svg">
  <path d="m165 384c0 15-6 28-16 39c-11 11-24 16-39 16c-16 0-28-5-39-16c-11-11-16-24-16-39c0-15 5-28 16-39c11-11 23-16 39-16c15 0 28 5 39 16c10 11 16 24 16 39z m146 35c0 5-1 10-5 14c-3 4-8 6-13 6l-39 0c-5 0-9-2-12-5c-4-3-6-7-6-12c-4-43-22-81-53-112c-31-31-68-48-112-52c-4-1-8-3-11-6c-4-3-5-8-5-12l0-39c0-5 2-10 6-13c3-4 7-5 12-5l2 0c30 2 59 10 87 23c28 13 52 30 74 52c22 21 39 46 52 74c13 28 20 57 23 87z m146 1c1 5-1 9-5 13c-3 4-8 6-13 6l-41 0c-5 0-9-2-13-5c-3-3-5-8-5-12c-3-41-12-80-29-117c-17-37-39-69-66-96c-27-27-59-49-96-66c-37-17-76-27-117-29c-5 0-9-2-12-6c-3-3-5-8-5-12l0-41c0-5 2-10 6-13c3-4 7-5 12-5l1 0c50 2 98 13 143 34c46 20 86 48 122 84c35 35 63 76 84 121c20 46 32 94 34 144z" fill="#0e2b51" />
</svg>