<?xml version="1.0" encoding="utf-8"?>
<svg id="icon-fog-sun" viewBox="0 0 512 512" width="112" height="112" xmlns="http://www.w3.org/2000/svg">
  <path d="m495 223l-82 0c-8-72-68-128-142-128c-50 0-94 25-120 64l-104 0c-9 0-16 7-16 16c0 9 7 16 16 16l89 0c-4 10-6 21-7 32l-50 0c-9 0-16 7-16 16c0 9 7 16 16 16l50 0c1 11 3 22 7 32l-86 0c-11 0-19 7-19 16c0 9 8 16 19 16l101 0c26 39 70 64 120 64c50 0 94-25 120-64l37 0c11 0 19-7 19-16c0-9-8-16-19-16l-22 0c4-10 6-21 7-32l82 0c9 0 16-7 16-16c0-9-7-16-16-16z m-325-32l101 0c9 0 16-7 16-16c0-9-7-16-16-16l-78 0c20-20 48-32 78-32c56 0 103 42 110 96l-220 0c1-11 4-22 9-32z m101 160c-30 0-58-12-78-32l156 0c-20 20-48 32-78 32z m101-64l-202 0c-5-10-8-21-9-32l220 0c-1 11-4 22-9 32z" fill="#0e2b51" />
</svg>