<?xml version="1.0" encoding="utf-8"?>
<svg id="icon-briefcase-case-two" viewBox="0 0 512 512" width="112" height="112" xmlns="http://www.w3.org/2000/svg">
  <path d="m183 73l146 0l0-36l-146 0z m329 183l0 137c0 13-4 23-13 32c-9 9-20 14-33 14l-420 0c-13 0-24-5-33-14c-9-9-13-19-13-32l0-137l192 0l0 46c0 5 2 9 5 13c4 3 8 5 13 5l92 0c5 0 9-2 13-5c3-4 5-8 5-13l0-46z m-219 0l0 37l-74 0l0-37z m219-137l0 110l-512 0l0-110c0-13 4-23 13-32c9-9 20-14 33-14l100 0l0-46c0-7 3-14 8-19c6-5 12-8 20-8l164 0c8 0 14 3 20 8c5 5 8 12 8 19l0 46l100 0c13 0 24 5 33 14c9 9 13 19 13 32z" fill="#0e2b51" />
</svg>