<?xml version="1.0" encoding="utf-8"?>
<svg id="icon-spinner" viewBox="0 0 512 512" width="112" height="112" xmlns="http://www.w3.org/2000/svg">
  <path d="m174 384c0 11-4 21-12 29c-9 8-18 12-29 12c-12 0-22-4-30-12c-8-8-12-18-12-29c0-11 4-21 12-29c8-8 18-12 30-12c11 0 20 4 29 12c8 8 12 18 12 29z m123 55c0 10-3 19-11 26c-7 7-15 10-25 10c-11 0-19-3-26-10c-7-7-11-16-11-26c0-10 4-19 11-26c7-7 15-11 26-11c10 0 18 4 25 11c8 7 11 16 11 26z m-174-183c0 13-4 23-13 32c-9 9-20 14-32 14c-13 0-24-5-33-14c-9-9-13-19-13-32c0-13 4-23 13-32c9-9 20-14 33-14c12 0 23 5 32 14c9 9 13 19 13 32z m298 128c0 9-4 16-10 23c-6 6-14 9-22 9c-9 0-17-3-23-9c-6-7-9-14-9-23c0-9 3-16 9-23c6-6 14-9 23-9c8 0 16 3 22 9c6 7 10 14 10 23z m-238-256c0 14-5 26-15 36c-10 9-22 14-35 14c-14 0-26-5-36-14c-10-10-15-22-15-36c0-14 5-26 15-36c10-9 22-14 36-14c13 0 25 5 35 14c10 10 15 22 15 36z m132-55c0 15-5 28-16 39c-10 11-23 16-38 16c-16 0-29-5-39-16c-11-11-16-24-16-39c0-15 5-28 16-39c10-10 23-16 39-16c15 0 28 6 38 16c11 11 16 24 16 39z m156 183c0 8-3 14-8 19c-5 6-12 8-20 8c-7 0-14-2-19-8c-5-5-8-11-8-19c0-8 3-14 8-19c5-6 12-8 19-8c8 0 15 2 20 8c5 5 8 11 8 19z m-60-128c0 6-2 12-6 16c-5 5-10 7-16 7c-7 0-12-2-17-7c-4-4-6-10-6-16c0-6 2-12 6-16c5-5 10-7 17-7c6 0 11 2 16 7c4 4 6 10 6 16z" fill="#0e2b51" />
</svg>