<?xml version="1.0" encoding="utf-8"?>
<svg id="icon-clock" viewBox="0 0 512 512" width="112" height="112" xmlns="http://www.w3.org/2000/svg">
  <path d="m293 155l0 128c0 3-1 5-3 7c-2 2-4 3-7 3l-91 0c-3 0-5-1-7-3c-1-2-2-4-2-7l0-18c0-3 1-5 2-6c2-2 4-3 7-3l64 0l0-101c0-2 1-4 3-6c1-2 3-3 6-3l18 0c3 0 5 1 7 3c2 2 3 4 3 6z m118 101c0-28-7-54-20-78c-14-24-33-43-57-57c-24-13-50-20-78-20c-28 0-54 7-78 20c-24 14-43 33-57 57c-13 24-20 50-20 78c0 28 7 54 20 78c14 24 33 43 57 57c24 13 50 20 78 20c28 0 54-7 78-20c24-14 43-33 57-57c13-24 20-50 20-78z m64 0c0 40-9 77-29 110c-20 34-46 60-80 80c-33 20-70 29-110 29c-40 0-77-9-110-29c-34-20-60-46-80-80c-20-33-29-70-29-110c0-40 9-77 29-110c20-34 46-60 80-80c33-20 70-29 110-29c40 0 77 9 110 29c34 20 60 46 80 80c20 33 29 70 29 110z" fill="#0e2b51" />
</svg>