<?xml version="1.0" encoding="utf-8"?>
<svg id="icon-cloud-sun-black" viewBox="0 0 512 512" width="112" height="112" xmlns="http://www.w3.org/2000/svg">
  <path d="m208 64c9 0 16-7 16-16l0-32c0-9-7-16-16-16c-9 0-16 7-16 16l0 32c0 9 7 16 16 16z m124 42l23-22c6-7 6-17 0-23c-6-6-16-6-23 0l-22 23c-6 6-6 16 0 22c6 6 16 6 22 0z m-316 118l32 0c9 0 16-7 16-16c0-9-7-16-16-16l-32 0c-9 0-16 7-16 16c0 9 7 16 16 16z m336-16c0 9 7 16 16 16l32 0c9 0 16-7 16-16c0-9-7-16-16-16l-32 0c-9 0-16 7-16 16z m-268-102c6 6 16 6 22 0c6-6 6-16 0-22l-22-23c-7-6-17-6-23 0c-6 6-6 16 0 23z m316 150c-5 0-11 0-16 1c-17-23-39-40-64-51c-2-61-51-110-112-110c-62 0-112 50-112 112c0 17 4 34 12 48c-60 3-108 52-108 112c0 62 50 112 112 112c14 0 27-2 40-7c29 25 66 39 104 39c39 0 75-14 104-39c13 5 26 7 40 7c62 0 112-50 112-112c0-62-50-112-112-112z m-144-64c-46 0-88 20-118 53c-6-11-10-23-10-37c0-44 36-80 80-80c40 0 73 29 79 67c-10-2-21-3-31-3z" fill="#0e2b51" />
</svg>