<?xml version="1.0" encoding="utf-8"?>
<svg id="icon-wind-rain" viewBox="0 0 512 512" width="112" height="112" xmlns="http://www.w3.org/2000/svg">
  <path d="m417 71c-24-25-57-39-92-39c-34 0-67 14-91 39c-53 2-95 46-95 99c0 55 44 100 99 100c6 0 12 0 18-1c20 13 45 20 69 20c25 0 49-7 70-20c6 1 12 1 17 1c55 0 100-45 100-100c0-53-42-97-95-99z m-5 167c-8 0-16-1-24-4c-17 15-39 23-63 23c-23 0-45-8-63-23c-7 3-15 4-24 4c-37 0-67-30-67-68c0-37 30-67 67-67c4 0 7 0 10 0c18-24 46-39 77-39c31 0 60 15 78 39c3 0 6 0 9 0c38 0 68 30 68 67c0 38-30 68-68 68z m-268 19l-128 0c-9 0-16 7-16 16c0 9 7 16 16 16l128 0c9 0 16-7 16-16c0-9-7-16-16-16z m-128-32l64 0c9 0 16-7 16-16c0-9-7-16-16-16l-64 0c-9 0-16 7-16 16c0 9 7 16 16 16z m32-64l64 0c9 0 16-7 16-16c0-9-7-16-16-16l-64 0c-9 0-16 7-16 16c0 9 7 16 16 16z m176 223c0 18 14 32 32 32c18 0 32-14 32-32c0-18-32-64-32-64c0 0-32 46-32 64z m128 64c0 18 14 32 32 32c18 0 32-14 32-32c0-18-32-64-32-64c0 0-32 46-32 64z" fill="#0e2b51" />
</svg>