<?xml version="1.0" encoding="utf-8"?>
<svg id="icon-youtube" viewBox="0 0 512 512" width="112" height="112" xmlns="http://www.w3.org/2000/svg">
  <path d="m314 355l0 61c0 12-4 19-11 19c-5 0-9-2-13-6l0-86c4-5 8-7 13-7c7 0 11 7 11 19z m97 1l0 13l-26 0l0-13c0-13 4-20 13-20c8 0 13 7 13 20z m-276-63l30 0l0-26l-89 0l0 26l30 0l0 163l29 0z m82 163l25 0l0-141l-25 0l0 108c-6 8-11 12-16 12c-4 0-6-2-6-6c-1-1-1-4-1-10l0-104l-25 0l0 112c0 9 1 16 2 20c2 7 8 11 17 11c9 0 19-6 29-17z m122-42l0-57c0-13 0-23-2-28c-3-11-10-16-20-16c-10 0-19 5-27 16l0-62l-25 0l0 189l25 0l0-14c9 11 17 16 27 16c10 0 17-5 20-16c2-5 2-14 2-28z m97-3l0-4l-26 0c0 10 0 16-1 18c-1 6-5 10-11 10c-9 0-13-7-13-20l0-25l51 0l0-29c0-15-3-26-8-33c-7-10-17-15-30-15c-13 0-23 5-31 15c-5 7-8 18-8 33l0 49c0 15 3 26 9 33c7 10 17 15 31 15c13 0 24-5 30-15c4-5 6-10 6-16c1-1 1-7 1-16z m-174-261l0-60c0-13-4-20-12-20c-8 0-12 7-12 20l0 60c0 13 4 20 12 20c8 0 12-7 12-20z m206 215c0 44-3 77-8 100c-2 11-8 20-16 28c-9 7-18 12-29 13c-35 4-88 6-159 6c-71 0-124-2-159-6c-11-1-20-6-29-13c-8-8-14-17-16-28c-5-22-8-55-8-100c0-45 3-78 8-100c2-12 8-21 16-29c9-7 18-12 30-13c35-4 87-6 158-6c71 0 124 2 159 6c11 1 20 6 29 13c8 8 14 17 16 29c5 21 8 54 8 100z m-285-365l29 0l-35 114l0 77l-28 0l0-77c-3-14-9-34-18-61c-7-19-13-37-18-53l30 0l20 75z m105 95l0 50c0 16-2 27-8 34c-7 10-17 14-30 14c-13 0-23-4-30-14c-5-7-8-19-8-34l0-50c0-15 3-26 8-33c7-10 17-15 30-15c13 0 23 5 30 15c6 7 8 18 8 33z m96-46l0 142l-26 0l0-15c-10 12-20 17-29 17c-9 0-15-3-17-10c-2-5-3-12-3-22l0-112l26 0l0 105c0 6 1 9 1 10c0 4 2 6 6 6c5 0 10-4 16-12l0-109z" fill="#0e2b51" />
</svg>