<?xml version="1.0" encoding="utf-8"?>
<svg id="icon-pinterest" viewBox="0 0 512 512" width="112" height="112" xmlns="http://www.w3.org/2000/svg">
  <path d="m475 256c0 40-9 77-29 110c-20 34-46 60-80 80c-33 20-70 29-110 29c-21 0-42-3-62-9c11-17 18-33 22-47c2-6 7-26 15-60c4 8 11 14 21 19c10 6 21 9 33 9c23 0 43-7 62-20c18-13 32-31 42-54c9-23 14-48 14-77c0-22-5-42-17-61c-11-19-27-35-49-47c-21-12-46-18-73-18c-20 0-38 3-56 9c-17 5-32 12-44 22c-12 9-22 19-31 31c-9 12-15 24-19 37c-4 13-6 26-6 38c0 20 4 38 11 53c8 15 19 25 34 31c5 3 9 1 10-5c1-2 2-5 3-9c1-5 2-8 2-9c1-4 0-8-3-12c-10-12-15-26-15-43c0-29 10-54 30-74c20-21 46-31 78-31c29 0 51 8 68 23c16 16 24 36 24 61c0 32-7 60-20 83c-13 22-30 34-50 34c-12 0-21-5-28-13c-7-8-9-18-7-30c2-6 4-15 8-26c4-12 6-21 9-30c2-8 3-16 3-21c0-10-3-18-8-24c-5-6-12-10-22-10c-12 0-22 6-30 17c-8 11-12 24-12 40c0 14 2 26 7 35l-28 120c-4 13-5 30-4 50c-39-17-71-44-95-80c-24-36-36-77-36-121c0-40 9-77 29-110c20-34 46-60 80-80c33-20 70-29 110-29c40 0 77 9 110 29c34 20 60 46 80 80c20 33 29 70 29 110z" fill="#0e2b51" />
</svg>