<?xml version="1.0" encoding="utf-8"?>
<svg id="icon-calendar" viewBox="0 0 512 512" width="112" height="112" xmlns="http://www.w3.org/2000/svg">
  <path d="m55 475l82 0l0-82l-82 0z m100 0l92 0l0-82l-92 0z m-100-100l82 0l0-92l-82 0z m100 0l92 0l0-92l-92 0z m-100-110l82 0l0-82l-82 0z m210 210l92 0l0-82l-92 0z m-110-210l92 0l0-82l-92 0z m220 210l82 0l0-82l-82 0z m-110-100l92 0l0-92l-92 0z m-100-247l0-82c0-3-1-5-3-7c-2-2-4-2-7-2l-18 0c-2 0-4 0-6 2c-2 2-3 4-3 7l0 82c0 2 1 5 3 6c2 2 4 3 6 3l18 0c3 0 5-1 7-3c2-1 3-4 3-6z m210 247l82 0l0-92l-82 0z m-110-110l92 0l0-82l-92 0z m110 0l82 0l0-82l-82 0z m9-137l0-82c0-3-1-5-3-7c-2-2-4-2-6-2l-18 0c-3 0-5 0-7 2c-2 2-3 4-3 7l0 82c0 2 1 5 3 6c2 2 4 3 7 3l18 0c2 0 4-1 6-3c2-1 3-4 3-6z m110-18l0 365c0 10-4 19-11 26c-7 7-16 11-26 11l-402 0c-10 0-19-4-26-11c-7-7-11-16-11-26l0-365c0-10 4-19 11-26c7-7 16-11 26-11l36 0l0-27c0-13 5-24 14-33c9-9 20-13 32-13l18 0c13 0 24 4 33 13c9 9 13 20 13 33l0 27l110 0l0-27c0-13 4-24 13-33c9-9 20-13 33-13l18 0c12 0 23 4 32 13c9 9 14 20 14 33l0 27l36 0c10 0 19 4 26 11c7 7 11 16 11 26z" fill="#0e2b51" />
</svg>