<?xml version="1.0" encoding="utf-8"?>
<svg id="icon-delete-circle" viewBox="0 0 512 512" width="112" height="112" xmlns="http://www.w3.org/2000/svg">
  <path d="m365 321c0-5-2-10-6-13l-51-52l51-52c4-3 6-8 6-13c0-5-2-9-6-13l-25-25c-4-4-8-6-13-6c-5 0-10 2-13 6l-52 51l-52-51c-3-4-8-6-13-6c-5 0-9 2-13 6l-25 25c-4 4-6 8-6 13c0 5 2 10 6 13l51 52l-51 52c-4 3-6 8-6 13c0 5 2 9 6 13l25 25c4 4 8 6 13 6c5 0 10-2 13-6l52-51l52 51c3 4 8 6 13 6c5 0 9-2 13-6l25-25c4-4 6-8 6-13z m110-65c0 40-9 77-29 110c-20 34-46 60-80 80c-33 20-70 29-110 29c-40 0-77-9-110-29c-34-20-60-46-80-80c-20-33-29-70-29-110c0-40 9-77 29-110c20-34 46-60 80-80c33-20 70-29 110-29c40 0 77 9 110 29c34 20 60 46 80 80c20 33 29 70 29 110z" fill="#0e2b51" />
</svg>