<?xml version="1.0" encoding="utf-8"?>
<svg id="icon-shop-share" viewBox="0 0 512 512" width="112" height="112" xmlns="http://www.w3.org/2000/svg">
  <path d="m140 138l-34-29c0-1 0-3 0-4 0-20-17-37-37-37-20 0-37 17-37 37 0 21 17 37 37 37 2 0 4 0 6-1l23 23 42 190 294 0 31-216-325 0z m34 181c-16 0-28-13-28-29 0-15 12-28 28-28 16 0 29 13 29 28 0 16-13 29-29 29z m0-79c-16 0-28-13-28-29 0-16 12-29 28-29 16 0 29 13 29 29 0 16-13 29-29 29z m74 79c-16 0-29-13-29-29 0-15 13-28 29-28 16 0 29 13 29 28 0 16-13 29-29 29z m0-79c-16 0-29-13-29-29 0-16 13-29 29-29 16 0 29 13 29 29 0 16-13 29-29 29z m74 79c-16 0-29-13-29-29 0-15 13-28 29-28 16 0 29 13 29 28 0 16-13 29-29 29z m0-79c-16 0-29-13-29-29 0-16 13-29 29-29 16 0 29 13 29 29 0 16-13 29-29 29z m74 79c-16 0-29-13-29-29 0-15 13-28 29-28 16 0 29 13 29 28 0 16-13 29-29 29z m0-79c-16 0-29-13-29-29 0-16 13-29 29-29 16 0 29 13 29 29 0 16-13 29-29 29z m-170 173c0 19-15 34-34 34-19 0-34-15-34-34 0-19 15-34 34-34 19 0 34 15 34 34z m182 0c0 19-15 34-34 34-19 0-34-15-34-34 0-19 15-34 34-34 19 0 34 15 34 34z" fill="#0e2b51" />
</svg>