<?xml version="1.0" encoding="utf-8"?>
<svg id="icon-twitter" viewBox="0 0 512 512" width="112" height="112" xmlns="http://www.w3.org/2000/svg">
  <path d="m481 117c-13 18-28 34-46 47c0 3 0 7 0 12c0 25-3 50-11 74c-7 25-18 49-33 71c-14 23-32 43-52 61c-21 17-45 31-74 41c-29 11-60 16-92 16c-52 0-99-14-142-42c7 1 14 2 22 2c43 0 81-14 115-40c-20 0-38-6-54-18c-16-12-27-27-33-46c7 1 13 2 18 2c8 0 16-1 24-4c-21-4-39-15-53-31c-14-17-21-37-21-59l0-1c13 7 27 11 42 11c-13-8-23-19-30-32c-8-14-11-29-11-44c0-17 4-33 12-47c23 28 51 51 84 68c33 17 69 27 107 29c-2-8-3-15-3-22c0-25 9-47 27-65c18-18 40-27 66-27c26 0 49 10 67 29c21-4 40-11 59-22c-7 22-21 39-41 51c18-2 35-7 53-14z" fill="#0e2b51" />
</svg>