<?xml version="1.0" encoding="utf-8"?>
<svg id="icon-wind-rain-black" viewBox="0 0 512 512" width="112" height="112" xmlns="http://www.w3.org/2000/svg">
  <path d="m417 71c-24-25-57-39-92-39c-34 0-67 14-91 39c-53 2-95 46-95 99c0 55 44 100 99 100c6 0 12 0 18-1c20 13 45 20 69 20c25 0 49-7 70-20c6 1 12 1 17 1c55 0 100-45 100-100c0-53-42-97-95-99z m-273 186l-128 0c-9 0-16 7-16 16c0 9 7 16 16 16l128 0c9 0 16-7 16-16c0-9-7-16-16-16z m-128-32l64 0c9 0 16-7 16-16c0-9-7-16-16-16l-64 0c-9 0-16 7-16 16c0 9 7 16 16 16z m32-64l64 0c9 0 16-7 16-16c0-9-7-16-16-16l-64 0c-9 0-16 7-16 16c0 9 7 16 16 16z m176 223c0 18 14 32 32 32c18 0 32-14 32-32c0-18-32-64-32-64c0 0-32 46-32 64z m128 64c0 18 14 32 32 32c18 0 32-14 32-32c0-18-32-64-32-64c0 0-32 46-32 64z" fill="#0e2b51" />
</svg>