<?xml version="1.0" encoding="utf-8"?>
<svg id="icon-sun-half" viewBox="0 0 512 512" width="112" height="112" xmlns="http://www.w3.org/2000/svg">
  <path d="m271 127c9 0 16-7 16-16l0-32c0-9-7-16-16-16c-9 0-16 7-16 16l0 32c0 9 7 16 16 16z m0 288c-9 0-16 7-16 16l0 32c0 9 7 16 16 16c9 0 16-7 16-16l0-32c0-9-7-16-16-16z m-124-42l-23 22c-6 7-6 17 0 23c6 6 16 6 23 0l22-23c6-6 6-16 0-22c-6-6-16-6-22 0z m-20-102c0-9-7-16-16-16l-32 0c-9 0-16 7-16 16c0 9 7 16 16 16l32 0c9 0 16-7 16-16z m20-102c6 6 16 6 22 0c6-6 6-16 0-22l-22-23c-7-6-17-6-23 0c-6 6-6 16 0 23z m188-10c-11 0-22 2-32 5c-10-3-21-5-32-5c-62 0-112 50-112 112c0 62 50 112 112 112c11 0 22-2 32-5c10 3 21 5 32 5c62 0 112-50 112-112c0-62-50-112-112-112z m-80 190c-36-7-64-39-64-78c0-39 28-71 64-78c-20 20-32 47-32 78c0 31 12 58 32 78z" fill="#0e2b51" />
</svg>