<?xml version="1.0" encoding="utf-8"?>
<svg id="icon-sustainability" viewBox="0 0 512 512" width="112" height="112" xmlns="http://www.w3.org/2000/svg">
  <path d="m205 404c114-35 154-321-168-320-36 88-73 286 135 330 11-82-13-192-55-245 82 50 100 192 88 235z m243-242c76 208-47 239-111 246 3-49 37-130 64-175-47 35-91 110-108 154-33-35-117-151 155-225m19-37l-27 7c-64 18-114 38-149 63-33 23-54 50-63 80-8 27-5 55 8 83 10 22 24 39 34 50l34 35 1-2 0 1 35-3c67-7 114-31 140-73 15-25 23-55 23-89 0-36-9-78-26-125z" fill="#0e2b51" />
</svg>