<?xml version="1.0" encoding="utf-8"?>
<svg id="icon-as-listens" viewBox="0 0 512 512" width="112" height="112" xmlns="http://www.w3.org/2000/svg">
  <path d="m169 98c-82-5-154 42-158 102-4 72 47 119 116 135 5 1 9 4 11 8 8 9 17 28-8 51 72-24 172-65 179-166 5-78-57-125-140-130z m196 66c30 0 59 10 80 26 20 16 31 35 31 55 1 40-20 59-84 76-13 4-28 17-34 23-6 7-10 16-12 26-22-8-43-16-61-28-27-19-41-43-43-75-5-69 55-98 112-102 4 0 7-1 11-1m0-27c-4 0-8 0-12 0-83 6-144 53-139 132 7 100 106 122 178 146-28-22-20-44-12-54 3-3 14-11 18-13 63-16 107-40 106-103-2-58-62-108-139-108z" fill="#0e2b51" />
</svg>