<?xml version="1.0" encoding="utf-8"?>
<svg id="icon-exclamation-circle" viewBox="0 0 512 512" width="112" height="112" xmlns="http://www.w3.org/2000/svg">
  <path d="m256 37c40 0 77 9 110 29c34 20 60 46 80 80c20 33 29 70 29 110c0 40-9 77-29 110c-20 34-46 60-80 80c-33 20-70 29-110 29c-40 0-77-9-110-29c-34-20-60-46-80-80c-20-33-29-70-29-110c0-40 9-77 29-110c20-34 46-60 80-80c33-20 70-29 110-29z m37 356l0-54c0-3-1-5-3-7c-2-2-4-3-6-3l-55 0c-3 0-5 1-7 3c-2 2-3 4-3 7l0 54c0 2 1 5 3 6c2 2 4 3 7 3l55 0c2 0 4-1 6-2c2-2 3-4 3-7z m-1-98l5-178c0-2-1-4-3-5c-2-2-4-2-7-2l-62 0c-3 0-5 0-7 2c-2 1-3 3-3 5l5 178c0 1 1 3 3 5c1 1 4 2 6 2l53 0c3 0 5-1 7-2c2-2 3-4 3-5z" fill="#0e2b51" />
</svg>