<?xml version="1.0" encoding="utf-8"?>
<svg id="icon-exclamation-triangle" viewBox="0 0 512 512" width="112" height="112" xmlns="http://www.w3.org/2000/svg">
  <path d="m293 393l0-54c0-3-1-5-3-7c-2-2-4-3-7-3l-54 0c-3 0-5 1-7 3c-2 2-3 4-3 7l0 54c0 3 1 5 3 7c2 1 4 2 7 2l54 0c3 0 5-1 7-2c2-2 3-4 3-7z m-1-107l5-131c0-2-1-4-3-6c-2-2-4-3-7-3l-62 0c-3 0-5 1-7 3c-2 2-3 4-3 6l5 131c0 2 1 3 3 5c1 1 4 2 6 2l53 0c3 0 5-1 7-2c2-2 3-3 3-5z m-4-267l219 402c7 12 7 24 0 36c-3 6-8 10-13 14c-6 3-12 4-19 4l-438 0c-7 0-13-1-19-4c-5-4-10-8-13-14c-7-12-7-24 0-36l219-402c3-6 8-10 13-14c6-3 12-5 19-5c7 0 13 2 19 5c5 4 10 8 13 14z" fill="#0e2b51" />
</svg>