<?xml version="1.0" encoding="utf-8"?>
<svg id="icon-lightning-2" viewBox="0 0 512 512" width="112" height="112" xmlns="http://www.w3.org/2000/svg">
  <path d="m512 135c0-49-40-89-89-89c-3 0-5 0-7 0c-23-29-58-46-96-46c-38 0-73 17-96 46c-2 0-4 0-7 0c-49 0-89 40-89 89c0 5 1 10 2 15c-1 1-2 1-2 2c-5-1-11-1-16-1c-62 0-112 50-112 112c0 62 50 112 112 112c14 0 27-3 40-7c18 16 40 26 63 33l-23 15l32 32l-32 64l96-64l-32-32l5-10c37-1 72-14 99-38c13 4 26 7 40 7c62 0 112-50 112-112c0-26-9-49-24-68c15-16 24-37 24-60z m-112 208c-17 0-33-6-46-15c-19 23-46 39-76 44l-24 3c-39-1-73-19-96-47c-13 9-29 15-46 15c-44 0-80-36-80-80c0-44 36-80 80-80c11 0 21 2 30 6c1-1 2-2 2-3c6-10 13-20 21-28c23-24 55-39 91-39c50 0 92 29 114 70c5-2 11-4 17-5l13-1c12 0 24 3 34 8c12 5 21 13 29 23c10 14 17 30 17 49c0 44-36 80-80 80z m66-171c-19-13-41-21-66-21c-5 0-11 0-16 1c-30-41-77-65-128-65c-34 0-66 11-93 30c8-23 29-39 54-39c8 0 15 1 22 4c15-30 46-50 81-50c36 0 66 20 81 50c7-3 14-4 22-4c31 0 57 25 57 57c0 14-6 27-14 37z" fill="#0e2b51" />
</svg>