<?xml version="1.0" encoding="utf-8"?>
<svg id="icon-briefcase-case" viewBox="0 0 512 512" width="112" height="112" xmlns="http://www.w3.org/2000/svg">
  <path d="m183 110l146 0l0-37l-146 0z m-101 0l0 365l-18 0c-18 0-33-6-45-18c-13-13-19-28-19-46l0-237c0-18 6-33 19-45c12-13 27-19 45-19z m320 0l0 365l-292 0l0-365l36 0l0-46c0-8 3-14 8-19c6-6 12-8 20-8l164 0c8 0 14 2 20 8c5 5 8 11 8 19l0 46z m110 64l0 237c0 18-6 33-19 46c-12 12-27 18-45 18l-18 0l0-365l18 0c18 0 33 6 45 19c13 12 19 27 19 45z" fill="#0e2b51" />
</svg>