<?xml version="1.0" encoding="utf-8"?>
<svg id="icon-cloud-moon-black" viewBox="0 0 512 512" width="112" height="112" xmlns="http://www.w3.org/2000/svg">
  <path d="m435 262c5-3 10-7 14-11c14-14 24-30 30-48c2-6 1-13-4-17c-4-4-10-6-16-4c-36 13-74 4-100-22c-26-26-35-64-22-100c2-6 0-12-4-16c-5-5-11-6-17-4c-18 6-34 16-48 30c-33 33-44 81-32 123c-43 6-82 29-108 64c-5-1-11-1-16-1c-62 0-112 50-112 112c0 62 50 112 112 112c14 0 27-2 40-7c29 25 66 39 104 39c39 0 75-14 104-39c13 5 26 7 40 7c62 0 112-50 112-112c0-49-32-91-77-106z m-144-170c2-2 5-5 8-7c-2 36 11 71 37 98c27 26 62 39 98 37c-14 17-33 28-53 33c-28-35-68-57-112-60c-12-34-5-74 22-101z" fill="#0e2b51" />
</svg>