<?xml version="1.0" encoding="utf-8"?>
<svg id="icon-snow-black-2" viewBox="0 0 512 512" width="112" height="112" xmlns="http://www.w3.org/2000/svg">
  <path d="m326 444l-18-11c1-3 1-6 1-9c0-4 0-7-1-10l18-10c8-5 11-16 7-24c-5-9-16-12-25-7l-18 11c-5-5-10-8-16-10l0-21c0-10-8-18-18-18c-10 0-18 8-18 18l0 21c-6 2-11 5-16 10l-18-11c-9-5-20-2-24 7c-5 8-2 19 6 24l18 10c-1 3-1 6-1 10c0 3 0 6 1 9l-18 11c-8 5-11 15-6 24c4 8 15 11 24 6l18-10c5 4 10 7 16 9l0 21c0 10 8 18 18 18c10 0 18-8 18-18l0-21c6-2 11-5 16-9l18 10c9 5 20 2 25-6c4-9 2-19-7-24z m-70-3c-10 0-18-8-18-17c0-10 8-18 18-18c10 0 18 8 18 18c0 9-8 17-18 17z m218-45l-12-3c0-4-1-7-3-11l9-9c4-4 4-10 0-15c-4-4-11-4-15 0l-9 9c-3-1-7-2-11-3l-3-12c-1-5-7-9-13-7c-5 1-9 7-7 13l3 12c-1 1-3 2-4 3c-2 2-3 3-4 5l-12-3c-6-2-11 1-13 7c-1 6 2 11 8 13l12 3c0 4 1 8 3 11l-9 9c-4 4-4 11 0 15c4 4 11 4 15 0l8-9c4 2 8 3 11 3l4 12c1 5 7 9 12 7c6-1 9-7 8-13l-3-12c1-1 3-2 4-3c2-2 3-3 4-5l12 4c5 1 11-2 13-8c1-5-2-11-8-13z m-36 7c-4 4-10 4-15 0c-4-4-4-11 0-15c5-4 11-4 15 0c4 4 4 11 0 15z m-319-60l-12 3c-1-2-2-3-4-5c-1-1-2-2-4-3l3-12c2-6-2-12-7-13c-6-2-12 2-13 7l-3 12c-4 1-8 2-11 3l-9-9c-4-4-11-4-15 0c-4 5-4 11 0 15l9 9c-2 4-3 7-3 11l-12 3c-6 2-9 8-8 13c2 6 8 9 13 8l12-4c1 2 2 3 4 5c1 1 3 2 4 3l-3 12c-1 6 2 12 8 13c5 2 11-2 12-7l4-12c3 0 7-1 11-3l8 9c5 4 11 4 15 0c4-4 4-11 0-15l-9-9c2-3 3-7 3-11l12-3c6-2 9-7 8-13c-2-6-7-9-13-7z m-30 28c-5 4-11 4-15 0c-4-4-4-11 0-15c4-4 10-4 15 0c4 4 4 11 0 15z m423-195c0-62-50-112-112-112c-5 0-11 0-16 1c-30-41-77-65-128-65c-51 0-98 24-128 65c-5-1-11-1-16-1c-62 0-112 50-112 112c0 62 50 112 112 112c14 0 27-2 40-7c29 25 66 39 104 39c39 0 75-14 104-39c13 5 26 7 40 7c62 0 112-50 112-112z" fill="#0e2b51" />
</svg>