<?xml version="1.0" encoding="utf-8"?>
<svg id="icon-heart" viewBox="0 0 512 512" width="112" height="112" xmlns="http://www.w3.org/2000/svg">
  <path d="m256 475c-5 0-9-1-13-5l-178-172c-2-1-4-4-8-7c-3-4-8-10-16-19c-7-9-13-18-19-28c-6-9-11-21-15-34c-5-14-7-27-7-40c0-42 12-74 36-98c24-24 58-35 101-35c11 0 23 2 36 6c12 4 23 9 34 16c11 7 20 14 27 20c8 6 15 12 22 19c7-7 14-13 22-19c7-6 16-13 27-20c11-7 22-12 34-16c13-4 25-6 36-6c43 0 77 11 101 35c24 24 36 56 36 98c0 42-22 85-65 129l-178 171c-4 4-8 5-13 5z" fill="#0e2b51" />
</svg>