<?xml version="1.0" encoding="utf-8"?>
<!-- Generator: Adobe Illustrator 17.0.1, SVG Export Plug-In . SVG Version: 6.00 Build 0)  -->
<!DOCTYPE svg PUBLIC "-//W3C//DTD SVG 1.1//EN" "http://www.w3.org/Graphics/SVG/1.1/DTD/svg11.dtd">
<svg version="1.1" id="Layer_1" xmlns="http://www.w3.org/2000/svg" xmlns:xlink="http://www.w3.org/1999/xlink" x="0px" y="0px"
	 width="25px" height="25px" viewBox="37.5 37.5 25 25" enable-background="new 37.5 37.5 25 25" xml:space="preserve">
<g id="Layer_1_1_">
	<g id="Your_Icon_5_" display="none">
		<path display="inline" fill="#D8ABAB" d="M-1267.884,144.668c0,0-8.967,3.996-19.243,12.44
			c52.209-111.246,115.955-106.726,115.955-106.726c-139.741-40.174-170.615,29.209-172.28,93.573
			c-27.52-58.156-82.941-111.055-193.354-55.278c0,0,90.409,7.683,160.934,71.048c-149.802-71.904-148.209,142.31-148.209,142.31
			c35.607-74.83,94.453-95.214,138.1-99.091c-1.784,3.235-2.759,6.731-2.759,10.466c0,11.441,9.205,21.169,22.216,25.26
			c-45.431,53.256-47.643,122.33-40.983,166.072c9.943,65.363,27.829,95.357,27.829,95.357h96.57c0,0-30.969-45.954-48.547-102.564
			c-16.84-54.184-7.516-100.494,12.178-135.364c6.256,3.449,13.653,5.494,21.621,5.494c22.382,0,40.507-15.651,40.507-35.013
			c0-9.942-4.828-18.862-12.511-25.26c4.876-0.904,103.753-14.795,131.559,87.46
			C-1108.234,288.571-1106.664,90.318-1267.884,144.668z"/>
	</g>
	<g>
		<path id="_x3C_Path_x3E__6_" d="M45.942,43.103c-3.83-0.238-7.159,1.95-7.326,4.757c-0.214,3.354,2.188,5.542,5.376,6.279
			c0.214,0.048,0.404,0.166,0.523,0.333c0.357,0.428,0.761,1.308-0.381,2.402c3.354-1.142,7.992-3.021,8.301-7.707
			C52.674,45.506,49.796,43.341,45.942,43.103z"/>
		<path id="_x3C_Path_x3E__3_" d="M55.052,46.195c1.403,0,2.735,0.428,3.734,1.213c0.904,0.714,1.403,1.617,1.427,2.521
			c0.048,1.855-0.952,2.735-3.925,3.52c-0.595,0.19-1.308,0.809-1.546,1.07c-0.285,0.357-0.499,0.785-0.595,1.237
			c-1.023-0.357-1.998-0.761-2.807-1.332c-1.261-0.88-1.903-1.974-2.022-3.473c-0.214-3.211,2.569-4.543,5.233-4.733
			C54.719,46.219,54.886,46.195,55.052,46.195 M55.052,44.911c-0.19,0-0.381,0-0.571,0.024c-3.829,0.262-6.684,2.45-6.446,6.113
			c0.333,4.662,4.924,5.661,8.277,6.779c-1.332-1.023-0.928-2.046-0.571-2.474c0.143-0.166,0.642-0.547,0.856-0.618
			c2.926-0.761,4.971-1.879,4.9-4.805C61.427,47.242,58.62,44.911,55.052,44.911L55.052,44.911z"/>
	</g>
</g>
<g id="Layer_2">
</g>
</svg>
