<?xml version="1.0" encoding="utf-8"?>
<!-- Generator: Adobe Illustrator 17.0.1, SVG Export Plug-In . SVG Version: 6.00 Build 0)  -->
<!DOCTYPE svg PUBLIC "-//W3C//DTD SVG 1.1//EN" "http://www.w3.org/Graphics/SVG/1.1/DTD/svg11.dtd">
<svg version="1.1" id="Layer_1" xmlns="http://www.w3.org/2000/svg" xmlns:xlink="http://www.w3.org/1999/xlink" x="0px" y="0px"
	 width="25px" height="25px" viewBox="37.5 37.5 25 25" enable-background="new 37.5 37.5 25 25" xml:space="preserve">
<g id="Your_Icon_5_" display="none">
	<path display="inline" fill="#D8ABAB" d="M-2875.9,223.05c0,0-18.85,8.4-40.45,26.15C-2806.6,15.35-2672.6,24.85-2672.6,24.85
		c-293.75-84.45-358.65,61.4-362.15,196.7C-3092.6,99.3-3209.1-11.9-3441.2,105.35c0,0,190.05,16.15,338.3,149.35
		c-314.95-151.2-311.6,299.15-311.6,299.15c74.85-157.3,198.55-200.15,290.3-208.3c-3.75,6.8-5.8,14.15-5.8,22
		c0,24.05,19.35,44.5,46.7,53.1c-95.5,111.95-100.15,257.15-86.15,349.1c20.9,137.4,58.5,200.45,58.5,200.45h203
		c0,0-65.1-96.6-102.05-215.6c-35.4-113.9-15.8-211.25,25.6-284.55c13.15,7.25,28.7,11.55,45.45,11.55
		c47.05,0,85.15-32.9,85.15-73.6c0-20.9-10.15-39.65-26.3-53.1c10.25-1.9,218.1-31.1,276.55,183.85
		C-2540.3,525.55-2537,108.8-2875.9,223.05z"/>
</g>
<g>
	<path d="M40,57.596h20V43.404H40C40,43.404,40,57.596,40,57.596z M43.4,56.139l4.667-5.047l0.845,0.633l0.021,0.021
		c0.338,0.211,0.697,0.338,1.077,0.338s0.76-0.106,1.077-0.338l0.021-0.021l0.845-0.633l4.667,5.026H43.4V56.139z M58.564,56.139
		h-0.465l0.042-0.042l-5.238-5.681l5.66-4.245V56.139z M57.909,44.84l-7.645,5.745c-0.148,0.106-0.359,0.106-0.507,0l-7.645-5.745
		H57.909z M41.457,46.171l5.66,4.245l-5.259,5.681l0.042,0.042h-0.444L41.457,46.171L41.457,46.171z"/>
</g>
</svg>
