<?xml version="1.0" encoding="utf-8"?>
<!-- Generator: Adobe Illustrator 17.0.1, SVG Export Plug-In . SVG Version: 6.00 Build 0)  -->
<!DOCTYPE svg PUBLIC "-//W3C//DTD SVG 1.1//EN" "http://www.w3.org/Graphics/SVG/1.1/DTD/svg11.dtd">
<svg version="1.1" id="Capa_1" xmlns="http://www.w3.org/2000/svg" xmlns:xlink="http://www.w3.org/1999/xlink" x="0px" y="0px"
	 width="25px" height="25px" viewBox="37.5 37.5 25 25" enable-background="new 37.5 37.5 25 25" xml:space="preserve">
<g>
	<path d="M55.857,51.312h-0.714c-0.104,0-0.19,0.033-0.257,0.101c-0.067,0.067-0.101,0.152-0.101,0.257v3.571
		c0,0.491-0.175,0.911-0.524,1.261s-0.77,0.524-1.261,0.524h-9.285c-0.491,0-0.911-0.175-1.261-0.524
		c-0.35-0.35-0.524-0.77-0.524-1.261v-9.286c0-0.491,0.175-0.911,0.524-1.261c0.35-0.35,0.77-0.525,1.261-0.525h7.857
		c0.104,0,0.19-0.034,0.257-0.1c0.067-0.067,0.1-0.153,0.1-0.257v-0.715c0-0.104-0.033-0.19-0.1-0.256
		c-0.067-0.067-0.152-0.1-0.257-0.1h-7.857c-0.885,0-1.642,0.315-2.271,0.943c-0.629,0.629-0.943,1.386-0.943,2.271v9.286
		c0,0.885,0.314,1.642,0.943,2.271c0.629,0.629,1.386,0.943,2.271,0.943H53c0.885,0,1.642-0.315,2.271-0.943
		c0.629-0.628,0.943-1.385,0.943-2.271v-3.571c0-0.104-0.033-0.19-0.101-0.257C56.047,51.345,55.961,51.312,55.857,51.312z"/>
	<path d="M60.288,41.524c-0.141-0.141-0.309-0.212-0.502-0.212h-5.714c-0.193,0-0.361,0.071-0.502,0.212
		c-0.141,0.141-0.212,0.309-0.212,0.502c0,0.193,0.071,0.361,0.212,0.502l1.964,1.964l-7.277,7.277
		c-0.075,0.074-0.112,0.16-0.112,0.257c0,0.097,0.037,0.182,0.112,0.257l1.272,1.272c0.074,0.074,0.16,0.112,0.257,0.112
		c0.097,0,0.182-0.037,0.257-0.112l7.277-7.277l1.964,1.964c0.141,0.141,0.309,0.212,0.502,0.212c0.193,0,0.361-0.071,0.502-0.212
		c0.142-0.141,0.212-0.309,0.212-0.502v-5.715C60.5,41.833,60.429,41.665,60.288,41.524z"/>
</g>
</svg>
