<?xml version="1.0" encoding="utf-8"?>
<!-- Generator: Adobe Illustrator 17.0.1, SVG Export Plug-In . SVG Version: 6.00 Build 0)  -->
<!DOCTYPE svg PUBLIC "-//W3C//DTD SVG 1.1//EN" "http://www.w3.org/Graphics/SVG/1.1/DTD/svg11.dtd">
<svg version="1.1" id="Capa_1" xmlns="http://www.w3.org/2000/svg" xmlns:xlink="http://www.w3.org/1999/xlink" x="0px" y="0px"
	 width="25px" height="25px" viewBox="37.5 37.5 25 25" enable-background="new 37.5 37.5 25 25" xml:space="preserve">
<g>
	<path d="M53.51,54.271c-0.212-0.285-0.447-0.549-0.703-0.793c-0.256-0.244-0.513-0.467-0.769-0.667
		c-0.256-0.2-0.491-0.393-0.703-0.577c-0.212-0.184-0.385-0.377-0.517-0.577c-0.132-0.2-0.198-0.405-0.198-0.613
		c0-0.289,0.092-0.559,0.276-0.811c0.184-0.252,0.409-0.497,0.673-0.733s0.529-0.495,0.793-0.775s0.489-0.651,0.673-1.112
		c0.184-0.461,0.276-0.988,0.276-1.581c0-0.705-0.156-1.382-0.469-2.032c-0.312-0.649-0.753-1.154-1.322-1.515h1.623l1.623-0.95
		h-5.252c-0.745,0-1.494,0.08-2.248,0.241c-1.114,0.248-2.051,0.815-2.813,1.701s-1.142,1.889-1.142,3.011
		c0,1.186,0.427,2.172,1.28,2.957c0.853,0.785,1.877,1.178,3.071,1.178c0.24,0,0.521-0.02,0.842-0.06
		c-0.016,0.064-0.044,0.15-0.084,0.258c-0.04,0.108-0.072,0.194-0.096,0.258c-0.024,0.064-0.044,0.142-0.06,0.234
		c-0.016,0.092-0.024,0.186-0.024,0.283c0,0.529,0.256,1.126,0.769,1.791c-0.609,0.016-1.21,0.07-1.803,0.162
		c-0.593,0.092-1.214,0.236-1.863,0.433c-0.649,0.196-1.23,0.481-1.743,0.853c-0.513,0.373-0.898,0.815-1.154,1.328
		c-0.297,0.593-0.445,1.134-0.445,1.623c0,0.537,0.12,1.024,0.361,1.461c0.24,0.437,0.549,0.793,0.925,1.07
		c0.377,0.277,0.811,0.509,1.304,0.698c0.493,0.188,0.981,0.323,1.466,0.403s0.963,0.12,1.436,0.12c2.147,0,3.83-0.525,5.048-1.574
		c1.122-0.978,1.683-2.108,1.683-3.39c0-0.457-0.066-0.883-0.199-1.28C53.895,54.896,53.723,54.556,53.51,54.271z M48.876,49.902
		c-0.409,0-0.797-0.104-1.166-0.312c-0.369-0.208-0.681-0.479-0.938-0.811c-0.256-0.333-0.481-0.707-0.673-1.124
		c-0.192-0.417-0.334-0.833-0.427-1.25c-0.092-0.417-0.138-0.813-0.138-1.19c0-0.769,0.204-1.43,0.613-1.983
		s0.986-0.829,1.731-0.829c0.529,0,1.008,0.164,1.436,0.493s0.765,0.745,1.01,1.25c0.244,0.505,0.433,1.028,0.565,1.569
		c0.132,0.541,0.198,1.052,0.198,1.533c0,0.801-0.174,1.445-0.523,1.93C50.217,49.66,49.654,49.902,48.876,49.902z M52.2,58.929
		c-0.22,0.377-0.519,0.671-0.896,0.883c-0.377,0.212-0.779,0.369-1.208,0.469c-0.429,0.1-0.879,0.15-1.352,0.15
		c-0.513,0-1.022-0.06-1.527-0.18c-0.505-0.12-0.988-0.303-1.448-0.547c-0.461-0.244-0.834-0.581-1.118-1.01
		c-0.284-0.428-0.427-0.916-0.427-1.461c0-0.481,0.108-0.909,0.325-1.286s0.493-0.677,0.829-0.901
		c0.336-0.225,0.729-0.409,1.178-0.553c0.449-0.144,0.881-0.244,1.298-0.301c0.417-0.056,0.842-0.084,1.274-0.084
		c0.264,0,0.465,0.008,0.601,0.024c0.048,0.032,0.17,0.116,0.367,0.252c0.197,0.136,0.328,0.229,0.397,0.277
		c0.068,0.048,0.192,0.14,0.373,0.276c0.18,0.136,0.309,0.238,0.385,0.307c0.076,0.068,0.186,0.17,0.33,0.307
		c0.144,0.136,0.25,0.254,0.318,0.354c0.068,0.1,0.152,0.222,0.252,0.366c0.1,0.144,0.17,0.283,0.21,0.415
		c0.04,0.132,0.078,0.276,0.114,0.433c0.036,0.156,0.054,0.319,0.054,0.487C52.53,58.111,52.42,58.552,52.2,58.929z"/>
	<polygon points="58.925,44.613 58.925,41.536 57.386,41.536 57.386,44.613 54.309,44.613 54.309,46.152 57.386,46.152 
		57.386,49.229 58.925,49.229 58.925,46.152 62.002,46.152 62.002,44.613 	"/>
</g>
</svg>
