<?xml version="1.0" encoding="utf-8"?>
<!-- Generator: Adobe Illustrator 17.0.1, SVG Export Plug-In . SVG Version: 6.00 Build 0)  -->
<!DOCTYPE svg PUBLIC "-//W3C//DTD SVG 1.1//EN" "http://www.w3.org/Graphics/SVG/1.1/DTD/svg11.dtd">
<svg version="1.1" id="Capa_1" xmlns="http://www.w3.org/2000/svg" xmlns:xlink="http://www.w3.org/1999/xlink" x="0px" y="0px"
	 width="25px" height="25px" viewBox="37.5 37.5 25 25" enable-background="new 37.5 37.5 25 25" xml:space="preserve">
<path d="M59.582,42.314c-0.945-0.923-2.251-1.384-3.918-1.384c-0.461,0-0.932,0.08-1.412,0.24s-0.927,0.376-1.339,0.647
	c-0.413,0.272-0.768,0.527-1.066,0.764c-0.298,0.238-0.58,0.491-0.848,0.759c-0.268-0.268-0.551-0.521-0.848-0.759
	c-0.298-0.238-0.653-0.493-1.066-0.764s-0.859-0.487-1.339-0.647c-0.48-0.16-0.951-0.24-1.412-0.24
	c-1.667,0-2.972,0.461-3.918,1.384S41,44.516,41,46.153c0,0.498,0.087,1.012,0.262,1.54c0.175,0.528,0.374,0.979,0.597,1.35
	s0.476,0.735,0.759,1.088c0.283,0.354,0.489,0.597,0.619,0.731c0.13,0.134,0.232,0.231,0.307,0.29l6.964,6.719
	c0.134,0.134,0.298,0.201,0.491,0.201s0.357-0.067,0.491-0.201l6.953-6.697C60.148,49.471,61,47.797,61,46.153
	C61,44.516,60.527,43.236,59.582,42.314z M57.473,50.126L51,56.365l-6.484-6.25c-1.392-1.391-2.087-2.712-2.087-3.962
	c0-0.603,0.08-1.135,0.24-1.596c0.16-0.461,0.365-0.828,0.614-1.099c0.249-0.272,0.553-0.493,0.91-0.664
	c0.357-0.171,0.707-0.286,1.049-0.346c0.342-0.059,0.707-0.089,1.094-0.089c0.387,0,0.804,0.095,1.25,0.284
	c0.446,0.19,0.858,0.428,1.233,0.714c0.376,0.287,0.698,0.555,0.965,0.804c0.268,0.249,0.491,0.478,0.67,0.687
	c0.134,0.164,0.316,0.245,0.547,0.245c0.231,0,0.413-0.082,0.547-0.245c0.179-0.208,0.402-0.437,0.67-0.687
	c0.268-0.249,0.59-0.517,0.965-0.804c0.376-0.286,0.787-0.525,1.233-0.714c0.446-0.19,0.863-0.284,1.25-0.284
	c0.387,0,0.751,0.03,1.094,0.089c0.342,0.06,0.692,0.175,1.049,0.346c0.357,0.171,0.66,0.393,0.91,0.664
	c0.249,0.272,0.454,0.638,0.614,1.099c0.16,0.461,0.24,0.993,0.24,1.596C59.571,47.402,58.872,48.727,57.473,50.126z"/>
</svg>
