<?xml version="1.0" encoding="utf-8"?>
<!-- Generator: Adobe Illustrator 17.0.1, SVG Export Plug-In . SVG Version: 6.00 Build 0)  -->
<!DOCTYPE svg PUBLIC "-//W3C//DTD SVG 1.1//EN" "http://www.w3.org/Graphics/SVG/1.1/DTD/svg11.dtd">
<svg version="1.1" id="Capa_1" xmlns="http://www.w3.org/2000/svg" xmlns:xlink="http://www.w3.org/1999/xlink" x="0px" y="0px"
	 width="25px" height="25px" viewBox="37.5 37.5 25 25" enable-background="new 37.5 37.5 25 25" xml:space="preserve">
<path d="M60.245,40.255c-0.503-0.504-1.107-0.755-1.81-0.755h-14.87c-0.703,0-1.306,0.252-1.81,0.755
	C41.251,40.759,41,41.362,41,42.065v14.87c0,0.703,0.252,1.306,0.755,1.81c0.504,0.504,1.107,0.756,1.81,0.756h14.87
	c0.703,0,1.306-0.252,1.81-0.756C60.748,58.241,61,57.638,61,56.935v-14.87C61,41.362,60.748,40.759,60.245,40.255z M48.181,46.707
	c0.786-0.759,1.73-1.14,2.832-1.14c1.111,0,2.059,0.38,2.845,1.14c0.785,0.759,1.179,1.677,1.179,2.754
	c0,1.076-0.393,1.995-1.179,2.754c-0.786,0.759-1.734,1.14-2.845,1.14c-1.102,0-2.046-0.38-2.832-1.14s-1.179-1.677-1.179-2.754
	S47.395,47.467,48.181,46.707z M58.734,56.401c0,0.226-0.078,0.414-0.234,0.566c-0.157,0.152-0.343,0.228-0.56,0.228H44.021
	c-0.226,0-0.415-0.076-0.566-0.228c-0.152-0.152-0.228-0.341-0.228-0.566v-8.438h1.836c-0.174,0.547-0.26,1.116-0.26,1.706
	c0,1.667,0.608,3.088,1.823,4.265c1.216,1.176,2.678,1.764,4.388,1.764c1.128,0,2.17-0.269,3.125-0.807
	c0.955-0.539,1.71-1.27,2.266-2.194c0.556-0.925,0.833-1.934,0.833-3.028c0-0.59-0.087-1.159-0.261-1.706h1.758L58.734,56.401
	L58.734,56.401z M58.734,44.773c0,0.252-0.087,0.464-0.261,0.638c-0.174,0.174-0.386,0.261-0.638,0.261H55.57
	c-0.252,0-0.464-0.087-0.638-0.261c-0.174-0.174-0.26-0.386-0.26-0.638v-2.148c0-0.243,0.087-0.454,0.26-0.632
	c0.174-0.178,0.386-0.267,0.638-0.267h2.266c0.252,0,0.464,0.089,0.638,0.267c0.174,0.178,0.261,0.388,0.261,0.632V44.773z"/>
</svg>
