<?xml version="1.0" encoding="utf-8"?>
<!-- Generator: Adobe Illustrator 17.0.1, SVG Export Plug-In . SVG Version: 6.00 Build 0)  -->
<!DOCTYPE svg PUBLIC "-//W3C//DTD SVG 1.1//EN" "http://www.w3.org/Graphics/SVG/1.1/DTD/svg11.dtd">
<svg version="1.1" id="Capa_1" xmlns="http://www.w3.org/2000/svg" xmlns:xlink="http://www.w3.org/1999/xlink" x="0px" y="0px"
	 width="25px" height="25px" viewBox="37.5 37.5 25 25" enable-background="new 37.5 37.5 25 25" xml:space="preserve">
<g>
	<rect x="40.747" y="47.845" width="4.297" height="12.904"/>
	<path d="M59.145,49.024c-0.903-0.985-2.097-1.478-3.581-1.478c-0.547,0-1.044,0.067-1.491,0.202
		c-0.447,0.135-0.824,0.323-1.133,0.566c-0.308,0.243-0.553,0.469-0.735,0.677c-0.173,0.198-0.342,0.428-0.508,0.689v-1.835h-4.284
		l0.013,0.625c0.009,0.417,0.013,1.701,0.013,3.854c0,2.153-0.009,4.961-0.026,8.424h4.284v-7.201c0-0.443,0.048-0.794,0.143-1.055
		c0.183-0.443,0.458-0.814,0.827-1.113c0.369-0.3,0.827-0.449,1.374-0.449c0.747,0,1.296,0.258,1.647,0.775
		c0.352,0.517,0.527,1.23,0.527,2.142v6.901h4.284v-7.396C60.499,51.451,60.048,50.009,59.145,49.024z"/>
	<path d="M42.921,41.634c-0.72,0-1.304,0.211-1.751,0.632c-0.447,0.421-0.671,0.953-0.671,1.595c0,0.634,0.217,1.163,0.651,1.588
		c0.434,0.425,1.007,0.638,1.719,0.638h0.026c0.729,0,1.318-0.213,1.764-0.638c0.447-0.425,0.666-0.955,0.658-1.588
		c-0.009-0.642-0.23-1.174-0.664-1.595C44.219,41.844,43.642,41.634,42.921,41.634z"/>
</g>
</svg>
