<?xml version="1.0" encoding="utf-8"?>
<!-- Generator: Adobe Illustrator 17.0.1, SVG Export Plug-In . SVG Version: 6.00 Build 0)  -->
<!DOCTYPE svg PUBLIC "-//W3C//DTD SVG 1.1//EN" "http://www.w3.org/Graphics/SVG/1.1/DTD/svg11.dtd">
<svg version="1.1" id="Layer_1" xmlns="http://www.w3.org/2000/svg" xmlns:xlink="http://www.w3.org/1999/xlink" x="0px" y="0px"
	 width="25px" height="25px" viewBox="37.5 37.5 25 25" enable-background="new 37.5 37.5 25 25" xml:space="preserve">
<g id="Layer_1_1_">
	<g id="Your_Icon_5_" display="none">
		<path display="inline" fill="#D8ABAB" d="M-1182.753,150.51c0,0-7.526,4.254-16.149,13.241
			c43.815-118.414,97.312-113.604,97.312-113.604c-117.273-42.763-143.183,31.091-144.58,99.602
			c-23.095-61.903-69.605-118.212-162.266-58.84c0,0,75.873,8.178,135.058,75.626c-125.716-76.537-124.379,151.48-124.379,151.48
			c29.882-79.652,79.267-101.35,115.896-105.476c-1.497,3.443-2.316,7.165-2.316,11.14c0,12.178,7.725,22.533,18.644,26.888
			c-38.126,56.688-39.983,130.213-34.393,176.773c8.344,69.575,23.355,101.501,23.355,101.501h81.043
			c0,0-25.99-48.915-40.741-109.173c-14.133-57.675-6.308-106.97,10.22-144.087c5.25,3.671,11.458,5.849,18.145,5.849
			c18.784,0,33.994-16.66,33.994-37.269c0-10.583-4.052-20.078-10.5-26.888c4.092-0.962,87.071-15.748,110.406,93.096
			C-1048.772,303.686-1047.435,92.657-1182.753,150.51z"/>
	</g>
	<g>
		<path d="M47.965,57.085c0.439,0,0.659-0.481,0.659-0.481c-0.439-0.658-0.938-1.393-1.377-2.253
			c-0.499-0.988-0.938-2.127-1.158-3.494c0.259,0.279,0.659,0.633,1.218,1.038c1.417,1.013,2.316,1.089,2.316,1.089
			c-0.199-1.544-1.198-3.038-1.577-3.342c-0.379-0.279-0.798-0.354-1.198-0.304c0.259-0.177,0.539-0.405,0.838-0.658
			c1.237-1.063,1.836-2.228,1.836-2.228c-1.098-0.405-1.956-0.152-2.675,0.506c-0.379,0.329-0.719,0.785-0.978,1.342
			c-0.02-0.456-0.12-0.911-0.319-1.367c-0.199-0.431-1.158-1.798-1.936-1.773c0,0-0.08,1.266,0.599,2.836
			c0.08,0.203,0.18,0.38,0.259,0.557c-0.18-0.05-0.359-0.101-0.559-0.127c-0.459-0.05-1.996-0.025-2.874,1.063
			c0,0,0.779,0.608,2.395,0.785c0.22,0.025,0.419,0.05,0.599,0.05c-0.22,0.177-0.419,0.38-0.599,0.608
			c-0.619,0.81-0.958,1.848-0.838,3.291c0,0,0.998-0.557,2.056-1.949c0.339-0.456,0.599-0.861,0.818-1.215
			c0.08,1.393,0.319,2.582,0.659,3.57c0.259,0.759,0.559,1.393,0.898,1.899C47.066,56.604,47.326,57.085,47.965,57.085z"/>
		<path d="M51.478,56.401c-0.739,0-1.098-0.81-1.098-0.81c0.299-0.456,0.599-0.911,0.878-1.418c-0.479-0.05-0.978-0.101-1.477-0.101
			c-0.898,0-1.737,0.101-2.515,0.279c0.439,0.861,0.918,1.595,1.377,2.253c0,0-0.22,0.481-0.659,0.481
			c-0.639,0-0.918-0.481-0.918-0.481c-0.339-0.506-0.639-1.139-0.898-1.899c-1.717,0.658-2.834,1.772-2.834,3.013
			c0,2,12.915,2,12.915,0c0-1.342-1.258-2.507-3.154-3.14c-0.08,0.279-0.18,0.557-0.279,0.785
			C52.556,55.971,52.556,56.401,51.478,56.401z"/>
		<path d="M59.422,45.742c-0.998-1.266-2.795-1.291-3.313-1.241c-0.24,0.025-0.459,0.076-0.659,0.127
			c0.1-0.177,0.199-0.405,0.299-0.633c0.779-1.823,0.679-3.266,0.679-3.266c-0.878-0.025-1.996,1.544-2.236,2.051
			c-0.24,0.506-0.339,1.038-0.359,1.57c-0.279-0.633-0.679-1.164-1.118-1.544c-0.838-0.759-1.836-1.038-3.094-0.582
			c0,0,0.699,1.317,2.116,2.557c0.359,0.304,0.699,0.557,0.978,0.759c-0.479-0.076-0.958,0.025-1.397,0.354
			c-0.459,0.329-1.577,2.076-1.817,3.848c0,0,1.058-0.076,2.695-1.266c0.659-0.481,1.098-0.886,1.417-1.19
			c-0.359,2.355-1.198,4.785-2.355,6.861c-0.279,0.506-0.579,0.962-0.878,1.418c0,0,0.379,0.81,1.098,0.81
			c1.078,0,1.058-0.43,1.317-1.038c0.1-0.228,0.199-0.506,0.279-0.785c0.779-2.532,1.258-6.988,1.258-6.988s0.539,0.861,0.938,1.393
			c1.218,1.595,2.355,2.253,2.355,2.253c0.16-1.671-0.24-2.861-0.958-3.798c-0.199-0.253-0.439-0.506-0.699-0.709
			c0.199,0,0.439-0.025,0.679-0.05C58.524,46.426,59.422,45.742,59.422,45.742z"/>
	</g>
</g>
<g id="Layer_2">
</g>
</svg>
