<?xml version="1.0" encoding="utf-8"?>
<!-- Generator: Adobe Illustrator 17.0.1, SVG Export Plug-In . SVG Version: 6.00 Build 0)  -->
<!DOCTYPE svg PUBLIC "-//W3C//DTD SVG 1.1//EN" "http://www.w3.org/Graphics/SVG/1.1/DTD/svg11.dtd">
<svg version="1.1" id="Capa_1" xmlns="http://www.w3.org/2000/svg" xmlns:xlink="http://www.w3.org/1999/xlink" x="0px" y="0px"
	 width="25px" height="25px" viewBox="37.5 37.5 25 25" enable-background="new 37.5 37.5 25 25" xml:space="preserve">
<path d="M59.66,44.48c-0.894-1.532-2.107-2.745-3.639-3.64c-1.532-0.894-3.206-1.341-5.02-1.341s-3.488,0.447-5.02,1.341
	c-1.532,0.894-2.746,2.107-3.64,3.639c-0.894,1.532-1.342,3.206-1.342,5.02c0,2.023,0.551,3.859,1.654,5.508
	c1.103,1.649,2.548,2.869,4.336,3.659c-0.035-0.929,0.022-1.697,0.169-2.305l1.289-5.443c-0.217-0.425-0.326-0.955-0.326-1.589
	c0-0.738,0.186-1.354,0.56-1.849c0.373-0.495,0.829-0.742,1.368-0.742c0.434,0,0.768,0.143,1.003,0.43
	c0.235,0.286,0.351,0.647,0.351,1.081c0,0.269-0.05,0.597-0.15,0.983s-0.23,0.833-0.391,1.341c-0.16,0.508-0.276,0.914-0.345,1.217
	c-0.121,0.53-0.022,0.983,0.3,1.361c0.321,0.378,0.747,0.566,1.276,0.566c0.929,0,1.691-0.517,2.286-1.549
	c0.595-1.033,0.892-2.288,0.892-3.763c0-1.137-0.367-2.062-1.101-2.774c-0.734-0.712-1.756-1.068-3.067-1.068
	c-1.467,0-2.654,0.471-3.561,1.413c-0.907,0.942-1.361,2.069-1.361,3.379c0,0.781,0.222,1.437,0.664,1.967
	c0.147,0.174,0.195,0.36,0.143,0.56c-0.018,0.052-0.052,0.182-0.104,0.391c-0.052,0.208-0.087,0.343-0.104,0.404
	c-0.069,0.278-0.235,0.364-0.495,0.261c-0.668-0.277-1.176-0.76-1.524-1.446c-0.347-0.686-0.521-1.48-0.521-2.383
	c0-0.581,0.093-1.163,0.28-1.745c0.186-0.582,0.477-1.144,0.872-1.686c0.395-0.543,0.868-1.022,1.419-1.439
	c0.551-0.417,1.222-0.751,2.012-1.002s1.641-0.378,2.553-0.378c1.233,0,2.34,0.273,3.32,0.82c0.981,0.547,1.73,1.254,2.246,2.123
	c0.517,0.868,0.775,1.797,0.775,2.787c0,1.302-0.226,2.474-0.677,3.516c-0.451,1.041-1.089,1.86-1.914,2.454
	c-0.825,0.595-1.762,0.892-2.813,0.892c-0.529,0-1.024-0.124-1.485-0.371c-0.46-0.247-0.777-0.54-0.95-0.879
	c-0.391,1.536-0.625,2.452-0.703,2.747c-0.165,0.616-0.503,1.328-1.016,2.135c0.929,0.278,1.875,0.417,2.839,0.417
	c1.814,0,3.488-0.447,5.02-1.341c1.532-0.894,2.745-2.107,3.639-3.639c0.894-1.532,1.341-3.206,1.341-5.02
	C61,47.685,60.553,46.012,59.66,44.48z"/>
</svg>
