<?xml version="1.0" encoding="utf-8"?>
<!-- Generator: Adobe Illustrator 17.0.1, SVG Export Plug-In . SVG Version: 6.00 Build 0)  -->
<!DOCTYPE svg PUBLIC "-//W3C//DTD SVG 1.1//EN" "http://www.w3.org/Graphics/SVG/1.1/DTD/svg11.dtd">
<svg version="1.1" id="Capa_1" xmlns="http://www.w3.org/2000/svg" xmlns:xlink="http://www.w3.org/1999/xlink" x="0px" y="0px"
	 width="25px" height="25px" viewBox="37.5 37.5 25 25" enable-background="new 37.5 37.5 25 25" xml:space="preserve">
<path d="M59.65,41.6c-0.733-0.734-1.366-1.1-2.399-1.1l0,0h-12.5c-1.033,0-2.166,0.367-2.9,1.1c-0.734,0.734-1.35,1.617-1.35,2.65
	v12.5c0,1.033,0.617,1.916,1.35,2.65c0.734,0.734,1.867,1.1,2.9,1.1h2.383c-0.148-1-0.117-2.439,0.091-3.307l1.276-5.39
	c-0.208-0.425-0.313-0.951-0.313-1.576c0-0.72,0.184-1.326,0.553-1.816c0.369-0.491,0.818-0.736,1.348-0.736
	c0.425,0,0.753,0.141,0.983,0.423c0.23,0.282,0.345,0.636,0.345,1.061c0,0.269-0.048,0.593-0.143,0.97
	c-0.096,0.378-0.223,0.821-0.384,1.328c-0.16,0.508-0.276,0.909-0.345,1.204c-0.121,0.521-0.022,0.97,0.299,1.348
	s0.742,0.566,1.263,0.566c0.92,0,1.673-0.512,2.259-1.536c0.586-1.024,0.879-2.266,0.879-3.724c0-1.12-0.362-2.031-1.087-2.734
	c-0.725-0.703-1.734-1.055-3.027-1.055c-1.45,0-2.624,0.463-3.522,1.387c-0.898,0.924-1.348,2.038-1.348,3.34
	c0,0.764,0.217,1.415,0.651,1.953c0.147,0.165,0.195,0.347,0.143,0.547c-0.043,0.148-0.109,0.412-0.195,0.794
	c-0.035,0.122-0.098,0.204-0.189,0.247c-0.091,0.043-0.193,0.043-0.306,0c-0.668-0.277-1.174-0.755-1.517-1.432
	c-0.343-0.677-0.514-1.458-0.514-2.344c0-0.573,0.093-1.148,0.28-1.725c0.187-0.577,0.475-1.133,0.866-1.667
	c0.391-0.534,0.857-1.009,1.4-1.426c0.542-0.416,1.207-0.749,1.992-0.996c0.786-0.247,1.63-0.371,2.532-0.371
	c0.921,0,1.775,0.159,2.565,0.476c0.79,0.317,1.452,0.738,1.986,1.263c0.534,0.525,0.953,1.129,1.256,1.81
	c0.304,0.681,0.456,1.387,0.456,2.116c0,1.962-0.497,3.583-1.491,4.863c-0.994,1.28-2.276,1.921-3.847,1.921
	c-0.521,0-1.009-0.121-1.465-0.364c-0.455-0.243-0.775-0.534-0.957-0.872c-0.382,1.519-0.612,2.426-0.69,2.721
	c-0.2,0.764-0.668,1.734-1.406,2.734h9.44c1.033,0,1.666-0.366,2.399-1.1c0.734-0.734,0.85-1.616,0.85-2.649v-12.5
	C60.5,43.217,60.383,42.334,59.65,41.6z"/>
</svg>
