<?xml version="1.0" encoding="utf-8"?>
<!-- Generator: Adobe Illustrator 17.0.1, SVG Export Plug-In . SVG Version: 6.00 Build 0)  -->
<!DOCTYPE svg PUBLIC "-//W3C//DTD SVG 1.1//EN" "http://www.w3.org/Graphics/SVG/1.1/DTD/svg11.dtd">
<svg version="1.1" id="Capa_1" xmlns="http://www.w3.org/2000/svg" xmlns:xlink="http://www.w3.org/1999/xlink" x="0px" y="0px"
	 width="25px" height="25px" viewBox="37.5 37.5 25 25" enable-background="new 37.5 37.5 25 25" xml:space="preserve">
<g>
	<path d="M48.914,56.917H46.39V38.831c0-0.123-0.039-0.224-0.118-0.302c-0.079-0.079-0.179-0.118-0.302-0.118h-2.524
		c-0.123,0-0.224,0.039-0.302,0.118c-0.079,0.079-0.118,0.18-0.118,0.302v18.086h-2.524c-0.193,0-0.324,0.087-0.394,0.263
		c-0.07,0.166-0.039,0.32,0.092,0.46l4.206,4.206c0.096,0.079,0.197,0.118,0.302,0.118c0.114,0,0.215-0.039,0.302-0.118l4.193-4.193
		c0.088-0.105,0.132-0.211,0.132-0.315c0-0.123-0.039-0.224-0.118-0.303C49.137,56.957,49.036,56.917,48.914,56.917z"/>
	<path d="M56.629,51.87L56.629,51.87h-1.617l-2.524,2.432l1.078,1.13l0.815-0.762c0.158-0.158,0.272-0.294,0.342-0.408l0.092-0.158
		h0.026v0.21c0,0.044-0.002,0.118-0.007,0.224c-0.005,0.105-0.007,0.188-0.007,0.25v5.678h-2.195v1.498h6.165v-1.498H56.63
		L56.629,51.87L56.629,51.87z"/>
	<path d="M58.114,39.652c-0.719-0.828-1.617-1.242-2.695-1.242c-0.955,0-1.748,0.32-2.379,0.96c-0.631,0.64-0.946,1.419-0.946,2.34
		c0,0.885,0.293,1.641,0.881,2.267c0.588,0.627,1.345,0.94,2.274,0.94c0.386,0,0.756-0.062,1.111-0.184
		c0.355-0.123,0.624-0.285,0.809-0.486h0.026c-0.14,0.762-0.432,1.4-0.874,1.912c-0.442,0.513-1.032,0.769-1.768,0.769
		c-0.333,0-0.661-0.057-0.985-0.171c-0.14-0.035-0.276-0.083-0.408-0.145l-0.513,1.486c0.157,0.061,0.342,0.127,0.552,0.197
		c0.403,0.14,0.876,0.21,1.419,0.21c0.605,0,1.163-0.107,1.676-0.322c0.513-0.215,0.944-0.502,1.295-0.861
		c0.351-0.359,0.649-0.778,0.894-1.255c0.246-0.478,0.425-0.977,0.539-1.498c0.114-0.521,0.171-1.054,0.171-1.597
		C59.193,41.587,58.833,40.481,58.114,39.652z M56.892,43.103c-0.307,0.237-0.679,0.355-1.117,0.355
		c-0.596,0-1.054-0.166-1.374-0.499c-0.32-0.333-0.48-0.749-0.48-1.249s0.136-0.911,0.407-1.235s0.635-0.487,1.091-0.487
		c0.517,0,0.968,0.232,1.354,0.697c0.386,0.465,0.578,0.973,0.578,1.525C57.352,42.568,57.199,42.866,56.892,43.103z"/>
</g>
</svg>
