<?xml version="1.0" encoding="utf-8"?>
<!-- Generator: Adobe Illustrator 17.0.1, SVG Export Plug-In . SVG Version: 6.00 Build 0)  -->
<!DOCTYPE svg PUBLIC "-//W3C//DTD SVG 1.1//EN" "http://www.w3.org/Graphics/SVG/1.1/DTD/svg11.dtd">
<svg version="1.1" id="Capa_1" xmlns="http://www.w3.org/2000/svg" xmlns:xlink="http://www.w3.org/1999/xlink" x="0px" y="0px"
	 width="25px" height="25px" viewBox="37.5 37.5 25 25" enable-background="new 37.5 37.5 25 25" xml:space="preserve">
<path d="M59.982,40.202c-0.826-0.827-1.822-1.24-2.986-1.24H42.91c-1.164,0-2.159,0.414-2.986,1.24
	c-0.827,0.827-1.24,1.822-1.24,2.986v14.086c0,1.164,0.414,2.159,1.24,2.986c0.827,0.827,1.822,1.24,2.986,1.24h14.086
	c1.164,0,2.159-0.413,2.986-1.24c0.827-0.827,1.24-1.822,1.24-2.986V43.188C61.222,42.024,60.808,41.029,59.982,40.202z
	 M55.925,47.634c0.01,0.088,0.015,0.22,0.015,0.396c0,0.822-0.12,1.646-0.359,2.472c-0.24,0.827-0.607,1.619-1.1,2.377
	c-0.494,0.758-1.083,1.428-1.768,2.01c-0.685,0.582-1.506,1.047-2.465,1.394c-0.958,0.348-1.986,0.521-3.081,0.521
	c-1.702,0-3.277-0.46-4.725-1.379c0.235,0.029,0.479,0.044,0.734,0.044c1.418,0,2.695-0.44,3.83-1.321
	c-0.665-0.01-1.26-0.215-1.783-0.616c-0.523-0.401-0.888-0.91-1.093-1.526c0.254,0.039,0.445,0.058,0.572,0.058
	c0.215,0,0.465-0.039,0.748-0.117c-0.714-0.137-1.316-0.492-1.805-1.064c-0.489-0.572-0.734-1.225-0.734-1.959v-0.03
	c0.518,0.245,1.007,0.372,1.467,0.381c-0.89-0.597-1.335-1.453-1.335-2.568c0-0.548,0.142-1.066,0.425-1.555
	c0.773,0.949,1.712,1.707,2.817,2.274c1.105,0.567,2.289,0.885,3.551,0.954c-0.049-0.186-0.073-0.421-0.073-0.704
	c0-0.851,0.301-1.577,0.902-2.179c0.602-0.602,1.328-0.903,2.179-0.903c0.9,0,1.649,0.323,2.245,0.969
	c0.675-0.127,1.331-0.377,1.966-0.748c-0.244,0.753-0.7,1.326-1.364,1.717c0.636-0.088,1.228-0.254,1.775-0.499
	C57.055,46.661,56.541,47.194,55.925,47.634z"/>
</svg>
