<?xml version="1.0" encoding="utf-8"?>
<!-- Generator: Adobe Illustrator 17.0.1, SVG Export Plug-In . SVG Version: 6.00 Build 0)  -->
<!DOCTYPE svg PUBLIC "-//W3C//DTD SVG 1.1//EN" "http://www.w3.org/Graphics/SVG/1.1/DTD/svg11.dtd">
<svg version="1.1" id="Capa_1" xmlns="http://www.w3.org/2000/svg" xmlns:xlink="http://www.w3.org/1999/xlink" x="0px" y="0px"
	 width="25px" height="25px" viewBox="37.5 37.5 25 25" enable-background="new 37.5 37.5 25 25" xml:space="preserve">
<path d="M61.722,42.978c-0.917,0.395-1.835,0.641-2.752,0.74c1.036-0.621,1.736-1.499,2.101-2.634
	c-0.947,0.562-1.958,0.946-3.033,1.154c-0.947-1.006-2.111-1.509-3.492-1.509c-1.322,0-2.449,0.466-3.381,1.398
	c-0.932,0.932-1.398,2.059-1.398,3.381c0,0.355,0.04,0.72,0.118,1.095c-1.953-0.098-3.785-0.589-5.497-1.472
	c-1.711-0.883-3.164-2.059-4.357-3.529c-0.434,0.739-0.651,1.544-0.651,2.412c0,0.819,0.192,1.578,0.577,2.279
	c0.385,0.7,0.903,1.268,1.554,1.701c-0.769-0.029-1.489-0.232-2.16-0.607v0.059c0,1.154,0.362,2.167,1.087,3.041
	c0.725,0.873,1.64,1.423,2.744,1.65c-0.414,0.109-0.834,0.163-1.257,0.163c-0.276,0-0.577-0.025-0.903-0.074
	c0.306,0.957,0.868,1.743,1.687,2.36c0.819,0.617,1.746,0.934,2.782,0.954c-1.736,1.361-3.713,2.042-5.933,2.042
	c-0.424,0-0.809-0.02-1.154-0.059c2.219,1.43,4.665,2.145,7.338,2.145c1.696,0,3.289-0.268,4.779-0.806
	c1.49-0.538,2.762-1.258,3.817-2.16c1.055-0.903,1.965-1.941,2.73-3.114c0.764-1.173,1.334-2.399,1.709-3.677
	c0.375-1.278,0.562-2.557,0.562-3.839c0-0.276-0.005-0.483-0.015-0.621C60.262,44.768,61.061,43.944,61.722,42.978z"/>
</svg>
