<?xml version="1.0" encoding="utf-8"?>
<!-- Generator: Adobe Illustrator 17.0.1, SVG Export Plug-In . SVG Version: 6.00 Build 0)  -->
<!DOCTYPE svg PUBLIC "-//W3C//DTD SVG 1.1//EN" "http://www.w3.org/Graphics/SVG/1.1/DTD/svg11.dtd">
<svg version="1.1" id="Capa_1" xmlns="http://www.w3.org/2000/svg" xmlns:xlink="http://www.w3.org/1999/xlink" x="0px" y="0px"
	 width="25px" height="25px" viewBox="37.5 37.5 25 25" enable-background="new 37.5 37.5 25 25" xml:space="preserve">
<g>
	<path d="M52.531,56.999c-0.534,1.008-1.286,1.808-2.258,2.401c-0.971,0.593-2.032,0.889-3.181,0.889c-1.687,0-3.131-0.6-4.33-1.799
		c-1.199-1.199-1.799-2.643-1.799-4.33c0-1.213,0.333-2.328,0.999-3.345c0.666-1.017,1.555-1.772,2.668-2.264l-0.232-1.792
		c-1.551,0.566-2.803,1.528-3.756,2.887c-0.953,1.359-1.43,2.864-1.43,4.515c0,1.423,0.354,2.739,1.06,3.947
		c0.707,1.208,1.665,2.166,2.873,2.873c1.208,0.707,2.524,1.06,3.947,1.06c1.706,0,3.252-0.506,4.638-1.519s2.344-2.335,2.873-3.968
		l-1.395-2.791C53.291,54.912,53.065,55.991,52.531,56.999z"/>
	<path d="M60.706,55.131l-2.709,1.355l-3.12-6.225c-0.155-0.319-0.415-0.479-0.78-0.479h-6.225l-0.219-1.751h5.569v-1.751h-5.787
		l-0.506-3.954c0.62,0.064,1.168-0.126,1.642-0.568c0.474-0.442,0.712-0.978,0.712-1.608c0-0.602-0.214-1.117-0.643-1.546
		c-0.429-0.429-0.944-0.643-1.546-0.643c-0.493,0-0.935,0.144-1.327,0.431c-0.392,0.287-0.652,0.663-0.78,1.129
		c-0.073,0.237-0.1,0.429-0.082,0.575l1.313,10.658c0.027,0.219,0.125,0.404,0.294,0.554c0.169,0.15,0.363,0.226,0.581,0.226h6.458
		l3.27,6.526c0.155,0.319,0.415,0.479,0.78,0.479c0.146,0,0.278-0.032,0.397-0.096l3.502-1.751L60.706,55.131z"/>
</g>
</svg>
