<?xml version="1.0" encoding="utf-8"?>
<!-- Generator: Adobe Illustrator 17.0.1, SVG Export Plug-In . SVG Version: 6.00 Build 0)  -->
<!DOCTYPE svg PUBLIC "-//W3C//DTD SVG 1.1//EN" "http://www.w3.org/Graphics/SVG/1.1/DTD/svg11.dtd">
<svg version="1.1" id="Capa_1" xmlns="http://www.w3.org/2000/svg" xmlns:xlink="http://www.w3.org/1999/xlink" x="0px" y="0px"
	 width="25px" height="25px" viewBox="37.5 37.5 25 25" enable-background="new 37.5 37.5 25 25" xml:space="preserve">
<g>
	<path d="M59.044,41.555c-0.723-0.724-1.595-1.085-2.614-1.085H44.097c-1.019,0-1.891,0.362-2.614,1.085
		c-0.724,0.724-1.085,1.595-1.085,2.614v12.332c0,1.019,0.362,1.891,1.085,2.614c0.724,0.724,1.595,1.085,2.614,1.085H56.43
		c1.019,0,1.891-0.362,2.614-1.085c0.724-0.724,1.085-1.595,1.085-2.614V44.169C60.13,43.15,59.768,42.278,59.044,41.555z
		 M52.049,43.321h0.861v3.494c0,0.206,0.004,0.317,0.013,0.334c0.009,0.137,0.077,0.206,0.206,0.206c0.171,0,0.351-0.132,0.54-0.398
		v-3.635h0.861v4.753h-0.861h0V47.56c-0.351,0.385-0.681,0.578-0.989,0.578c-0.274,0-0.458-0.116-0.552-0.347
		c-0.051-0.154-0.077-0.39-0.077-0.706V43.321L52.049,43.321z M48.799,44.863c0-0.497,0.09-0.869,0.27-1.118
		c0.231-0.325,0.565-0.488,1.002-0.488c0.42,0,0.754,0.163,1.002,0.488c0.18,0.248,0.27,0.621,0.27,1.118v1.67
		c0,0.514-0.09,0.886-0.27,1.118c-0.248,0.325-0.582,0.488-1.002,0.488c-0.437,0-0.771-0.163-1.002-0.488
		c-0.18-0.248-0.27-0.621-0.27-1.118V44.863z M46.487,41.689l0.681,2.505l0.655-2.505h0.964l-1.156,3.803l0,0v2.582h-0.95v-2.582
		c-0.094-0.471-0.291-1.148-0.591-2.03c-0.197-0.591-0.295-0.886-0.295-0.886l-0.308-0.886
		C45.485,41.689,46.487,41.689,46.487,41.689z M57.073,57.195c-0.085,0.368-0.268,0.681-0.546,0.938
		c-0.278,0.257-0.601,0.407-0.97,0.45c-1.173,0.128-2.938,0.193-5.293,0.193c-2.355,0-4.119-0.064-5.293-0.193
		c-0.368-0.043-0.692-0.193-0.97-0.45c-0.278-0.257-0.46-0.57-0.546-0.938c-0.171-0.72-0.257-1.833-0.257-3.34
		c0-1.482,0.085-2.595,0.257-3.34c0.085-0.377,0.267-0.692,0.546-0.944c0.278-0.253,0.606-0.4,0.983-0.443
		c1.165-0.129,2.925-0.193,5.28-0.193c2.364,0,4.128,0.064,5.293,0.193c0.368,0.043,0.693,0.19,0.976,0.443
		c0.283,0.253,0.467,0.567,0.553,0.944c0.162,0.711,0.244,1.824,0.244,3.34C57.33,55.363,57.244,56.476,57.073,57.195z"/>
	<polygon points="44.252,51.478 45.254,51.478 45.254,56.912 46.204,56.912 46.204,51.478 47.232,51.478 47.232,50.579 
		44.252,50.579 	"/>
	<path d="M48.954,55.795c-0.188,0.265-0.368,0.398-0.54,0.398c-0.12,0-0.184-0.064-0.193-0.193
		c-0.009-0.017-0.013-0.128-0.013-0.334v-3.469h-0.848v3.725c0,0.325,0.026,0.557,0.077,0.694c0.077,0.24,0.257,0.36,0.54,0.36
		c0.317,0,0.642-0.193,0.976-0.578v0.514h0.861v-4.714h-0.861V55.795z"/>
	<path d="M52.281,52.134c-0.308,0-0.6,0.171-0.874,0.514v-2.068h-0.861v6.333h0.861V56.45c0.283,0.351,0.574,0.527,0.874,0.527
		c0.351,0,0.578-0.18,0.681-0.54c0.06-0.18,0.09-0.493,0.09-0.938v-1.875c0-0.454-0.03-0.771-0.09-0.95
		C52.859,52.313,52.632,52.134,52.281,52.134z M52.204,55.563c0,0.42-0.124,0.629-0.372,0.629c-0.145,0-0.287-0.069-0.424-0.206
		v-2.878c0.137-0.137,0.278-0.206,0.424-0.206c0.248,0,0.372,0.214,0.372,0.642V55.563z"/>
	<path d="M55.402,55.557c0,0.09-0.002,0.161-0.006,0.212c-0.004,0.051-0.007,0.081-0.007,0.09c-0.051,0.223-0.18,0.334-0.385,0.334
		c-0.291,0-0.437-0.219-0.437-0.655v-0.835h1.709v-0.976c0-0.497-0.09-0.865-0.27-1.105c-0.231-0.325-0.565-0.488-1.002-0.488
		s-0.779,0.163-1.028,0.488c-0.171,0.231-0.257,0.6-0.257,1.105v1.657c0,0.506,0.09,0.874,0.27,1.105
		c0.248,0.325,0.595,0.488,1.041,0.488c0.454,0,0.796-0.171,1.028-0.514c0.103-0.154,0.167-0.325,0.193-0.514
		c0.017-0.12,0.026-0.304,0.026-0.552v-0.115l0,0h-0.874V55.557L55.402,55.557z M54.567,53.559c0-0.437,0.141-0.655,0.424-0.655
		c0.283,0,0.424,0.218,0.424,0.655v0.437h-0.848V53.559z"/>
	<path d="M50.071,47.355c0.274,0,0.411-0.218,0.411-0.655v-2.004c0-0.445-0.137-0.668-0.411-0.668c-0.274,0-0.411,0.223-0.411,0.668
		V46.7C49.66,47.136,49.797,47.355,50.071,47.355z"/>
</g>
</svg>
