<?xml version="1.0" encoding="utf-8"?>
<!-- Generator: Adobe Illustrator 17.0.1, SVG Export Plug-In . SVG Version: 6.00 Build 0)  -->
<!DOCTYPE svg PUBLIC "-//W3C//DTD SVG 1.1//EN" "http://www.w3.org/Graphics/SVG/1.1/DTD/svg11.dtd">
<svg version="1.1" id="Capa_1" xmlns="http://www.w3.org/2000/svg" xmlns:xlink="http://www.w3.org/1999/xlink" x="0px" y="0px"
	 width="25px" height="25px" viewBox="37.5 37.5 25 25" enable-background="new 37.5 37.5 25 25" xml:space="preserve">
<g>
	<path d="M59.588,50.402c-0.116-0.528-0.373-0.97-0.771-1.328c-0.398-0.357-0.856-0.568-1.375-0.63
		c-1.645-0.179-4.126-0.268-7.442-0.268s-5.793,0.089-7.429,0.268c-0.527,0.063-0.988,0.273-1.381,0.63
		c-0.393,0.357-0.653,0.8-0.778,1.328c-0.232,1.037-0.349,2.602-0.349,4.693c0,2.128,0.116,3.692,0.349,4.694
		c0.117,0.527,0.374,0.97,0.771,1.327c0.398,0.358,0.856,0.563,1.375,0.617c1.645,0.188,4.126,0.281,7.442,0.281
		c3.317,0,5.798-0.094,7.442-0.281c0.519-0.054,0.974-0.259,1.368-0.617c0.394-0.357,0.653-0.8,0.778-1.327
		c0.232-1.037,0.349-2.602,0.349-4.693C59.937,52.968,59.82,51.404,59.588,50.402z M45.736,51.757h-1.435v7.63H42.96v-7.63h-1.408
		v-1.26h4.184C45.736,50.496,45.736,51.757,45.736,51.757z M49.356,59.387h-1.193v-0.724c-0.483,0.545-0.939,0.818-1.368,0.818
		c-0.411,0-0.671-0.166-0.778-0.496c-0.071-0.215-0.107-0.541-0.107-0.979v-5.244h1.193v4.881c0,0.286,0.005,0.443,0.013,0.469
		c0.027,0.188,0.121,0.281,0.281,0.281c0.241,0,0.496-0.188,0.764-0.563v-5.069h1.193V59.387z M53.916,57.402
		c0,0.652-0.04,1.1-0.12,1.341c-0.152,0.491-0.469,0.737-0.952,0.737c-0.429,0-0.845-0.246-1.247-0.737v0.644h-1.193v-8.89h1.193
		v2.91c0.384-0.483,0.8-0.724,1.247-0.724c0.483,0,0.8,0.251,0.952,0.751c0.08,0.232,0.12,0.675,0.12,1.328V57.402z M58.448,56.303
		h-2.4v1.167c0,0.617,0.205,0.925,0.617,0.925c0.295,0,0.474-0.161,0.537-0.483c0.018-0.089,0.027-0.362,0.027-0.818h1.22v0.174
		c0,0.438-0.009,0.697-0.027,0.778c-0.027,0.241-0.12,0.483-0.281,0.724c-0.322,0.474-0.805,0.711-1.448,0.711
		c-0.617,0-1.099-0.228-1.448-0.684c-0.259-0.331-0.389-0.849-0.389-1.555v-2.32c0-0.706,0.125-1.225,0.375-1.555
		c0.349-0.456,0.827-0.684,1.435-0.684c0.599,0,1.073,0.228,1.421,0.684c0.242,0.331,0.362,0.849,0.362,1.556
		C58.448,54.921,58.448,56.303,58.448,56.303z"/>
	<path d="M52.199,53.768c-0.206,0-0.407,0.098-0.603,0.295v4.036c0.197,0.197,0.398,0.295,0.603,0.295
		c0.348,0,0.523-0.299,0.523-0.898v-2.829C52.722,54.068,52.548,53.768,52.199,53.768z"/>
	<path d="M56.651,53.768c-0.402,0-0.603,0.304-0.603,0.912v0.617h1.207V54.68C57.255,54.072,57.053,53.768,56.651,53.768z"/>
	<path d="M44.958,43.335v3.634h1.341v-3.634l1.622-5.351h-1.368l-0.912,3.527l-0.952-3.527h-1.421
		c0.251,0.751,0.541,1.587,0.872,2.508C44.56,41.726,44.833,42.674,44.958,43.335z"/>
	<path d="M49.719,47.063c0.617,0,1.091-0.228,1.421-0.684c0.251-0.331,0.375-0.859,0.375-1.582v-2.347
		c0-0.715-0.125-1.238-0.375-1.569c-0.331-0.456-0.805-0.684-1.421-0.684c-0.599,0-1.069,0.228-1.408,0.684
		c-0.25,0.331-0.375,0.854-0.375,1.569v2.347c0,0.715,0.125,1.243,0.375,1.582C48.65,46.835,49.119,47.063,49.719,47.063z
		 M49.142,42.209c0-0.617,0.192-0.925,0.577-0.925s0.576,0.308,0.576,0.925v2.816c0,0.626-0.192,0.938-0.576,0.938
		s-0.577-0.313-0.577-0.938V42.209z"/>
	<path d="M53.406,47.063c0.447,0,0.908-0.277,1.382-0.832v0.737h1.22v-6.691h-1.22v5.109c-0.268,0.384-0.523,0.576-0.765,0.576
		c-0.161,0-0.255-0.098-0.281-0.295c-0.009-0.018-0.013-0.174-0.013-0.469v-4.921h-1.22v5.283c0,0.456,0.036,0.791,0.107,1.006
		C52.731,46.898,52.995,47.063,53.406,47.063z"/>
</g>
</svg>
