<?xml version="1.0" encoding="utf-8"?>
<svg id="icon-group" viewBox="0 0 512 512" width="112" height="112" xmlns="http://www.w3.org/2000/svg">
  <path d="m158 256c-29 1-52 12-71 34l-35 0c-15 0-27-3-37-11c-10-7-15-17-15-31c0-63 11-94 33-94c1 0 5 1 12 5c6 4 15 8 26 12c10 3 21 5 31 5c12 0 24-2 36-6c-1 7-1 13-1 18c0 24 7 47 21 68z m286 170c0 21-7 38-20 50c-13 13-30 19-51 19l-234 0c-21 0-38-6-51-19c-13-12-20-29-20-50c0-10 1-19 1-28c1-9 2-18 4-29c2-10 4-20 7-29c3-9 7-17 11-26c5-8 11-15 17-21c6-6 14-11 23-15c9-3 19-5 30-5c1 0 5 2 11 6c6 4 12 8 19 13c8 4 17 9 29 12c12 4 24 6 36 6c12 0 24-2 36-6c12-3 21-8 29-12c7-5 13-9 19-13c6-4 10-6 11-6c11 0 21 2 30 5c9 4 17 9 23 15c6 6 12 13 17 21c4 9 8 17 11 26c3 9 5 19 7 29c2 11 3 20 4 29c0 9 1 18 1 28z m-273-341c0 19-7 35-20 49c-14 13-30 20-49 20c-18 0-35-7-48-20c-13-14-20-30-20-49c0-19 7-35 20-48c13-13 30-20 48-20c19 0 35 7 49 20c13 13 20 29 20 48z m187 103c0 28-10 52-30 72c-20 20-44 30-72 30c-28 0-52-10-72-30c-20-20-30-44-30-72c0-29 10-53 30-73c20-20 44-30 72-30c28 0 52 10 72 30c20 20 30 44 30 73z m154 60c0 14-5 24-15 31c-10 8-22 11-37 11l-35 0c-19-22-42-33-71-34c14-21 21-44 21-68c0-5 0-11-1-18c12 4 24 6 36 6c10 0 21-2 31-5c11-4 20-8 26-12c7-4 11-5 12-5c22 0 33 31 33 94z m-34-163c0 19-7 35-20 49c-13 13-30 20-48 20c-19 0-35-7-49-20c-13-14-20-30-20-49c0-19 7-35 20-48c14-13 30-20 49-20c18 0 35 7 48 20c13 13 20 29 20 48z" fill="#0e2b51" />
</svg>