<?xml version="1.0" encoding="utf-8"?>
<svg id="icon-building" viewBox="0 0 512 512" width="112" height="112" xmlns="http://www.w3.org/2000/svg">
  <path d="m165 375l0 18c0 3-1 5-3 7c-2 1-4 2-7 2l-18 0c-2 0-4-1-6-2c-2-2-3-4-3-7l0-18c0-3 1-5 3-7c2-1 4-2 6-2l18 0c3 0 5 1 7 2c2 2 3 4 3 7z m0-73l0 18c0 2-1 5-3 6c-2 2-4 3-7 3l-18 0c-2 0-4-1-6-3c-2-1-3-4-3-6l0-18c0-3 1-5 3-7c2-2 4-2 6-2l18 0c3 0 5 0 7 2c2 2 3 4 3 7z m73 0l0 18c0 2-1 5-3 6c-2 2-4 3-6 3l-19 0c-2 0-4-1-6-3c-2-1-3-4-3-6l0-18c0-3 1-5 3-7c2-2 4-2 6-2l19 0c2 0 4 0 6 2c2 2 3 4 3 7z m-73-73l0 18c0 2-1 4-3 6c-2 2-4 3-7 3l-18 0c-2 0-4-1-6-3c-2-2-3-4-3-6l0-18c0-3 1-5 3-7c2-2 4-3 6-3l18 0c3 0 5 1 7 3c2 2 3 4 3 7z m219 146l0 18c0 3-1 5-3 7c-2 1-4 2-6 2l-18 0c-3 0-5-1-7-2c-2-2-3-4-3-7l0-18c0-3 1-5 3-7c2-1 4-2 7-2l18 0c2 0 4 1 6 2c2 2 3 4 3 7z m-73-73l0 18c0 2-1 5-3 6c-2 2-4 3-6 3l-19 0c-2 0-4-1-6-3c-2-1-3-4-3-6l0-18c0-3 1-5 3-7c2-2 4-2 6-2l19 0c2 0 4 0 6 2c2 2 3 4 3 7z m-73-73l0 18c0 2-1 4-3 6c-2 2-4 3-6 3l-19 0c-2 0-4-1-6-3c-2-2-3-4-3-6l0-18c0-3 1-5 3-7c2-2 4-3 6-3l19 0c2 0 4 1 6 3c2 2 3 4 3 7z m-73-74l0 19c0 2-1 4-3 6c-2 2-4 3-7 3l-18 0c-2 0-4-1-6-3c-2-2-3-4-3-6l0-19c0-2 1-4 3-6c2-2 4-3 6-3l18 0c3 0 5 1 7 3c2 2 3 4 3 6z m219 147l0 18c0 2-1 5-3 6c-2 2-4 3-6 3l-18 0c-3 0-5-1-7-3c-2-1-3-4-3-6l0-18c0-3 1-5 3-7c2-2 4-2 7-2l18 0c2 0 4 0 6 2c2 2 3 4 3 7z m-73-73l0 18c0 2-1 4-3 6c-2 2-4 3-6 3l-19 0c-2 0-4-1-6-3c-2-2-3-4-3-6l0-18c0-3 1-5 3-7c2-2 4-3 6-3l19 0c2 0 4 1 6 3c2 2 3 4 3 7z m-73-74l0 19c0 2-1 4-3 6c-2 2-4 3-6 3l-19 0c-2 0-4-1-6-3c-2-2-3-4-3-6l0-19c0-2 1-4 3-6c2-2 4-3 6-3l19 0c2 0 4 1 6 3c2 2 3 4 3 6z m-73-73l0 19c0 2-1 4-3 6c-2 2-4 3-7 3l-18 0c-2 0-4-1-6-3c-2-2-3-4-3-6l0-19c0-2 1-4 3-6c2-2 4-3 6-3l18 0c3 0 5 1 7 3c2 2 3 4 3 6z m219 147l0 18c0 2-1 4-3 6c-2 2-4 3-6 3l-18 0c-3 0-5-1-7-3c-2-2-3-4-3-6l0-18c0-3 1-5 3-7c2-2 4-3 7-3l18 0c2 0 4 1 6 3c2 2 3 4 3 7z m-73-74l0 19c0 2-1 4-3 6c-2 2-4 3-6 3l-19 0c-2 0-4-1-6-3c-2-2-3-4-3-6l0-19c0-2 1-4 3-6c2-2 4-3 6-3l19 0c2 0 4 1 6 3c2 2 3 4 3 6z m-73-73l0 19c0 2-1 4-3 6c-2 2-4 3-6 3l-19 0c-2 0-4-1-6-3c-2-2-3-4-3-6l0-19c0-2 1-4 3-6c2-2 4-3 6-3l19 0c2 0 4 1 6 3c2 2 3 4 3 6z m146 73l0 19c0 2-1 4-3 6c-2 2-4 3-6 3l-18 0c-3 0-5-1-7-3c-2-2-3-4-3-6l0-19c0-2 1-4 3-6c2-2 4-3 7-3l18 0c2 0 4 1 6 3c2 2 3 4 3 6z m-73-73l0 19c0 2-1 4-3 6c-2 2-4 3-6 3l-19 0c-2 0-4-1-6-3c-2-2-3-4-3-6l0-19c0-2 1-4 3-6c2-2 4-3 6-3l19 0c2 0 4 1 6 3c2 2 3 4 3 6z m73 0l0 19c0 2-1 4-3 6c-2 2-4 3-6 3l-18 0c-3 0-5-1-7-3c-2-2-3-4-3-6l0-19c0-2 1-4 3-6c2-2 4-3 7-3l18 0c2 0 4 1 6 3c2 2 3 4 3 6z m-73 393l110 0l0-438l-330 0l0 438l110 0l0-64c0-2 1-4 3-6c2-2 4-3 6-3l92 0c2 0 4 1 6 3c2 2 3 4 3 6z m146-457l0 476c0 5-2 9-5 13c-4 3-8 5-13 5l-366 0c-5 0-9-2-13-5c-3-4-5-8-5-13l0-476c0-5 2-9 5-13c4-3 8-5 13-5l366 0c5 0 9 2 13 5c3 4 5 8 5 13z" fill="#0e2b51" />
</svg>