<?xml version="1.0" encoding="utf-8"?>
<svg id="icon-plane-airport" viewBox="0 0 512 512" width="112" height="112" xmlns="http://www.w3.org/2000/svg">
  <path d="m448 46c8 10 10 24 3 42c-6 18-16 35-30 49l-46 46l45 199c1 4 0 7-3 9l-37 28c-1 1-3 2-5 2c-1 0-2-1-2-1c-3 0-5-2-6-4l-80-145l-74 74l15 55c1 3 0 6-2 9l-27 27c-2 2-4 3-7 3l-1 0c-2-1-5-2-6-4l-54-72l-72-54c-3-1-4-3-4-6c0-3 1-5 2-8l28-27c2-2 4-3 6-3c2 0 2 0 3 0l55 16l74-74l-145-80c-3-2-4-4-5-7c0-3 1-6 3-8l36-36c3-3 6-4 9-3l190 46l46-46c14-14 30-25 49-31c18-6 32-5 42 4z" fill="#0e2b51" />
</svg>