<?xml version="1.0" encoding="utf-8"?>
<svg id="icon-star-half" viewBox="0 0 512 512" width="112" height="112" xmlns="http://www.w3.org/2000/svg">
  <path d="m357 273l74-71l-102-15l-19-3l-9-17l-45-92l0 275l17 9l91 48l-17-101l-4-19z m129-74l-103 101l24 143c1 6 1 11-2 14c-2 4-5 6-9 6c-4 0-7-2-12-4l-128-67l-128 67c-5 2-8 4-12 4c-4 0-7-2-9-6c-3-3-3-8-2-14l24-143l-104-101c-6-7-8-12-6-17c2-6 7-9 15-10l144-21l64-130c4-8 8-12 14-12c5 0 10 4 14 12l64 130l144 21c8 1 13 4 15 10c2 5 0 10-7 17z" fill="#0e2b51" />
</svg>