<?xml version="1.0" encoding="utf-8"?>
<svg id="icon-eye-slash-close" viewBox="0 0 512 512" width="112" height="112" xmlns="http://www.w3.org/2000/svg">
  <path d="m159 381l22-40c-17-12-30-27-39-45c-9-19-14-38-14-58c0-23 6-45 17-65c-43 23-79 56-108 101c31 49 72 85 122 107z m111-216c0-4-2-7-4-10c-3-3-6-4-10-4c-24 0-44 8-61 25c-17 17-26 38-26 62c0 4 1 7 4 9c3 3 6 4 10 4c4 0 7-1 10-4c2-2 4-5 4-9c0-17 5-31 17-42c12-12 26-18 42-18c4 0 7-1 10-4c2-2 4-6 4-9z m103-55c0 1 0 2 0 3c-20 35-50 89-90 161c-40 72-70 126-90 162l-14 26c-2 3-5 4-8 4c-2 0-15-6-38-20c-3-2-5-4-5-8c0-2 4-10 13-25c-28-12-53-28-76-49c-23-21-43-44-59-70c-4-6-6-12-6-20c0-7 2-14 6-19c29-45 65-81 108-106c44-26 91-39 142-39c17 0 34 1 51 5l16-28c2-3 4-5 8-5c1 0 3 1 5 2c2 1 5 3 9 4c3 2 6 4 9 6c3 1 6 3 9 5c3 2 5 3 6 3c3 2 4 5 4 8z m11 128c0 26-8 50-23 72c-15 22-35 38-59 47l80-143c1 8 2 16 2 24z m128 36c0 7-2 14-6 20c-7 12-18 26-31 41c-28 33-62 59-99 77c-38 18-78 27-120 27l21-38c41-3 78-16 112-39c35-23 63-52 86-88c-21-34-48-62-80-84l18-32c18 12 35 27 52 44c17 17 30 34 41 53c4 6 6 13 6 19z" fill="#0e2b51" />
</svg>