<?xml version="1.0" encoding="utf-8"?>
<svg id="icon-facebook-square" viewBox="0 0 512 512" width="112" height="112" xmlns="http://www.w3.org/2000/svg">
  <path d="m410 262l7-62l-57 0l0-31c0-10 1-16 4-20c3-4 10-6 21-6l31 0l0-62l-50 0c-29 0-49 7-62 20c-13 14-19 34-19 61l0 38l-37 0l0 62l37 0l0 182l75 0l0-182z m65-143l0 274c0 23-8 42-24 58c-16 16-35 24-58 24l-274 0c-23 0-42-8-58-24c-16-16-24-35-24-58l0-274c0-23 8-42 24-58c16-16 35-24 58-24l274 0c23 0 42 8 58 24c16 16 24 35 24 58z" fill="#0e2b51" />
</svg>