<?xml version="1.0" encoding="utf-8"?>
<svg id="icon-sunrise" viewBox="0 0 512 512" width="112" height="112" xmlns="http://www.w3.org/2000/svg">
  <path d="m178 288c7-37 39-64 78-64c39 0 71 27 78 64l32 0c-7-54-54-96-110-96c-56 0-103 42-110 96z m78-128c9 0 16-7 16-16l0-32c0-9-7-16-16-16c-9 0-16 7-16 16l0 32c0 9 7 16 16 16z m147-3c-6-6-16-6-23 0l-22 23c-6 6-6 16 0 22c6 6 16 6 22 0l23-22c6-7 6-17 0-23z m-249 23l-22-23c-7-6-17-6-23 0c-6 6-6 16 0 23l23 22c6 6 16 6 22 0c6-6 6-16 0-22z m198 140l-192 0c-9 0-16 7-16 16c0 9 7 16 16 16l192 0c9 0 16-7 16-16c0-9-7-16-16-16z m-32 64l-128 0c-9 0-16 7-16 16c0 9 7 16 16 16l128 0c9 0 16-7 16-16c0-9-7-16-16-16z" fill="#0e2b51" />
</svg>