<?xml version="1.0" encoding="utf-8"?>
<svg id="icon-new-destinations" viewBox="0 0 512 512" width="112" height="112" xmlns="http://www.w3.org/2000/svg">
  <path d="m197 395c11 0 17-10 17-10-11-13-24-28-35-46-13-20-24-43-30-70 7 5 17 13 31 21 37 20 60 22 60 22-6-31-31-62-41-68-10-5-20-7-31-6 7-4 14-8 22-13 32-22 47-45 47-45-28-8-50-3-69 10-9 7-18 16-25 27 0-9-3-18-8-28-5-8-30-36-49-35 0 0-3 25 15 57 2 4 4 8 7 11-5-1-10-2-15-2-12-1-51-1-74 21 0 0 20 12 62 16 6 1 11 1 15 1-5 4-10 8-15 12-16 17-25 38-22 67 0 0 26-11 53-40 9-9 15-17 21-24 2 28 8 52 17 72 7 15 14 28 23 38 1 2 8 12 24 12z m90-14c-19 0-28-16-28-16 8-10 15-19 23-29-13-1-25-2-38-2-23 0-45 2-65 5 11 18 24 33 36 46 0 0-6 10-17 10-17 0-24-10-24-10-9-10-16-23-23-38-44 13-73 35-73 61 0 40 332 40 332 0 0-28-33-51-81-64-2 6-5 11-7 16-7 12-7 21-35 21z m204-216c-26-25-72-26-85-25-6 1-12 2-17 3 3-4 5-8 8-13 20-37 17-66 17-66-22-1-51 31-57 41-6 11-9 21-9 32-8-13-18-23-29-31-22-15-47-21-79-12 0 0 18 27 54 52 9 6 18 11 25 15-12-1-25 1-36 7-12 7-40 42-46 78 0 0 27-1 69-25 17-10 28-18 36-24-9 47-31 96-60 138-8 11-15 20-23 29 0 0 10 16 28 16 28 0 27-8 34-21 3-4 5-10 7-15 20-52 32-142 32-142 0 0 14 18 25 28 31 33 60 46 60 46 4-34-6-58-25-77-5-5-11-10-18-14 6 0 12-1 18-1 48-5 71-19 71-19z" fill="#0e2b51" />
</svg>