<?xml version="1.0" encoding="utf-8"?>
<svg id="icon-google-plus" viewBox="0 0 512 512" width="112" height="112" xmlns="http://www.w3.org/2000/svg">
  <path d="m230 455c0 7-1 14-3 20l-108 0c-18 0-35-5-49-16c-15-10-25-25-30-42c5-8 11-16 20-22c9-6 18-11 29-14c10-3 20-6 30-7c10-1 20-2 31-2c6 0 10 0 14 1c1 0 4 2 8 6c5 3 8 5 10 6c1 1 4 3 9 7c4 3 7 5 9 7c2 2 4 4 8 7c3 4 6 6 7 9c2 2 4 5 6 8c3 4 4 7 5 10c1 3 2 7 3 11c1 3 1 7 1 11z m-83-100c-45 1-82 9-110 24l0-124c19 23 45 34 78 34c6 0 12 0 20-1c-4 11-6 20-6 24c0 13 6 27 18 43z m49-146c0 19-4 34-12 46c-9 11-22 17-41 17c-9 0-19-2-27-7c-9-5-16-12-23-20c-6-8-11-17-16-26c-4-10-8-20-10-30c-2-10-3-19-3-28c0-19 5-34 15-48c10-13 23-19 41-19c13 0 24 4 34 11c10 8 18 18 24 30c6 12 10 25 13 37c3 13 5 25 5 37z m279-26l0 210c0 23-8 42-24 58c-16 16-35 24-58 24l-134 0c8-13 12-28 12-44c0-13-3-25-7-35c-4-11-9-20-16-27c-6-7-13-14-20-20c-7-7-14-13-21-17c-6-5-11-10-16-16c-4-5-6-11-6-17c0-7 2-13 7-19c4-6 9-12 16-18c6-5 12-12 18-18c7-7 12-16 16-27c5-11 7-23 7-37c0-14-3-28-8-42c-5-14-12-25-21-34c-1-1-3-2-4-3c-2-1-3-2-4-2c-1 0-2-1-3-3c-1-1-2-3-3-5l39 0l38-18l-124 0c-27 0-50 4-70 11c-21 7-38 20-52 38c0-24 7-44 23-61c15-16 35-24 59-24l274 0c23 0 42 8 58 24c16 16 24 35 24 58l0 27l-73 0l0-73l-36 0l0 73l-73 0l0 37l73 0l0 73l36 0l0-73z" fill="#0e2b51" />
</svg>