<?xml version="1.0" encoding="utf-8"?>
<svg id="icon-sort-numeric" viewBox="0 0 512 512" width="112" height="112" xmlns="http://www.w3.org/2000/svg">
  <path d="m421 83c0-12-4-23-12-34c-9-10-19-15-30-15c-10 0-18 4-24 11c-5 7-8 16-8 27c0 11 3 20 10 27c7 7 17 11 30 11c9 0 17-3 24-8c7-5 10-12 10-19z m-174 328c0 3-1 5-3 7l-91 91c-2 2-4 3-7 3c-2 0-4-1-6-3l-92-91c-3-3-3-6-2-10c2-4 5-6 9-6l55 0l0-393c0-3 1-5 2-6c2-2 4-3 7-3l55 0c2 0 5 1 6 3c2 1 3 3 3 6l0 393l55 0c2 0 5 1 6 3c2 2 3 4 3 6z m206 68l0 33l-134 0l0-33l47 0l0-123c0-1 0-3 0-5c1-3 1-4 1-5l0-5l-1 0l-2 4c-2 2-4 5-7 8l-18 17l-24-25l55-52l35 0l0 186z m8-380c0 12-1 24-4 35c-2 11-6 22-11 32c-6 11-12 20-20 28c-7 8-17 14-28 18c-11 5-23 7-36 7c-12 0-22-1-31-4c-5-2-9-3-12-4l11-33c3 2 6 3 9 3c7 3 14 4 21 4c16 0 29-5 39-17c9-11 16-25 19-41l-1 0c-4 4-10 8-17 10c-8 3-16 4-25 4c-20 0-36-6-49-20c-13-14-19-30-19-49c0-20 7-37 20-51c14-14 31-21 52-21c24 0 43 9 59 27c15 18 23 42 23 72z" fill="#0e2b51" />
</svg>