<?xml version="1.0" encoding="utf-8"?>
<svg id="icon-instagram" viewBox="0 0 512 512" width="112" height="112" xmlns="http://www.w3.org/2000/svg">
  <path d="m426 407l0-185l-39 0c4 12 6 25 6 38c0 24-6 46-18 66c-13 20-29 36-50 48c-21 12-44 18-69 18c-37 0-69-13-96-39c-27-26-40-57-40-93c0-13 2-26 6-38l-41 0l0 185c0 5 2 10 5 13c4 3 8 5 13 5l305 0c5 0 9-2 13-5c3-3 5-8 5-13z m-81-152c0-23-9-44-26-60c-18-17-38-25-63-25c-24 0-45 8-62 25c-17 16-26 37-26 60c0 24 9 44 26 61c17 16 38 25 62 25c25 0 45-9 63-25c17-17 26-37 26-61z m81-103l0-47c0-5-2-10-6-14c-4-4-8-6-14-6l-50 0c-5 0-10 2-14 6c-4 4-5 9-5 14l0 47c0 6 1 10 5 14c4 4 9 6 14 6l50 0c6 0 10-2 14-6c4-4 6-8 6-14z m49-59l0 326c0 16-5 29-16 40c-11 11-24 16-40 16l-326 0c-16 0-29-5-40-16c-11-11-16-24-16-40l0-326c0-16 5-29 16-40c11-11 24-16 40-16l326 0c16 0 29 5 40 16c11 11 16 24 16 40z" fill="#0e2b51" />
</svg>