<?xml version="1.0" encoding="utf-8"?>
<svg id="icon-fog-moon" viewBox="0 0 512 512" width="112" height="112" xmlns="http://www.w3.org/2000/svg">
  <path d="m64 319l384 0c9 0 16-7 16-16c0-9-7-16-16-16l-384 0c-9 0-16 7-16 16c0 9 7 16 16 16z m384 32l-384 0c-9 0-16 7-16 16c0 9 7 16 16 16l384 0c9 0 16-7 16-16c0-9-7-16-16-16z m0 64l-384 0c-9 0-16 7-16 16c0 9 7 16 16 16l384 0c9 0 16-7 16-16c0-9-7-16-16-16z m-243-160c0 0-1-1-1-1c-37-37-37-98 0-136c3-2 5-5 8-7c-2 36 11 72 37 98c27 26 62 39 98 37c-3 3-6 6-9 9l42 0c5-8 9-17 12-26c2-6 1-12-4-17c-4-4-10-6-16-4c-36 13-74 4-100-22c-26-26-35-64-22-100c2-5 0-12-4-16c-5-5-11-6-17-4c-18 6-34 17-48 30c-43 43-49 109-17 159z" fill="#0e2b51" />
</svg>