<?xml version="1.0" encoding="utf-8"?>
<svg id="icon-like" viewBox="0 0 512 512" width="112" height="112" xmlns="http://www.w3.org/2000/svg">
  <path d="m110 384c0-5-2-9-6-13c-3-3-8-5-13-5c-5 0-9 2-12 5c-4 4-6 8-6 13c0 5 2 9 6 13c3 3 7 5 12 5c5 0 10-2 13-5c4-4 6-8 6-13z m329-165c0-9-4-18-11-25c-8-7-16-11-26-11l-100 0c0-11 4-26 13-46c10-19 14-34 14-46c0-18-3-32-9-41c-6-9-18-13-37-13c-5 5-8 13-10 24c-3 11-6 23-9 36c-4 12-9 23-17 31c-4 4-12 13-22 26c-1 1-3 4-7 9c-3 4-6 8-9 11c-2 3-5 7-10 12c-4 5-8 10-11 13c-3 3-7 7-11 10c-4 4-8 6-11 8c-4 2-8 2-11 2l-9 0l0 183l9 0c3 0 6 1 9 1c4 1 7 1 10 2c3 1 6 2 11 3c4 2 8 3 10 3c2 1 5 2 10 4c4 2 7 3 8 3c40 14 73 21 98 21l34 0c37 0 55-16 55-48c0-5 0-10-1-16c6-3 10-8 13-15c4-7 5-14 5-21c0-7-1-13-5-20c10-9 15-20 15-34c0-4-1-10-2-15c-2-6-5-11-8-14c7 0 12-5 16-13c4-9 6-17 6-24z m36 0c0 17-4 33-14 47c2 6 3 13 3 19c0 15-4 29-11 42c1 4 1 8 1 12c0 19-6 36-17 51c0 26-8 47-24 62c-17 16-38 23-65 23l-37 0c-18 0-36-2-54-6c-18-4-39-11-62-19c-22-7-35-11-40-11l-82 0c-10 0-19-4-26-11c-7-7-10-16-10-26l0-183c0-10 3-18 10-25c7-8 16-11 26-11l78 0c7-5 20-19 40-44c11-15 21-27 30-37c5-5 8-13 10-24c2-12 5-24 9-37c4-12 10-22 18-30c7-7 16-11 25-11c16 0 31 3 44 9c12 6 22 16 29 29c6 13 10 31 10 53c0 18-5 36-14 55l50 0c20 0 37 8 52 22c14 14 21 32 21 51z" fill="#0e2b51" />
</svg>