<?xml version="1.0" encoding="utf-8"?>
<svg id="icon-android" viewBox="0 0 512 512" width="112" height="112" xmlns="http://www.w3.org/2000/svg">
  <path d="m196 138c3 0 5-1 8-3c2-2 3-5 3-8c0-3-1-6-3-8c-3-2-5-3-8-3c-3 0-6 1-8 3c-2 2-3 5-3 8c0 3 1 6 3 8c2 2 5 3 8 3z m120 0c3 0 6-1 8-3c2-2 3-5 3-8c0-3-1-6-3-8c-2-2-5-3-8-3c-3 0-5 1-8 3c-2 2-3 5-3 8c0 3 1 6 3 8c3 2 5 3 8 3z m-232 53c8 0 15 2 21 8c6 6 8 13 8 21l0 123c0 8-2 15-8 20c-6 6-13 9-21 9c-8 0-15-3-21-9c-5-5-8-12-8-20l0-123c0-8 3-15 8-21c6-6 13-8 21-8z m303 5l0 190c0 9-3 16-9 23c-6 6-13 9-22 9l-21 0l0 65c0 8-3 15-9 20c-6 6-13 9-21 9c-8 0-15-3-21-9c-5-5-8-12-8-20l0-65l-40 0l0 65c0 8-3 15-8 20c-6 6-13 9-21 9c-8 0-15-3-21-9c-5-5-8-12-8-20l-1-65l-21 0c-8 0-16-3-22-9c-6-7-9-14-9-23l0-190z m-66-116c20 11 37 25 49 44c12 19 18 39 18 62l-264 0c0-23 6-43 18-62c12-19 29-33 49-44l-20-37c-1-3-1-5 1-6c3-1 5 0 6 2l21 38c18-8 37-12 57-12c20 0 39 4 57 12l21-38c1-2 3-3 6-2c2 1 2 3 1 6z m136 140l0 123c0 8-3 15-8 20c-6 6-13 9-21 9c-8 0-15-3-21-9c-6-5-8-12-8-20l0-123c0-8 2-15 8-21c6-6 13-8 21-8c8 0 15 2 21 8c5 6 8 13 8 21z" fill="#0e2b51" />
</svg>