<?xml version="1.0" encoding="utf-8"?>
<svg id="icon-youtube-play" viewBox="0 0 512 512" width="112" height="112" xmlns="http://www.w3.org/2000/svg">
  <path d="m366 256c0-7-3-12-9-15l-146-92c-6-4-12-4-19 0c-6 3-9 8-9 16l0 182c0 8 3 13 9 16c3 2 6 3 9 3c4 0 7-1 10-3l146-92c6-3 9-8 9-15z m146 0c0 18 0 33 0 43c0 10-1 23-3 39c-1 16-3 30-6 42c-3 14-10 26-20 35c-10 10-22 15-35 17c-43 4-106 7-192 7c-86 0-149-3-192-7c-13-2-25-7-35-17c-10-9-17-21-20-35c-3-12-5-26-6-42c-2-16-3-29-3-39c0-10 0-25 0-43c0-18 0-33 0-43c0-10 1-23 3-39c1-16 3-30 6-42c3-14 10-26 20-35c10-10 22-15 35-17c43-4 106-7 192-7c86 0 149 3 192 7c13 2 25 7 35 17c10 9 17 21 20 35c3 12 5 26 6 42c2 16 3 29 3 39c0 10 0 25 0 43z" fill="#0e2b51" />
</svg>