<?xml version="1.0" encoding="utf-8"?>
<svg id="icon-celcius" viewBox="0 0 512 512" width="112" height="112" xmlns="http://www.w3.org/2000/svg">
  <path d="m209 176c-3-3-8-6-12-8c-5-2-10-3-16-3c-5 0-10 1-15 3c-5 2-9 5-13 8c-3 4-6 8-8 12c-2 5-3 10-3 15c0 5 1 10 3 15c2 4 5 8 8 12c4 3 8 6 13 8c5 2 10 3 15 3c6 0 11-1 16-3c4-2 9-5 12-8c4-4 7-8 9-12c2-5 3-10 3-15c0-5-1-10-3-15c-2-4-5-8-9-12z m-15 39c-4 3-8 5-13 5c-5 0-9-2-12-5c-4-3-5-7-5-12c0-5 1-9 5-12c3-3 7-5 12-5c5 0 9 2 13 5c3 3 5 7 5 12c0 5-2 9-5 12z m141 97c-6 2-12 2-18 2c-4 0-8 0-11-1c-4-2-8-3-11-6c-3-3-6-6-8-10c-2-4-3-9-3-15l0-51c0-6 1-11 3-15c2-4 5-7 8-10c3-2 6-4 10-5c4-2 8-2 12-2c6 0 12 1 19 3c6 1 12 5 17 9l17-27c-7-6-15-10-24-13c-10-3-20-4-30-4c-8 0-16 1-24 4c-8 2-16 5-22 10c-6 5-11 11-15 18c-4 7-6 15-6 25l0 66c0 9 2 18 6 25c4 7 9 13 16 17c6 5 13 9 21 11c8 2 16 4 25 4c10 0 20-2 29-5c10-3 18-7 24-13l-16-27c-7 5-13 8-19 10z" fill="#0e2b51" />
</svg>