<?xml version="1.0" encoding="utf-8"?>
<svg id="icon-rss" viewBox="0 0 512 512" width="112" height="112" xmlns="http://www.w3.org/2000/svg">
  <path d="m183 366c0-10-4-19-11-26c-7-7-16-11-26-11c-10 0-18 4-26 11c-7 7-10 16-10 26c0 10 3 18 10 26c8 7 16 10 26 10c10 0 19-3 26-10c7-8 11-16 11-26z m100 27c-2-45-19-82-50-114c-32-31-69-48-114-50c-2 0-5 1-6 2c-2 2-3 5-3 7l0 37c0 2 1 4 2 6c2 2 4 3 6 3c30 2 55 13 76 34c21 21 32 46 34 76c0 2 1 4 3 6c2 1 4 2 6 2l37 0c2 0 5-1 7-3c1-1 2-4 2-6z m110 0c-1-29-6-58-16-85c-10-27-23-52-40-74c-17-23-36-42-59-59c-22-17-47-30-74-40c-27-10-56-15-85-16c-3 0-5 1-6 3c-2 2-3 4-3 6l0 37c0 2 1 4 2 6c2 2 4 3 7 3c38 1 74 12 108 32c33 20 59 46 79 79c20 34 31 70 32 108c0 3 1 5 3 7c2 1 4 2 6 2l37 0c2 0 4-1 6-3c2-1 3-3 3-6z m82-274l0 274c0 23-8 42-24 58c-16 16-35 24-58 24l-274 0c-23 0-42-8-58-24c-16-16-24-35-24-58l0-274c0-23 8-42 24-58c16-16 35-24 58-24l274 0c23 0 42 8 58 24c16 16 24 35 24 58z" fill="#0e2b51" />
</svg>