<?xml version="1.0" encoding="utf-8"?>
<svg id="icon-apple" viewBox="0 0 512 512" width="112" height="112" xmlns="http://www.w3.org/2000/svg">
  <path d="m453 347c-8 24-19 48-35 72c-25 37-49 56-74 56c-9 0-22-3-40-10c-16-6-30-9-43-9c-11 0-25 3-40 10c-16 6-28 9-38 9c-29 0-58-24-86-74c-28-49-42-97-42-143c0-44 11-79 32-107c21-28 49-41 81-41c14 0 31 3 51 8c20 6 33 9 39 9c9 0 22-3 41-10c20-6 36-10 50-10c22 0 43 7 60 19c10 7 20 16 30 29c-15 12-26 24-32 33c-13 18-19 38-19 59c0 24 7 45 20 64c13 19 28 31 45 36z m-108-335c0 12-2 25-8 39c-6 14-14 27-26 39c-11 11-21 17-31 21c-7 2-17 4-30 5c1-29 8-53 22-74c14-20 38-34 72-42c0 1 0 2 0 3c1 2 1 3 1 3c0 1 0 2 0 3c0 1 0 2 0 3z" fill="#0e2b51" />
</svg>