<?xml version="1.0" encoding="utf-8"?>
<svg id="icon-snow-3" viewBox="0 0 512 512" width="112" height="112" xmlns="http://www.w3.org/2000/svg">
  <path d="m383 292l-33-19c1-5 2-11 2-17c0-6-1-12-2-17l33-19c15-9 20-29 12-44c-9-15-29-21-44-12l-33 19c-9-7-19-13-30-17l0-38c0-18-14-32-32-32c-18 0-32 14-32 32l0 38c-11 4-21 10-30 17l-33-19c-15-9-35-3-44 12c-8 15-3 35 12 44l33 18c-1 6-2 12-2 18c0 6 1 12 2 17l-33 19c-15 9-20 29-12 44c9 15 29 21 44 12l33-19c9 7 19 13 30 17l0 38c0 18 14 32 32 32c18 0 32-14 32-32l0-38c11-4 21-10 30-17l33 19c15 9 35 3 44-12c8-15 3-35-12-44z m-159-36c0-18 14-32 32-32c18 0 32 14 32 32c0 18-14 32-32 32c-18 0-32-14-32-32z" fill="#0e2b51" />
</svg>