<?xml version="1.0" encoding="utf-8"?>
<svg id="icon-fog" viewBox="0 0 512 512" width="112" height="112" xmlns="http://www.w3.org/2000/svg">
  <path d="m112 160l288 0c9 0 16-7 16-16c0-9-7-16-16-16l-288 0c-9 0-16 7-16 16c0 9 7 16 16 16z m288 32l-288 0c-9 0-16 7-16 16c0 9 7 16 16 16l288 0c9 0 16-7 16-16c0-9-7-16-16-16z m0 64l-288 0c-9 0-16 7-16 16c0 9 7 16 16 16l288 0c9 0 16-7 16-16c0-9-7-16-16-16z m0 64l-288 0c-9 0-16 7-16 16c0 9 7 16 16 16l288 0c9 0 16-7 16-16c0-9-7-16-16-16z" fill="#0e2b51" />
</svg>