<?xml version="1.0" encoding="utf-8"?>
<svg id="icon-lightning-3" viewBox="0 0 512 512" width="112" height="112" xmlns="http://www.w3.org/2000/svg">
  <path d="m400 64c-5 0-11 0-16 1c-30-41-77-65-128-65c-51 0-98 24-128 65c-5-1-11-1-16-1c-62 0-112 50-112 112c0 62 50 112 112 112c14 0 27-2 40-7c12 10 26 19 41 25l25-25c-24-7-45-21-60-40c-13 10-29 15-46 15c-44 0-80-36-80-80c0-44 36-80 80-80c11 0 21 2 30 6c22-41 64-70 114-70c50 0 92 29 114 70c9-4 19-6 30-6c44 0 80 36 80 80c0 44-36 80-80 80c-17 0-33-5-46-15c-10 13-23 23-38 31l-13 40c21-6 41-17 57-31c13 5 26 7 40 7c62 0 112-50 112-112c0-62-50-112-112-112z m-208 288l32 32l-32 96l96-96l-32-32l32-96z" fill="#0e2b51" />
</svg>