<?xml version="1.0" encoding="utf-8"?>
<svg id="icon-twitter-square" viewBox="0 0 512 512" width="112" height="112" xmlns="http://www.w3.org/2000/svg">
  <path d="m402 174c-10 5-22 8-34 10c13-8 22-19 26-33c-12 7-25 12-38 14c-12-12-26-19-44-19c-16 0-30 6-42 18c-12 12-18 26-18 42c0 6 1 10 2 14c-25-1-48-8-69-19c-22-11-40-25-55-44c-6 10-9 20-9 30c0 22 9 39 26 50c-9 0-18-2-28-7l0 1c0 14 5 27 14 38c10 11 21 18 35 20c-5 2-10 3-14 3c-3 0-6-1-11-1c4 12 11 21 21 29c10 8 22 12 35 12c-23 17-47 26-75 26c-5 0-10 0-14-1c28 18 59 27 92 27c21 0 41-3 60-10c18-7 34-16 48-27c13-12 25-25 34-39c10-15 17-31 22-47c4-16 7-32 7-48c0-3-1-6-1-8c12-8 22-19 30-31z m73-55l0 274c0 23-8 42-24 58c-16 16-35 24-58 24l-274 0c-23 0-42-8-58-24c-16-16-24-35-24-58l0-274c0-23 8-42 24-58c16-16 35-24 58-24l274 0c23 0 42 8 58 24c16 16 24 35 24 58z" fill="#0e2b51" />
</svg>