<?xml version="1.0" encoding="utf-8"?>
<svg id="icon-hail" viewBox="0 0 512 512" width="112" height="112" xmlns="http://www.w3.org/2000/svg">
  <path d="m400 64c-5 0-11 0-16 1c-30-41-77-65-128-65c-51 0-98 24-128 65c-5-1-11-1-16-1c-62 0-112 50-112 112c0 62 50 112 112 112c14 0 27-2 40-7c29 25 66 39 104 39c39 0 75-14 104-39c13 5 26 7 40 7c62 0 112-50 112-112c0-62-50-112-112-112z m0 192c-10 0-19-2-28-5l-18-7l-15 13c-23 20-53 31-83 31c-30 0-60-11-83-31l-15-13l-18 7c-9 3-18 5-28 5c-44 0-80-36-80-80c0-44 36-80 80-80c4 0 8 0 11 1l19 3l12-16c24-33 61-52 102-52c41 0 78 19 102 52l12 16l19-3c4-1 7-1 11-1c44 0 80 36 80 80c0 44-36 80-80 80z m-304 64c-18 0-32 14-32 32c0 18 14 32 32 32c18 0 32-14 32-32c0-18-14-32-32-32z m160 32c-18 0-32 14-32 32c0 18 14 32 32 32c18 0 32-14 32-32c0-18-14-32-32-32z m160-32c-18 0-32 14-32 32c0 18 14 32 32 32c18 0 32-14 32-32c0-18-14-32-32-32z m-64 128c-18 0-32 14-32 32c0 18 14 32 32 32c18 0 32-14 32-32c0-18-14-32-32-32z m-192 0c-18 0-32 14-32 32c0 18 14 32 32 32c18 0 32-14 32-32c0-18-14-32-32-32z" fill="#0e2b51" />
</svg>