<?xml version="1.0" encoding="utf-8"?>
<svg id="icon-snow-2" viewBox="0 0 512 512" width="112" height="112" xmlns="http://www.w3.org/2000/svg">
  <path d="m326 444l-18-11c1-3 1-6 1-9c0-4 0-7-1-10l18-10c8-5 11-16 7-24c-5-9-16-12-25-7l-18 11c-5-5-10-8-16-10l0-21c0-10-8-18-18-18c-10 0-18 8-18 18l0 21c-6 2-11 5-16 10l-18-11c-9-5-20-2-24 7c-5 8-2 19 6 24l18 10c-1 3-1 6-1 10c0 3 0 6 1 9l-18 11c-8 5-11 15-6 24c4 8 15 11 24 6l18-10c5 4 10 7 16 9l0 21c0 10 8 18 18 18c10 0 18-8 18-18l0-21c6-2 11-5 16-9l18 10c9 5 20 2 25-6c4-9 2-19-7-24z m-70-3c-10 0-18-8-18-17c0-10 8-18 18-18c10 0 18 8 18 18c0 9-8 17-18 17z m144-377c-5 0-11 0-16 1c-30-41-77-65-128-65c-51 0-98 24-128 65c-5-1-11-1-16-1c-62 0-112 50-112 112c0 62 50 112 112 112c14 0 27-2 40-7c29 25 66 39 104 39c39 0 75-14 104-39c13 5 26 7 40 7c62 0 112-50 112-112c0-62-50-112-112-112z m0 192c-17 0-33-5-46-15c-23 29-58 47-98 47c-40 0-75-18-98-47c-13 10-29 15-46 15c-44 0-80-36-80-80c0-44 36-80 80-80c11 0 21 2 30 6c22-41 64-70 114-70c50 0 92 29 114 70c9-4 19-6 30-6c44 0 80 36 80 80c0 44-36 80-80 80z" fill="#0e2b51" />
</svg>