<?xml version="1.0" encoding="utf-8"?>
<svg id="icon-call-phone-square" viewBox="0 0 512 512" width="112" height="112" xmlns="http://www.w3.org/2000/svg">
  <path d="m402 341c0-2 0-4 0-5c-1-1-5-4-11-8c-7-4-15-9-26-14l-15-9c-1 0-2-1-5-3c-3-2-5-4-7-5c-2-1-4-1-6-1c-4 0-8 3-14 9c-5 6-11 13-16 19c-5 6-10 9-13 9c-1 0-2 0-4-1c-2 0-4-1-5-1c-1-1-2-2-5-3c-2-1-3-2-4-3c-18-10-35-22-48-36c-14-13-26-30-36-48c-1-1-2-2-3-4c-1-3-2-4-3-5c0-1-1-3-1-5c-1-2-1-3-1-4c0-3 2-6 5-10c4-4 9-8 13-11c5-3 9-7 13-11c4-4 6-8 6-11c0-2 0-4-1-6c-1-2-3-4-5-7c-2-3-3-4-3-5c-1-1-2-4-5-8c-2-5-4-9-7-13c-2-5-5-9-7-14c-3-5-5-9-8-12c-2-3-3-4-4-5c-1 0-3 0-5 0c-9 0-19 2-29 6c-8 4-16 13-23 27c-6 14-9 26-9 37c0 3 0 7 0 10c1 3 1 6 2 9c0 2 1 5 2 9c2 4 3 7 3 9c1 1 2 4 4 9c2 5 3 7 3 9c11 31 32 61 62 91c30 30 60 51 91 62c2 0 4 1 9 3c5 2 8 3 9 4c2 0 5 1 9 3c4 1 7 2 9 2c3 1 6 1 9 2c3 0 7 0 10 0c11 0 23-3 37-9c14-7 23-15 27-23c4-10 6-20 6-29z m73-222l0 274c0 23-8 42-24 58c-16 16-35 24-58 24l-274 0c-23 0-42-8-58-24c-16-16-24-35-24-58l0-274c0-23 8-42 24-58c16-16 35-24 58-24l274 0c23 0 42 8 58 24c16 16 24 35 24 58z" fill="#0e2b51" />
</svg>