<?xml version="1.0" encoding="utf-8"?>
<svg id="icon-google-plus-1" viewBox="0 0 512 512" width="112" height="112" xmlns="http://www.w3.org/2000/svg">
  <path d="m269 419c0-4-1-8-2-12c-1-4-1-7-2-10c-1-3-3-7-5-10c-3-4-5-6-6-9c-2-2-5-5-8-8c-3-4-6-6-8-8c-2-1-5-4-9-7c-4-3-7-5-9-6c-1-2-5-4-9-7c-5-3-8-5-9-6c-3 0-8-1-14-1c-11 0-21 1-31 2c-9 2-20 4-30 8c-11 3-20 7-28 13c-8 5-15 12-20 21c-5 9-8 19-8 31c0 13 4 24 10 34c7 11 16 19 27 24c11 6 22 11 34 13c12 3 24 5 37 5c11 0 22-1 32-4c10-2 19-6 28-11c9-5 16-12 22-21c5-9 8-19 8-31z m-35-247c0-11-1-23-4-36c-4-13-8-25-14-37c-6-12-14-22-24-30c-10-8-21-12-34-12c-18 0-31 7-41 20c-10 13-15 29-15 47c0 9 1 18 4 28c2 10 5 20 10 30c4 10 10 19 16 27c6 8 13 14 22 19c9 5 18 7 28 7c18 0 32-5 40-17c8-11 12-27 12-46z m-37-135l125 0l-39 22l-38 0c13 9 24 21 31 36c7 16 11 32 11 48c0 15-2 27-6 38c-5 11-10 20-16 26c-7 7-13 13-19 19c-7 5-12 11-16 17c-5 6-7 13-7 20c0 5 2 9 5 14c3 5 7 9 12 14c5 4 11 9 17 14c6 4 12 10 18 15c6 6 12 13 17 19c5 7 9 15 12 25c3 9 5 19 5 30c0 30-13 57-40 81c-29 25-69 37-120 37c-11 0-23-1-34-3c-12-2-23-5-35-9c-12-5-22-10-31-17c-9-7-16-15-22-25c-6-11-9-22-9-35c0-12 4-25 11-39c6-12 15-22 27-31c12-9 26-16 42-21c15-4 30-8 44-10c14-2 28-3 43-4c-12-16-18-30-18-42c0-3 0-5 0-7c1-2 1-4 2-6c0-1 1-3 2-6c1-2 1-4 2-6c-8 1-14 2-20 2c-29 0-53-10-73-28c-20-19-31-43-31-71c0-26 9-50 28-71c18-21 40-35 66-41c18-4 36-5 54-5z m297 73l0 36l-73 0l0 73l-37 0l0-73l-73 0l0-36l73 0l0-73l37 0l0 73z" fill="#0e2b51" />
</svg>