<?xml version="1.0" encoding="utf-8"?>
<svg id="icon-pin-map" viewBox="0 0 512 512" width="112" height="112" xmlns="http://www.w3.org/2000/svg">
  <path d="m329 183c0-20-7-38-21-52c-15-14-32-21-52-21c-20 0-37 7-52 21c-14 14-21 32-21 52c0 20 7 37 21 52c15 14 32 21 52 21c20 0 37-7 52-21c14-15 21-32 21-52z m73 0c0 21-3 38-9 51l-104 221c-3 6-8 11-14 15c-6 4-12 5-19 5c-7 0-13-1-19-5c-6-4-11-9-14-15l-104-221c-6-13-9-30-9-51c0-41 14-75 43-104c28-28 63-42 103-42c40 0 75 14 103 42c29 29 43 63 43 104z" fill="#0e2b51" />
</svg>