<?xml version="1.0" encoding="utf-8"?>
<svg id="icon-camera-retro" viewBox="0 0 512 512" width="112" height="112" xmlns="http://www.w3.org/2000/svg">
  <path d="m265 238c0-3-1-5-2-7c-2-2-4-2-7-2c-13 0-23 4-32 13c-9 9-14 20-14 32c0 3 1 5 3 7c2 2 4 2 6 2c3 0 5 0 7-2c2-2 3-4 3-7c0-7 2-14 8-19c5-5 11-8 19-8c3 0 5-1 7-3c1-1 2-4 2-6z m64 37c0 20-7 37-21 52c-15 14-32 21-52 21c-20 0-37-7-52-21c-14-15-21-32-21-52c0-20 7-38 21-52c15-14 32-21 52-21c20 0 37 7 52 21c14 14 21 32 21 52z m-292 164l438 0l0-37l-438 0z m329-164c0-30-11-56-32-78c-22-21-48-32-78-32c-30 0-56 11-78 32c-21 22-32 48-32 78c0 30 11 56 32 77c22 22 48 33 78 33c30 0 56-11 78-33c21-21 32-47 32-77z m-293-184l110 0l0-36l-110 0z m-36 55l438 0l0-73l-236 0l-18 37l-184 0z m475-73l0 366c0 10-4 19-11 26c-7 7-15 10-26 10l-438 0c-11 0-19-3-26-10c-7-7-11-16-11-26l0-366c0-10 4-19 11-26c7-7 15-10 26-10l438 0c11 0 19 3 26 10c7 7 11 16 11 26z" fill="#0e2b51" />
</svg>