<?xml version="1.0" encoding="utf-8"?>
<svg id="icon-female" viewBox="0 0 512 512" width="112" height="112" xmlns="http://www.w3.org/2000/svg">
  <path d="m439 302c0 7-3 14-8 19c-5 5-12 8-20 8c-9 0-17-4-22-12l-65-98l-13 0l0 38l70 118c2 2 3 6 3 9c0 5-2 9-5 13c-4 3-8 5-13 5l-55 0l0 78c0 9-3 16-10 23c-6 6-13 9-22 9l-46 0c-9 0-16-3-22-9c-7-7-10-14-10-23l0-78l-55 0c-5 0-9-2-13-5c-3-4-5-8-5-13c0-3 1-7 3-9l70-118l0-38l-13 0l-65 98c-5 8-13 12-22 12c-8 0-15-3-20-8c-5-5-8-12-8-19c0-6 2-11 5-15l73-110c14-21 31-31 50-31l110 0c19 0 36 10 50 31l73 110c3 4 5 9 5 15z m-119-229c0 18-6 33-19 45c-12 13-27 19-45 19c-18 0-33-6-45-19c-13-12-19-27-19-45c0-18 6-33 19-45c12-13 27-19 45-19c18 0 33 6 45 19c13 12 19 27 19 45z" fill="#0e2b51" />
</svg>