<?xml version="1.0" encoding="utf-8"?>
<svg id="icon-ellipsis-2" viewBox="0 0 512 512" width="112" height="112" xmlns="http://www.w3.org/2000/svg">
  <path d="m165 210l0 55c0 8-3 14-8 20c-6 5-12 8-20 8l-55 0c-7 0-14-3-19-8c-5-6-8-12-8-20l0-55c0-7 3-14 8-19c5-5 12-8 19-8l55 0c8 0 14 3 20 8c5 5 8 12 8 19z m146 0l0 55c0 8-3 14-8 20c-5 5-12 8-20 8l-54 0c-8 0-15-3-20-8c-5-6-8-12-8-20l0-55c0-7 3-14 8-19c5-5 12-8 20-8l54 0c8 0 15 3 20 8c5 5 8 12 8 19z m146 0l0 55c0 8-3 14-8 20c-5 5-12 8-19 8l-55 0c-8 0-14-3-20-8c-5-6-8-12-8-20l0-55c0-7 3-14 8-19c6-5 12-8 20-8l55 0c7 0 14 3 19 8c5 5 8 12 8 19z" fill="#0e2b51" />
</svg>