<?xml version="1.0" encoding="utf-8"?>
<svg id="icon-farenheit" viewBox="0 0 512 512" width="112" height="112" xmlns="http://www.w3.org/2000/svg">
  <path d="m209 177c-4-3-8-6-13-8c-5-2-10-3-15-3c-6 0-11 1-16 3c-5 2-9 5-12 8c-4 4-7 8-9 12c-2 5-3 10-3 15c0 5 1 10 3 15c2 4 5 8 9 12c3 3 7 6 12 8c5 2 10 3 16 3c5 0 10-1 15-3c5-2 9-5 13-8c3-4 6-8 8-12c2-5 3-10 3-15c0-5-1-10-3-15c-2-4-5-8-8-12z m-16 39c-3 3-7 5-12 5c-5 0-10-2-13-5c-3-3-5-7-5-12c0-5 2-9 5-12c3-4 8-5 13-5c5 0 9 1 12 5c4 3 5 7 5 12c0 5-1 9-5 12z m178-15l0-32l-122 0l0 177l35 0l0-72l74 0l0-32l-74 0l0-41z" fill="#0e2b51" />
</svg>