<?xml version="1.0" encoding="utf-8"?>
<svg id="icon-sort-amount" viewBox="0 0 512 512" width="112" height="112" xmlns="http://www.w3.org/2000/svg">
  <path d="m347 448l0 55c0 3 0 5-2 6c-2 2-4 3-7 3l-73 0c-3 0-5-1-6-3c-2-1-3-3-3-6l0-55c0-3 1-5 3-7c1-1 3-2 6-2l73 0c3 0 5 1 7 2c2 2 2 4 2 7z m-137-37c0 3-1 5-3 7l-91 91c-2 2-4 3-6 3c-3 0-5-1-7-3l-91-91c-3-3-4-6-2-10c1-4 4-6 8-6l55 0l0-393c0-3 1-5 3-6c1-2 4-3 6-3l55 0c3 0 5 1 7 3c1 1 2 3 2 6l0 393l55 0c3 0 5 1 7 3c1 2 2 4 2 6z m192-109l0 55c0 2-1 4-2 6c-2 2-4 3-7 3l-128 0c-3 0-5-1-6-3c-2-2-3-4-3-6l0-55c0-3 1-5 3-7c1-2 3-2 6-2l128 0c3 0 5 0 7 2c1 2 2 4 2 7z m55-147l0 55c0 3-1 5-2 7c-2 2-4 2-7 2l-183 0c-3 0-5 0-6-2c-2-2-3-4-3-7l0-55c0-2 1-4 3-6c1-2 3-3 6-3l183 0c3 0 5 1 7 3c1 2 2 4 2 6z m55-146l0 55c0 3-1 5-3 7c-1 1-3 2-6 2l-238 0c-3 0-5-1-6-2c-2-2-3-4-3-7l0-55c0-3 1-5 3-6c1-2 3-3 6-3l238 0c3 0 5 1 6 3c2 1 3 3 3 6z" fill="#0e2b51" />
</svg>