<?xml version="1.0" encoding="utf-8"?>
<svg id="icon-anchor" viewBox="0 0 512 512" width="112" height="112" xmlns="http://www.w3.org/2000/svg">
  <path d="m274 73c0-5-2-9-5-13c-4-3-8-5-13-5c-5 0-9 2-13 5c-3 4-5 8-5 13c0 5 2 9 5 13c4 4 8 5 13 5c5 0 9-1 13-5c3-4 5-8 5-13z m238 265l0 101c0 4-2 7-6 8c-1 1-2 1-3 1c-3 0-5-1-7-3l-26-26c-23 27-53 49-91 65c-38 15-79 23-123 23c-44 0-85-8-123-23c-38-16-68-38-91-65l-26 26c-2 2-4 3-7 3c-1 0-2 0-3-1c-4-1-6-4-6-8l0-101c0-2 1-5 3-6c1-2 3-3 6-3l101 0c4 0 7 2 8 6c2 3 1 7-2 10l-28 28c12 18 31 32 54 44c23 12 49 20 77 24l0-185l-54 0c-5 0-10-2-13-5c-4-4-6-8-6-13l0-37c0-5 2-9 6-13c3-3 8-5 13-5l54 0l0-47c-11-6-19-15-26-26c-7-11-10-24-10-37c0-20 7-37 21-52c15-14 32-21 52-21c20 0 37 7 52 21c14 15 21 32 21 52c0 13-3 26-10 37c-7 11-15 20-26 26l0 47l54 0c5 0 10 2 13 5c4 4 6 8 6 13l0 37c0 5-2 9-6 13c-3 3-8 5-13 5l-54 0l0 185c28-4 54-12 77-24c23-12 42-26 54-44l-28-28c-3-3-4-7-2-10c1-4 4-6 8-6l101 0c3 0 5 1 6 3c2 1 3 4 3 6z" fill="#0e2b51" />
</svg>