<?xml version="1.0" encoding="utf-8"?>
<svg id="icon-pin-map-2" viewBox="0 0 512 512" width="112" height="112" xmlns="http://www.w3.org/2000/svg">
  <path d="m229 247l0-128c0-3-1-5-3-7c-2-1-4-2-7-2c-2 0-4 1-6 2c-2 2-3 4-3 7l0 128c0 3 1 5 3 6c2 2 4 3 6 3c3 0 5-1 7-3c2-1 3-3 3-6z m192 100c0 5-2 10-6 13c-3 4-8 6-13 6l-122 0l-15 138c0 2-1 4-3 6c-1 1-3 2-6 2l0 0c-5 0-8-3-9-8l-22-138l-115 0c-5 0-10-2-13-6c-4-3-6-8-6-13c0-23 8-44 23-63c15-19 32-28 51-28l0-146c-10 0-19-4-26-11c-7-7-11-16-11-26c0-10 4-18 11-26c7-7 16-10 26-10l182 0c10 0 19 3 26 10c7 8 11 16 11 26c0 10-4 19-11 26c-7 7-16 11-26 11l0 146c19 0 36 9 51 28c15 19 23 40 23 63z" fill="#0e2b51" />
</svg>