<?xml version="1.0" encoding="utf-8"?>
<svg id="icon-youtube-square" viewBox="0 0 512 512" width="112" height="112" xmlns="http://www.w3.org/2000/svg">
  <path d="m299 372l0-45c0-9-3-14-8-14c-3 0-7 2-10 5l0 64c3 3 7 4 10 4c5 0 8-4 8-14z m53-35l19 0l0-9c0-10-4-15-10-15c-6 0-9 5-9 15z m-163-76l0 20l-23 0l0 121l-21 0l0-121l-23 0l0-20z m57 36l0 105l-19 0l0-11c-8 8-15 13-22 13c-6 0-10-3-12-8c-1-3-2-8-2-16l0-83l19 0l0 78c0 4 0 7 1 7c0 3 1 4 4 4c4 0 8-3 12-9l0-80z m72 32l0 42c0 10-1 17-2 21c-2 8-7 12-15 12c-7 0-13-4-20-12l0 10l-19 0l0-141l19 0l0 46c7-7 13-11 20-11c8 0 13 4 15 12c1 4 2 11 2 21z m72 37l0 3c0 5 0 9-1 12c0 4-2 8-4 11c-5 8-13 12-23 12c-10 0-18-4-23-11c-4-5-6-13-6-25l0-37c0-11 2-19 6-24c5-7 13-11 22-11c10 0 18 4 23 11c4 5 6 13 6 24l0 22l-38 0l0 19c0 9 3 14 9 14c5 0 8-2 9-7c0 0 0-1 0-2c0-1 0-3 0-5l0-6z m-129-235l0 44c0 10-3 15-9 15c-6 0-9-5-9-15l0-44c0-10 3-15 9-15c6 0 9 5 9 15z m152 203c0-33-2-58-5-74c-2-8-6-15-13-21c-6-6-13-9-21-10c-26-3-65-4-118-4c-52 0-92 1-117 4c-9 1-16 4-22 10c-6 6-11 13-12 21c-4 17-6 41-6 74c0 34 2 59 6 75c1 8 6 15 12 20c6 6 13 9 21 10c26 3 66 5 118 5c52 0 92-2 118-5c8-1 15-4 21-10c6-5 11-12 12-20c4-16 6-41 6-75z m-216-186l26-84l-21 0l-15 55l-15-55l-22 0l7 19c0 0 2 7 6 20c7 20 11 35 13 45l0 58l21 0z m83 23l0-37c0-11-2-19-6-25c-6-7-13-10-22-10c-10 0-17 3-23 10c-4 6-6 14-6 25l0 37c0 11 2 20 6 25c6 8 13 11 23 11c9 0 16-3 22-11c4-5 6-13 6-25z m52 35l19 0l0-106l-19 0l0 81c-4 6-8 9-12 9c-3 0-5-2-5-5c0 0 0-3 0-7l0-78l-19 0l0 84c0 7 0 12 1 15c3 6 7 8 13 8c7 0 14-4 22-13z m143-87l0 274c0 23-8 42-24 58c-16 16-35 24-58 24l-274 0c-23 0-42-8-58-24c-16-16-24-35-24-58l0-274c0-23 8-42 24-58c16-16 35-24 58-24l274 0c23 0 42 8 58 24c16 16 24 35 24 58z" fill="#0e2b51" />
</svg>