<?xml version="1.0" encoding="utf-8"?>
<svg id="icon-lightning-black-1" viewBox="0 0 512 512" width="112" height="112" xmlns="http://www.w3.org/2000/svg">
  <path d="m512 135c0-49-40-89-89-89c-3 0-5 0-7 0c-23-29-58-46-96-46c-38 0-73 17-96 46c-2 0-4 0-7 0c-49 0-89 40-89 89c0 5 1 10 2 15c-1 1-2 1-2 2c-5-1-11-1-16-1c-62 0-112 50-112 112c0 62 50 112 112 112c14 0 27-3 40-7c18 16 40 26 63 33l-23 15l32 32l-32 64l96-64l-32-32l5-10c37-1 72-14 99-38c13 4 26 7 40 7c62 0 112-50 112-112c0-26-9-49-24-68c15-16 24-37 24-60z" fill="#0e2b51" />
</svg>