<?xml version="1.0" encoding="utf-8"?>
<svg id="icon-fog-sunrise" viewBox="0 0 512 512" width="112" height="112" xmlns="http://www.w3.org/2000/svg">
  <path d="m256 95c9 0 16-7 16-16l0-32c0-9-7-16-16-16c-9 0-16 7-16 16l0 32c0 9 7 16 16 16z m124 42l23-22c6-7 6-17 0-23c-6-6-16-6-23 0l-22 23c-6 6-6 16 0 22c6 6 16 6 22 0z m-316 118l32 0c9 0 16-7 16-16c0-9-7-16-16-16l-32 0c-9 0-16 7-16 16c0 9 7 16 16 16z m336-16c0 9 7 16 16 16l32 0c9 0 16-7 16-16c0-9-7-16-16-16l-32 0c-9 0-16 7-16 16z m-268-102c6 6 16 6 22 0c6-6 6-16 0-22l-22-23c-7-6-17-6-23 0c-6 6-6 16 0 23z m14 118l32 0c-1-5-2-11-2-16c0-44 36-80 80-80c44 0 80 36 80 80c0 5-1 11-2 16l32 0c1-5 2-11 2-16c0-62-50-112-112-112c-62 0-112 50-112 112c0 5 1 11 2 16z m302 32l-384 0c-9 0-16 7-16 16c0 9 7 16 16 16l384 0c9 0 16-7 16-16c0-9-7-16-16-16z m0 64l-384 0c-9 0-16 7-16 16c0 9 7 16 16 16l384 0c9 0 16-7 16-16c0-9-7-16-16-16z m0 64l-384 0c-9 0-16 7-16 16c0 9 7 16 16 16l384 0c9 0 16-7 16-16c0-9-7-16-16-16z" fill="#0e2b51" />
</svg>