<?xml version="1.0" encoding="utf-8"?>
<svg id="icon-wind-cloud" viewBox="0 0 512 512" width="112" height="112" xmlns="http://www.w3.org/2000/svg">
  <path d="m417 166c-24-24-57-39-92-39c-34 0-67 15-91 39c-53 3-95 46-95 100c0 55 44 99 99 99c6 0 12 0 18-1c20 13 45 21 69 21c25 0 49-8 70-21c6 1 12 1 17 1c55 0 100-44 100-99c0-54-42-97-95-100z m-5 167c-8 0-16-1-24-4c-17 15-39 24-63 24c-23 0-45-9-63-24c-7 3-15 4-24 4c-37 0-67-30-67-67c0-38 30-68 67-68c4 0 7 0 10 1c18-25 46-40 77-40c31 0 60 15 78 40c3-1 6-1 9-1c38 0 68 30 68 68c0 37-30 67-68 67z m-268 19l-128 0c-9 0-16 7-16 16c0 9 7 16 16 16l128 0c9 0 16-7 16-16c0-9-7-16-16-16z m-128-32l64 0c9 0 16-7 16-16c0-9-7-16-16-16l-64 0c-9 0-16 7-16 16c0 9 7 16 16 16z m32-64l64 0c9 0 16-7 16-16c0-9-7-16-16-16l-64 0c-9 0-16 7-16 16c0 9 7 16 16 16z" fill="#0e2b51" />
</svg>