<?xml version="1.0" encoding="utf-8"?>
<!-- Generator: Adobe Illustrator 17.0.1, SVG Export Plug-In . SVG Version: 6.00 Build 0)  -->
<!DOCTYPE svg PUBLIC "-//W3C//DTD SVG 1.1//EN" "http://www.w3.org/Graphics/SVG/1.1/DTD/svg11.dtd">
<svg version="1.1" id="Capa_1" xmlns="http://www.w3.org/2000/svg" xmlns:xlink="http://www.w3.org/1999/xlink" x="0px" y="0px"
	 width="25px" height="25px" viewBox="37.5 37.5 25 25" enable-background="new 37.5 37.5 25 25" xml:space="preserve">
<g>
	<path d="M43.776,46.978c-0.344,0-0.637,0.12-0.877,0.361s-0.361,0.529-0.361,0.865v5.168c0,0.344,0.12,0.637,0.361,0.877
		s0.533,0.361,0.877,0.361c0.345,0,0.635-0.12,0.871-0.361c0.236-0.24,0.355-0.533,0.355-0.877v-5.168
		c0-0.337-0.12-0.625-0.361-0.865C44.401,47.098,44.113,46.978,43.776,46.978z"/>
	<path d="M45.483,55.211c0,0.369,0.128,0.681,0.385,0.937c0.256,0.256,0.569,0.384,0.938,0.384h0.889l0.012,2.728
		c0,0.345,0.12,0.637,0.361,0.877c0.24,0.24,0.529,0.361,0.865,0.361c0.345,0,0.637-0.12,0.877-0.361
		c0.24-0.24,0.361-0.533,0.361-0.877v-2.728h1.658v2.728c0,0.345,0.12,0.637,0.361,0.877c0.24,0.24,0.533,0.361,0.877,0.361
		c0.344,0,0.637-0.12,0.877-0.361c0.24-0.24,0.36-0.533,0.36-0.877v-2.728h0.902c0.36,0,0.669-0.128,0.925-0.384
		c0.256-0.256,0.384-0.569,0.384-0.937v-8.005H45.483V55.211z"/>
	<path d="M53.728,42.339l0.853-1.575c0.056-0.104,0.036-0.184-0.06-0.24c-0.104-0.048-0.184-0.024-0.24,0.072l-0.865,1.586
		c-0.762-0.336-1.567-0.505-2.416-0.505c-0.849,0-1.655,0.168-2.416,0.505l-0.865-1.586c-0.056-0.096-0.136-0.12-0.24-0.072
		c-0.096,0.056-0.116,0.136-0.06,0.24l0.854,1.575c-0.865,0.441-1.555,1.056-2.067,1.845c-0.513,0.789-0.769,1.653-0.769,2.59
		h11.118c0-0.937-0.256-1.801-0.769-2.59C55.272,43.395,54.586,42.779,53.728,42.339z M48.794,44.628
		c-0.092,0.092-0.202,0.138-0.33,0.138s-0.236-0.046-0.325-0.138c-0.088-0.092-0.132-0.202-0.132-0.33
		c0-0.128,0.044-0.238,0.132-0.33c0.088-0.092,0.197-0.138,0.325-0.138s0.238,0.046,0.33,0.138c0.092,0.092,0.138,0.202,0.138,0.33
		C48.933,44.426,48.887,44.536,48.794,44.628z M53.861,44.628c-0.088,0.092-0.197,0.138-0.325,0.138s-0.238-0.046-0.33-0.138
		c-0.092-0.092-0.138-0.202-0.138-0.33c0-0.128,0.046-0.238,0.138-0.33c0.092-0.092,0.202-0.138,0.33-0.138s0.236,0.046,0.325,0.138
		c0.088,0.092,0.132,0.202,0.132,0.33C53.993,44.426,53.949,44.536,53.861,44.628z"/>
	<path d="M59.101,47.332c-0.24-0.236-0.533-0.354-0.877-0.354c-0.337,0-0.625,0.118-0.865,0.354
		c-0.24,0.237-0.361,0.527-0.361,0.872v5.168c0,0.344,0.12,0.637,0.361,0.877c0.24,0.24,0.529,0.361,0.865,0.361
		c0.345,0,0.637-0.12,0.877-0.361c0.24-0.24,0.361-0.533,0.361-0.877v-5.168C59.462,47.86,59.341,47.569,59.101,47.332z"/>
</g>
</svg>
