<?xml version="1.0" encoding="utf-8"?>
<!-- Generator: Adobe Illustrator 17.0.1, SVG Export Plug-In . SVG Version: 6.00 Build 0)  -->
<!DOCTYPE svg PUBLIC "-//W3C//DTD SVG 1.1//EN" "http://www.w3.org/Graphics/SVG/1.1/DTD/svg11.dtd">
<svg version="1.1" id="Capa_1" xmlns="http://www.w3.org/2000/svg" xmlns:xlink="http://www.w3.org/1999/xlink" x="0px" y="0px"
	 width="25px" height="25px" viewBox="37.5 37.5 25 25" enable-background="new 37.5 37.5 25 25" xml:space="preserve">
<g>
	<path d="M57.326,53.292c-0.604-0.866-0.906-1.843-0.906-2.928c0-0.989,0.285-1.895,0.853-2.718
		c0.306-0.446,0.805-0.963,1.497-1.549c-0.455-0.56-0.91-0.998-1.366-1.313c-0.823-0.569-1.755-0.853-2.796-0.853
		c-0.621,0-1.379,0.149-2.271,0.446c-0.858,0.298-1.484,0.446-1.878,0.446c-0.298,0-0.901-0.131-1.812-0.394
		c-0.919-0.263-1.694-0.394-2.324-0.394c-1.505,0-2.748,0.63-3.729,1.891c-0.989,1.278-1.484,2.914-1.484,4.91
		c0,2.118,0.644,4.319,1.93,6.604c1.304,2.267,2.621,3.4,3.952,3.4c0.446,0,1.024-0.149,1.733-0.446
		c0.709-0.289,1.33-0.433,1.864-0.433c0.569,0,1.23,0.14,1.982,0.42c0.796,0.28,1.409,0.42,1.838,0.42
		c1.12,0,2.245-0.858,3.374-2.573c0.735-1.094,1.273-2.188,1.615-3.282C58.621,54.71,57.93,54.158,57.326,53.292z"/>
	<path d="M52.862,43.144c0.551-0.551,0.958-1.155,1.221-1.812c0.254-0.656,0.38-1.252,0.38-1.786c0-0.035-0.002-0.079-0.007-0.131
		c-0.004-0.053-0.006-0.096-0.006-0.131c-0.009-0.026-0.02-0.074-0.033-0.144c-0.013-0.07-0.024-0.118-0.033-0.144
		c-1.54,0.359-2.634,1.007-3.282,1.943c-0.656,0.945-0.998,2.07-1.024,3.374c0.586-0.053,1.041-0.127,1.365-0.223
		C51.917,43.931,52.389,43.616,52.862,43.144z"/>
</g>
</svg>
