<?xml version="1.0" encoding="utf-8"?>
<!-- Generator: Adobe Illustrator 17.0.1, SVG Export Plug-In . SVG Version: 6.00 Build 0)  -->
<!DOCTYPE svg PUBLIC "-//W3C//DTD SVG 1.1//EN" "http://www.w3.org/Graphics/SVG/1.1/DTD/svg11.dtd">
<svg version="1.1" id="Capa_1" xmlns="http://www.w3.org/2000/svg" xmlns:xlink="http://www.w3.org/1999/xlink" x="0px" y="0px"
	 width="25px" height="25px" viewBox="37.5 37.5 25 25" enable-background="new 37.5 37.5 25 25" xml:space="preserve">
<path d="M58.912,43.501c-0.252-0.252-0.551-0.379-0.897-0.379h-1.275v-0.957c0-0.438-0.156-0.814-0.468-1.126
	c-0.312-0.312-0.688-0.468-1.126-0.468h-0.637c-0.439,0-0.814,0.156-1.126,0.468c-0.312,0.312-0.468,0.688-0.468,1.126v0.957h-3.826
	v-0.957c0-0.438-0.156-0.814-0.468-1.126c-0.312-0.312-0.688-0.468-1.126-0.468h-0.638c-0.438,0-0.814,0.156-1.126,0.468
	c-0.312,0.312-0.468,0.688-0.468,1.126v0.957h-1.275c-0.346,0-0.645,0.126-0.897,0.379c-0.252,0.252-0.379,0.551-0.379,0.897v12.755
	c0,0.345,0.126,0.644,0.379,0.897c0.253,0.252,0.552,0.378,0.897,0.378h14.03c0.345,0,0.645-0.126,0.897-0.379
	c0.252-0.252,0.379-0.552,0.379-0.897V44.398C59.29,44.052,59.164,43.753,58.912,43.501z M46.854,57.153h-2.87v-2.87h2.87V57.153z
	 M46.854,53.645h-2.87v-3.189h2.87V53.645z M46.854,49.819h-2.87v-2.87h2.87V49.819z M46.63,45.26
	c-0.063-0.063-0.095-0.138-0.095-0.224v-2.87c0-0.086,0.032-0.161,0.095-0.224c0.063-0.063,0.138-0.095,0.224-0.095h0.638
	c0.086,0,0.161,0.032,0.224,0.095s0.095,0.138,0.095,0.224v2.87c0,0.087-0.032,0.161-0.095,0.224
	c-0.063,0.063-0.138,0.095-0.224,0.095h-0.638C46.768,45.354,46.693,45.323,46.63,45.26z M50.681,57.153h-3.189v-2.87h3.189V57.153z
	 M50.681,53.645h-3.189v-3.189h3.189V53.645z M50.681,49.819h-3.189v-2.87h3.189V49.819z M54.507,57.153h-3.189v-2.87h3.189V57.153z
	 M54.507,53.645h-3.189v-3.189h3.189V53.645z M54.507,49.819h-3.189v-2.87h3.189V49.819z M54.283,45.26
	c-0.063-0.063-0.094-0.138-0.094-0.224v-2.87c0-0.086,0.032-0.161,0.094-0.224c0.063-0.063,0.138-0.095,0.224-0.095h0.637
	c0.087,0,0.161,0.032,0.224,0.095s0.094,0.138,0.094,0.224v2.87c0,0.087-0.032,0.161-0.094,0.224s-0.138,0.095-0.224,0.095h-0.637
	C54.421,45.354,54.346,45.323,54.283,45.26z M58.015,57.153h-2.87v-2.87h2.87V57.153z M58.015,53.645h-2.87v-3.189h2.87V53.645z
	 M58.015,49.819h-2.87v-2.87h2.87V49.819z"/>
</svg>
