<?xml version="1.0" encoding="utf-8"?>
<!-- Generator: Adobe Illustrator 17.0.1, SVG Export Plug-In . SVG Version: 6.00 Build 0)  -->
<!DOCTYPE svg PUBLIC "-//W3C//DTD SVG 1.1//EN" "http://www.w3.org/Graphics/SVG/1.1/DTD/svg11.dtd">
<svg version="1.1" id="Capa_1" xmlns="http://www.w3.org/2000/svg" xmlns:xlink="http://www.w3.org/1999/xlink" x="0px" y="0px"
	 width="25px" height="25px" viewBox="37.5 37.5 25 25" enable-background="new 37.5 37.5 25 25" xml:space="preserve">
<path d="M60.915,41.067c-0.161-0.369-0.439-0.553-0.837-0.553H41.922c-0.397,0-0.676,0.185-0.837,0.553
	c-0.161,0.388-0.094,0.719,0.198,0.993l6.993,6.993v6.893c0,0.246,0.09,0.459,0.269,0.638l3.631,3.631
	c0.17,0.18,0.383,0.27,0.638,0.27c0.114,0,0.232-0.024,0.354-0.071c0.369-0.161,0.554-0.44,0.554-0.837V49.053l6.993-6.993
	C61.009,41.786,61.075,41.455,60.915,41.067z"/>
</svg>
