<?xml version="1.0" encoding="utf-8"?>
<!-- Generator: Adobe Illustrator 17.0.1, SVG Export Plug-In . SVG Version: 6.00 Build 0)  -->
<!DOCTYPE svg PUBLIC "-//W3C//DTD SVG 1.1//EN" "http://www.w3.org/Graphics/SVG/1.1/DTD/svg11.dtd">
<svg version="1.1" id="Layer_3" xmlns="http://www.w3.org/2000/svg" xmlns:xlink="http://www.w3.org/1999/xlink" x="0px" y="0px"
	 width="25px" height="25px" viewBox="37.5 37.5 25 25" enable-background="new 37.5 37.5 25 25" xml:space="preserve">
<path d="M58.783,45.082c0-0.69-0.398-1.402-1.004-1.82c-0.586-0.398-1.381-0.628-2.197-0.628s-1.611,0.23-2.197,0.628
	c-0.418,0.293-0.732,0.711-0.879,1.151c-0.272-0.251-0.669-0.398-1.13-0.398s-0.837,0.146-1.13,0.398
	c-0.167-0.46-0.481-0.879-0.879-1.151c-0.586-0.398-1.381-0.628-2.197-0.628s-1.612,0.23-2.197,0.628
	c-0.607,0.418-1.004,1.13-1.004,1.82c0,0.649,0.356,1.088,0.711,1.402h-3.326v5.084h1.088v7.008h17.824v-7.008h1.088v-5.084h-3.285
	C58.428,46.169,58.783,45.73,58.783,45.082z M49.39,57.132h-5.502v-5.565h5.502V57.132z M49.39,50.123h-6.611v-2.217h6.611V50.123z
	 M49.39,46.379h-2.238c-0.628,0-1.213-0.167-1.653-0.46c-0.523-0.356-0.586-0.607-0.586-0.837c0-0.377,0.23-0.774,0.586-1.025
	c0.439-0.293,1.025-0.46,1.653-0.46c0.628,0,1.213,0.167,1.653,0.46c0.356,0.251,0.586,0.649,0.586,1.025L49.39,46.379L49.39,46.379
	z M50.352,46.483L50.352,46.483L50.352,46.483L50.352,46.483z M52.36,46.483L52.36,46.483L52.36,46.483L52.36,46.483z
	 M53.323,45.082c0-0.377,0.23-0.774,0.586-1.025c0.439-0.293,1.025-0.46,1.653-0.46c0.628,0,1.213,0.167,1.653,0.46
	c0.356,0.251,0.586,0.649,0.586,1.025c0,0.23-0.063,0.481-0.586,0.837c-0.439,0.293-1.025,0.46-1.653,0.46h-2.238L53.323,45.082
	L53.323,45.082z M58.825,57.132h-5.502v-5.565h5.502C58.825,51.567,58.825,57.132,58.825,57.132z M59.934,47.906v2.217h-6.611
	v-2.217C53.323,47.906,59.934,47.906,59.934,47.906z"/>
</svg>
