<?xml version="1.0" encoding="utf-8"?>
<!-- Generator: Adobe Illustrator 17.0.1, SVG Export Plug-In . SVG Version: 6.00 Build 0)  -->
<!DOCTYPE svg PUBLIC "-//W3C//DTD SVG 1.1//EN" "http://www.w3.org/Graphics/SVG/1.1/DTD/svg11.dtd">
<svg version="1.1" id="Capa_1" xmlns="http://www.w3.org/2000/svg" xmlns:xlink="http://www.w3.org/1999/xlink" x="0px" y="0px"
	 width="25px" height="25px" viewBox="37.5 37.5 25 25" enable-background="new 37.5 37.5 25 25" xml:space="preserve">
<path d="M57.666,45v-3.333H56V45h-3.333v1.667H56V50h1.667v-3.333H61v9.583c0,1.033-0.367,1.916-1.1,2.65
	c-0.733,0.734-1.617,1.1-2.649,1.1h-6.094c0.338-0.634,0.508-1.315,0.508-2.044c0-0.573-0.096-1.105-0.286-1.595
	c-0.191-0.49-0.432-0.894-0.723-1.211c-0.291-0.317-0.603-0.625-0.937-0.924c-0.334-0.299-0.647-0.558-0.937-0.775
	c-0.291-0.217-0.532-0.454-0.723-0.709c-0.191-0.256-0.286-0.515-0.286-0.775c0-0.313,0.1-0.608,0.299-0.886
	c0.2-0.277,0.443-0.544,0.729-0.801c0.286-0.256,0.571-0.536,0.853-0.84c0.282-0.304,0.523-0.707,0.723-1.211
	c0.2-0.503,0.299-1.072,0.299-1.706c0-0.634-0.115-1.265-0.345-1.894c-0.23-0.629-0.558-1.144-0.983-1.543
	c-0.052-0.052-0.113-0.1-0.182-0.143c-0.069-0.043-0.124-0.076-0.163-0.098c-0.039-0.022-0.082-0.063-0.13-0.124
	s-0.093-0.135-0.137-0.222h1.758l1.758-0.833h-5.69c-1.198,0-2.259,0.167-3.184,0.502c-0.924,0.334-1.717,0.914-2.376,1.738
	c0-1.094,0.352-2.018,1.054-2.773C42.758,40.377,43.656,40,44.75,40h12.5c1.033,0,1.916,0.367,2.649,1.1
	c0.734,0.734,1.1,1.617,1.1,2.65V45C61,45,57.666,45,57.666,45z M43.591,49.512c0.277,0.36,0.616,0.653,1.015,0.879
	c0.399,0.226,0.82,0.338,1.263,0.338c0.842,0,1.452-0.263,1.829-0.788c0.377-0.525,0.566-1.222,0.566-2.09
	c0-0.53-0.069-1.085-0.208-1.666c-0.139-0.581-0.343-1.146-0.612-1.692c-0.269-0.547-0.634-0.999-1.094-1.354
	c-0.46-0.356-0.976-0.534-1.549-0.534c-0.807,0-1.435,0.299-1.881,0.899c-0.447,0.599-0.671,1.315-0.671,2.149
	c0,0.408,0.05,0.837,0.15,1.289c0.1,0.451,0.254,0.903,0.463,1.354C43.07,48.746,43.313,49.152,43.591,49.512z M45.192,52.565
	c0-0.217,0.091-0.59,0.273-1.12c-0.33,0.043-0.634,0.065-0.912,0.065c-1.476,0-2.66-0.512-3.555-1.536v5.638
	c1.311-0.677,2.982-1.046,5.013-1.107C45.466,53.793,45.192,53.147,45.192,52.565z M49.645,58.079
	c-0.043-0.143-0.12-0.293-0.228-0.449c-0.109-0.156-0.2-0.289-0.273-0.397c-0.074-0.109-0.189-0.236-0.345-0.384
	c-0.156-0.147-0.276-0.258-0.358-0.332c-0.082-0.074-0.222-0.184-0.417-0.332c-0.195-0.147-0.33-0.247-0.404-0.299
	c-0.074-0.052-0.217-0.152-0.43-0.299c-0.213-0.148-0.345-0.239-0.397-0.273c-0.147-0.017-0.36-0.026-0.638-0.026
	c-0.477,0-0.942,0.03-1.393,0.091c-0.451,0.061-0.916,0.165-1.393,0.313c-0.477,0.148-0.911,0.362-1.302,0.644
	c-0.391,0.282-0.69,0.618-0.898,1.009c0.234,0.79,0.684,1.43,1.348,1.92C43.18,59.755,43.924,60,44.749,60h4.948
	c0.087-0.286,0.13-0.595,0.13-0.924c0-0.183-0.019-0.358-0.059-0.527C49.73,58.379,49.688,58.222,49.645,58.079z"/>
</svg>
