<?xml version="1.0" encoding="utf-8"?>
<!-- Generator: Adobe Illustrator 17.0.1, SVG Export Plug-In . SVG Version: 6.00 Build 0)  -->
<!DOCTYPE svg PUBLIC "-//W3C//DTD SVG 1.1//EN" "http://www.w3.org/Graphics/SVG/1.1/DTD/svg11.dtd">
<svg version="1.1" id="Capa_1" xmlns="http://www.w3.org/2000/svg" xmlns:xlink="http://www.w3.org/1999/xlink" x="0px" y="0px"
	 width="25px" height="25px" viewBox="37.5 37.5 25 25" enable-background="new 37.5 37.5 25 25" xml:space="preserve">
<path d="M59.582,43.313c-0.945-0.923-2.251-1.384-3.918-1.384c-0.461,0-0.932,0.08-1.412,0.24s-0.927,0.376-1.339,0.647
	c-0.413,0.272-0.768,0.527-1.066,0.764c-0.298,0.238-0.58,0.491-0.848,0.759c-0.268-0.268-0.551-0.521-0.848-0.759
	s-0.653-0.493-1.066-0.764s-0.859-0.487-1.339-0.647c-0.48-0.16-0.951-0.24-1.412-0.24c-1.667,0-2.972,0.461-3.918,1.384
	C41.472,44.235,41,45.515,41,47.152c0,0.498,0.087,1.012,0.262,1.54c0.175,0.528,0.374,0.979,0.597,1.35s0.476,0.735,0.759,1.088
	c0.283,0.353,0.489,0.597,0.619,0.731c0.13,0.134,0.232,0.23,0.307,0.29l6.964,6.719c0.134,0.134,0.298,0.201,0.491,0.201
	s0.357-0.067,0.491-0.201l6.953-6.697C60.148,50.47,61,48.797,61,47.152C61,45.515,60.527,44.236,59.582,43.313z"/>
</svg>
