<?xml version="1.0" encoding="utf-8"?>
<!-- Generator: Adobe Illustrator 17.0.1, SVG Export Plug-In . SVG Version: 6.00 Build 0)  -->
<!DOCTYPE svg PUBLIC "-//W3C//DTD SVG 1.1//EN" "http://www.w3.org/Graphics/SVG/1.1/DTD/svg11.dtd">
<svg version="1.1" id="Capa_1" xmlns="http://www.w3.org/2000/svg" xmlns:xlink="http://www.w3.org/1999/xlink" x="0px" y="0px"
	 width="25px" height="25px" viewBox="37.5 37.5 25 25" enable-background="new 37.5 37.5 25 25" xml:space="preserve">
<path d="M59.4,40.6c-0.733-0.734-1.617-1.1-2.65-1.1H44.25c-1.033,0-1.916,0.367-2.65,1.1c-0.734,0.734-1.1,1.617-1.1,2.65v12.5
	c0,1.033,0.367,1.916,1.1,2.65c0.734,0.734,1.617,1.1,2.65,1.1h12.5c1.033,0,1.916-0.367,2.65-1.1c0.734-0.734,1.1-1.617,1.1-2.65
	v-12.5C60.5,42.217,60.133,41.333,59.4,40.6z M46.594,56.245h-3.008v-9.037h3.008V56.245z M46.321,45.535
	c-0.313,0.3-0.725,0.449-1.237,0.449h-0.013c-0.495,0-0.896-0.15-1.204-0.449c-0.308-0.3-0.463-0.671-0.463-1.113
	c0-0.451,0.159-0.825,0.475-1.12c0.317-0.295,0.727-0.443,1.23-0.443s0.907,0.148,1.211,0.443c0.304,0.295,0.46,0.668,0.469,1.12
	C46.789,44.864,46.633,45.235,46.321,45.535z M57.414,56.245h-3.008v-4.831c0-1.363-0.503-2.044-1.511-2.044
	c-0.382,0-0.703,0.106-0.963,0.319c-0.261,0.213-0.456,0.471-0.586,0.775c-0.061,0.156-0.091,0.399-0.091,0.729v5.052h-3.008
	c0.026-5.451,0.026-8.464,0-9.037h3.008v1.276C51.888,47.495,52.786,47,53.951,47c1.042,0,1.879,0.343,2.513,1.029
	c0.634,0.686,0.951,1.697,0.951,3.034L57.414,56.245L57.414,56.245z"/>
</svg>
