<?xml version="1.0" encoding="utf-8"?>
<!-- Generator: Adobe Illustrator 17.0.1, SVG Export Plug-In . SVG Version: 6.00 Build 0)  -->
<!DOCTYPE svg PUBLIC "-//W3C//DTD SVG 1.1//EN" "http://www.w3.org/Graphics/SVG/1.1/DTD/svg11.dtd">
<svg version="1.1" id="Layer_1" xmlns="http://www.w3.org/2000/svg" xmlns:xlink="http://www.w3.org/1999/xlink" x="0px" y="0px"
	 width="25px" height="25px" viewBox="37.5 37.5 25 25" enable-background="new 37.5 37.5 25 25" xml:space="preserve">
<g id="Your_Icon_5_" display="none">
	<path display="inline" fill="#D8ABAB" d="M-2939.65,223.05c0,0-18.85,8.4-40.45,26.15c109.75-233.85,243.75-224.35,243.75-224.35
		c-293.7-84.45-358.65,61.4-362.15,196.7c-57.85-122.25-174.35-233.45-406.45-116.2c0,0,190.05,16.15,338.3,149.35
		c-314.9-151.15-311.55,299.15-311.55,299.15c74.85-157.3,198.55-200.15,290.3-208.3c-3.75,6.8-5.8,14.15-5.8,22
		c0,24.05,19.35,44.5,46.7,53.1c-95.5,111.95-100.15,257.15-86.15,349.1c20.9,137.4,58.5,200.45,58.5,200.45h203
		c0,0-65.1-96.6-102.05-215.6c-35.4-113.9-15.8-211.25,25.6-284.55c13.15,7.25,28.7,11.55,45.45,11.55
		c47.05,0,85.15-32.9,85.15-73.6c0-20.9-10.15-39.65-26.3-53.1c10.25-1.9,218.1-31.1,276.55,183.85
		C-2604.05,525.55-2600.7,108.8-2939.65,223.05z"/>
</g>
<g>
	<path d="M57.872,50.012c0,3.793-3.089,6.86-6.86,6.86s-6.86-3.067-6.86-6.86c0-3.793,3.067-6.86,6.86-6.86
		C54.805,43.152,57.872,46.219,57.872,50.012z M55.441,47.582L54.055,46.4l-4.338,5.293l-2.499-2.181l-0.909,1.09l3.68,2.953
		L55.441,47.582z"/>
	<g>
		<path d="M50.194,40.199c0.454-0.25,1.181-0.25,1.636,0l0.749,0.628c0.454,0.25,1.249,0.673,1.772,0.673h0.863
			c0.522,0,1.158,0.167,1.408,0.622l0.432,0.651c0.25,0.454,0.841,0.973,1.295,1.246l0.541,0.407c0.454,0.25,0.61,0.884,0.61,1.384
			v0.863c0,0.522,0.412,1.317,0.685,1.772l0.536,0.749c0.25,0.454,0.302,1.181,0.052,1.636l-0.614,0.749
			c-0.25,0.454-0.659,1.249-0.659,1.772v0.863c0,0.522-0.155,1.158-0.61,1.408l-0.645,0.432c-0.454,0.25-0.97,0.841-1.243,1.295
			l-0.406,0.541c-0.25,0.454-0.882,0.61-1.382,0.61h-0.863c-0.522,0-1.317,0.412-1.772,0.685l-0.749,0.536
			c-0.454,0.25-1.181,0.302-1.636,0.052l-0.749-0.614c-0.454-0.25-1.249-0.659-1.772-0.659H46.81c-0.522,0-1.158-0.155-1.408-0.61
			l-0.432-0.645c-0.25-0.454-0.841-0.97-1.295-1.243l-0.553-0.406c-0.454-0.25-0.622-0.882-0.622-1.382v-0.863
			c0-0.522-0.4-1.317-0.673-1.772l-0.53-0.749c-0.25-0.454-0.299-1.181-0.049-1.636l0.603-0.749c0.25-0.454,0.648-1.249,0.648-1.772
			V45.81c0-0.522,0.167-1.158,0.622-1.408l0.651-0.431c0.454-0.25,0.973-0.841,1.246-1.295l0.407-0.554
			c0.25-0.454,0.884-0.622,1.384-0.622h0.863c0.522,0,1.317-0.4,1.772-0.673L50.194,40.199z M58.78,50.012
			c0-4.27-3.475-7.768-7.768-7.768s-7.768,3.498-7.768,7.768s3.498,7.768,7.768,7.768S58.78,54.282,58.78,50.012z"/>
	</g>
</g>
</svg>
