<?xml version="1.0" encoding="utf-8"?>
<!-- Generator: Adobe Illustrator 17.0.1, SVG Export Plug-In . SVG Version: 6.00 Build 0)  -->
<!DOCTYPE svg PUBLIC "-//W3C//DTD SVG 1.1//EN" "http://www.w3.org/Graphics/SVG/1.1/DTD/svg11.dtd">
<svg version="1.1" id="Capa_1" xmlns="http://www.w3.org/2000/svg" xmlns:xlink="http://www.w3.org/1999/xlink" x="0px" y="0px"
	 width="25px" height="25px" viewBox="37.5 37.5 25 25" enable-background="new 37.5 37.5 25 25" xml:space="preserve">
<g>
	<path d="M55.604,57.51c0,0.451,0.16,0.835,0.478,1.154s0.703,0.478,1.154,0.478c0.45,0,0.835-0.159,1.153-0.478
		c0.319-0.319,0.478-0.703,0.478-1.154c0-0.45-0.159-0.835-0.478-1.154c-0.319-0.319-0.703-0.478-1.153-0.478
		c-0.451,0-0.836,0.16-1.154,0.478C55.764,56.675,55.604,57.059,55.604,57.51z"/>
	<path d="M60.258,43.066c-0.162-0.161-0.353-0.242-0.574-0.242h-15.31c-0.009-0.059-0.028-0.168-0.057-0.325
		c-0.029-0.157-0.053-0.283-0.07-0.376c-0.017-0.093-0.049-0.206-0.096-0.338s-0.102-0.236-0.166-0.312
		c-0.064-0.077-0.149-0.142-0.255-0.198c-0.106-0.055-0.228-0.083-0.363-0.083h-3.264c-0.221,0-0.412,0.081-0.574,0.242
		c-0.161,0.161-0.242,0.353-0.242,0.574c0,0.221,0.081,0.412,0.242,0.574c0.162,0.161,0.353,0.242,0.574,0.242h2.6l2.256,10.492
		c-0.017,0.034-0.104,0.196-0.261,0.484c-0.157,0.289-0.283,0.542-0.376,0.759c-0.094,0.217-0.14,0.385-0.14,0.504
		c0,0.221,0.081,0.412,0.242,0.574s0.353,0.242,0.574,0.242h0.816h11.422h0.815c0.221,0,0.412-0.081,0.574-0.242
		c0.162-0.161,0.242-0.353,0.242-0.574c0-0.221-0.081-0.412-0.242-0.574c-0.161-0.161-0.353-0.243-0.574-0.243H46.324
		c0.204-0.408,0.306-0.68,0.306-0.816c0-0.085-0.011-0.179-0.032-0.28c-0.021-0.102-0.047-0.215-0.076-0.338
		c-0.03-0.123-0.049-0.214-0.057-0.274l13.309-1.555c0.212-0.026,0.386-0.117,0.523-0.274c0.136-0.157,0.204-0.338,0.204-0.542
		V43.64C60.5,43.419,60.419,43.228,60.258,43.066z"/>
	<path d="M44.183,57.51c0,0.451,0.159,0.835,0.478,1.154c0.319,0.319,0.703,0.478,1.154,0.478s0.835-0.159,1.154-0.478
		c0.319-0.319,0.478-0.703,0.478-1.154c0-0.45-0.159-0.835-0.478-1.154c-0.319-0.319-0.703-0.478-1.154-0.478
		s-0.835,0.16-1.154,0.478C44.342,56.675,44.183,57.059,44.183,57.51z"/>
</g>
</svg>
