<?xml version="1.0" encoding="utf-8"?>
<!-- Generator: Adobe Illustrator 17.0.1, SVG Export Plug-In . SVG Version: 6.00 Build 0)  -->
<!DOCTYPE svg PUBLIC "-//W3C//DTD SVG 1.1//EN" "http://www.w3.org/Graphics/SVG/1.1/DTD/svg11.dtd">
<svg version="1.1" id="Capa_1" xmlns="http://www.w3.org/2000/svg" xmlns:xlink="http://www.w3.org/1999/xlink" x="0px" y="0px"
	 width="25px" height="25px" viewBox="41.5 24 25 25" enable-background="new 41.5 24 25 25" xml:space="preserve">
<g>
	<path d="M55.364,33.773h-2.727c-0.379,0-0.701,0.133-0.966,0.398c-0.265,0.265-0.398,0.587-0.398,0.966v2.727
		c0,0.379,0.133,0.701,0.398,0.966c0.265,0.265,0.587,0.398,0.966,0.398h2.727c0.379,0,0.701-0.133,0.966-0.398
		c0.265-0.265,0.398-0.587,0.398-0.966v-2.727c0-0.379-0.133-0.701-0.398-0.966C56.064,33.906,55.743,33.773,55.364,33.773z"/>
	<path d="M48.091,33.773h-2.727c-0.379,0-0.701,0.133-0.966,0.398C44.133,34.436,44,34.758,44,35.137v2.727
		c0,0.379,0.133,0.701,0.398,0.966c0.265,0.265,0.587,0.398,0.966,0.398h2.727c0.379,0,0.701-0.133,0.966-0.398
		c0.265-0.265,0.398-0.587,0.398-0.966v-2.727c0-0.379-0.133-0.701-0.398-0.966C48.792,33.906,48.47,33.773,48.091,33.773z"/>
	<path d="M63.602,34.171c-0.265-0.265-0.587-0.398-0.966-0.398h-2.727c-0.379,0-0.701,0.133-0.966,0.398
		c-0.265,0.265-0.398,0.587-0.398,0.966v2.727c0,0.379,0.133,0.701,0.398,0.966c0.265,0.265,0.587,0.398,0.966,0.398h2.727
		c0.379,0,0.701-0.133,0.966-0.398C63.867,38.565,64,38.243,64,37.864v-2.727C64,34.758,63.868,34.436,63.602,34.171z"/>
</g>
</svg>
