<?xml version="1.0" encoding="utf-8"?>
<!-- Generator: Adobe Illustrator 17.0.1, SVG Export Plug-In . SVG Version: 6.00 Build 0)  -->
<!DOCTYPE svg PUBLIC "-//W3C//DTD SVG 1.1//EN" "http://www.w3.org/Graphics/SVG/1.1/DTD/svg11.dtd">
<svg version="1.1" id="Capa_1" xmlns="http://www.w3.org/2000/svg" xmlns:xlink="http://www.w3.org/1999/xlink" x="0px" y="0px"
	 width="25px" height="25px" viewBox="37.5 37.5 25 25" enable-background="new 37.5 37.5 25 25" xml:space="preserve">
<g>
	<path d="M48.65,56.648h-2.383V39.567c0-0.116-0.037-0.211-0.112-0.286c-0.075-0.074-0.17-0.112-0.286-0.112h-2.383
		c-0.116,0-0.211,0.037-0.286,0.112c-0.074,0.074-0.112,0.17-0.112,0.286v17.081h-2.383c-0.182,0-0.306,0.083-0.372,0.248
		c-0.066,0.157-0.037,0.302,0.087,0.435l3.972,3.972c0.091,0.075,0.186,0.112,0.286,0.112c0.108,0,0.203-0.037,0.286-0.112
		l3.96-3.96c0.083-0.099,0.124-0.199,0.124-0.298c0-0.116-0.037-0.211-0.112-0.286C48.861,56.686,48.766,56.648,48.65,56.648z"/>
	<path d="M57.923,60h-3.079c-0.174,0-0.298,0.008-0.372,0.025l-0.174,0.025v-0.025l0.137-0.137c0.124-0.149,0.211-0.256,0.261-0.322
		l4.58-6.579v-1.105h-7.038v2.843h1.49v-1.428h2.88c0.149,0,0.273-0.012,0.372-0.037c0.025,0,0.056-0.002,0.093-0.006
		c0.037-0.004,0.064-0.006,0.08-0.006v0.037l-0.137,0.112c-0.074,0.074-0.162,0.186-0.261,0.335l-4.58,6.567v1.118h7.25v-2.892
		h-1.502L57.923,60L57.923,60z"/>
	<path d="M59.661,47.388l-2.855-8.218h-2.011l-2.855,8.218h-0.869v1.316h3.562v-1.316h-0.931l0.583-1.788h3.017l0.583,1.788h-0.931
		v1.316h3.575v-1.316C60.531,47.388,59.661,47.388,59.661,47.388z M54.696,44.235l0.906-2.706c0.033-0.099,0.064-0.219,0.093-0.36
		c0.029-0.141,0.043-0.215,0.043-0.223l0.037-0.248h0.05c0,0.033,0.008,0.116,0.024,0.248l0.149,0.583l0.894,2.706H54.696z"/>
</g>
</svg>
