<?xml version="1.0" encoding="utf-8"?>
<!-- Generator: Adobe Illustrator 17.0.1, SVG Export Plug-In . SVG Version: 6.00 Build 0)  -->
<!DOCTYPE svg PUBLIC "-//W3C//DTD SVG 1.1//EN" "http://www.w3.org/Graphics/SVG/1.1/DTD/svg11.dtd">
<svg version="1.1" id="Capa_1" xmlns="http://www.w3.org/2000/svg" xmlns:xlink="http://www.w3.org/1999/xlink" x="0px" y="0px"
	 width="25px" height="25px" viewBox="37.5 37.5 25 25" enable-background="new 37.5 37.5 25 25" xml:space="preserve">
<g>
	<path d="M48.203,55.513h-2.255v-16.16c0-0.11-0.035-0.2-0.106-0.27c-0.071-0.07-0.161-0.106-0.27-0.106h-2.255
		c-0.11,0-0.2,0.035-0.27,0.106s-0.106,0.161-0.106,0.27v16.16h-2.255c-0.172,0-0.289,0.078-0.352,0.235
		c-0.063,0.149-0.035,0.286,0.082,0.411l3.758,3.758c0.086,0.071,0.176,0.106,0.27,0.106c0.102,0,0.192-0.035,0.27-0.106
		l3.746-3.746c0.078-0.094,0.118-0.188,0.118-0.282c0-0.11-0.035-0.2-0.106-0.271C48.403,55.548,48.313,55.513,48.203,55.513z"/>
	<path d="M58.62,58.778l-2.701-7.775h-1.902l-2.701,7.775h-0.822v1.245h3.37v-1.245h-0.881l0.552-1.691h2.854l0.552,1.691h-0.88
		v1.245h3.382v-1.245H58.62z M53.923,55.795l0.857-2.56c0.031-0.094,0.061-0.208,0.088-0.34s0.041-0.204,0.041-0.211l0.035-0.235
		h0.047c0,0.032,0.008,0.11,0.023,0.235l0.141,0.552l0.846,2.56H53.923z"/>
	<path d="M58.397,45.26h-1.42v1.397h-2.913c-0.165,0-0.282,0.004-0.352,0.012l-0.165,0.035V46.67l0.129-0.117
		c0.117-0.141,0.199-0.242,0.246-0.305l4.333-6.224v-1.045h-6.659v2.69h1.409v-1.351h2.724c0.141,0,0.258-0.012,0.352-0.035
		c0.023,0,0.053-0.002,0.088-0.006s0.061-0.006,0.076-0.006v0.035l-0.129,0.106c-0.07,0.071-0.153,0.176-0.246,0.317l-4.333,6.212
		v1.057h6.859V45.26z"/>
</g>
</svg>
