<?xml version="1.0" encoding="utf-8"?>
<!-- Generator: Adobe Illustrator 17.0.1, SVG Export Plug-In . SVG Version: 6.00 Build 0)  -->
<!DOCTYPE svg PUBLIC "-//W3C//DTD SVG 1.1//EN" "http://www.w3.org/Graphics/SVG/1.1/DTD/svg11.dtd">
<svg version="1.1" id="Layer_1" xmlns="http://www.w3.org/2000/svg" xmlns:xlink="http://www.w3.org/1999/xlink" x="0px" y="0px"
	 width="25px" height="25px" viewBox="37.5 37.5 25 25" enable-background="new 37.5 37.5 25 25" xml:space="preserve">
<g id="Your_Icon_5_" display="none">
	<path display="inline" fill="#D8ABAB" d="M-2812.15,223.05c0,0-18.85,8.4-40.45,26.15c109.75-233.85,243.75-224.35,243.75-224.35
		C-2902.6-59.6-2967.5,86.25-2971,221.55c-57.85-122.25-174.35-233.45-406.45-116.2c0,0,190.05,16.15,338.3,149.35
		c-314.9-151.15-311.55,299.15-311.55,299.15c74.85-157.3,198.55-200.15,290.3-208.3c-3.75,6.8-5.8,14.15-5.8,22
		c0,24.05,19.35,44.5,46.7,53.1c-95.5,111.95-100.15,257.15-86.15,349.1c20.9,137.4,58.5,200.45,58.5,200.45h203
		c0,0-65.1-96.6-102.05-215.6c-35.4-113.9-15.8-211.25,25.6-284.55c13.15,7.25,28.7,11.55,45.45,11.55
		c47.05,0,85.15-32.9,85.15-73.6c0-20.9-10.15-39.65-26.3-53.1c10.25-1.9,218.1-31.1,276.55,183.85
		C-2476.55,525.55-2473.25,108.8-2812.15,223.05z"/>
</g>
<g>
	<path d="M47.772,57.154c4.99-1.544,6.758-14.052-7.339-14.007c-1.589,3.849-3.177,12.508,5.885,14.432
		c0.515-3.58-0.537-8.413-2.372-10.718C47.503,49.053,48.309,55.252,47.772,57.154z"/>
	<path d="M58.4,46.547c3.334,9.085-2.058,10.472-4.833,10.74c0.112-2.103,1.589-5.683,2.797-7.63
		c-2.058,1.521-4.005,4.811-4.744,6.713C50.188,54.849,46.496,49.769,58.4,46.547 M59.251,44.936l-1.186,0.313
		c-2.797,0.761-4.99,1.678-6.534,2.752c-1.454,1.007-2.372,2.193-2.752,3.491c-0.336,1.186-0.224,2.417,0.358,3.647
		c0.448,0.94,1.052,1.7,1.499,2.171l1.477,1.544l0.022-0.09v0.045l1.566-0.157c2.887-0.291,4.945-1.365,6.086-3.2
		c0.671-1.074,1.007-2.372,1.007-3.871c0-1.589-0.38-3.423-1.141-5.482L59.251,44.936L59.251,44.936z"/>
</g>
</svg>
