<?xml version="1.0" encoding="utf-8"?>
<!-- Generator: Adobe Illustrator 17.1.0, SVG Export Plug-In . SVG Version: 6.00 Build 0)  -->
<!DOCTYPE svg PUBLIC "-//W3C//DTD SVG 1.1//EN" "http://www.w3.org/Graphics/SVG/1.1/DTD/svg11.dtd">
<svg version="1.1" id="Layer_1" xmlns="http://www.w3.org/2000/svg" xmlns:xlink="http://www.w3.org/1999/xlink" x="0px" y="0px"
	 viewBox="0 0 100 100" enable-background="new 0 0 100 100" xml:space="preserve">
<g id="Your_Icon_5_" display="none">
	<path display="inline" fill="#D8ABAB" d="M-5751.8,446.1c0,0-37.7,16.8-80.9,52.3c219.5-467.7,487.5-448.7,487.5-448.7
		c-587.5-168.9-717.3,122.8-724.3,393.4c-115.7-244.5-348.7-466.9-812.9-232.4c0,0,380.1,32.3,676.6,298.7
		C-6835.7,207-6829,1107.7-6829,1107.7c149.7-314.6,397.1-400.3,580.6-416.6c-7.5,13.6-11.6,28.3-11.6,44c0,48.1,38.7,89,93.4,106.2
		c-191,223.9-200.3,514.3-172.3,698.2c41.8,274.8,117,400.9,117,400.9h406c0,0-130.2-193.2-204.1-431.2
		c-70.8-227.8-31.6-422.5,51.2-569.1c26.3,14.5,57.4,23.1,90.9,23.1c94.1,0,170.3-65.8,170.3-147.2c0-41.8-20.3-79.3-52.6-106.2
		c20.5-3.8,436.2-62.2,553.1,367.7C-5080.6,1051.1-5074,217.6-5751.8,446.1z"/>
</g>
<g>
	<path d="M2.6,82.6h94.7V15.4H2.6V82.6z M18.7,75.7l22.1-23.9l4,3c0,0,0.1,0.1,0.1,0.1c1.6,1,3.3,1.6,5.1,1.6c1.8,0,3.6-0.5,5.1-1.6
		c0,0,0.1-0.1,0.1-0.1l4-3l22.1,23.8H18.7z M90.5,75.7h-2.2l0.2-0.2L63.7,48.6l26.8-20.1V75.7z M87.4,22.2L51.2,49.4
		c-0.7,0.5-1.7,0.5-2.4,0L12.6,22.2H87.4z M9.5,28.5l26.8,20.1L11.4,75.5l0.2,0.2H9.5V28.5z"/>
</g>
</svg>
