<?xml version="1.0" encoding="utf-8"?>
<!-- Generator: Adobe Illustrator 17.1.0, SVG Export Plug-In . SVG Version: 6.00 Build 0)  -->
<!DOCTYPE svg PUBLIC "-//W3C//DTD SVG 1.1//EN" "http://www.w3.org/Graphics/SVG/1.1/DTD/svg11.dtd">
<svg version="1.1" id="Layer_1" xmlns="http://www.w3.org/2000/svg" xmlns:xlink="http://www.w3.org/1999/xlink" x="0px" y="0px"
	 viewBox="0 0 100 100" enable-background="new 0 0 100 100" xml:space="preserve">
<path d="M80.2,50c0,16.7-13.6,30.2-30.2,30.2S19.8,66.7,19.8,50S33.3,19.8,50,19.8S80.2,33.3,80.2,50z M69.5,39.3l-6.1-5.2
	L44.3,57.4l-11-9.6l-4,4.8l16.2,13L69.5,39.3z"/>
<g id="Your_Icon_5_" display="none">
	<path display="inline" fill="#D8ABAB" d="M-5879.3,446.1c0,0-37.7,16.8-80.9,52.3c219.5-467.7,487.5-448.7,487.5-448.7
		C-6060.1-119.2-6190,172.5-6197,443.1c-115.7-244.5-348.7-466.9-812.9-232.4c0,0,380.1,32.3,676.6,298.7
		c-629.8-302.3-623.1,598.3-623.1,598.3c149.7-314.6,397.1-400.3,580.6-416.6c-7.5,13.6-11.6,28.3-11.6,44
		c0,48.1,38.7,89,93.4,106.2c-191,223.9-200.3,514.3-172.3,698.2c41.8,274.8,117,400.9,117,400.9h406c0,0-130.2-193.2-204.1-431.2
		c-70.8-227.8-31.6-422.5,51.2-569.1c26.3,14.5,57.4,23.1,90.9,23.1c94.1,0,170.3-65.8,170.3-147.2c0-41.8-20.3-79.3-52.6-106.2
		c20.5-3.8,436.2-62.2,553.1,367.7C-5208.1,1051.1-5201.4,217.6-5879.3,446.1z"/>
</g>
<g>
	<path d="M46.4,6.8c2-1.1,5.2-1.1,7.2,0l3.3,1.9c2,1.1,5.5,2.1,7.8,2.1h3.8c2.3,0,5.1,1.6,6.2,3.6l1.9,3.3c1.1,2,3.7,4.5,5.7,5.7
		l3.3,1.9c2,1.1,3.6,4,3.6,6.2v3.8c0,2.3,0.9,5.8,2.1,7.8l1.9,3.3c1.1,2,1.1,5.2,0,7.2l-1.9,3.3c-1.1,2-2.1,5.5-2.1,7.8v3.8
		c0,2.3-1.6,5.1-3.6,6.2l-3.3,1.9c-2,1.1-4.5,3.7-5.7,5.7l-1.9,3.3c-1.1,2-4,3.6-6.2,3.6h-3.8c-2.3,0-5.8,0.9-7.8,2.1l-3.3,1.9
		c-2,1.1-5.2,1.1-7.2,0l-3.3-1.9c-2-1.1-5.5-2.1-7.8-2.1h-3.8c-2.3,0-5.1-1.6-6.2-3.6l-1.9-3.3c-1.1-2-3.7-4.5-5.7-5.7l-3.3-1.9
		c-2-1.1-3.6-4-3.6-6.2v-3.8c0-2.3-0.9-5.8-2.1-7.8l-1.9-3.3c-1.1-2-1.1-5.2,0-7.2l1.9-3.3c1.1-2,2.1-5.5,2.1-7.8v-3.8
		c0-2.3,1.6-5.1,3.6-6.2l3.3-1.9c2-1.1,4.5-3.7,5.7-5.7l1.9-3.3c1.1-2,4-3.6,6.2-3.6h3.8c2.3,0,5.8-0.9,7.8-2.1L46.4,6.8z M84.2,50
		c0-18.8-15.3-34.2-34.2-34.2S15.8,31.2,15.8,50S31.2,84.2,50,84.2S84.2,68.8,84.2,50z"/>
</g>
</svg>
