<svg xmlns="http://www.w3.org/2000/svg" style="display: none;">
  
    <symbol id="icon-android" viewBox="0 0 512 512">
      <path d="m129 194c-8 0-14 3-18 8-5 4-8 10-8 17l0 106c0 7 3 13 8 18 5 5 10 7 18 7 7 0 13-2 17-7 5-5 8-11 8-18l0-106c0-7-3-13-8-17-5-5-11-8-17-8z m34 169c0 7 3 14 8 19 6 5 12 8 20 8l18 0 0 56c0 7 2 13 7 18 5 5 11 7 18 7 7 0 13-2 18-7 5-5 8-11 8-18l0-56 33 0 0 56c0 7 3 13 8 18 5 5 11 7 18 7 7 0 13-2 18-7 5-5 7-11 7-18l0-56 19 0c7 0 13-3 19-8 5-5 7-12 7-19l0-164-226 0z m169-264l18-32c1-2 1-4-1-5-3-1-4-1-5 1l-18 33c-16-7-32-10-50-10-17 0-33 3-49 10l-18-33c-1-2-2-2-5-1-2 1-2 3-1 5l18 32c-18 9-32 22-43 38-10 16-15 34-15 53l227 0c0-19-5-37-16-53-10-16-24-29-42-38z m-101 47c-2 2-4 3-6 3-3 0-5-1-7-3-2-2-3-4-3-7 0-2 1-5 3-7 2-1 4-2 7-2 2 0 4 1 6 2 2 2 3 5 3 7 0 3-1 5-3 7z m104 0c-2 2-4 3-7 3-2 0-4-1-6-3-2-2-3-4-3-7 0-2 1-5 3-7 2-1 4-2 6-2 3 0 5 1 7 2 2 2 3 5 3 7 0 3-1 5-3 7z m107 55c-5-4-11-7-18-7-6 0-12 3-17 7-5 5-8 11-8 18l0 106c0 7 3 13 8 18 5 5 11 7 17 7 7 0 13-2 18-7 5-5 8-11 8-18l0-106c0-7-3-13-8-18z"/>
    </symbol>
  
    <symbol id="icon-heart2" viewBox="0 0 512 512">
      <path d="m452 119c-19-19-46-28-80-28-9 0-19 1-29 5-10 3-19 7-27 13-9 5-16 11-22 16-6 4-12 10-18 15-5-5-11-11-17-15-6-5-13-11-22-16-8-6-17-10-27-13-10-4-20-5-29-5-34 0-61 9-80 28-20 19-29 45-29 79 0 10 1 20 5 31 4 11 8 20 12 28 5 7 10 15 16 22 6 7 10 12 12 15 3 3 5 5 7 6l142 138c3 2 7 4 10 4 4 0 8-2 11-4l142-137c35-35 52-70 52-103 0-34-9-60-29-79z"/>
    </symbol>
  
    <symbol id="icon-sortz" viewBox="0 0 512 512">
      <path d="m219 369l-46 0 0-331c0-2-1-4-2-6-2-1-3-2-6-2l-46 0c-2 0-4 1-5 2-2 2-3 4-3 6l0 331-46 0c-3 0-6 2-7 5-1 3-1 6 2 8l77 77c1 2 3 2 5 2 2 0 4 0 6-2l76-77c2-2 3-3 3-5 0-3-1-4-2-6-2-1-4-2-6-2z m214 67l-56-159-39 0-55 159-17 0 0 25 69 0 0-25-18 0 11-35 59 0 11 35-18 0 0 25 69 0 0-25z m-97-61l18-53c1-2 1-4 2-7 0-2 1-4 1-4l0-5 1 0c0 1 0 2 1 5l3 11 17 53-43 0z m92-216l-29 0 0 29-60 0c-3 0-6 0-7 0l-3 0 0 0 2-3c3-2 4-5 5-6l89-127 0-22-136 0 0 55 29 0 0-27 55 0c3 0 6-1 8-1 0 0 1 0 1 0 1 0 2 0 2 0l0 0-3 3c-1 1-3 3-5 6l-89 127 0 22 141 0 0-56z"/>
    </symbol>
  
    <symbol id="icon-sustainability" viewBox="0 0 512 512">
      <path d="m210 403c103-32 139-288-150-287-32 78-65 256 121 295 10-73-11-172-49-219 73 45 89 172 78 211z m218-218c68 186-42 215-99 220 2-43 33-116 57-156-42 31-82 99-97 137-29-31-105-135 139-201m17-33l-24 7c-57 15-102 34-134 56-29 21-48 45-56 72-7 24-5 49 7 74 10 19 22 35 31 45l30 31 1-2 0 1 32-3c59-6 101-28 124-65 14-22 21-49 21-80 0-32-8-70-23-112z"/>
    </symbol>
  
    <symbol id="icon-instagram" viewBox="0 0 512 512">
      <path d="m445 77c-10-10-22-16-37-16l-304 0c-15 0-27 6-37 16-11 10-16 23-16 37l0 304c0 15 5 27 16 38 10 10 22 15 37 15l304 0c15 0 27-5 37-15 11-11 16-23 16-37l0-305c0-14-5-27-16-37z m-247 132c16-16 36-23 58-23 23 0 42 7 59 23 16 16 24 34 24 56 0 22-8 41-24 57-17 15-36 23-59 23-22 0-42-8-58-23-16-16-24-34-24-56 0-23 8-41 24-57z m216 199c0 4-1 8-4 11-4 3-7 5-12 5l-285 0c-5 0-8-2-12-5-3-3-4-7-4-11l0-173 37 0c-3 11-5 23-5 35 0 34 13 63 37 87 25 24 55 36 90 36 23 0 45-5 64-16 20-11 35-26 47-45 11-19 17-40 17-62 0-12-2-24-6-35l36 0 0 173z m0-239c0 6-1 10-5 13-3 4-8 6-13 6l-46 0c-6 0-10-2-13-5-4-4-6-8-6-14l0-43c0-5 2-10 6-13 3-4 7-6 13-6l46 0c5 0 10 2 13 6 4 3 5 7 5 12l0 44z"/>
    </symbol>
  
    <symbol id="icon-apple" viewBox="0 0 512 512">
      <path d="m406 323c-12-17-19-37-19-60 0-20 6-38 18-55 6-9 16-20 31-32-10-11-19-20-28-27-17-11-36-17-58-17-12 0-28 3-46 9-18 6-31 9-39 9-6 0-18-3-37-8-19-5-34-8-47-8-31 0-57 13-77 39-20 26-30 59-30 100 0 43 13 89 39 135 27 47 54 70 81 70 10 0 21-3 36-9 14-6 27-9 38-9 12 0 25 3 41 9 16 5 29 8 37 8 23 0 46-17 69-52 15-23 26-45 33-68-15-5-30-16-42-34z m-91-207c11-12 19-24 25-38 5-13 7-25 7-36 0-1 0-2 0-3 0-1 0-2 0-2 0-1 0-2-1-3 0-2 0-3 0-3-32 7-54 20-67 39-14 20-21 43-21 70 12-2 21-3 28-5 9-3 19-10 29-19z"/>
    </symbol>
  
    <symbol id="icon-as-listens" viewBox="0 0 512 512">
      <path d="m173 115c-79-5-147 40-150 97-5 69 45 114 110 129 4 1 8 3 11 7 7 8 15 26-8 49 69-24 164-62 170-158 5-75-54-119-133-124z m186 63c29 0 56 9 77 25 18 15 29 33 29 52 1 38-19 56-80 72-12 4-27 16-32 22-6 7-10 16-12 25-21-7-41-16-58-27-25-18-39-41-41-72-4-65 53-93 107-96 4 0 7-1 10-1m0-26c-3 0-7 0-11 0-79 6-137 50-132 125 7 96 101 116 169 139-27-21-19-42-11-50 3-4 13-12 17-13 60-16 102-39 100-98-1-55-58-103-132-103z"/>
    </symbol>
  
    <symbol id="icon-linkedin" viewBox="0 0 512 512">
      <path d="m449 63c-15-15-34-22-55-22l-256 0c-21 0-39 7-54 22-15 16-23 34-23 55l0 256c0 21 8 39 23 54 15 15 33 23 54 23l256 0c21 0 39-8 55-23 15-15 22-33 22-54l0-256c0-21-7-39-22-55z m-263 321l-61 0 0-185 61 0z m-5-219c-7 6-15 9-26 9l0 0c-10 0-18-3-25-9-6-7-9-14-9-23 0-9 3-17 10-23 6-6 15-9 25-9 10 0 18 3 25 9 6 6 9 14 9 23 0 9-3 16-9 23z m227 219l-62 0 0-99c0-28-10-42-31-42-8 0-14 2-19 7-6 4-10 9-12 16-2 3-2 8-2 14l0 104-62 0c1-112 1-173 0-185l62 0 0 26c13-20 31-30 55-30 21 0 38 7 51 21 13 14 20 34 20 62z"/>
    </symbol>
  
    <symbol id="icon-twitter" viewBox="0 0 512 512">
      <path d="m460 55c-16-17-37-25-61-25l-288 0c-24 0-44 8-61 25-17 17-26 38-26 61l0 289c0 24 9 44 26 61 17 17 37 26 61 26l288 0c24 0 44-9 61-26 17-17 26-37 26-61l0-289c0-23-9-44-26-61z m-83 153c1 1 1 4 1 8 0 16-3 33-8 50-5 17-12 33-22 49-10 15-22 29-36 41-14 12-31 22-51 29-20 7-41 10-63 10-35 0-67-9-97-28 5 1 10 1 15 1 29 0 55-9 79-27-14 0-26-4-37-13-11-8-18-18-22-31 5 1 9 1 11 1 5 0 10-1 16-2-15-3-27-10-37-22-10-12-15-25-15-40l0-1c10 5 20 8 30 8-18-12-27-30-27-52 0-12 2-22 8-32 16 19 35 35 58 46 23 12 47 18 73 20-1-4-2-9-2-15 0-17 6-32 19-44 12-13 27-19 44-19 19 0 34 7 46 20 14-2 27-8 40-15-5 15-14 27-27 35 13-2 25-5 36-10-9 13-19 24-32 33z"/>
    </symbol>
  
    <symbol id="icon-twitter2" viewBox="0 0 512 512">
      <path d="m496 112c-19 8-38 13-56 15 21-12 35-30 43-54-20 12-40 20-62 24-20-21-44-31-72-31-27 0-50 10-69 29-19 19-29 42-29 69 0 7 1 15 3 22-40-2-78-12-113-30-35-18-65-42-89-72-9 15-13 32-13 49 0 17 3 33 11 47 8 14 19 26 32 35-16-1-30-5-44-13l0 2c0 23 7 44 22 62 15 18 34 29 56 34-8 2-17 3-25 3-6 0-12 0-19-1 6 19 18 35 35 48 16 13 35 19 57 19-36 28-76 42-122 42-9 0-16 0-23-1 45 29 95 44 150 44 35 0 67-5 98-17 30-11 56-25 78-44 21-18 40-39 56-64 15-24 27-49 35-75 7-26 11-52 11-78 0-6 0-10 0-13 19-14 36-31 49-51z"/>
    </symbol>
  
    <symbol id="icon-linkedin2" viewBox="0 0 512 512">
      <path d="m67 212l88 0 0 264-88 0z m376 24c-18-20-43-30-73-30-11 0-21 1-31 4-9 3-16 6-23 11-6 5-11 10-15 14-3 4-7 9-10 14l0-37-88 0 0 13c0 8 1 35 1 79 0 44-1 101-1 172l88 0 0-147c0-9 1-17 3-22 3-9 9-17 17-23 7-6 17-9 28-9 15 0 26 5 33 16 8 11 11 25 11 44l0 141 88 0 0-151c0-39-9-69-28-89z m-332-151c-15 0-27 4-36 13-9 8-14 19-14 32 0 13 5 24 14 33 9 9 20 13 35 13l0 0c15 0 27-4 37-13 9-9 13-20 13-33 0-13-5-24-14-32-8-9-20-13-35-13z"/>
    </symbol>
  
    <symbol id="icon-credit" viewBox="0 0 512 512">
      <path d="m471 126c-6-7-14-10-24-10l-341 0c-10 0-18 3-24 10-7 6-10 14-10 24l0 259c0 9 3 18 10 24 6 7 14 10 24 10l341 0c10 0 18-3 24-10 7-6 10-15 10-24l0-259c0-10-3-18-10-24z m-17 283c0 2-1 4-2 5-1 1-3 2-5 2l-341 0c-2 0-4-1-5-2-1-1-2-3-2-5l0-130 355 0z m0-212l-355 0 0-47c0-2 1-4 2-5 1-1 3-2 5-2l341 0c2 0 4 1 5 2 1 1 2 3 2 5 0 0 0 47 0 47z m-328 164l55 0 0 28-55 0z m82 0l82 0 0 28-82 0z"/>
    </symbol>
  
    <symbol id="icon-mobile" viewBox="0 0 512 512">
      <path d="m324 51l-136 0c-27 0-50 23-50 51l0 308c0 28 23 51 50 51l136 0c27 0 50-23 50-51l0-308c0-28-23-51-50-51z m-68 383c-13 0-24-11-24-24 0-14 11-24 24-24 13 0 24 10 24 24 0 13-11 24-24 24z m87-69l-174 0 0-258 174 0c0 0 0 258 0 258z"/>
    </symbol>
  
    <symbol id="icon-wheelchair" viewBox="0 0 512 512">
      <path d="m308 399c-11 21-27 37-46 50-20 12-42 18-66 18-34 0-64-13-88-37-25-25-37-54-37-89 0-25 7-47 20-68 14-21 32-37 55-47l-5-36c-31 11-57 31-77 59-19 28-29 58-29 92 0 29 7 56 22 81 14 25 34 44 59 59 24 14 51 22 80 22 35 0 67-11 95-32 29-20 48-47 59-81l-28-57c1 24-3 46-14 66z m167-38l-55 28-64-128c-3-6-9-9-16-9l-128 0-4-36 114 0 0-36-119 0-10-81c13 1 24-3 34-12 9-9 14-20 14-33 0-12-4-23-13-31-9-9-19-14-32-14-10 0-19 3-27 9-8 6-13 14-16 23-1 5-2 9-1 12l27 218c0 5 2 9 6 12 3 3 7 4 11 4l133 0 67 134c3 7 8 10 16 10 3 0 5-1 8-2l72-36z"/>
    </symbol>
  
    <symbol id="icon-youtube" viewBox="0 0 512 512">
      <path d="m452 264c-2-11-7-20-15-27-9-7-18-12-29-13-33-4-84-5-152-5-68 0-119 1-152 5-11 1-20 6-28 13-8 7-14 16-16 27-5 21-8 54-8 96 0 44 3 76 8 96 2 11 7 20 15 28 9 7 18 11 29 12 33 4 84 6 152 6 68 0 119-2 152-6 11-1 20-5 28-12 8-8 14-17 16-28 5-21 8-53 8-96 0-43-3-75-8-96z m-283 28l-30 0 0 156-27 0 0-156-29 0 0-26 86 0c0 0 0 26 0 26z m74 156l-25 0 0-15c-10 12-19 17-28 17-8 0-13-3-16-10-1-4-2-11-2-20l0-107 25 0 0 100c0 5 0 9 0 9 0 4 2 6 6 6 5 0 10-4 15-12l0-103 25 0 0 135z m93-40c0 13-1 22-2 27-3 10-10 15-20 15-9 0-17-5-25-15l0 13-25 0 0-182 25 0 0 60c8-10 16-15 25-15 10 0 17 5 20 15 1 5 2 14 2 28z m93-23l-49 0 0 24c0 13 4 19 13 19 6 0 9-3 10-10 1-2 1-7 1-17l25 0 0 4c0 9 0 14-1 16 0 5-2 10-5 15-7 9-17 14-30 14-13 0-22-4-30-14-5-7-8-17-8-32l0-47c0-15 3-25 8-32 7-9 17-14 30-14 12 0 21 5 29 14 5 7 7 17 7 32 0 0 0 28 0 28z m-128-52c-4 0-8 2-12 6l0 83c4 4 8 6 12 6 7 0 11-6 11-18l0-58c0-13-4-19-11-19z m91 0c-8 0-12 6-12 19l0 12 25 0 0-12c0-13-5-19-13-19z m-239-213l0 74 27 0 0-74 33-110-28 0-18 72-20-72-29 0c5 15 11 32 18 51 9 26 14 45 17 59z m97 76c13 0 23-5 29-14 5-7 8-18 8-33l0-48c0-14-3-25-8-32-6-9-16-14-29-14-12 0-22 5-29 14-5 7-7 18-7 32l0 48c0 15 2 26 7 33 7 9 17 14 29 14z m-12-100c0-12 4-19 12-19 8 0 12 7 12 19l0 58c0 13-4 19-12 19-8 0-12-6-12-19z m88 100c9 0 18-6 28-17l0 15 25 0 0-137-25 0 0 105c-5 7-11 11-16 11-3 0-5-2-5-6-1 0-1-3-1-9l0-101-25 0 0 108c0 9 1 16 3 21 2 6 7 10 16 10z"/>
    </symbol>
  
    <symbol id="icon-new-destinations" viewBox="0 0 512 512">
      <path d="m214 401c9 0 14-10 14-10-9-13-19-28-28-46-11-20-20-43-24-71 5 5 13 13 25 21 29 21 47 22 47 22-4-32-24-62-32-68-8-6-16-8-25-7 6-3 11-8 18-13 25-22 37-46 37-46-22-8-40-3-55 11-7 6-14 16-20 27 0-9-2-18-6-28-4-9-24-37-40-36 0 0-1 26 12 58 2 4 4 8 6 11-4-1-8-2-12-2-9-1-41-1-59 22 0 0 16 12 50 16 4 0 8 1 12 1-5 3-9 7-12 12-13 17-20 38-18 67 0 0 21-11 42-39 7-10 13-18 17-25 2 28 7 53 14 73 5 15 11 28 18 39 1 1 6 11 19 11z m72-14c-15 0-22-16-22-16 6-10 12-19 18-30-10-1-20-2-30-2-19 0-36 2-52 6 9 18 19 33 28 46 0 0-4 10-13 10-13 0-19-10-19-10-7-10-13-23-18-39-36 14-59 37-59 62 0 41 265 41 265 0 0-27-26-51-65-64-1 5-3 11-5 16-6 12-6 21-28 21z m163-218c-20-26-57-27-68-26-5 1-9 2-13 3 2-4 4-8 6-13 16-37 14-67 14-67-18 0-41 32-46 42-5 10-7 21-7 32-6-13-14-24-23-31-18-16-38-22-64-12 0 0 15 27 44 52 7 6 14 12 20 16-10-2-20 0-29 7-9 7-32 42-37 79 0 0 21-2 55-26 13-10 22-18 29-25-7 49-25 98-48 141-6 10-12 20-18 29 0 0 8 17 22 17 22 0 22-9 27-22 2-4 4-10 6-16 16-52 26-143 26-143 0 0 11 18 19 29 25 32 48 46 48 46 3-34-5-59-19-78-5-5-9-10-15-15 4 0 9 0 14-1 39-4 57-18 57-18z"/>
    </symbol>
  
    <symbol id="icon-email" viewBox="0 0 512 512">
      <path d="m51 412l410 0 0-291-410 0c0 0 0 291 0 291z m70-30l95-104 18 13 0 1c7 4 14 7 22 7 8 0 16-2 22-7l1-1 17-13 96 103-271 0z m310 0l-9 0 1-1-108-116 116-87 0 204z m-13-232l-157 118c-3 2-7 2-10 0l-157-118z m-337 28l116 87-108 116 1 1-9 0z"/>
    </symbol>
  
    <symbol id="icon-external" viewBox="0 0 512 512">
      <path d="m376 283l-15 0c-2 0-4 1-5 2-1 1-2 3-2 5l0 73c0 10-4 19-11 26-7 7-16 11-26 11l-190 0c-10 0-18-4-26-11-7-7-10-16-10-26l0-190c0-10 3-18 10-26 8-7 16-10 26-10l161 0c2 0 4-1 5-2 2-2 3-4 3-6l0-14c0-3-1-4-3-6-1-1-3-2-5-2l-161 0c-18 0-33 7-46 20-13 13-20 28-20 46l0 190c0 18 7 34 20 47 13 13 28 19 46 19l190 0c19 0 34-6 47-19 13-13 19-29 19-47l0-73c0-2 0-4-2-5-1-1-3-2-5-2z m91-201c-3-2-7-4-11-4l-117 0c-4 0-7 2-10 4-3 3-4 7-4 11 0 4 1 7 4 10l40 40-149 149c-1 2-2 4-2 5 0 2 1 4 2 6l26 26c2 1 4 2 6 2 2 0 3-1 5-2l149-149 40 40c3 3 6 4 10 4 4 0 8-1 11-4 3-3 4-6 4-10l0-117c0-4-1-8-4-11z"/>
    </symbol>
  
    <symbol id="icon-pinterest" viewBox="0 0 512 512">
      <path d="m454 84c-15-15-28-23-49-23l-256 0c-22 0-45 8-60 23-15 15-28 33-28 54l0 256c0 21 13 39 28 55 15 15 38 22 60 22l48 0c-3-20-2-50 2-68l26-110c-4-9-6-20-6-32 0-15 4-28 11-38 8-10 17-15 28-15 9 0 15 3 20 9 5 6 7 13 7 22 0 5-1 12-3 20-2 7-4 16-8 27-3 10-5 18-7 24-2 11 0 20 6 28 7 8 15 12 26 12 19 0 34-11 46-32 12-21 18-46 18-76 0-23-7-42-22-56-15-14-35-22-62-22-30 0-54 10-72 29-18 19-28 42-28 68 0 16 5 29 14 40 3 4 4 7 3 11-1 3-3 9-4 17-1 2-2 4-4 5-2 1-4 1-6 0-14-6-24-16-32-30-7-13-10-29-10-48 0-11 2-23 6-35 4-12 9-23 17-34 8-11 18-21 29-29 11-9 25-16 41-21 16-5 33-7 52-7 19 0 36 3 52 9 16 7 30 16 41 26 11 11 19 23 26 37 6 14 9 29 9 44 0 40-10 73-31 99-20 27-46 40-78 40-11 0-21-3-30-8-10-5-16-11-20-18-8 31-12 50-14 56-4 16-14 36-29 56l194 0c21 0 34-7 49-22 15-15 17-34 17-55l0-256c0-21-2-39-17-54z"/>
    </symbol>
  
    <symbol id="icon-facebook" viewBox="0 0 512 512">
      <path d="m294 171l0-42c0-6 0-11 1-15 0-3 2-7 4-10 2-4 5-6 10-7 5-1 11-2 19-2l42 0 0-85-68 0c-39 0-67 10-84 28-17 19-26 46-26 82l0 51-51 0 0 85 51 0 0 246 102 0 0-246 68 0 9-85z"/>
    </symbol>
  
    <symbol id="icon-pinterest2" viewBox="0 0 512 512">
      <path d="m454 143c-18-31-43-56-75-75-31-18-65-27-102-27-38 0-72 9-103 27-32 19-57 44-75 75-18 31-27 66-27 103 0 41 11 79 34 113 22 33 52 58 88 74 0-19 1-34 4-47l26-111c-4-9-6-20-6-33 0-15 3-27 11-38 8-10 17-15 28-15 9 0 16 3 21 9 4 6 7 13 7 22 0 6-1 12-3 20-2 8-5 17-8 28-4 10-6 18-7 25-3 11-1 20 6 28 6 7 15 11 26 11 19 0 34-10 47-32 12-21 18-46 18-77 0-23-8-42-23-56-15-15-36-22-62-22-30 0-55 9-73 29-19 19-28 42-28 69 0 16 4 29 13 40 3 4 4 7 3 12 0 1-1 3-2 8-1 4-2 7-2 8-1 6-5 7-10 5-14-6-24-15-31-29-7-14-11-31-11-49 0-12 2-24 6-36 4-12 10-23 18-35 8-11 17-20 29-29 11-9 25-15 41-21 16-5 34-7 52-7 25 0 48 5 68 17 20 11 36 25 46 43 11 18 16 37 16 57 0 27-5 51-14 72-9 21-22 38-39 50-17 13-36 19-58 19-10 0-21-3-30-8-9-5-16-11-19-18-9 31-13 50-15 56-3 13-10 27-21 44 19 6 39 9 58 9 38 0 72-10 103-28 32-18 56-43 75-74 18-32 27-66 27-103 0-37-9-72-27-103z"/>
    </symbol>
  
    <symbol id="icon-filter" viewBox="0 0 512 512">
      <path d="m480 73c-4-8-9-11-18-11l-371 0c-9 0-14 4-18 11-3 8-2 15 4 20l144 144 0 141c0 5 2 9 5 13l75 74c3 4 7 6 13 6 2 0 4-1 7-2 7-3 11-9 11-17l0-215 143-144c6-5 8-12 5-20z"/>
    </symbol>
  
    <symbol id="icon-price-guarantee" viewBox="0 0 512 512">
      <path d="m408 255c0 82-67 148-149 148-81 0-148-66-148-148 0-83 66-149 148-149 83 0 149 66 149 149z m-53-53l-30-26-94 115-54-47-20 23 80 64 118-129 0 0z m-113-160c9-6 25-6 35 0l16 13c10 6 27 15 39 15l18 0c12 0 26 4 31 14l9 14c6 9 19 21 28 27l12 8c10 6 13 20 13 30l0 19c0 11 9 29 15 38l12 17c5 10 6 25 1 35l-13 16c-6 10-15 27-15 39l0 19c0 11-3 25-13 30l-14 9c-10 6-21 19-27 29l-9 11c-5 10-19 13-30 13l-18 0c-12 0-29 9-39 15l-16 12c-10 5-26 7-36 1l-16-13c-10-6-27-15-38-15l-19 0c-11 0-25-3-30-13l-10-14c-5-10-18-21-28-27l-12-9c-10-5-13-19-13-29l0-19c0-11-9-29-15-39l-11-16c-6-10-7-25-2-35l14-17c5-9 14-27 14-38l0-19c0-11 3-25 13-30l14-10c10-5 21-18 27-28l9-12c5-9 19-13 30-13l19 0c11 0 28-9 38-15l16-13z m186 213c0-93-76-169-169-169-93 0-168 76-168 169 0 92 76 168 168 168 93 0 169-76 169-168z"/>
    </symbol>
  
    <symbol id="icon-gift-certificate" viewBox="0 0 512 512">
      <path d="m436 155c0-14-8-28-21-37-12-8-28-13-45-13-16 0-33 5-45 13-8 6-15 15-18 24-5-6-13-9-23-9-9 0-17 3-23 9-3-10-10-18-18-24-12-8-28-13-45-13-17 0-33 5-45 13-12 9-21 23-21 37 0 14 8 23 15 29l-68 0 0 104 22 0 0 144 365 0 0-144 23 0 0-104-68 0c8-6 15-15 15-29z m-192 247l-113 0 0-114 113 0z m0-143l-136 0 0-46 136 0z m0-77l-46 0c-13 0-25-4-34-10-11-7-12-12-12-17 0-7 5-16 12-21 9-6 21-9 34-9 13 0 25 3 34 9 7 5 12 14 12 21z m19 2z m41 0z m20-29c0-7 5-16 12-21 9-6 21-9 34-9 13 0 25 3 34 9 7 5 12 14 12 21 0 5-2 10-12 17-9 6-21 10-34 10l-46 0z m113 247l-113 0 0-114 113 0c0 0 0 114 0 114z m22-189l0 46-135 0 0-46c0 0 135 0 135 0z"/>
    </symbol>
  
    <symbol id="icon-google-plus" viewBox="0 0 512 512">
      <path d="m413 154l0-69-34 0 0 69-68 0 0 34 68 0 0 68 34 0 0-68 68 0 0 196c0 21-7 39-22 54-15 15-33 23-54 23l-125 0c7-13 10-27 10-42 0-12-2-23-6-33-4-10-9-18-15-25-6-6-12-12-19-18-7-7-13-12-19-16-6-5-11-10-15-15-4-5-6-10-6-16 0-6 2-12 7-18 4-6 9-11 14-16 6-6 12-11 18-17 6-7 11-15 15-25 4-11 6-22 6-35 0-13-3-26-7-39-5-13-12-23-20-32-1-1-3-2-4-3-1 0-3-1-3-2-1 0-2-1-3-2-1-1-2-3-3-5l36 0 36-17-116 0c-25 0-47 4-66 11-19 6-35 18-48 35 0-22 7-41 21-57 15-15 33-23 55-23l256 0c22 0 40 8 55 23 15 15 22 33 22 54l0 26c0 0-68 0-68 0z m-288 92c5 7 12 13 21 18 8 5 16 7 25 7 18 0 30-5 38-16 8-11 11-25 11-43 0-11-1-22-4-34-3-12-7-24-12-35-6-11-13-20-23-28-9-7-20-10-31-10-17 0-30 6-39 18-9 12-14 27-14 44 0 8 1 17 3 26 2 10 6 19 10 28 4 9 9 18 15 25z m33 63c0-5 1-13 5-23-7 0-13 1-19 1-30 0-54-11-72-32l0 116c26-14 61-21 102-23-11-14-16-28-16-39z m91 112c-1-2-3-6-5-9-2-3-4-6-6-8-1-2-3-5-7-8-3-3-5-5-7-7-2-1-4-3-8-6-4-3-7-5-9-6-1-2-4-4-9-7-4-3-7-4-8-5-3-1-7-1-13-1-10 0-19 1-28 2-10 1-19 4-29 7-10 3-18 7-26 13-8 6-15 12-19 20 5 17 14 30 28 40 13 10 29 15 45 15l102 0c2-6 2-12 2-19 0-4 0-7-1-11-1-3-1-7-2-10z"/>
    </symbol>
  
    <symbol id="icon-heart" viewBox="0 0 512 512">
      <path d="m452 99c-19-19-46-29-80-29-9 0-19 2-29 5-10 3-19 8-27 13-9 6-16 11-22 16-6 5-12 10-18 16-5-6-11-11-17-16-6-5-13-10-22-16-8-5-17-10-27-13-10-3-20-5-29-5-34 0-61 10-80 29-20 18-29 45-29 78 0 10 1 21 5 32 4 11 8 20 12 27 5 8 10 15 16 23 6 7 10 12 12 15 3 2 5 4 7 6l142 137c3 3 7 4 10 4 4 0 8-1 11-4l142-137c35-35 52-69 52-103 0-33-9-60-29-78z m-43 160l-133 127-132-128c-29-28-43-55-43-81 0-12 2-23 5-32 3-10 7-17 12-23 6-6 12-10 19-14 7-3 15-5 22-7 7-1 14-1 22-1 8 0 16 1 26 5 9 4 17 9 25 15 8 6 14 11 20 16 5 6 10 10 13 14 3 4 7 6 12 6 4 0 8-2 11-6 3-4 8-8 13-14 6-5 13-10 20-16 8-6 16-11 25-15 10-4 18-5 26-5 8 0 15 0 22 1 7 2 15 4 22 7 7 4 13 8 19 14 5 6 9 13 12 23 3 9 5 20 5 32 0 26-14 53-43 82z"/>
    </symbol>
  
    <symbol id="icon-sort9" viewBox="0 0 512 512">
      <path d="m234 398l-52 0 0-371c0-2-1-4-2-6-2-2-4-2-7-2l-51 0c-3 0-5 0-6 2-2 2-3 4-3 6l0 371-52 0c-3 0-6 1-8 5-1 3 0 7 2 9l86 87c2 1 4 2 7 2 2 0 4-1 6-2l86-86c1-2 2-5 2-7 0-2 0-4-2-6-2-2-4-2-6-2z m158-104l-33 0-52 50 22 23 17-15c3-4 5-6 7-9l2-3 0 0 0 4c0 1 0 3 0 5 0 2 0 4 0 5l0 116-45 0 0 31 126 0 0-31-44 0z m30-250c-15-17-33-25-55-25-20 0-36 6-49 19-13 13-19 29-19 48 0 18 6 34 18 47 12 12 27 19 47 19 7 0 15-1 22-4 8-2 13-6 17-10l0 0c-3 16-8 29-18 39-9 11-21 16-36 16-7 0-13-1-20-3-3-1-6-2-8-3l-11 30c3 1 7 3 12 4 8 3 17 4 29 4 12 0 23-2 34-6 10-5 19-10 26-18 8-7 14-16 19-26 5-9 8-20 11-30 2-11 3-22 3-33 0-28-7-51-22-68z m-25 71c-6 5-14 7-23 7-12 0-21-3-28-10-6-7-10-16-10-26 0-10 3-18 9-25 5-7 13-10 22-10 11 0 20 5 28 14 8 10 12 20 12 31 0 8-4 14-10 19z"/>
    </symbol>
  
    <symbol id="icon-sort1" viewBox="0 0 512 512">
      <path d="m264 367l-46 0 0-326c0-2-1-4-2-5-1-2-3-2-5-2l-46 0c-2 0-4 0-5 2-2 1-3 3-3 5l0 326-45 0c-3 0-6 2-7 5-1 3-1 6 2 8l75 76c2 1 4 2 6 2 2 0 4-1 5-2l76-76c1-2 2-4 2-5 0-3-1-4-2-6-1-1-3-2-5-2z m165-69c-13-14-29-22-48-22-17 0-32 6-43 17-11 12-17 26-17 43 0 15 5 29 16 40 10 12 24 17 41 17 7 0 13-1 20-3 6-2 11-5 14-9l1 0c-3 14-8 25-16 35-8 9-19 14-32 14-6 0-12-2-18-4-2 0-5-1-7-2l-9 27c3 1 6 2 10 3 7 3 16 4 25 4 11 0 21-2 31-6 9-4 17-9 23-15 6-7 12-14 16-23 4-9 8-18 10-27 2-9 3-19 3-29 0-25-7-45-20-60z m-22 63c-5 4-12 6-20 6-11 0-19-3-25-9-5-6-8-13-8-22 0-9 2-17 7-23 5-6 12-8 20-8 9 0 17 4 24 12 7 8 11 18 11 28 0 6-3 11-9 16z m-45-277c3-3 5-5 6-7l2-3 0 0 0 4c0 0 0 2 0 4 0 2 0 3 0 4l0 102-39 0 0 27 111 0 0-27-39 0 0-154-30 0-45 43 19 21z"/>
    </symbol>
  
    <symbol id="icon-small" viewBox="0 0 512 512">
      <path d="m284 200l-56 0c-8 0-14 3-20 8-5 6-8 12-8 20l0 56c0 8 3 14 8 20 6 5 12 8 20 8l56 0c8 0 14-3 20-8 5-6 8-12 8-20l0-56c0-8-3-14-8-20-6-5-12-8-20-8z m-149 0l-56 0c-8 0-14 3-20 8-5 6-8 12-8 20l0 56c0 8 3 14 8 20 6 5 12 8 20 8l56 0c8 0 14-3 20-8 5-6 8-12 8-20l0-56c0-8-3-14-8-20-6-5-12-8-20-8z m318 8c-6-5-12-8-20-8l-56 0c-8 0-14 3-20 8-5 6-8 12-8 20l0 56c0 8 3 14 8 20 6 5 12 8 20 8l56 0c8 0 14-3 20-8 5-6 8-12 8-20l0-56c0-8-3-14-8-20z"/>
    </symbol>
  
    <symbol id="icon-shop-share" viewBox="0 0 512 512">
      <path d="m140 138l-34-29c0-1 0-3 0-4 0-20-17-37-37-37-20 0-37 17-37 37 0 21 17 37 37 37 2 0 4 0 6-1l23 23 42 190 294 0 31-216-325 0z m34 181c-16 0-28-13-28-29 0-15 12-28 28-28 16 0 29 13 29 28 0 16-13 29-29 29z m0-79c-16 0-28-13-28-29 0-16 12-29 28-29 16 0 29 13 29 29 0 16-13 29-29 29z m74 79c-16 0-29-13-29-29 0-15 13-28 29-28 16 0 29 13 29 28 0 16-13 29-29 29z m0-79c-16 0-29-13-29-29 0-16 13-29 29-29 16 0 29 13 29 29 0 16-13 29-29 29z m74 79c-16 0-29-13-29-29 0-15 13-28 29-28 16 0 29 13 29 28 0 16-13 29-29 29z m0-79c-16 0-29-13-29-29 0-16 13-29 29-29 16 0 29 13 29 29 0 16-13 29-29 29z m74 79c-16 0-29-13-29-29 0-15 13-28 29-28 16 0 29 13 29 28 0 16-13 29-29 29z m0-79c-16 0-29-13-29-29 0-16 13-29 29-29 16 0 29 13 29 29 0 16-13 29-29 29z m-170 173c0 19-15 34-34 34-19 0-34-15-34-34 0-19 15-34 34-34 19 0 34 15 34 34z m182 0c0 19-15 34-34 34-19 0-34-15-34-34 0-19 15-34 34-34 19 0 34 15 34 34z"/>
    </symbol>
  
    <symbol id="icon-plane-airport" viewBox="0 0 512 512">
      <path d="m448 46c8 10 10 24 3 42c-6 18-16 35-30 49l-46 46l45 199c1 4 0 7-3 9l-37 28c-1 1-3 2-5 2c-1 0-2-1-2-1c-3 0-5-2-6-4l-80-145l-74 74l15 55c1 3 0 6-2 9l-27 27c-2 2-4 3-7 3l-1 0c-2-1-5-2-6-4l-54-72l-72-54c-3-1-4-3-4-6c0-3 1-5 2-8l28-27c2-2 4-3 6-3c2 0 2 0 3 0l55 16l74-74l-145-80c-3-2-4-4-5-7c0-3 1-6 3-8l36-36c3-3 6-4 9-3l190 46l46-46c14-14 30-25 49-31c18-6 32-5 42 4z"/>
    </symbol>
  
    <symbol id="icon-alaska" viewBox="0 0 512 512">
      <path d="m488 325c0 4-3 8-8 8-4 0-8-3-8-7-1-5 3-9 7-9 5 0 9 3 9 8z m-15 0c0 4 3 7 7 7 4 0 7-4 7-7-1-4-4-7-8-7-4 0-6 4-6 7z m5 5l-1 0-1-9 4-1c2 0 3 1 3 3 0 1-1 2-2 2l3 4-1 1-3-4-2 0z m1-5c2 0 3-1 3-2 0-2-1-2-2-2l-2 0 0 4z m-32-78c-3 0-5 0-8-1-3 0-7 1-10 1-3 0-6 0-9 3-1 1-7 4-11 7-4 3-7 6-11 8-3 2-5 3-8 5 1-1 1-1 1-1 3-5 6-9 9-14 2-2 4-5 6-7 3-5 10-15 13-19 3-4 6-8 9-11 5-7 8-13 14-19 0-1 1-2 0-2 0-1-1-1-2-1-7 2-12 2-20 4-4 1-7 2-9 3 0 0-1 1-1 1 1 1 1 1 2 1 1 1 2 0 3 0 1 0 3-1 3-1 0 1-1 3-1 3-4 6-8 12-12 17-2 3-3 6-5 8-3 4-9 13-12 17-2 3-4 6-6 9-1 2-3 5-5 8-2 3-4 6-6 9-3 4-5 7-7 11-5 7-10 14-14 22-3 4-5 7-7 11-2 2-3 5-4 7 0 1 0 2 1 3 0 0 2 0 2 0 6-2 11-5 17-7 3-2 4-2 7-4 1 0 1-1 1-2 0-1-1-1-2-1-2 0-4 1-3 1 6-11 12-22 20-31 0 0 0 1 0 1 1 3 1 5 2 7l7 34c1 4 2 8 3 11 1 5 2 7 6 7 0 0 6 1 8 1 11 0 9-2 9-2-1-3-3-5-4-7-2-5-3-6-4-9l-11-33c-2-4-3-9-4-13 0-1 0-2 0-3l4-2c1 0 3-2 4-2 5-3 11-5 16-8 4-2 12-8 16-10 3-2 6-3 9-5 2 0 4-1 5-3 1-1 0-2-1-2z m23 67c2-1 2-2 2-3-1 0-2 0-3 0-1 0-2 0-3 0 0 0 0 0 0 0 1-1 1-1 2-2 2-4 4-8 7-11 2-3 4-6 5-9 2-2 4-5 6-8 1-2 3-5 4-7 3-3 5-6 7-9 3-5 8-9 10-15 0-2 0-2-1-2-2 0-4 0-6 0-2 0-3 0-5 1-5 0-9 0-14 1-2 0-3 0-5 0-2 0-3 1-4 1-2 0-5 1-7 1-5 1-10 2-14 6-3 2-7 5-10 9-4 4-7 9-11 13-2 4-5 8-7 12-2 4-3 8-5 11-3 6-5 12-4 18 0 4 1 5 5 4 1 0 3-1 5-2 5-2 9-5 14-8 2-2 3-3 5-5 2-2 4-3 6-6 3-2 7-5 10-8 0 0 0 1-1 2-1 3-3 6-5 9-1 1-2 3-3 5-1 3-3 6-4 10-1 0-1 2 0 2 0 1 2 1 2 0 2 0 3-1 4-2 3-1 6-3 8-4 4-2 7-3 10-4z m-38-5c-1 0-1-2 0-4 1-4 3-6 4-9 2-3 4-5 6-8 0-1 6-10 9-13 3-4 7-7 11-10 2-1 3-2 5-3 1-1 3-1 4-2 4-1 7-1 11-1 0 0 0 0 1 0 0 1-1 2-1 2-15 18-48 49-50 48z m-146 5c2-1 2-2 2-3 0 0-2 0-2 0-1 0-2 0-3 0 0 0 0 0 0 0 0-1 1-1 1-2 2-4 5-8 7-11 2-3 4-6 6-9 1-2 3-5 5-8 1-2 3-5 5-7 2-3 4-6 6-9 3-5 8-9 10-15 1-2 0-2-1-2-2 0-4 0-5 0-2 0-4 0-6 1-5 0-9 0-13 1-3 0-4 0-6 0-1 0-3 1-4 1-2 0-5 1-7 1-4 1-10 2-14 6-3 2-7 5-9 9-4 4-8 9-11 13-3 4-5 8-8 12-2 4-3 8-5 11-3 6-5 12-4 18 0 4 1 5 5 4 2 0 3-1 5-2 5-2 9-5 14-8 3-2 3-3 5-5 2-2 4-3 7-6 3-2 6-5 9-8 0 0 0 1 0 2-2 3-4 6-5 9-1 1-2 3-3 5-2 3-4 6-5 10 0 0 0 2 0 2 0 1 2 1 3 0 1 0 2-1 3-2 3-1 6-3 9-4 3-2 6-3 9-4z m-37-5c-2 0-1-2-1-4 1-4 3-6 5-9 1-3 3-5 5-8 1-1 6-10 9-13 3-4 7-7 11-10 2-1 3-2 6-3 0-1 2-1 3-2 4-1 7-1 11-1 0 0 1 0 1 0 1 1 0 2-1 2-15 18-47 49-49 48z m-35 3c-1 0 1-4 2-5l4-8c3-5 7-10 11-16 1-1 1-2 2-3 1-1 2-3 3-4l3-4c1-2 3-4 5-6l18-24c2-3 5-6 7-10 3-3 6-7 9-11 3-4 7-8 11-13 2-3 5-6 7-9 1 0 1-1 1-1 0-2 0-2-1-2-1 0-2 0-4 0-3 1-7 1-11 2-4 0-9 1-13 2-1 0-2 1-2 2 0 1 2 1 2 1 2 0 3 0 5 0 0 1-1 1-1 2-3 3-5 6-7 9-4 4-7 8-10 12-3 3-5 6-8 10-2 3-5 6-7 9-4 5-8 10-11 15-5 6-10 12-14 18-6 8-12 17-17 25-3 4-6 9-9 14-1 2-2 3-3 5 0 1 0 2 0 3 1 0 2 0 2-1 4-1 7-2 10-3 4-1 8-3 13-4 3-2 8-2 8-4 1-3-1-3-5-1z m142-24c3-3 3-5 2-8-1-2-2-3-4-2-1 0-2 1-3 1-6 2-11 3-16 4-2 1-8 3-8 2-1 0 1-1 1-1 2-3 5-5 7-7 2-2 4-4 6-6 5-6 11-10 17-15 3-1 5-2 7-4 1-1 1-3-1-3-1-1-3-1-5-1-5-1-8-1-12 0-1 0-2 0-3 1-1 1-2 2-3 3-3 4-7 7-10 10-4 5-9 9-13 14-3 3-5 6-7 8-2 3-4 5-4 8-1 3 1 5 3 5 4 0 6-1 10-2 2 0 8-2 7-1 1 0-1 1-3 4-4 3-7 5-10 7-4 3-7 5-10 8-3 2-6 4-8 6-4 3-9 6-13 9-2 2-4 3-6 4-1 1-2 4-2 8-1 2 0 4 2 6 2 1 2 1 4 0 2-1 4-2 6-3 4-3 8-6 13-9 2-2 5-4 8-6 6-4 11-8 16-13 2-2 4-4 6-6 4-3 7-6 10-8 6-5 11-9 16-13z m-96-100c-2 0-4 0-7 1-4 1-9 3-14 5-4 1-7 2-11 4-3 1-7 3-10 5-5 2-10 4-15 7-6 2-12 6-18 9-5 3-10 6-15 9-5 2-10 4-14 7-7 4-14 8-21 13-2 1-4 2-6 3-1 0-24 1-46 2 0 0-1 0-1 0 0 0 0 0-1 0-15 1-28 2-32 3-5 0-7 0-8 1-4 0-6 3-9 5-4 3-9 6-13 9-4 3-9 7-13 10-1 1-1 2-1 2 0 1 1 1 2 1 0 0 0 0 0 0l0 0 9-2 15-3 25-4c24-5 36-5 41-5-1 1-1 1-2 2-7 4-13 8-20 12-3 2-7 4-10 6-5 3-9 6-13 9-5 3-10 6-15 10-2 1-3 1-4 2-3 2-6 4-8 7-2 1-3 2-5 3 0 1-1 2-1 3l0 0c0 0 0 1 2 1 1 0 2 0 2 0 8 0 25-1 27-2 2-1 7-4 11-7 2-1 4-3 6-4 4-4 10-7 15-10 7-6 15-10 22-15 10-7 20-13 30-20 2-1 3-2 5-3l30-2c1 0 2 0 3 0l0 0 0-1c3 0 5-1 7-3 3-3 6-6 9-10 1 0 1-1 1-1 0-1-1-1-2-1 0 0-1 0-1 0l-24 3c0 0 0 0 0 0 3-2 6-3 9-5 5-3 11-6 16-9 3-2 6-4 9-6 7-4 15-8 22-12 3-2 10-5 10-5 0 0-15 18-20 23-4 5-7 9-11 14-3 3-6 7-9 10-3 4-6 8-9 12-3 3-6 7-9 10-3 5-6 9-9 13-3 4-6 7-9 11-4 5-7 10-11 14-1 2-2 3-2 5-1 0-1 2-1 2 0 0 9-2 13-4 4-1 8-2 12-4 4-1 6-2 10-4 2 0 4-1 6-2 0-1 1-2 1-3 0-1-2-1-3-1-2 0-2 0-4 1-2 0 0-3 1-4 2-4 5-7 7-11 3-4 6-7 9-11 2-3 4-5 6-8 2-2 4-5 6-7 3-3 5-7 8-10 2-3 4-5 7-8 3-5 7-9 10-13 4-5 9-10 13-15 2-3 11-16 13-19 0 0 0 0 0 0 0-1 0-1 0-1 1-1 2-2 3-3 2-3 4-5 5-8 1-2 0-2-1-3z"/>
    </symbol>
  
    <symbol id="icon-caret-left" viewBox="0 0 512 512">
      <path d="m347 128l0 256c0 5-1 9-5 13c-4 3-8 5-13 5c-5 0-9-2-13-5l-128-128c-3-4-5-8-5-13c0-5 2-9 5-13l128-128c4-3 8-5 13-5c5 0 9 2 13 5c4 4 5 8 5 13z"/>
    </symbol>
  
    <symbol id="icon-caret-right" viewBox="0 0 512 512">
      <path d="m329 256c0 5-2 9-5 13l-128 128c-4 3-8 5-13 5c-5 0-9-2-13-5c-4-4-5-8-5-13l0-256c0-5 1-9 5-13c4-3 8-5 13-5c5 0 9 2 13 5l128 128c3 4 5 8 5 13z"/>
    </symbol>
  
    <symbol id="icon-caret-up-down" viewBox="0 0 512 512">
      <path d="m402 311c0 5-2 9-5 13l-128 128c-4 3-8 5-13 5c-5 0-9-2-13-5l-128-128c-3-4-5-8-5-13c0-5 2-9 5-13c4-4 8-5 13-5l256 0c5 0 9 1 13 5c3 4 5 8 5 13z m0-110c0 5-2 9-5 13c-4 4-8 5-13 5l-256 0c-5 0-9-1-13-5c-3-4-5-8-5-13c0-5 2-9 5-13l128-128c4-3 8-5 13-5c5 0 9 2 13 5l128 128c3 4 5 8 5 13z"/>
    </symbol>
  
    <symbol id="icon-caret-down-two" viewBox="0 0 512 512">
      <path d="m402 201c0 5-2 9-5 13l-128 128c-4 4-8 5-13 5c-5 0-9-1-13-5l-128-128c-3-4-5-8-5-13c0-5 2-9 5-13c4-3 8-5 13-5l256 0c5 0 9 2 13 5c3 4 5 8 5 13z"/>
    </symbol>
  
    <symbol id="icon-calendar" viewBox="0 0 512 512">
      <path d="m439 123c-6-5-12-8-19-8l-26 0 0-19c0-9-3-17-10-24-6-6-14-9-23-9l-13 0c-9 0-16 3-23 9-6 7-9 15-9 24l0 19-79 0 0-19c0-9-3-17-9-24-7-6-14-9-23-9l-13 0c-9 0-17 3-23 9-7 7-10 15-10 24l0 19-26 0c-7 0-13 3-18 8-6 5-8 11-8 18l0 261c0 8 2 14 8 19 5 5 11 8 18 8l287 0c7 0 13-3 19-8 5-5 7-11 7-19l0-261c0-7-2-13-7-18z m-247 279l-59 0 0-58 59 0z m0-71l-59 0 0-66 59 0z m0-79l-59 0 0-58 59 0z m-5-93c-1-1-2-3-2-5l0-58c0-2 1-4 2-5 1-1 3-2 5-2l13 0c1 0 3 1 4 2 2 1 2 3 2 5l0 58c0 2 0 4-2 5-1 1-3 2-4 2l-13 0c-2 0-4-1-5-2z m83 243l-65 0 0-58 65 0z m0-71l-65 0 0-66 65 0z m0-79l-65 0 0-58 65 0z m78 150l-65 0 0-58 65 0z m0-71l-65 0 0-66 65 0z m0-79l-65 0 0-58 65 0z m-4-93c-2-1-2-3-2-5l0-58c0-2 0-4 2-5 1-1 3-2 4-2l13 0c2 0 4 1 5 2 1 1 2 3 2 5l0 58c0 2-1 4-2 5-1 1-3 2-5 2l-13 0c-1 0-3-1-4-2z m76 243l-59 0 0-58 59 0z m0-71l-59 0 0-66 59 0z m0-79l-59 0 0-58 59 0z"/>
    </symbol>
  
    <symbol id="icon-search" viewBox="0 0 512 512">
      <path d="m347 238c0-36-12-66-37-91c-25-25-55-37-91-37c-35 0-65 12-90 37c-25 25-38 55-38 91c0 35 13 65 38 90c25 25 55 38 90 38c36 0 66-13 91-38c25-25 37-55 37-90z m147 237c0 10-4 19-11 26c-7 7-16 11-26 11c-10 0-19-4-26-11l-98-98c-34 24-72 36-114 36c-27 0-53-5-78-16c-25-11-46-25-64-43c-18-18-32-39-43-64c-10-25-16-51-16-78c0-28 6-54 16-78c11-25 25-47 43-65c18-18 39-32 64-43c25-10 51-15 78-15c28 0 54 5 79 15c24 11 46 25 64 43c18 18 32 40 43 65c10 24 16 50 16 78c0 42-12 80-36 114l98 98c7 7 11 15 11 25z"/>
    </symbol>
  
    <symbol id="icon-plus" viewBox="0 0 512 512">
      <path d="m457 210l0 55c0 8-3 14-8 20c-5 5-12 8-19 8l-119 0l0 118c0 8-3 15-8 20c-5 5-12 8-20 8l-54 0c-8 0-15-3-20-8c-5-5-8-12-8-20l0-118l-119 0c-7 0-14-3-19-8c-5-6-8-12-8-20l0-55c0-7 3-14 8-19c5-5 12-8 19-8l119 0l0-119c0-8 3-14 8-19c5-6 12-8 20-8l54 0c8 0 15 2 20 8c5 5 8 11 8 19l0 119l119 0c7 0 14 3 19 8c5 5 8 12 8 19z"/>
    </symbol>
  
    <symbol id="icon-minus" viewBox="0 0 512 512">
      <path d="m457 210l0 55c0 8-3 14-8 20c-5 5-12 8-19 8l-348 0c-7 0-14-3-19-8c-5-6-8-12-8-20l0-55c0-7 3-14 8-19c5-5 12-8 19-8l348 0c7 0 14 3 19 8c5 5 8 12 8 19z"/>
    </symbol>
  
    <symbol id="icon-star" viewBox="0 0 512 512">
      <path d="m343 287l88-85l-121-18l-54-109l-54 109l-121 18l88 85l-21 120l108-57l108 57z m151-102c0 4-3 9-8 14l-103 101l24 143c0 1 0 3 0 5c0 10-3 15-11 15c-4 0-8-2-12-4l-128-67l-128 67c-4 2-8 4-12 4c-4 0-7-2-9-5c-2-2-3-6-3-10c0-1 0-3 1-5l24-143l-104-101c-4-6-7-10-7-14c0-7 6-12 16-13l144-21l64-130c4-8 8-12 14-12c6 0 10 4 14 12l64 130l144 21c10 1 16 6 16 13z"/>
    </symbol>
  
    <symbol id="icon-star-two" viewBox="0 0 512 512">
      <path d="m494 185c0 4-3 9-8 14l-103 101l24 143c0 1 0 3 0 5c0 4-1 8-3 10c-2 3-4 5-8 5c-4 0-8-2-12-4l-128-67l-128 67c-4 2-8 4-12 4c-4 0-7-2-9-5c-2-2-3-6-3-10c0-1 0-3 1-5l24-143l-104-101c-4-6-7-10-7-14c0-7 6-12 16-13l144-21l64-130c4-8 8-12 14-12c6 0 10 4 14 12l64 130l144 21c10 1 16 6 16 13z"/>
    </symbol>
  
    <symbol id="icon-star-half" viewBox="0 0 512 512">
      <path d="m366 9l0 383l-129 67c-4 2-8 4-11 4c-4 0-7-2-9-5c-2-2-3-6-3-10c0-1 0-3 1-5l24-143l-104-101c-5-6-7-10-7-14c0-7 5-12 16-13l143-21l65-130c3-8 8-12 14-12z"/>
    </symbol>
  
    <symbol id="icon-star-half-1" viewBox="0 0 512 512">
      <path d="m357 273l74-71l-102-15l-19-3l-9-17l-45-92l0 275l17 9l91 48l-17-101l-4-19z m129-74l-103 101l24 143c1 6 1 11-2 14c-2 4-5 6-9 6c-4 0-7-2-12-4l-128-67l-128 67c-5 2-8 4-12 4c-4 0-7-2-9-6c-3-3-3-8-2-14l24-143l-104-101c-6-7-8-12-6-17c2-6 7-9 15-10l144-21l64-130c4-8 8-12 14-12c5 0 10 4 14 12l64 130l144 21c8 1 13 4 15 10c2 5 0 10-7 17z"/>
    </symbol>
  
    <symbol id="icon-youtube2" viewBox="0 0 512 512">
      <path d="m441 83c-15-15-32-22-53-22l-253 0c-21 0-39 7-53 22-15 15-23 33-23 54l0 252c0 21 8 39 23 54 14 15 32 22 53 22l253 0c21 0 38-8 53-22 15-15 22-33 22-54l0-252c0-21-7-39-22-54z m-143 36l18 0 0 72c0 4 0 6 0 7 0 2 1 4 4 4 4 0 7-3 11-8l0-75 18 0 0 98-18 0 0-11c-7 8-14 12-20 12-6 0-9-3-11-7-1-3-2-8-2-15l0-77z m-67 32c0-10 2-18 6-23 5-7 12-10 20-10 9 0 16 3 21 10 4 5 6 13 6 23l0 34c0 11-2 18-6 23-5 7-12 10-21 10-8 0-15-3-20-10-4-5-6-13-6-23z m-47-65l14 51 13-51 20 0-24 78 0 53-19 0 0-53c-2-10-6-24-12-42-4-12-6-18-6-18l-6-18c0 0 20 0 20 0z m217 317c-2 8-6 14-11 20-6 5-13 8-20 9-24 2-60 4-109 4-48 0-84-2-108-4-8-1-14-4-20-9-6-6-9-12-11-20-4-14-5-37-5-68 0-30 1-53 5-68 2-8 5-15 11-20 6-5 13-8 20-9 24-2 60-4 108-4 49 0 85 2 109 4 7 1 14 4 20 9 6 5 9 12 11 20 3 14 5 37 5 68 0 31-2 54-5 68z m-263-117l21 0 0 112 19 0 0-112 21 0 0-18-61 0z m97 89c-4 5-8 8-11 8-3 0-4-1-4-4-1 0-1-3-1-7l0-71-17 0 0 76c0 7 0 12 2 14 1 5 5 8 11 8 6 0 13-4 20-12l0 11 17 0 0-97-17 0 0 74z m68-75c-7 0-13 3-18 10l0-42-18 0 0 130 18 0 0-10c6 7 12 11 18 11 7 0 12-4 14-11 1-4 2-10 2-19l0-39c0-9-1-16-2-19-2-8-7-11-14-11z m-2 70c0 9-2 13-7 13-3 0-6-2-9-4l0-59c3-3 6-5 9-5 5 0 7 5 7 14z m66 0c0 2 0 3 0 4-1 1-1 2-1 2-1 5-3 7-8 7-5 0-8-5-8-14l0-17 35 0 0-20c0-10-2-17-6-22-5-7-12-10-21-10-8 0-15 3-21 10-3 4-5 12-5 22l0 34c0 11 2 18 6 23 5 7 12 10 21 10 9 0 16-4 21-11 2-3 3-6 4-10 0-3 1-6 1-11l0-3-18 0 0 6z m-17-41c0-9 2-14 8-14 6 0 9 5 9 14l0 9-17 0z m-93-127c6 0 9-5 9-14l0-41c0-9-3-13-9-13-5 0-8 4-8 13l0 41c0 9 3 14 8 14z"/>
    </symbol>
  
    <symbol id="icon-sorta" viewBox="0 0 512 512">
      <path d="m228 392l-48 0 0-350c0-2-1-4-3-6-1-1-3-2-6-2l-48 0c-3 0-5 1-6 2-2 2-3 4-3 6l0 350-48 0c-4 0-7 2-8 5-1 3-1 6 2 9l81 81c2 2 4 3 6 3 2 0 4-1 6-3l81-81c2-2 3-4 3-6 0-2-1-4-3-6-1-1-3-2-6-2z m190 69l-63 0c-3 0-6 0-7 0l-4 1 0-1 3-2c2-4 4-6 5-7l94-135 0-22-144 0 0 58 30 0 0-29 59 0c3 0 6-1 8-1 0 0 1 0 2 0 1 0 1 0 1 0l0 0-2 3c-2 1-4 3-6 6l-93 135 0 23 148 0 0-59-31 0z m36-258l-59-169-41 0-58 169-18 0 0 26 73 0 0-26-19 0 12-37 62 0 11 37-19 0 0 26 74 0 0-26c0 0-18 0-18 0z m-102-65l19-55c0-3 1-5 2-8 0-3 1-4 1-4l0-6 1 0c0 1 0 3 1 6l3 12 18 55z"/>
    </symbol>
  
    <symbol id="icon-usb" viewBox="0 0 512 512">
      <path d="m484 258l-84-50 0 35-207 0 27-42 25 0c5 12 17 20 31 20 20 0 35-15 35-35 0-19-15-34-35-34-14 0-26 9-31 20l-38 0-7 10-38 60-45 0c-7-18-23-30-42-30-25 0-45 20-45 45 0 25 20 45 45 45 19 0 35-12 42-30l77 0 37 60 6 9 37 0 0 19 64 0 0-62-63 0 0 15-24 0-27-40 176 0 0 35z"/>
    </symbol>
  
    <symbol id="icon-inseat-power" viewBox="0 0 512 512">
      <path d="m282 150l-120 37 0 32-133 0 0 64 133 0 0 31 120 38 0 32 56 0 0-266-57 0 0 32z m177 0l-108 0 0 44 133 0z m-108 201l108 0 25-44-133 0z"/>
    </symbol>
  
    <symbol id="icon-google-plus-1" viewBox="0 0 512 512">
      <path d="m328 343c-4-5-9-11-15-16-5-5-10-9-15-13-6-5-10-8-15-12-4-4-8-8-10-12-3-4-4-8-4-13 0-6 2-11 5-16 4-5 9-10 14-15 6-5 11-10 16-16 6-6 10-13 14-23 4-9 6-20 6-32 0-15-3-29-10-42-6-13-15-24-27-31l33 0 34-19-108 0c-15 0-31 1-46 5-23 5-42 16-58 34-15 19-23 39-23 62 0 24 9 45 26 61 18 16 39 24 63 24 5 0 11-1 17-1 0 1-1 3-1 5-1 2-2 4-2 5-1 1-1 3-2 5 0 2 0 4 0 6 0 11 5 23 16 36-13 1-25 2-37 4-12 2-25 5-38 9-14 4-26 9-36 17-11 8-18 17-24 27-6 12-9 23-9 33 0 11 3 21 8 30 4 9 11 17 19 22 7 6 16 11 26 15 10 3 20 6 30 8 10 1 20 2 30 2 44 0 78-10 103-32 23-20 35-43 35-69 0-10-2-18-5-27-2-8-6-15-10-21z m-95-89c-8 0-16-2-24-6-7-5-14-10-19-17-5-7-10-14-14-23-4-9-7-17-9-26-2-8-2-16-2-24 0-16 4-29 12-41 8-11 20-17 36-17 10 0 20 4 29 11 9 6 16 15 21 25 5 10 9 21 11 32 3 11 4 22 4 32 0 16-3 29-10 39-8 10-19 15-35 15z m68 185c-4 8-11 14-18 18-8 4-16 8-25 10-9 2-18 3-28 3-10 0-21-2-31-4-10-3-20-6-30-11-9-5-17-12-23-21-5-9-8-19-8-30 0-10 2-18 6-26 5-8 10-14 17-19 7-4 15-8 24-11 10-3 19-5 27-6 9-1 17-2 26-2 6 0 10 0 12 1 1 0 4 2 8 5 4 3 7 4 8 5 1 1 4 3 8 6 3 3 6 5 8 6 1 2 3 4 6 7 3 2 6 5 7 7 1 2 3 4 5 7 2 3 4 6 4 9 1 3 2 6 3 9 0 3 1 6 1 10 0 10-2 19-7 27z m138-293l0-63-32 0 0 63-63 0 0 31 63 0 0 63 32 0 0-63 63 0 0-31z"/>
    </symbol>
  
    <symbol id="icon-wifi" viewBox="0 0 512 512">
      <path d="m92 248l28 26c44-32 88-50 133-50 45 0 89 18 133 50l28-26c-43-42-102-63-161-63-58 0-118 22-161 63z m162 110c-23 0-41 13-41 27 0 14 20 26 42 26 23 0 41-13 41-27 0-14-20-27-42-26z m0-92c-36 1-72 15-100 40l27 27c24-17 48-26 72-27 25 0 48 9 72 27l27-27c-26-26-63-39-98-40z m0-123c65 0 130 25 195 73l27-27c-61-58-143-85-222-86-80 1-162 28-223 87l27 27c65-49 130-74 196-74z"/>
    </symbol>
  
    <symbol id="icon-check-mark" viewBox="0 0 512 512">
      <path d="m477 162c0 7-2 14-8 19l-206 207l-39 39c-6 5-12 8-20 8c-7 0-14-3-19-8l-142-142c-6-6-8-12-8-20c0-7 2-14 8-19l38-39c6-5 12-8 20-8c7 0 14 3 19 8l84 84l188-188c5-5 12-8 19-8c8 0 14 3 20 8l38 39c6 6 8 12 8 20z"/>
    </symbol>
  
    <symbol id="icon-remove" viewBox="0 0 512 512">
      <path d="m426 378c0 7-3 14-8 19l-39 39c-5 5-12 8-20 8c-7 0-14-3-19-8l-84-84l-84 84c-5 5-12 8-19 8c-8 0-15-3-20-8l-39-39c-5-5-8-12-8-19c0-8 3-14 8-20l84-84l-84-84c-5-5-8-12-8-19c0-8 3-14 8-20l39-38c5-6 12-8 20-8c7 0 14 2 19 8l84 84l84-84c5-6 12-8 19-8c8 0 15 2 20 8l39 38c5 6 8 12 8 20c0 7-3 14-8 19l-84 84l84 84c5 6 8 12 8 20z"/>
    </symbol>
  
    <symbol id="icon-dollar" viewBox="0 0 512 512">
      <path d="m389 339c0 29-9 54-28 75c-19 21-44 34-74 39l0 50c0 3-1 5-3 6c-1 2-4 3-6 3l-39 0c-2 0-4-1-6-3c-2-2-3-4-3-6l0-50c-13-2-25-5-36-9c-12-4-22-8-29-13c-8-4-15-9-22-13c-6-5-10-9-13-11c-2-2-4-4-5-5c-3-4-3-8 0-12l29-39c1-1 4-3 7-3c2 0 5 0 6 3l1 0c22 19 45 31 69 36c7 1 15 2 22 2c15 0 29-4 40-12c12-8 18-20 18-35c0-5-2-10-4-15c-3-5-6-9-10-12c-4-3-9-7-17-11c-7-4-14-7-19-9c-5-2-12-5-22-9c-8-3-14-6-18-7c-4-2-10-5-18-8c-7-3-13-6-17-9c-5-2-10-6-17-10c-6-4-11-8-15-12c-4-4-8-9-12-14c-5-6-8-11-10-17c-3-5-5-12-6-19c-2-7-3-14-3-22c0-26 9-49 28-69c19-20 43-33 73-38l0-52c0-2 1-4 3-6c2-2 4-3 6-3l39 0c2 0 5 1 6 3c2 1 3 3 3 6l0 50c11 2 21 4 31 7c11 3 19 6 25 10c7 3 13 6 18 10c6 4 10 7 12 9c1 1 3 2 4 4c3 3 4 7 1 10l-23 42c-1 3-4 5-6 5c-3 0-6 0-8-2c-1-1-2-2-4-4c-2-1-6-4-11-7c-6-4-11-7-17-9c-6-3-13-6-21-8c-9-2-17-3-25-3c-18 0-33 4-44 12c-12 8-17 19-17 32c0 5 1 9 2 14c2 4 5 8 9 11c4 4 7 7 11 10c3 2 9 5 16 9c7 3 13 6 17 7c5 2 11 5 20 8c10 4 18 7 23 9c6 2 13 6 22 10c9 5 16 9 22 12c5 4 11 9 17 15c7 6 12 12 15 18c4 6 7 13 9 22c3 8 4 17 4 27z"/>
    </symbol>
  
    <symbol id="icon-pencil" viewBox="0 0 512 512">
      <path d="m140 439l26-26l-67-67l-26 26l0 30l37 0l0 37z m150-265c0-4-2-7-7-7c-1 0-3 1-4 2l-155 155c-2 2-2 3-2 5c0 4 2 6 6 6c2 0 4 0 5-2l155-154c1-2 2-3 2-5z m-16-55l119 119l-238 237l-118 0l0-118z m195 27c0 10-3 19-10 26l-48 47l-118-118l47-48c7-7 15-10 26-10c10 0 18 3 26 10l67 67c7 8 10 16 10 26z"/>
    </symbol>
  
</svg>
