<?xml version="1.0" encoding="utf-8"?>
<!-- Generator: Adobe Illustrator 17.1.0, SVG Export Plug-In . SVG Version: 6.00 Build 0)  -->
<!DOCTYPE svg PUBLIC "-//W3C//DTD SVG 1.1//EN" "http://www.w3.org/Graphics/SVG/1.1/DTD/svg11.dtd">
<svg version="1.1" xmlns="http://www.w3.org/2000/svg" xmlns:xlink="http://www.w3.org/1999/xlink" x="0px" y="0px"
	 viewBox="0 0 100 100" enable-background="new 0 0 100 100" xml:space="preserve">
<g id="Layer_1">
	<g id="Your_Icon_5_" display="none">
		<path display="inline" fill="#D8ABAB" d="M-5490.6,446.1c0,0-37.7,16.8-80.9,52.3C-5352,30.7-5084,49.7-5084,49.7
			c-587.5-168.9-717.3,122.8-724.3,393.4c-115.7-244.5-348.7-466.9-812.9-232.4c0,0,380.1,32.3,676.6,298.7
			c-629.8-302.3-623.1,598.3-623.1,598.3c149.7-314.6,397.1-400.3,580.6-416.6c-7.5,13.6-11.6,28.3-11.6,44
			c0,48.1,38.7,89,93.4,106.2c-191,223.9-200.3,514.3-172.3,698.2c41.8,274.8,117,400.9,117,400.9h406c0,0-130.2-193.2-204.1-431.2
			c-70.8-227.8-31.6-422.5,51.2-569.1c26.3,14.5,57.4,23.1,90.9,23.1c94.1,0,170.3-65.8,170.3-147.2c0-41.8-20.3-79.3-52.6-106.2
			c20.5-3.8,436.2-62.2,553.1,367.7C-4819.4,1051.1-4812.8,217.6-5490.6,446.1z"/>
	</g>
	<g>
		<path id="_x3C_Path_x3E__6_" d="M33,19.1c-16.1-1-30.1,8.2-30.8,20c-0.9,14.1,9.2,23.3,22.6,26.4c0.9,0.2,1.7,0.7,2.2,1.4
			c1.5,1.8,3.2,5.5-1.6,10.1C39.5,72.2,59,64.3,60.3,44.6C61.3,29.2,49.2,20.1,33,19.1z"/>
		<path id="_x3C_Path_x3E__3_" d="M71.3,32.1c5.9,0,11.5,1.8,15.7,5.1c3.8,3,5.9,6.8,6,10.6c0.2,7.8-4,11.5-16.5,14.8
			C74,63.4,71,66,70,67.1c-1.2,1.5-2.1,3.3-2.5,5.2c-4.3-1.5-8.4-3.2-11.8-5.6c-5.3-3.7-8-8.3-8.5-14.6C46.3,38.6,58,33,69.2,32.2
			C69.9,32.2,70.6,32.1,71.3,32.1 M71.3,26.7c-0.8,0-1.6,0-2.4,0.1c-16.1,1.1-28.1,10.3-27.1,25.7C43.2,72.1,62.5,76.3,76.6,81
			c-5.6-4.3-3.9-8.6-2.4-10.4c0.6-0.7,2.7-2.3,3.6-2.6c12.3-3.2,20.9-7.9,20.6-20.2C98.1,36.5,86.3,26.7,71.3,26.7L71.3,26.7z"/>
	</g>
</g>
<g id="Layer_2">
</g>
</svg>
