<?xml version="1.0" encoding="utf-8"?>
<!-- Generator: Adobe Illustrator 17.1.0, SVG Export Plug-In . SVG Version: 6.00 Build 0)  -->
<!DOCTYPE svg PUBLIC "-//W3C//DTD SVG 1.1//EN" "http://www.w3.org/Graphics/SVG/1.1/DTD/svg11.dtd">
<svg version="1.1" id="Layer_1" xmlns="http://www.w3.org/2000/svg" xmlns:xlink="http://www.w3.org/1999/xlink" x="0px" y="0px"
	 viewBox="0 0 100 100" enable-background="new 0 0 100 100" xml:space="preserve">
<g id="Your_Icon_5_" display="none">
	<path display="inline" fill="#D8ABAB" d="M-5624.3,446.1c0,0-37.7,16.8-80.9,52.3c219.5-467.7,487.5-448.7,487.5-448.7
		c-587.5-168.9-717.3,122.8-724.3,393.4c-115.7-244.5-348.7-466.9-812.9-232.4c0,0,380.1,32.3,676.6,298.7
		c-629.8-302.3-623.1,598.3-623.1,598.3c149.7-314.6,397.1-400.3,580.6-416.6c-7.5,13.6-11.6,28.3-11.6,44
		c0,48.1,38.7,89,93.4,106.2c-191,223.9-200.3,514.3-172.3,698.2c41.8,274.8,117,400.9,117,400.9h406c0,0-130.2-193.2-204.1-431.2
		c-70.8-227.8-31.6-422.5,51.2-569.1c26.3,14.5,57.4,23.1,90.9,23.1c94.1,0,170.3-65.8,170.3-147.2c0-41.8-20.3-79.3-52.6-106.2
		c20.5-3.8,436.2-62.2,553.1,367.7C-4953.1,1051.1-4946.5,217.6-5624.3,446.1z"/>
</g>
<g>
	<path d="M40,79c22.3-6.9,30.2-62.8-32.8-62.6C0.1,33.6-7,72.3,33.5,80.9c2.3-16-2.4-37.6-10.6-47.9C38.8,42.8,42.4,70.5,40,79z"/>
	<path d="M87.5,31.6c14.9,40.6-9.2,46.8-21.6,48c0.5-9.4,7.1-25.4,12.5-34.1C69.2,52.3,60.5,67,57.2,75.5
		C50.8,68.7,34.3,46,87.5,31.6 M91.3,24.4L86,25.8c-12.5,3.4-22.3,7.5-29.2,12.3c-6.5,4.5-10.6,9.8-12.3,15.6
		C43,59,43.5,64.5,46.1,70c2,4.2,4.7,7.6,6.7,9.7l6.6,6.9l0.1-0.4l0,0.2l7-0.7c12.9-1.3,22.1-6.1,27.2-14.3c3-4.8,4.5-10.6,4.5-17.3
		c0-7.1-1.7-15.3-5.1-24.5L91.3,24.4L91.3,24.4z"/>
</g>
</svg>
