<svg xmlns="http://www.w3.org/2000/svg" style="display: none;">
  
    <symbol id="icon-celcius" viewBox="0 0 512 512">
      <path d="m209 176c-3-3-8-6-12-8c-5-2-10-3-16-3c-5 0-10 1-15 3c-5 2-9 5-13 8c-3 4-6 8-8 12c-2 5-3 10-3 15c0 5 1 10 3 15c2 4 5 8 8 12c4 3 8 6 13 8c5 2 10 3 15 3c6 0 11-1 16-3c4-2 9-5 12-8c4-4 7-8 9-12c2-5 3-10 3-15c0-5-1-10-3-15c-2-4-5-8-9-12z m-15 39c-4 3-8 5-13 5c-5 0-9-2-12-5c-4-3-5-7-5-12c0-5 1-9 5-12c3-3 7-5 12-5c5 0 9 2 13 5c3 3 5 7 5 12c0 5-2 9-5 12z m141 97c-6 2-12 2-18 2c-4 0-8 0-11-1c-4-2-8-3-11-6c-3-3-6-6-8-10c-2-4-3-9-3-15l0-51c0-6 1-11 3-15c2-4 5-7 8-10c3-2 6-4 10-5c4-2 8-2 12-2c6 0 12 1 19 3c6 1 12 5 17 9l17-27c-7-6-15-10-24-13c-10-3-20-4-30-4c-8 0-16 1-24 4c-8 2-16 5-22 10c-6 5-11 11-15 18c-4 7-6 15-6 25l0 66c0 9 2 18 6 25c4 7 9 13 16 17c6 5 13 9 21 11c8 2 16 4 25 4c10 0 20-2 29-5c10-3 18-7 24-13l-16-27c-7 5-13 8-19 10z"/>
    </symbol>
  
    <symbol id="icon-cloud-1" viewBox="0 0 512 512">
      <path d="m400 160c-5 0-11 0-16 1c-30-41-77-65-128-65c-51 0-98 24-128 65c-5-1-11-1-16-1c-62 0-112 50-112 112c0 62 50 112 112 112c14 0 27-2 40-7c29 25 66 39 104 39c39 0 75-14 104-39c13 5 26 7 40 7c62 0 112-50 112-112c0-62-50-112-112-112z m0 192c-17 0-33-5-46-15c-23 29-58 47-98 47c-40 0-75-18-98-47c-13 10-29 15-46 15c-44 0-80-36-80-80c0-44 36-80 80-80c11 0 21 2 30 6c22-41 64-70 114-70c50 0 92 29 114 70c9-4 19-6 30-6c44 0 80 36 80 80c0 44-36 80-80 80z"/>
    </symbol>
  
    <symbol id="icon-cloud-2" viewBox="0 0 512 512">
      <path d="m512 240c0-49-40-89-89-89c-3 0-5 0-7 0c-23-29-58-46-96-46c-38 0-73 17-96 46c-2 0-4 0-7 0c-49 0-89 40-89 89c0 5 1 10 2 15c-1 1-2 1-2 2c-5-1-11-1-16-1c-62 0-112 50-112 112c0 62 50 112 112 112c14 0 27-2 40-7c29 25 66 39 104 39c39 0 75-14 104-39c13 5 26 7 40 7c62 0 112-50 112-112c0-26-9-49-24-68c15-16 24-37 24-60z m-112 208c-17 0-33-5-46-15c-23 29-58 47-98 47c-40 0-75-18-98-47c-13 10-29 15-46 15c-44 0-80-36-80-80c0-44 36-80 80-80c11 0 21 2 30 6c1-1 2-2 2-3c6-10 13-20 21-28c23-24 55-39 91-39c50 0 92 29 114 70c5-2 11-4 17-5l13-1c12 0 24 3 34 8c12 5 21 13 29 23c10 14 17 31 17 49c0 44-36 80-80 80z m66-170c-19-14-41-22-66-22c-5 0-11 0-16 1c-30-41-77-65-128-65c-34 0-66 11-93 30c8-23 29-39 54-39c8 0 15 1 22 4c15-29 46-50 81-50c36 0 66 21 81 50c7-3 14-4 22-4c31 0 57 25 57 57c0 14-6 28-14 38z"/>
    </symbol>
  
    <symbol id="icon-cloud-black-1" viewBox="0 0 512 512">
      <path d="m488 247c15 19 24 43 24 68c0 62-50 112-112 112c-14 0-27-2-40-7c-29 25-65 39-104 39c-38 0-75-14-104-39c-13 5-26 7-40 7c-62 0-112-50-112-112c0-61 50-112 112-112c5 0 11 1 16 2c0-1 1-2 2-3c-1-4-2-9-2-15c0-49 40-89 89-89c3 0 5 0 7 1c23-29 58-46 96-46c38 0 73 17 96 46c2-1 4-1 7-1c49 0 89 40 89 89c0 24-9 45-24 60z"/>
    </symbol>
  
    <symbol id="icon-cloud-moon" viewBox="0 0 512 512">
      <path d="m435 262c5-3 10-7 14-11c14-14 24-30 30-48c2-6 1-13-4-17c-4-4-10-6-16-4c-36 13-74 4-100-22c-26-26-35-64-22-100c2-6 0-12-4-16c-5-5-11-6-17-4c-18 6-34 16-48 30c-33 33-44 81-32 123c-43 6-82 29-108 64c-5-1-11-1-16-1c-62 0-112 50-112 112c0 62 50 112 112 112c14 0 27-2 40-7c29 25 66 39 104 39c39 0 75-14 104-39c13 5 26 7 40 7c62 0 112-50 112-112c0-49-32-91-77-106z m-144-170c2-2 5-5 8-7c-2 36 11 71 37 98c27 26 62 39 98 37c-14 17-33 28-53 33c-28-35-68-57-112-60c-12-34-5-74 22-101z m109 356c-17 0-33-5-46-15c-23 29-58 47-98 47c-40 0-75-18-98-47c-13 10-29 15-46 15c-44 0-80-36-80-80c0-44 36-80 80-80c11 0 21 2 30 6c21-39 60-67 107-69c2-1 5-1 7-1c13 0 25 2 37 6c16 4 30 12 43 22c12 10 22 22 30 35c1 3 2 5 4 7c9-4 19-6 30-6c44 0 80 36 80 80c0 44-36 80-80 80z"/>
    </symbol>
  
    <symbol id="icon-cloud-black-2" viewBox="0 0 512 512">
      <path d="m400 160c-5 0-11 0-16 1c-30-41-77-65-128-65c-51 0-98 24-128 65c-5-1-11-1-16-1c-62 0-112 50-112 112c0 62 50 112 112 112c14 0 27-2 40-7c29 25 66 39 104 39c39 0 75-14 104-39c13 5 26 7 40 7c62 0 112-50 112-112c0-62-50-112-112-112z"/>
    </symbol>
  
    <symbol id="icon-cloud-moon-black" viewBox="0 0 512 512">
      <path d="m435 262c5-3 10-7 14-11c14-14 24-30 30-48c2-6 1-13-4-17c-4-4-10-6-16-4c-36 13-74 4-100-22c-26-26-35-64-22-100c2-6 0-12-4-16c-5-5-11-6-17-4c-18 6-34 16-48 30c-33 33-44 81-32 123c-43 6-82 29-108 64c-5-1-11-1-16-1c-62 0-112 50-112 112c0 62 50 112 112 112c14 0 27-2 40-7c29 25 66 39 104 39c39 0 75-14 104-39c13 5 26 7 40 7c62 0 112-50 112-112c0-49-32-91-77-106z m-144-170c2-2 5-5 8-7c-2 36 11 71 37 98c27 26 62 39 98 37c-14 17-33 28-53 33c-28-35-68-57-112-60c-12-34-5-74 22-101z"/>
    </symbol>
  
    <symbol id="icon-cloud-sun" viewBox="0 0 512 512">
      <path d="m208 64c9 0 16-7 16-16l0-32c0-9-7-16-16-16c-9 0-16 7-16 16l0 32c0 9 7 16 16 16z m124 42l23-22c6-7 6-17 0-23c-6-6-16-6-23 0l-22 23c-6 6-6 16 0 22c6 6 16 6 22 0z m-316 118l32 0c9 0 16-7 16-16c0-9-7-16-16-16l-32 0c-9 0-16 7-16 16c0 9 7 16 16 16z m336-16c0 9 7 16 16 16l32 0c9 0 16-7 16-16c0-9-7-16-16-16l-32 0c-9 0-16 7-16 16z m-268-102c6 6 16 6 22 0c6-6 6-16 0-22l-22-23c-7-6-17-6-23 0c-6 6-6 16 0 23z m316 150c-5 0-11 0-16 1c-17-23-39-40-64-51c-2-61-51-110-112-110c-62 0-112 50-112 112c0 17 4 34 12 48c-60 3-108 52-108 112c0 62 50 112 112 112c14 0 27-2 40-7c29 25 66 39 104 39c39 0 75-14 104-39c13 5 26 7 40 7c62 0 112-50 112-112c0-62-50-112-112-112z m-192-128c40 0 73 29 79 67c-10-2-21-3-31-3c-46 0-88 20-118 53c-6-11-10-23-10-37c0-44 36-80 80-80z m192 320c-17 0-33-5-46-15c-23 29-58 47-98 47c-40 0-75-18-98-47c-13 10-29 15-46 15c-44 0-80-36-80-80c0-44 36-80 80-80c8 0 15 1 22 4c3 0 6 1 8 2c5-8 10-16 16-24c24-28 59-46 98-46c10 0 20 1 29 4c11 2 21 6 30 11c23 12 43 32 55 55c9-4 19-6 30-6c44 0 80 36 80 80c0 44-36 80-80 80z"/>
    </symbol>
  
    <symbol id="icon-cloud-sun-black" viewBox="0 0 512 512">
      <path d="m208 64c9 0 16-7 16-16l0-32c0-9-7-16-16-16c-9 0-16 7-16 16l0 32c0 9 7 16 16 16z m124 42l23-22c6-7 6-17 0-23c-6-6-16-6-23 0l-22 23c-6 6-6 16 0 22c6 6 16 6 22 0z m-316 118l32 0c9 0 16-7 16-16c0-9-7-16-16-16l-32 0c-9 0-16 7-16 16c0 9 7 16 16 16z m336-16c0 9 7 16 16 16l32 0c9 0 16-7 16-16c0-9-7-16-16-16l-32 0c-9 0-16 7-16 16z m-268-102c6 6 16 6 22 0c6-6 6-16 0-22l-22-23c-7-6-17-6-23 0c-6 6-6 16 0 23z m316 150c-5 0-11 0-16 1c-17-23-39-40-64-51c-2-61-51-110-112-110c-62 0-112 50-112 112c0 17 4 34 12 48c-60 3-108 52-108 112c0 62 50 112 112 112c14 0 27-2 40-7c29 25 66 39 104 39c39 0 75-14 104-39c13 5 26 7 40 7c62 0 112-50 112-112c0-62-50-112-112-112z m-144-64c-46 0-88 20-118 53c-6-11-10-23-10-37c0-44 36-80 80-80c40 0 73 29 79 67c-10-2-21-3-31-3z"/>
    </symbol>
  
    <symbol id="icon-compass" viewBox="0 0 512 512">
      <path d="m256 0c-141 0-256 115-256 256c0 141 115 256 256 256c141 0 256-115 256-256c0-141-115-256-256-256z m0 448c-106 0-192-86-192-192c0-106 86-192 192-192c106 0 192 86 192 192c0 106-86 192-192 192z m-96-96l128-64l64-128l-128 64z"/>
    </symbol>
  
    <symbol id="icon-farenheit" viewBox="0 0 512 512">
      <path d="m209 177c-4-3-8-6-13-8c-5-2-10-3-15-3c-6 0-11 1-16 3c-5 2-9 5-12 8c-4 4-7 8-9 12c-2 5-3 10-3 15c0 5 1 10 3 15c2 4 5 8 9 12c3 3 7 6 12 8c5 2 10 3 16 3c5 0 10-1 15-3c5-2 9-5 13-8c3-4 6-8 8-12c2-5 3-10 3-15c0-5-1-10-3-15c-2-4-5-8-8-12z m-16 39c-3 3-7 5-12 5c-5 0-10-2-13-5c-3-3-5-7-5-12c0-5 2-9 5-12c3-4 8-5 13-5c5 0 9 1 12 5c4 3 5 7 5 12c0 5-1 9-5 12z m178-15l0-32l-122 0l0 177l35 0l0-72l74 0l0-32l-74 0l0-41z"/>
    </symbol>
  
    <symbol id="icon-fog" viewBox="0 0 512 512">
      <path d="m112 160l288 0c9 0 16-7 16-16c0-9-7-16-16-16l-288 0c-9 0-16 7-16 16c0 9 7 16 16 16z m288 32l-288 0c-9 0-16 7-16 16c0 9 7 16 16 16l288 0c9 0 16-7 16-16c0-9-7-16-16-16z m0 64l-288 0c-9 0-16 7-16 16c0 9 7 16 16 16l288 0c9 0 16-7 16-16c0-9-7-16-16-16z m0 64l-288 0c-9 0-16 7-16 16c0 9 7 16 16 16l288 0c9 0 16-7 16-16c0-9-7-16-16-16z"/>
    </symbol>
  
    <symbol id="icon-fog-cloud" viewBox="0 0 512 512">
      <path d="m34 256c-1-5-2-11-2-16c0-44 36-80 80-80c11 0 21 2 30 6c22-41 64-70 114-70c50 0 92 29 114 70c9-4 19-6 30-6c44 0 80 36 80 80c0 5-1 11-2 16l32 0c1-5 2-11 2-16c0-62-50-112-112-112c-5 0-11 0-16 1c-30-41-77-65-128-65c-51 0-98 24-128 65c-5-1-11-1-16-1c-62 0-112 50-112 112c0 5 1 11 2 16z m462 32l-480 0c-9 0-16 7-16 16c0 9 7 16 16 16l480 0c9 0 16-7 16-16c0-9-7-16-16-16z m0 64l-480 0c-9 0-16 7-16 16c0 9 7 16 16 16l480 0c9 0 16-7 16-16c0-9-7-16-16-16z m0 64l-480 0c-9 0-16 7-16 16c0 9 7 16 16 16l480 0c9 0 16-7 16-16c0-9-7-16-16-16z"/>
    </symbol>
  
    <symbol id="icon-moon-black" viewBox="0 0 512 512">
      <path d="m248 264c-31-32-40-77-26-117c-15 6-30 14-42 26c-44 44-44 115 0 159c44 44 115 44 159 0c12-12 20-27 26-42c-40 14-85 5-117-26z"/>
    </symbol>
  
    <symbol id="icon-sun-black" viewBox="0 0 512 512">
      <path d="m256 144c-62 0-112 50-112 112c0 62 50 112 112 112c62 0 112-50 112-112c0-62-50-112-112-112z m0-32c9 0 16-7 16-16l0-32c0-9-7-16-16-16c-9 0-16 7-16 16l0 32c0 9 7 16 16 16z m0 288c-9 0-16 7-16 16l0 32c0 9 7 16 16 16c9 0 16-7 16-16l0-32c0-9-7-16-16-16z m124-246l23-22c6-7 6-17 0-23c-6-6-16-6-23 0l-22 23c-6 6-6 16 0 22c6 6 16 6 22 0z m-248 204l-23 22c-6 7-6 17 0 23c6 6 16 6 23 0l22-23c6-6 6-16 0-22c-6-6-16-6-22 0z m-20-102c0-9-7-16-16-16l-32 0c-9 0-16 7-16 16c0 9 7 16 16 16l32 0c9 0 16-7 16-16z m336-16l-32 0c-9 0-16 7-16 16c0 9 7 16 16 16l32 0c9 0 16-7 16-16c0-9-7-16-16-16z m-316-86c6 6 16 6 22 0c6-6 6-16 0-22l-22-23c-7-6-17-6-23 0c-6 6-6 16 0 23z m248 204c-6-6-16-6-22 0c-6 6-6 16 0 22l22 23c7 6 17 6 23 0c6-6 6-16 0-23z"/>
    </symbol>
  
    <symbol id="icon-sun" viewBox="0 0 512 512">
      <path d="m256 144c-62 0-112 50-112 112c0 62 50 112 112 112c62 0 112-50 112-112c0-62-50-112-112-112z m0 192c-44 0-80-36-80-80c0-44 36-80 80-80c44 0 80 36 80 80c0 44-36 80-80 80z m0-224c9 0 16-7 16-16l0-32c0-9-7-16-16-16c-9 0-16 7-16 16l0 32c0 9 7 16 16 16z m0 288c-9 0-16 7-16 16l0 32c0 9 7 16 16 16c9 0 16-7 16-16l0-32c0-9-7-16-16-16z m124-246l23-22c6-7 6-17 0-23c-6-6-16-6-23 0l-22 23c-6 6-6 16 0 22c6 6 16 6 22 0z m-248 204l-23 22c-6 7-6 17 0 23c6 6 16 6 23 0l22-23c6-6 6-16 0-22c-6-6-16-6-22 0z m-20-102c0-9-7-16-16-16l-32 0c-9 0-16 7-16 16c0 9 7 16 16 16l32 0c9 0 16-7 16-16z m336-16l-32 0c-9 0-16 7-16 16c0 9 7 16 16 16l32 0c9 0 16-7 16-16c0-9-7-16-16-16z m-316-86c6 6 16 6 22 0c6-6 6-16 0-22l-22-23c-7-6-17-6-23 0c-6 6-6 16 0 23z m248 204c-6-6-16-6-22 0c-6 6-6 16 0 22l22 23c7 6 17 6 23 0c6-6 6-16 0-23z"/>
    </symbol>
  
    <symbol id="icon-moon" viewBox="0 0 512 512">
      <path d="m350 343c-50 50-131 50-181 0c-50-50-50-131 0-181c13-13 29-23 48-30c6-2 12 0 16 4c5 4 6 11 4 17c-12 35-4 73 22 100c27 26 65 34 100 22c6-2 13-1 17 4c4 4 6 11 4 16c-7 19-17 35-30 48z m-159-158c-37 37-37 98 0 136c40 40 109 36 143-9c-35 3-71-10-97-37c-27-26-40-61-37-97c-3 2-6 4-9 7z"/>
    </symbol>
  
    <symbol id="icon-lightning-black-2" viewBox="0 0 512 512">
      <path d="m400 64c-5 0-11 0-16 1c-30-41-77-65-128-65c-51 0-98 24-128 65c-5-1-11-1-16-1c-62 0-112 50-112 112c0 62 50 112 112 112c14 0 27-2 40-7c21 18 47 31 75 36l-35 35l32 32l-32 96l96-96l-32-32l11-33c34-2 67-16 93-38c13 5 26 7 40 7c62 0 112-50 112-112c0-62-50-112-112-112z"/>
    </symbol>
  
    <symbol id="icon-snow-black-2" viewBox="0 0 512 512">
      <path d="m326 444l-18-11c1-3 1-6 1-9c0-4 0-7-1-10l18-10c8-5 11-16 7-24c-5-9-16-12-25-7l-18 11c-5-5-10-8-16-10l0-21c0-10-8-18-18-18c-10 0-18 8-18 18l0 21c-6 2-11 5-16 10l-18-11c-9-5-20-2-24 7c-5 8-2 19 6 24l18 10c-1 3-1 6-1 10c0 3 0 6 1 9l-18 11c-8 5-11 15-6 24c4 8 15 11 24 6l18-10c5 4 10 7 16 9l0 21c0 10 8 18 18 18c10 0 18-8 18-18l0-21c6-2 11-5 16-9l18 10c9 5 20 2 25-6c4-9 2-19-7-24z m-70-3c-10 0-18-8-18-17c0-10 8-18 18-18c10 0 18 8 18 18c0 9-8 17-18 17z m218-45l-12-3c0-4-1-7-3-11l9-9c4-4 4-10 0-15c-4-4-11-4-15 0l-9 9c-3-1-7-2-11-3l-3-12c-1-5-7-9-13-7c-5 1-9 7-7 13l3 12c-1 1-3 2-4 3c-2 2-3 3-4 5l-12-3c-6-2-11 1-13 7c-1 6 2 11 8 13l12 3c0 4 1 8 3 11l-9 9c-4 4-4 11 0 15c4 4 11 4 15 0l8-9c4 2 8 3 11 3l4 12c1 5 7 9 12 7c6-1 9-7 8-13l-3-12c1-1 3-2 4-3c2-2 3-3 4-5l12 4c5 1 11-2 13-8c1-5-2-11-8-13z m-36 7c-4 4-10 4-15 0c-4-4-4-11 0-15c5-4 11-4 15 0c4 4 4 11 0 15z m-319-60l-12 3c-1-2-2-3-4-5c-1-1-2-2-4-3l3-12c2-6-2-12-7-13c-6-2-12 2-13 7l-3 12c-4 1-8 2-11 3l-9-9c-4-4-11-4-15 0c-4 5-4 11 0 15l9 9c-2 4-3 7-3 11l-12 3c-6 2-9 8-8 13c2 6 8 9 13 8l12-4c1 2 2 3 4 5c1 1 3 2 4 3l-3 12c-1 6 2 12 8 13c5 2 11-2 12-7l4-12c3 0 7-1 11-3l8 9c5 4 11 4 15 0c4-4 4-11 0-15l-9-9c2-3 3-7 3-11l12-3c6-2 9-7 8-13c-2-6-7-9-13-7z m-30 28c-5 4-11 4-15 0c-4-4-4-11 0-15c4-4 10-4 15 0c4 4 4 11 0 15z m423-195c0-62-50-112-112-112c-5 0-11 0-16 1c-30-41-77-65-128-65c-51 0-98 24-128 65c-5-1-11-1-16-1c-62 0-112 50-112 112c0 62 50 112 112 112c14 0 27-2 40-7c29 25 66 39 104 39c39 0 75-14 104-39c13 5 26 7 40 7c62 0 112-50 112-112z"/>
    </symbol>
  
    <symbol id="icon-snow-black-1" viewBox="0 0 512 512">
      <path d="m326 444l-18-11c1-3 1-6 1-9c0-4 0-7-1-10l18-10c8-5 11-16 7-24c-5-9-16-12-25-7l-18 11c-5-5-10-8-16-10l0-21c0-10-8-18-18-18c-10 0-18 8-18 18l0 21c-6 2-11 5-16 10l-18-11c-9-5-20-2-24 7c-5 8-2 19 6 24l18 10c-1 3-1 6-1 10c0 3 0 6 1 9l-18 11c-8 5-11 15-6 24c4 8 15 11 24 6l18-10c5 4 10 7 16 9l0 21c0 10 8 18 18 18c10 0 18-8 18-18l0-21c6-2 11-5 16-9l18 10c9 5 20 2 25-6c4-9 2-19-7-24z m-70-3c-10 0-18-8-18-17c0-10 8-18 18-18c10 0 18 8 18 18c0 9-8 17-18 17z m144-377c-5 0-11 0-16 1c-30-41-77-65-128-65c-51 0-98 24-128 65c-5-1-11-1-16-1c-62 0-112 50-112 112c0 62 50 112 112 112c14 0 27-2 40-7c29 25 66 39 104 39c39 0 75-14 104-39c13 5 26 7 40 7c62 0 112-50 112-112c0-62-50-112-112-112z"/>
    </symbol>
  
    <symbol id="icon-lightning-black-1" viewBox="0 0 512 512">
      <path d="m512 135c0-49-40-89-89-89c-3 0-5 0-7 0c-23-29-58-46-96-46c-38 0-73 17-96 46c-2 0-4 0-7 0c-49 0-89 40-89 89c0 5 1 10 2 15c-1 1-2 1-2 2c-5-1-11-1-16-1c-62 0-112 50-112 112c0 62 50 112 112 112c14 0 27-3 40-7c18 16 40 26 63 33l-23 15l32 32l-32 64l96-64l-32-32l5-10c37-1 72-14 99-38c13 4 26 7 40 7c62 0 112-50 112-112c0-26-9-49-24-68c15-16 24-37 24-60z"/>
    </symbol>
  
    <symbol id="icon-lightning-4" viewBox="0 0 512 512">
      <path d="m400 64c-5 0-11 0-16 1c-30-41-77-65-128-65c-51 0-98 24-128 65c-5-1-11-1-16-1c-62 0-112 50-112 112c0 62 50 112 112 112c14 0 27-2 40-7c21 18 47 31 75 36l-35 35l32 32l-32 96l96-96l-32-32l11-33c34-2 67-16 93-38c13 5 26 7 40 7c62 0 112-50 112-112c0-62-50-112-112-112z m0 192c-17 0-33-5-46-15c-19 23-45 39-76 44l-22 3c-40 0-75-18-98-47c-13 10-29 15-46 15c-44 0-80-36-80-80c0-44 36-80 80-80c11 0 21 2 30 6c22-41 64-70 114-70c50 0 92 29 114 70c9-4 19-6 30-6c44 0 80 36 80 80c0 44-36 80-80 80z"/>
    </symbol>
  
    <symbol id="icon-snow-4" viewBox="0 0 512 512">
      <path d="m326 444l-18-11c1-3 1-6 1-9c0-4 0-7-1-10l18-10c8-5 11-16 7-24c-5-9-16-12-25-7l-18 11c-5-5-10-8-16-10l0-21c0-10-8-18-18-18c-10 0-18 8-18 18l0 21c-6 2-11 5-16 10l-18-11c-9-5-20-2-24 7c-5 8-2 19 6 24l18 10c-1 3-1 6-1 10c0 3 0 6 1 9l-18 11c-8 5-11 15-6 24c4 8 15 11 24 6l18-10c5 4 10 7 16 9l0 21c0 10 8 18 18 18c10 0 18-8 18-18l0-21c6-2 11-5 16-9l18 10c9 5 20 2 25-6c4-9 2-19-7-24z m-70-3c-10 0-18-8-18-17c0-10 8-18 18-18c10 0 18 8 18 18c0 9-8 17-18 17z m218-45l-12-3c0-4-1-7-3-11l9-9c4-4 4-10 0-15c-4-4-11-4-15 0l-9 9c-3-1-7-2-11-3l-3-12c-1-5-7-9-13-7c-5 1-9 7-7 13l3 12c-1 1-3 2-4 3c-2 2-3 3-4 5l-12-3c-6-2-11 1-13 7c-1 6 2 11 8 13l12 3c0 4 1 8 3 11l-9 9c-4 4-4 11 0 15c4 4 11 4 15 0l8-9c4 2 8 3 11 3l4 12c1 5 7 9 12 7c6-1 9-7 8-13l-3-12c1-1 3-2 4-3c2-2 3-3 4-5l12 4c5 1 11-2 13-8c1-5-2-11-8-13z m-36 7c-4 4-10 4-15 0c-4-4-4-11 0-15c5-4 11-4 15 0c4 4 4 11 0 15z m-319-60l-12 3c-1-2-2-3-4-5c-1-1-2-2-4-3l3-12c2-6-2-12-7-13c-6-2-12 2-13 7l-3 12c-4 1-8 2-11 3l-9-9c-4-4-11-4-15 0c-4 5-4 11 0 15l9 9c-2 4-3 7-3 11l-12 3c-6 2-9 8-8 13c2 6 8 9 13 8l12-4c1 2 2 3 4 5c1 1 3 2 4 3l-3 12c-1 6 2 12 8 13c5 2 11-2 12-7l4-12c3 0 7-1 11-3l8 9c5 4 11 4 15 0c4-4 4-11 0-15l-9-9c2-3 3-7 3-11l12-3c6-2 9-7 8-13c-2-6-7-9-13-7z m-30 28c-5 4-11 4-15 0c-4-4-4-11 0-15c4-4 10-4 15 0c4 4 4 11 0 15z m423-195c0-62-50-112-112-112c-5 0-11 0-16 1c-30-41-77-65-128-65c-51 0-98 24-128 65c-5-1-11-1-16-1c-62 0-112 50-112 112c0 62 50 112 112 112c14 0 27-2 40-7c29 25 66 39 104 39c39 0 75-14 104-39c13 5 26 7 40 7c62 0 112-50 112-112z m-158 65c-23 29-58 47-98 47c-40 0-75-18-98-47c-13 10-29 15-46 15c-44 0-80-36-80-80c0-44 36-80 80-80c11 0 21 2 30 6c22-41 64-70 114-70c50 0 92 29 114 70c9-4 19-6 30-6c44 0 80 36 80 80c0 44-36 80-80 80c-17 0-33-5-46-15z"/>
    </symbol>
  
    <symbol id="icon-snow-3" viewBox="0 0 512 512">
      <path d="m383 292l-33-19c1-5 2-11 2-17c0-6-1-12-2-17l33-19c15-9 20-29 12-44c-9-15-29-21-44-12l-33 19c-9-7-19-13-30-17l0-38c0-18-14-32-32-32c-18 0-32 14-32 32l0 38c-11 4-21 10-30 17l-33-19c-15-9-35-3-44 12c-8 15-3 35 12 44l33 18c-1 6-2 12-2 18c0 6 1 12 2 17l-33 19c-15 9-20 29-12 44c9 15 29 21 44 12l33-19c9 7 19 13 30 17l0 38c0 18 14 32 32 32c18 0 32-14 32-32l0-38c11-4 21-10 30-17l33 19c15 9 35 3 44-12c8-15 3-35-12-44z m-159-36c0-18 14-32 32-32c18 0 32 14 32 32c0 18-14 32-32 32c-18 0-32-14-32-32z"/>
    </symbol>
  
    <symbol id="icon-lightning-3" viewBox="0 0 512 512">
      <path d="m400 64c-5 0-11 0-16 1c-30-41-77-65-128-65c-51 0-98 24-128 65c-5-1-11-1-16-1c-62 0-112 50-112 112c0 62 50 112 112 112c14 0 27-2 40-7c12 10 26 19 41 25l25-25c-24-7-45-21-60-40c-13 10-29 15-46 15c-44 0-80-36-80-80c0-44 36-80 80-80c11 0 21 2 30 6c22-41 64-70 114-70c50 0 92 29 114 70c9-4 19-6 30-6c44 0 80 36 80 80c0 44-36 80-80 80c-17 0-33-5-46-15c-10 13-23 23-38 31l-13 40c21-6 41-17 57-31c13 5 26 7 40 7c62 0 112-50 112-112c0-62-50-112-112-112z m-208 288l32 32l-32 96l96-96l-32-32l32-96z"/>
    </symbol>
  
    <symbol id="icon-wind-rain-black" viewBox="0 0 512 512">
      <path d="m417 71c-24-25-57-39-92-39c-34 0-67 14-91 39c-53 2-95 46-95 99c0 55 44 100 99 100c6 0 12 0 18-1c20 13 45 20 69 20c25 0 49-7 70-20c6 1 12 1 17 1c55 0 100-45 100-100c0-53-42-97-95-99z m-273 186l-128 0c-9 0-16 7-16 16c0 9 7 16 16 16l128 0c9 0 16-7 16-16c0-9-7-16-16-16z m-128-32l64 0c9 0 16-7 16-16c0-9-7-16-16-16l-64 0c-9 0-16 7-16 16c0 9 7 16 16 16z m32-64l64 0c9 0 16-7 16-16c0-9-7-16-16-16l-64 0c-9 0-16 7-16 16c0 9 7 16 16 16z m176 223c0 18 14 32 32 32c18 0 32-14 32-32c0-18-32-64-32-64c0 0-32 46-32 64z m128 64c0 18 14 32 32 32c18 0 32-14 32-32c0-18-32-64-32-64c0 0-32 46-32 64z"/>
    </symbol>
  
    <symbol id="icon-wind-rain" viewBox="0 0 512 512">
      <path d="m417 71c-24-25-57-39-92-39c-34 0-67 14-91 39c-53 2-95 46-95 99c0 55 44 100 99 100c6 0 12 0 18-1c20 13 45 20 69 20c25 0 49-7 70-20c6 1 12 1 17 1c55 0 100-45 100-100c0-53-42-97-95-99z m-5 167c-8 0-16-1-24-4c-17 15-39 23-63 23c-23 0-45-8-63-23c-7 3-15 4-24 4c-37 0-67-30-67-68c0-37 30-67 67-67c4 0 7 0 10 0c18-24 46-39 77-39c31 0 60 15 78 39c3 0 6 0 9 0c38 0 68 30 68 67c0 38-30 68-68 68z m-268 19l-128 0c-9 0-16 7-16 16c0 9 7 16 16 16l128 0c9 0 16-7 16-16c0-9-7-16-16-16z m-128-32l64 0c9 0 16-7 16-16c0-9-7-16-16-16l-64 0c-9 0-16 7-16 16c0 9 7 16 16 16z m32-64l64 0c9 0 16-7 16-16c0-9-7-16-16-16l-64 0c-9 0-16 7-16 16c0 9 7 16 16 16z m176 223c0 18 14 32 32 32c18 0 32-14 32-32c0-18-32-64-32-64c0 0-32 46-32 64z m128 64c0 18 14 32 32 32c18 0 32-14 32-32c0-18-32-64-32-64c0 0-32 46-32 64z"/>
    </symbol>
  
    <symbol id="icon-snow-2" viewBox="0 0 512 512">
      <path d="m326 444l-18-11c1-3 1-6 1-9c0-4 0-7-1-10l18-10c8-5 11-16 7-24c-5-9-16-12-25-7l-18 11c-5-5-10-8-16-10l0-21c0-10-8-18-18-18c-10 0-18 8-18 18l0 21c-6 2-11 5-16 10l-18-11c-9-5-20-2-24 7c-5 8-2 19 6 24l18 10c-1 3-1 6-1 10c0 3 0 6 1 9l-18 11c-8 5-11 15-6 24c4 8 15 11 24 6l18-10c5 4 10 7 16 9l0 21c0 10 8 18 18 18c10 0 18-8 18-18l0-21c6-2 11-5 16-9l18 10c9 5 20 2 25-6c4-9 2-19-7-24z m-70-3c-10 0-18-8-18-17c0-10 8-18 18-18c10 0 18 8 18 18c0 9-8 17-18 17z m144-377c-5 0-11 0-16 1c-30-41-77-65-128-65c-51 0-98 24-128 65c-5-1-11-1-16-1c-62 0-112 50-112 112c0 62 50 112 112 112c14 0 27-2 40-7c29 25 66 39 104 39c39 0 75-14 104-39c13 5 26 7 40 7c62 0 112-50 112-112c0-62-50-112-112-112z m0 192c-17 0-33-5-46-15c-23 29-58 47-98 47c-40 0-75-18-98-47c-13 10-29 15-46 15c-44 0-80-36-80-80c0-44 36-80 80-80c11 0 21 2 30 6c22-41 64-70 114-70c50 0 92 29 114 70c9-4 19-6 30-6c44 0 80 36 80 80c0 44-36 80-80 80z"/>
    </symbol>
  
    <symbol id="icon-lightning-2" viewBox="0 0 512 512">
      <path d="m512 135c0-49-40-89-89-89c-3 0-5 0-7 0c-23-29-58-46-96-46c-38 0-73 17-96 46c-2 0-4 0-7 0c-49 0-89 40-89 89c0 5 1 10 2 15c-1 1-2 1-2 2c-5-1-11-1-16-1c-62 0-112 50-112 112c0 62 50 112 112 112c14 0 27-3 40-7c18 16 40 26 63 33l-23 15l32 32l-32 64l96-64l-32-32l5-10c37-1 72-14 99-38c13 4 26 7 40 7c62 0 112-50 112-112c0-26-9-49-24-68c15-16 24-37 24-60z m-112 208c-17 0-33-6-46-15c-19 23-46 39-76 44l-24 3c-39-1-73-19-96-47c-13 9-29 15-46 15c-44 0-80-36-80-80c0-44 36-80 80-80c11 0 21 2 30 6c1-1 2-2 2-3c6-10 13-20 21-28c23-24 55-39 91-39c50 0 92 29 114 70c5-2 11-4 17-5l13-1c12 0 24 3 34 8c12 5 21 13 29 23c10 14 17 30 17 49c0 44-36 80-80 80z m66-171c-19-13-41-21-66-21c-5 0-11 0-16 1c-30-41-77-65-128-65c-34 0-66 11-93 30c8-23 29-39 54-39c8 0 15 1 22 4c15-30 46-50 81-50c36 0 66 20 81 50c7-3 14-4 22-4c31 0 57 25 57 57c0 14-6 27-14 37z"/>
    </symbol>
  
    <symbol id="icon-lightning-1" viewBox="0 0 512 512">
      <path d="m192 384l32 32l-32 96l96-96l-32-32l32-64z m320-249c0-49-40-89-89-89c-3 0-5 0-7 0c-23-29-58-46-96-46c-38 0-73 17-96 46c-2 0-4 0-7 0c-49 0-89 40-89 89c0 5 1 10 2 15c-1 1-2 1-2 2c-5-1-11-1-16-1c-62 0-112 50-112 112c0 62 50 112 112 112c14 0 27-3 40-7c1 0 2 1 3 2l29-19c-10-6-19-14-26-23c-13 9-29 15-46 15c-44 0-80-36-80-80c0-44 36-80 80-80c11 0 21 2 30 6c1-1 2-2 2-3c6-10 13-20 21-28c23-24 55-39 91-39c50 0 92 29 114 70c5-2 11-4 17-5l13-1c12 0 24 3 34 8c12 5 21 13 29 23c10 14 17 30 17 49c0 44-36 80-80 80c-17 0-33-6-46-15c-14 17-32 30-53 38l-6 12l18 18c17-7 33-16 47-29c13 5 26 8 40 8c62 0 112-50 112-112c0-26-9-49-24-68c15-16 24-37 24-60z m-46 37c-19-13-41-21-66-21c-5 0-11 0-16 1c-30-41-77-65-128-65c-34 0-66 11-93 30c8-23 29-39 54-39c8 0 15 1 22 4c15-30 46-50 81-50c36 0 66 20 81 50c7-3 14-4 22-4c31 0 57 25 57 57c0 14-6 27-14 37z"/>
    </symbol>
  
    <symbol id="icon-snow-1" viewBox="0 0 512 512">
      <path d="m326 348l-18-11c1-3 1-6 1-9c0-4 0-7-1-10l18-10c8-5 11-16 7-24c-5-9-16-12-25-7l-18 11c-5-5-10-8-16-10l0-21c0-10-8-18-18-18c-10 0-18 8-18 18l0 21c-6 2-11 5-16 10l-18-11c-9-5-20-2-24 7c-5 8-2 19 6 24l18 10c-1 3-1 6-1 10c0 3 0 6 1 9l-18 11c-8 5-11 15-6 24c4 8 15 11 24 6l18-10c5 4 10 7 16 9l0 21c0 10 8 18 18 18c10 0 18-8 18-18l0-21c6-2 11-5 16-9l18 10c9 5 20 2 25-6c4-9 2-19-7-24z m-70-3c-10 0-18-8-18-17c0-10 8-18 18-18c10 0 18 8 18 18c0 9-8 17-18 17z m144-281c-5 0-11 0-16 1c-30-41-77-65-128-65c-51 0-98 24-128 65c-5-1-11-1-16-1c-62 0-112 50-112 112c0 62 50 112 112 112c12 0 23-2 34-6c2-5 3-10 6-14c4-7 9-13 16-17c-3-3-7-6-10-10c-13 10-29 15-46 15c-44 0-80-36-80-80c0-44 36-80 80-80c11 0 21 2 30 6c22-41 64-70 114-70c50 0 92 29 114 70c9-4 19-6 30-6c44 0 80 36 80 80c0 44-36 80-80 80c-17 0-33-5-46-15c-3 4-7 7-10 10c7 4 12 10 16 17c3 4 5 9 6 14c11 4 22 6 34 6c62 0 112-50 112-112c0-62-50-112-112-112z"/>
    </symbol>
  
    <symbol id="icon-wind-cloud" viewBox="0 0 512 512">
      <path d="m417 166c-24-24-57-39-92-39c-34 0-67 15-91 39c-53 3-95 46-95 100c0 55 44 99 99 99c6 0 12 0 18-1c20 13 45 21 69 21c25 0 49-8 70-21c6 1 12 1 17 1c55 0 100-44 100-99c0-54-42-97-95-100z m-5 167c-8 0-16-1-24-4c-17 15-39 24-63 24c-23 0-45-9-63-24c-7 3-15 4-24 4c-37 0-67-30-67-67c0-38 30-68 67-68c4 0 7 0 10 1c18-25 46-40 77-40c31 0 60 15 78 40c3-1 6-1 9-1c38 0 68 30 68 68c0 37-30 67-68 67z m-268 19l-128 0c-9 0-16 7-16 16c0 9 7 16 16 16l128 0c9 0 16-7 16-16c0-9-7-16-16-16z m-128-32l64 0c9 0 16-7 16-16c0-9-7-16-16-16l-64 0c-9 0-16 7-16 16c0 9 7 16 16 16z m32-64l64 0c9 0 16-7 16-16c0-9-7-16-16-16l-64 0c-9 0-16 7-16 16c0 9 7 16 16 16z"/>
    </symbol>
  
    <symbol id="icon-wind-black" viewBox="0 0 512 512">
      <path d="m417 166c-24-24-57-39-92-39c-34 0-67 15-91 39c-53 3-95 46-95 100c0 55 44 99 99 99c6 0 12 0 18-1c20 13 45 21 69 21c25 0 49-8 70-21c6 1 12 1 17 1c55 0 100-44 100-99c0-54-42-97-95-100z m-273 186l-128 0c-9 0-16 7-16 16c0 9 7 16 16 16l128 0c9 0 16-7 16-16c0-9-7-16-16-16z m-128-32l64 0c9 0 16-7 16-16c0-9-7-16-16-16l-64 0c-9 0-16 7-16 16c0 9 7 16 16 16z m32-64l64 0c9 0 16-7 16-16c0-9-7-16-16-16l-64 0c-9 0-16 7-16 16c0 9 7 16 16 16z"/>
    </symbol>
  
    <symbol id="icon-rain-black-2" viewBox="0 0 512 512">
      <path d="m400 64c-5 0-11 0-16 1c-30-41-77-65-128-65c-51 0-98 24-128 65c-5-1-11-1-16-1c-62 0-112 50-112 112c0 62 50 112 112 112c14 0 27-2 40-7c29 25 66 39 104 39c39 0 75-14 104-39c13 5 26 7 40 7c62 0 112-50 112-112c0-62-50-112-112-112z m-175 416c0 18 14 32 32 32c18 0 32-14 32-32c0-18-32-64-32-64c0 0-32 46-32 64z m127-32c0 18 14 32 32 32c18 0 32-14 32-32c0-18-32-64-32-64c0 0-32 46-32 64z m-256-64c0 18 14 32 32 32c18 0 32-14 32-32c0-18-32-64-32-64c0 0-32 46-32 64z"/>
    </symbol>
  
    <symbol id="icon-hail-black" viewBox="0 0 512 512">
      <path d="m400 64c-5 0-11 0-16 1c-30-41-77-65-128-65c-51 0-98 24-128 65c-5-1-11-1-16-1c-62 0-112 50-112 112c0 62 50 112 112 112c14 0 27-2 40-7c29 25 66 39 104 39c39 0 75-14 104-39c13 5 26 7 40 7c62 0 112-50 112-112c0-62-50-112-112-112z m-304 256c-18 0-32 14-32 32c0 18 14 32 32 32c18 0 32-14 32-32c0-18-14-32-32-32z m160 32c-18 0-32 14-32 32c0 18 14 32 32 32c18 0 32-14 32-32c0-18-14-32-32-32z m160-32c-18 0-32 14-32 32c0 18 14 32 32 32c18 0 32-14 32-32c0-18-14-32-32-32z m-64 128c-18 0-32 14-32 32c0 18 14 32 32 32c18 0 32-14 32-32c0-18-14-32-32-32z m-192 0c-18 0-32 14-32 32c0 18 14 32 32 32c18 0 32-14 32-32c0-18-14-32-32-32z"/>
    </symbol>
  
    <symbol id="icon-hail" viewBox="0 0 512 512">
      <path d="m400 64c-5 0-11 0-16 1c-30-41-77-65-128-65c-51 0-98 24-128 65c-5-1-11-1-16-1c-62 0-112 50-112 112c0 62 50 112 112 112c14 0 27-2 40-7c29 25 66 39 104 39c39 0 75-14 104-39c13 5 26 7 40 7c62 0 112-50 112-112c0-62-50-112-112-112z m0 192c-10 0-19-2-28-5l-18-7l-15 13c-23 20-53 31-83 31c-30 0-60-11-83-31l-15-13l-18 7c-9 3-18 5-28 5c-44 0-80-36-80-80c0-44 36-80 80-80c4 0 8 0 11 1l19 3l12-16c24-33 61-52 102-52c41 0 78 19 102 52l12 16l19-3c4-1 7-1 11-1c44 0 80 36 80 80c0 44-36 80-80 80z m-304 64c-18 0-32 14-32 32c0 18 14 32 32 32c18 0 32-14 32-32c0-18-14-32-32-32z m160 32c-18 0-32 14-32 32c0 18 14 32 32 32c18 0 32-14 32-32c0-18-14-32-32-32z m160-32c-18 0-32 14-32 32c0 18 14 32 32 32c18 0 32-14 32-32c0-18-14-32-32-32z m-64 128c-18 0-32 14-32 32c0 18 14 32 32 32c18 0 32-14 32-32c0-18-14-32-32-32z m-192 0c-18 0-32 14-32 32c0 18 14 32 32 32c18 0 32-14 32-32c0-18-14-32-32-32z"/>
    </symbol>
  
    <symbol id="icon-rain-black-1" viewBox="0 0 512 512">
      <path d="m400 96c-5 0-11 0-16 1c-30-41-77-65-128-65c-51 0-98 24-128 65c-5-1-11-1-16-1c-62 0-112 50-112 112c0 62 50 112 112 112c14 0 27-2 40-7c29 25 66 39 104 39c39 0 75-14 104-39c13 5 26 7 40 7c62 0 112-50 112-112c0-62-50-112-112-112z m-176 352c0 18 14 32 32 32c18 0 32-14 32-32c0-18-32-64-32-64c0 0-32 46-32 64z"/>
    </symbol>
  
    <symbol id="icon-wind" viewBox="0 0 512 512">
      <path d="m431 192c-26 0-48 22-48 48c0 6 1 11 3 16l-307 0c-9 0-16 7-16 16c0 9 7 16 16 16l352 0c27 0 48-21 48-48c0-26-21-48-48-48z m-352 32l192 0c27 0 48-21 48-48c0-26-21-48-48-48c-26 0-48 22-48 48c0 6 1 11 3 16l-147 0c-9 0-16 7-16 16c0 9 7 16 16 16z m256 96c-1 0-2 0-3 0c0 0-1 0-2 0l-246 0c-12 0-21 7-21 16c0 9 9 16 21 16l206 0c-2 5-3 10-3 16c0 27 22 48 48 48c27 0 48-21 48-48c0-26-21-48-48-48z"/>
    </symbol>
  
    <symbol id="icon-thermometer" viewBox="0 0 512 512">
      <path d="m288 361l0-294c0-19-14-35-32-35c-18 0-32 16-32 35l0 294c-19 11-32 31-32 55c0 35 29 64 64 64c35 0 64-29 64-64c0-24-13-44-32-55z"/>
    </symbol>
  
    <symbol id="icon-rain-2" viewBox="0 0 512 512">
      <path d="m400 64c-5 0-11 0-16 1c-30-41-77-65-128-65c-51 0-98 24-128 65c-5-1-11-1-16-1c-62 0-112 50-112 112c0 62 50 112 112 112c14 0 27-2 40-7c29 25 66 39 104 39c39 0 75-14 104-39c13 5 26 7 40 7c62 0 112-50 112-112c0-62-50-112-112-112z m0 192c-17 0-33-5-46-15c-23 29-58 47-98 47c-40 0-75-18-98-47c-13 10-29 15-46 15c-44 0-80-36-80-80c0-44 36-80 80-80c11 0 21 2 30 6c22-41 64-70 114-70c50 0 92 29 114 70c9-4 19-6 30-6c44 0 80 36 80 80c0 44-36 80-80 80z m-175 224c0 18 14 32 32 32c18 0 32-14 32-32c0-18-32-64-32-64c0 0-32 46-32 64z m127-32c0 18 14 32 32 32c18 0 32-14 32-32c0-18-32-64-32-64c0 0-32 46-32 64z m-256-64c0 18 14 32 32 32c18 0 32-14 32-32c0-18-32-64-32-64c0 0-32 46-32 64z"/>
    </symbol>
  
    <symbol id="icon-fog-sunrise" viewBox="0 0 512 512">
      <path d="m256 95c9 0 16-7 16-16l0-32c0-9-7-16-16-16c-9 0-16 7-16 16l0 32c0 9 7 16 16 16z m124 42l23-22c6-7 6-17 0-23c-6-6-16-6-23 0l-22 23c-6 6-6 16 0 22c6 6 16 6 22 0z m-316 118l32 0c9 0 16-7 16-16c0-9-7-16-16-16l-32 0c-9 0-16 7-16 16c0 9 7 16 16 16z m336-16c0 9 7 16 16 16l32 0c9 0 16-7 16-16c0-9-7-16-16-16l-32 0c-9 0-16 7-16 16z m-268-102c6 6 16 6 22 0c6-6 6-16 0-22l-22-23c-7-6-17-6-23 0c-6 6-6 16 0 23z m14 118l32 0c-1-5-2-11-2-16c0-44 36-80 80-80c44 0 80 36 80 80c0 5-1 11-2 16l32 0c1-5 2-11 2-16c0-62-50-112-112-112c-62 0-112 50-112 112c0 5 1 11 2 16z m302 32l-384 0c-9 0-16 7-16 16c0 9 7 16 16 16l384 0c9 0 16-7 16-16c0-9-7-16-16-16z m0 64l-384 0c-9 0-16 7-16 16c0 9 7 16 16 16l384 0c9 0 16-7 16-16c0-9-7-16-16-16z m0 64l-384 0c-9 0-16 7-16 16c0 9 7 16 16 16l384 0c9 0 16-7 16-16c0-9-7-16-16-16z"/>
    </symbol>
  
    <symbol id="icon-fog-sun" viewBox="0 0 512 512">
      <path d="m495 223l-82 0c-8-72-68-128-142-128c-50 0-94 25-120 64l-104 0c-9 0-16 7-16 16c0 9 7 16 16 16l89 0c-4 10-6 21-7 32l-50 0c-9 0-16 7-16 16c0 9 7 16 16 16l50 0c1 11 3 22 7 32l-86 0c-11 0-19 7-19 16c0 9 8 16 19 16l101 0c26 39 70 64 120 64c50 0 94-25 120-64l37 0c11 0 19-7 19-16c0-9-8-16-19-16l-22 0c4-10 6-21 7-32l82 0c9 0 16-7 16-16c0-9-7-16-16-16z m-325-32l101 0c9 0 16-7 16-16c0-9-7-16-16-16l-78 0c20-20 48-32 78-32c56 0 103 42 110 96l-220 0c1-11 4-22 9-32z m101 160c-30 0-58-12-78-32l156 0c-20 20-48 32-78 32z m101-64l-202 0c-5-10-8-21-9-32l220 0c-1 11-4 22-9 32z"/>
    </symbol>
  
    <symbol id="icon-rain-1" viewBox="0 0 512 512">
      <path d="m400 96c-5 0-11 0-16 1c-30-41-77-65-128-65c-51 0-98 24-128 65c-5-1-11-1-16-1c-62 0-112 50-112 112c0 62 50 112 112 112c14 0 27-2 40-7c29 25 66 39 104 39c39 0 75-14 104-39c13 5 26 7 40 7c62 0 112-50 112-112c0-62-50-112-112-112z m0 192c-17 0-33-5-46-15c-23 29-58 47-98 47c-40 0-75-18-98-47c-13 10-29 15-46 15c-44 0-80-36-80-80c0-44 36-80 80-80c11 0 21 2 30 6c22-41 64-70 114-70c50 0 92 29 114 70c9-4 19-6 30-6c44 0 80 36 80 80c0 44-36 80-80 80z m-176 160c0 18 14 32 32 32c18 0 32-14 32-32c0-18-32-64-32-64c0 0-32 46-32 64z"/>
    </symbol>
  
    <symbol id="icon-sunrise" viewBox="0 0 512 512">
      <path d="m178 288c7-37 39-64 78-64c39 0 71 27 78 64l32 0c-7-54-54-96-110-96c-56 0-103 42-110 96z m78-128c9 0 16-7 16-16l0-32c0-9-7-16-16-16c-9 0-16 7-16 16l0 32c0 9 7 16 16 16z m147-3c-6-6-16-6-23 0l-22 23c-6 6-6 16 0 22c6 6 16 6 22 0l23-22c6-7 6-17 0-23z m-249 23l-22-23c-7-6-17-6-23 0c-6 6-6 16 0 23l23 22c6 6 16 6 22 0c6-6 6-16 0-22z m198 140l-192 0c-9 0-16 7-16 16c0 9 7 16 16 16l192 0c9 0 16-7 16-16c0-9-7-16-16-16z m-32 64l-128 0c-9 0-16 7-16 16c0 9 7 16 16 16l128 0c9 0 16-7 16-16c0-9-7-16-16-16z"/>
    </symbol>
  
    <symbol id="icon-sun-half" viewBox="0 0 512 512">
      <path d="m271 127c9 0 16-7 16-16l0-32c0-9-7-16-16-16c-9 0-16 7-16 16l0 32c0 9 7 16 16 16z m0 288c-9 0-16 7-16 16l0 32c0 9 7 16 16 16c9 0 16-7 16-16l0-32c0-9-7-16-16-16z m-124-42l-23 22c-6 7-6 17 0 23c6 6 16 6 23 0l22-23c6-6 6-16 0-22c-6-6-16-6-22 0z m-20-102c0-9-7-16-16-16l-32 0c-9 0-16 7-16 16c0 9 7 16 16 16l32 0c9 0 16-7 16-16z m20-102c6 6 16 6 22 0c6-6 6-16 0-22l-22-23c-7-6-17-6-23 0c-6 6-6 16 0 23z m188-10c-11 0-22 2-32 5c-10-3-21-5-32-5c-62 0-112 50-112 112c0 62 50 112 112 112c11 0 22-2 32-5c10 3 21 5 32 5c62 0 112-50 112-112c0-62-50-112-112-112z m-80 190c-36-7-64-39-64-78c0-39 28-71 64-78c-20 20-32 47-32 78c0 31 12 58 32 78z"/>
    </symbol>
  
    <symbol id="icon-n-a" viewBox="0 0 512 512">
      <path d="m159 279l-1 0l-33-52l-41-60l-32 0l0 176l35 0l0-111l1 0l30 45l44 66l32 0l0-176l-35 0z m47 75l26 0l65-196l-26 0z m193-187l-36 0l-62 176l37 0l12-36l61 0l11 36l38 0z m-40 111l7-24l14-45l1 0l14 46l7 23z"/>
    </symbol>
  
    <symbol id="icon-fog-moon" viewBox="0 0 512 512">
      <path d="m64 319l384 0c9 0 16-7 16-16c0-9-7-16-16-16l-384 0c-9 0-16 7-16 16c0 9 7 16 16 16z m384 32l-384 0c-9 0-16 7-16 16c0 9 7 16 16 16l384 0c9 0 16-7 16-16c0-9-7-16-16-16z m0 64l-384 0c-9 0-16 7-16 16c0 9 7 16 16 16l384 0c9 0 16-7 16-16c0-9-7-16-16-16z m-243-160c0 0-1-1-1-1c-37-37-37-98 0-136c3-2 5-5 8-7c-2 36 11 72 37 98c27 26 62 39 98 37c-3 3-6 6-9 9l42 0c5-8 9-17 12-26c2-6 1-12-4-17c-4-4-10-6-16-4c-36 13-74 4-100-22c-26-26-35-64-22-100c2-5 0-12-4-16c-5-5-11-6-17-4c-18 6-34 17-48 30c-43 43-49 109-17 159z"/>
    </symbol>
  
    <symbol id="icon-anchor" viewBox="0 0 512 512">
      <path d="m274 73c0-5-2-9-5-13c-4-3-8-5-13-5c-5 0-9 2-13 5c-3 4-5 8-5 13c0 5 2 9 5 13c4 4 8 5 13 5c5 0 9-1 13-5c3-4 5-8 5-13z m238 265l0 101c0 4-2 7-6 8c-1 1-2 1-3 1c-3 0-5-1-7-3l-26-26c-23 27-53 49-91 65c-38 15-79 23-123 23c-44 0-85-8-123-23c-38-16-68-38-91-65l-26 26c-2 2-4 3-7 3c-1 0-2 0-3-1c-4-1-6-4-6-8l0-101c0-2 1-5 3-6c1-2 3-3 6-3l101 0c4 0 7 2 8 6c2 3 1 7-2 10l-28 28c12 18 31 32 54 44c23 12 49 20 77 24l0-185l-54 0c-5 0-10-2-13-5c-4-4-6-8-6-13l0-37c0-5 2-9 6-13c3-3 8-5 13-5l54 0l0-47c-11-6-19-15-26-26c-7-11-10-24-10-37c0-20 7-37 21-52c15-14 32-21 52-21c20 0 37 7 52 21c14 15 21 32 21 52c0 13-3 26-10 37c-7 11-15 20-26 26l0 47l54 0c5 0 10 2 13 5c4 4 6 8 6 13l0 37c0 5-2 9-6 13c-3 3-8 5-13 5l-54 0l0 185c28-4 54-12 77-24c23-12 42-26 54-44l-28-28c-3-3-4-7-2-10c1-4 4-6 8-6l101 0c3 0 5 1 6 3c2 1 3 4 3 6z"/>
    </symbol>
  
    <symbol id="icon-android" viewBox="0 0 512 512">
      <path d="m196 138c3 0 5-1 8-3c2-2 3-5 3-8c0-3-1-6-3-8c-3-2-5-3-8-3c-3 0-6 1-8 3c-2 2-3 5-3 8c0 3 1 6 3 8c2 2 5 3 8 3z m120 0c3 0 6-1 8-3c2-2 3-5 3-8c0-3-1-6-3-8c-2-2-5-3-8-3c-3 0-5 1-8 3c-2 2-3 5-3 8c0 3 1 6 3 8c3 2 5 3 8 3z m-232 53c8 0 15 2 21 8c6 6 8 13 8 21l0 123c0 8-2 15-8 20c-6 6-13 9-21 9c-8 0-15-3-21-9c-5-5-8-12-8-20l0-123c0-8 3-15 8-21c6-6 13-8 21-8z m303 5l0 190c0 9-3 16-9 23c-6 6-13 9-22 9l-21 0l0 65c0 8-3 15-9 20c-6 6-13 9-21 9c-8 0-15-3-21-9c-5-5-8-12-8-20l0-65l-40 0l0 65c0 8-3 15-8 20c-6 6-13 9-21 9c-8 0-15-3-21-9c-5-5-8-12-8-20l-1-65l-21 0c-8 0-16-3-22-9c-6-7-9-14-9-23l0-190z m-66-116c20 11 37 25 49 44c12 19 18 39 18 62l-264 0c0-23 6-43 18-62c12-19 29-33 49-44l-20-37c-1-3-1-5 1-6c3-1 5 0 6 2l21 38c18-8 37-12 57-12c20 0 39 4 57 12l21-38c1-2 3-3 6-2c2 1 2 3 1 6z m136 140l0 123c0 8-3 15-8 20c-6 6-13 9-21 9c-8 0-15-3-21-9c-6-5-8-12-8-20l0-123c0-8 2-15 8-21c6-6 13-8 21-8c8 0 15 2 21 8c5 6 8 13 8 21z"/>
    </symbol>
  
    <symbol id="icon-apple" viewBox="0 0 512 512">
      <path d="m453 347c-8 24-19 48-35 72c-25 37-49 56-74 56c-9 0-22-3-40-10c-16-6-30-9-43-9c-11 0-25 3-40 10c-16 6-28 9-38 9c-29 0-58-24-86-74c-28-49-42-97-42-143c0-44 11-79 32-107c21-28 49-41 81-41c14 0 31 3 51 8c20 6 33 9 39 9c9 0 22-3 41-10c20-6 36-10 50-10c22 0 43 7 60 19c10 7 20 16 30 29c-15 12-26 24-32 33c-13 18-19 38-19 59c0 24 7 45 20 64c13 19 28 31 45 36z m-108-335c0 12-2 25-8 39c-6 14-14 27-26 39c-11 11-21 17-31 21c-7 2-17 4-30 5c1-29 8-53 22-74c14-20 38-34 72-42c0 1 0 2 0 3c1 2 1 3 1 3c0 1 0 2 0 3c0 1 0 2 0 3z"/>
    </symbol>
  
    <symbol id="icon-asterisk" viewBox="0 0 512 512">
      <path d="m442 300c8 5 14 12 17 22c2 10 1 19-4 28l-18 31c-5 9-12 15-22 17c-10 3-19 2-28-3l-76-44l0 88c0 10-4 18-11 26c-7 7-16 10-26 10l-36 0c-10 0-19-3-26-10c-7-8-11-16-11-26l0-88l-76 44c-9 5-18 6-28 3c-10-2-17-8-22-17l-18-31c-5-9-6-18-4-28c3-10 9-17 17-22l76-44l-76-44c-8-5-14-12-17-22c-2-10-1-19 4-28l18-31c5-9 12-15 22-17c10-3 19-2 28 3l76 44l0-88c0-10 4-18 11-26c7-7 16-10 26-10l36 0c10 0 19 3 26 10c7 8 11 16 11 26l0 88l76-44c9-5 18-6 28-3c10 2 17 8 22 17l18 31c5 9 6 18 4 28c-3 10-9 17-17 22l-76 44z"/>
    </symbol>
  
    <symbol id="icon-briefcase-case" viewBox="0 0 512 512">
      <path d="m183 110l146 0l0-37l-146 0z m-101 0l0 365l-18 0c-18 0-33-6-45-18c-13-13-19-28-19-46l0-237c0-18 6-33 19-45c12-13 27-19 45-19z m320 0l0 365l-292 0l0-365l36 0l0-46c0-8 3-14 8-19c6-6 12-8 20-8l164 0c8 0 14 2 20 8c5 5 8 11 8 19l0 46z m110 64l0 237c0 18-6 33-19 46c-12 12-27 18-45 18l-18 0l0-365l18 0c18 0 33 6 45 19c13 12 19 27 19 45z"/>
    </symbol>
  
    <symbol id="icon-briefcase-case-two" viewBox="0 0 512 512">
      <path d="m183 73l146 0l0-36l-146 0z m329 183l0 137c0 13-4 23-13 32c-9 9-20 14-33 14l-420 0c-13 0-24-5-33-14c-9-9-13-19-13-32l0-137l192 0l0 46c0 5 2 9 5 13c4 3 8 5 13 5l92 0c5 0 9-2 13-5c3-4 5-8 5-13l0-46z m-219 0l0 37l-74 0l0-37z m219-137l0 110l-512 0l0-110c0-13 4-23 13-32c9-9 20-14 33-14l100 0l0-46c0-7 3-14 8-19c6-5 12-8 20-8l164 0c8 0 14 3 20 8c5 5 8 12 8 19l0 46l100 0c13 0 24 5 33 14c9 9 13 19 13 32z"/>
    </symbol>
  
    <symbol id="icon-building" viewBox="0 0 512 512">
      <path d="m165 375l0 18c0 3-1 5-3 7c-2 1-4 2-7 2l-18 0c-2 0-4-1-6-2c-2-2-3-4-3-7l0-18c0-3 1-5 3-7c2-1 4-2 6-2l18 0c3 0 5 1 7 2c2 2 3 4 3 7z m0-73l0 18c0 2-1 5-3 6c-2 2-4 3-7 3l-18 0c-2 0-4-1-6-3c-2-1-3-4-3-6l0-18c0-3 1-5 3-7c2-2 4-2 6-2l18 0c3 0 5 0 7 2c2 2 3 4 3 7z m73 0l0 18c0 2-1 5-3 6c-2 2-4 3-6 3l-19 0c-2 0-4-1-6-3c-2-1-3-4-3-6l0-18c0-3 1-5 3-7c2-2 4-2 6-2l19 0c2 0 4 0 6 2c2 2 3 4 3 7z m-73-73l0 18c0 2-1 4-3 6c-2 2-4 3-7 3l-18 0c-2 0-4-1-6-3c-2-2-3-4-3-6l0-18c0-3 1-5 3-7c2-2 4-3 6-3l18 0c3 0 5 1 7 3c2 2 3 4 3 7z m219 146l0 18c0 3-1 5-3 7c-2 1-4 2-6 2l-18 0c-3 0-5-1-7-2c-2-2-3-4-3-7l0-18c0-3 1-5 3-7c2-1 4-2 7-2l18 0c2 0 4 1 6 2c2 2 3 4 3 7z m-73-73l0 18c0 2-1 5-3 6c-2 2-4 3-6 3l-19 0c-2 0-4-1-6-3c-2-1-3-4-3-6l0-18c0-3 1-5 3-7c2-2 4-2 6-2l19 0c2 0 4 0 6 2c2 2 3 4 3 7z m-73-73l0 18c0 2-1 4-3 6c-2 2-4 3-6 3l-19 0c-2 0-4-1-6-3c-2-2-3-4-3-6l0-18c0-3 1-5 3-7c2-2 4-3 6-3l19 0c2 0 4 1 6 3c2 2 3 4 3 7z m-73-74l0 19c0 2-1 4-3 6c-2 2-4 3-7 3l-18 0c-2 0-4-1-6-3c-2-2-3-4-3-6l0-19c0-2 1-4 3-6c2-2 4-3 6-3l18 0c3 0 5 1 7 3c2 2 3 4 3 6z m219 147l0 18c0 2-1 5-3 6c-2 2-4 3-6 3l-18 0c-3 0-5-1-7-3c-2-1-3-4-3-6l0-18c0-3 1-5 3-7c2-2 4-2 7-2l18 0c2 0 4 0 6 2c2 2 3 4 3 7z m-73-73l0 18c0 2-1 4-3 6c-2 2-4 3-6 3l-19 0c-2 0-4-1-6-3c-2-2-3-4-3-6l0-18c0-3 1-5 3-7c2-2 4-3 6-3l19 0c2 0 4 1 6 3c2 2 3 4 3 7z m-73-74l0 19c0 2-1 4-3 6c-2 2-4 3-6 3l-19 0c-2 0-4-1-6-3c-2-2-3-4-3-6l0-19c0-2 1-4 3-6c2-2 4-3 6-3l19 0c2 0 4 1 6 3c2 2 3 4 3 6z m-73-73l0 19c0 2-1 4-3 6c-2 2-4 3-7 3l-18 0c-2 0-4-1-6-3c-2-2-3-4-3-6l0-19c0-2 1-4 3-6c2-2 4-3 6-3l18 0c3 0 5 1 7 3c2 2 3 4 3 6z m219 147l0 18c0 2-1 4-3 6c-2 2-4 3-6 3l-18 0c-3 0-5-1-7-3c-2-2-3-4-3-6l0-18c0-3 1-5 3-7c2-2 4-3 7-3l18 0c2 0 4 1 6 3c2 2 3 4 3 7z m-73-74l0 19c0 2-1 4-3 6c-2 2-4 3-6 3l-19 0c-2 0-4-1-6-3c-2-2-3-4-3-6l0-19c0-2 1-4 3-6c2-2 4-3 6-3l19 0c2 0 4 1 6 3c2 2 3 4 3 6z m-73-73l0 19c0 2-1 4-3 6c-2 2-4 3-6 3l-19 0c-2 0-4-1-6-3c-2-2-3-4-3-6l0-19c0-2 1-4 3-6c2-2 4-3 6-3l19 0c2 0 4 1 6 3c2 2 3 4 3 6z m146 73l0 19c0 2-1 4-3 6c-2 2-4 3-6 3l-18 0c-3 0-5-1-7-3c-2-2-3-4-3-6l0-19c0-2 1-4 3-6c2-2 4-3 7-3l18 0c2 0 4 1 6 3c2 2 3 4 3 6z m-73-73l0 19c0 2-1 4-3 6c-2 2-4 3-6 3l-19 0c-2 0-4-1-6-3c-2-2-3-4-3-6l0-19c0-2 1-4 3-6c2-2 4-3 6-3l19 0c2 0 4 1 6 3c2 2 3 4 3 6z m73 0l0 19c0 2-1 4-3 6c-2 2-4 3-6 3l-18 0c-3 0-5-1-7-3c-2-2-3-4-3-6l0-19c0-2 1-4 3-6c2-2 4-3 7-3l18 0c2 0 4 1 6 3c2 2 3 4 3 6z m-73 393l110 0l0-438l-330 0l0 438l110 0l0-64c0-2 1-4 3-6c2-2 4-3 6-3l92 0c2 0 4 1 6 3c2 2 3 4 3 6z m146-457l0 476c0 5-2 9-5 13c-4 3-8 5-13 5l-366 0c-5 0-9-2-13-5c-3-4-5-8-5-13l0-476c0-5 2-9 5-13c4-3 8-5 13-5l366 0c5 0 9 2 13 5c3 4 5 8 5 13z"/>
    </symbol>
  
    <symbol id="icon-calendar" viewBox="0 0 512 512">
      <path d="m55 475l82 0l0-82l-82 0z m100 0l92 0l0-82l-92 0z m-100-100l82 0l0-92l-82 0z m100 0l92 0l0-92l-92 0z m-100-110l82 0l0-82l-82 0z m210 210l92 0l0-82l-92 0z m-110-210l92 0l0-82l-92 0z m220 210l82 0l0-82l-82 0z m-110-100l92 0l0-92l-92 0z m-100-247l0-82c0-3-1-5-3-7c-2-2-4-2-7-2l-18 0c-2 0-4 0-6 2c-2 2-3 4-3 7l0 82c0 2 1 5 3 6c2 2 4 3 6 3l18 0c3 0 5-1 7-3c2-1 3-4 3-6z m210 247l82 0l0-92l-82 0z m-110-110l92 0l0-82l-92 0z m110 0l82 0l0-82l-82 0z m9-137l0-82c0-3-1-5-3-7c-2-2-4-2-6-2l-18 0c-3 0-5 0-7 2c-2 2-3 4-3 7l0 82c0 2 1 5 3 6c2 2 4 3 7 3l18 0c2 0 4-1 6-3c2-1 3-4 3-6z m110-18l0 365c0 10-4 19-11 26c-7 7-16 11-26 11l-402 0c-10 0-19-4-26-11c-7-7-11-16-11-26l0-365c0-10 4-19 11-26c7-7 16-11 26-11l36 0l0-27c0-13 5-24 14-33c9-9 20-13 32-13l18 0c13 0 24 4 33 13c9 9 13 20 13 33l0 27l110 0l0-27c0-13 4-24 13-33c9-9 20-13 33-13l18 0c12 0 23 4 32 13c9 9 14 20 14 33l0 27l36 0c10 0 19 4 26 11c7 7 11 16 11 26z"/>
    </symbol>
  
    <symbol id="icon-calendar-1" viewBox="0 0 512 512">
      <path d="m55 475l402 0l0-292l-402 0z m110-347l0-82c0-3-1-5-3-7c-2-2-4-2-7-2l-18 0c-3 0-5 0-6 2c-2 2-3 4-3 7l0 82c0 3 1 5 3 7c1 1 3 2 6 2l18 0c3 0 5-1 7-2c2-2 3-4 3-7z m219 0l0-82c0-3-1-5-3-7c-1-2-3-2-6-2l-18 0c-3 0-5 0-7 2c-2 2-3 4-3 7l0 82c0 3 1 5 3 7c2 1 4 2 7 2l18 0c3 0 5-1 6-2c2-2 3-4 3-7z m110-18l0 365c0 10-4 19-11 26c-7 7-16 11-26 11l-402 0c-10 0-19-4-26-11c-7-7-11-16-11-26l0-365c0-10 4-19 11-26c7-7 16-11 26-11l36 0l0-27c0-13 5-24 14-33c9-9 20-13 32-13l18 0c13 0 24 4 33 13c9 9 13 20 13 33l0 27l110 0l0-27c0-13 4-24 13-33c9-9 20-13 33-13l18 0c12 0 23 4 32 13c9 9 14 20 14 33l0 27l36 0c10 0 19 4 26 11c7 7 11 16 11 26z"/>
    </symbol>
  
    <symbol id="icon-caret-down-two" viewBox="0 0 512 512">
      <path d="m402 201c0 5-2 9-5 13l-128 128c-4 4-8 5-13 5c-5 0-9-1-13-5l-128-128c-3-4-5-8-5-13c0-5 2-9 5-13c4-3 8-5 13-5l256 0c5 0 9 2 13 5c3 4 5 8 5 13z"/>
    </symbol>
  
    <symbol id="icon-caret-down" viewBox="0 0 512 512">
      <path d="m402 311c0 5-2 9-5 13l-128 128c-4 3-8 5-13 5c-5 0-9-2-13-5l-128-128c-3-4-5-8-5-13c0-5 2-9 5-13c4-4 8-5 13-5l256 0c5 0 9 1 13 5c3 4 5 8 5 13z"/>
    </symbol>
  
    <symbol id="icon-camera-retro" viewBox="0 0 512 512">
      <path d="m265 238c0-3-1-5-2-7c-2-2-4-2-7-2c-13 0-23 4-32 13c-9 9-14 20-14 32c0 3 1 5 3 7c2 2 4 2 6 2c3 0 5 0 7-2c2-2 3-4 3-7c0-7 2-14 8-19c5-5 11-8 19-8c3 0 5-1 7-3c1-1 2-4 2-6z m64 37c0 20-7 37-21 52c-15 14-32 21-52 21c-20 0-37-7-52-21c-14-15-21-32-21-52c0-20 7-38 21-52c15-14 32-21 52-21c20 0 37 7 52 21c14 14 21 32 21 52z m-292 164l438 0l0-37l-438 0z m329-164c0-30-11-56-32-78c-22-21-48-32-78-32c-30 0-56 11-78 32c-21 22-32 48-32 78c0 30 11 56 32 77c22 22 48 33 78 33c30 0 56-11 78-33c21-21 32-47 32-77z m-293-184l110 0l0-36l-110 0z m-36 55l438 0l0-73l-236 0l-18 37l-184 0z m475-73l0 366c0 10-4 19-11 26c-7 7-15 10-26 10l-438 0c-11 0-19-3-26-10c-7-7-11-16-11-26l0-366c0-10 4-19 11-26c7-7 15-10 26-10l438 0c11 0 19 3 26 10c7 7 11 16 11 26z"/>
    </symbol>
  
    <symbol id="icon-camera" viewBox="0 0 512 512">
      <path d="m256 196c21 0 39 8 54 23c15 15 23 33 23 54c0 21-8 39-23 54c-15 15-33 23-54 23c-21 0-39-8-54-23c-15-15-23-33-23-54c0-21 8-39 23-54c15-15 33-23 54-23z m188-111c19 0 35 7 48 20c13 14 20 30 20 49l0 239c0 18-7 34-20 48c-13 13-29 20-48 20l-376 0c-19 0-35-7-48-20c-13-14-20-30-20-48l0-239c0-19 7-35 20-49c13-13 29-20 48-20l60 0l14-36c3-9 9-16 18-22c9-7 18-10 28-10l136 0c10 0 19 3 28 10c9 6 15 13 18 22l14 36z m-188 308c33 0 61-12 84-36c24-23 35-51 35-84c0-33-11-61-35-84c-23-24-51-35-84-35c-33 0-61 11-84 35c-24 23-35 51-35 84c0 33 11 61 35 84c23 24 51 36 84 36z"/>
    </symbol>
  
    <symbol id="icon-call-phone-square" viewBox="0 0 512 512">
      <path d="m402 341c0-2 0-4 0-5c-1-1-5-4-11-8c-7-4-15-9-26-14l-15-9c-1 0-2-1-5-3c-3-2-5-4-7-5c-2-1-4-1-6-1c-4 0-8 3-14 9c-5 6-11 13-16 19c-5 6-10 9-13 9c-1 0-2 0-4-1c-2 0-4-1-5-1c-1-1-2-2-5-3c-2-1-3-2-4-3c-18-10-35-22-48-36c-14-13-26-30-36-48c-1-1-2-2-3-4c-1-3-2-4-3-5c0-1-1-3-1-5c-1-2-1-3-1-4c0-3 2-6 5-10c4-4 9-8 13-11c5-3 9-7 13-11c4-4 6-8 6-11c0-2 0-4-1-6c-1-2-3-4-5-7c-2-3-3-4-3-5c-1-1-2-4-5-8c-2-5-4-9-7-13c-2-5-5-9-7-14c-3-5-5-9-8-12c-2-3-3-4-4-5c-1 0-3 0-5 0c-9 0-19 2-29 6c-8 4-16 13-23 27c-6 14-9 26-9 37c0 3 0 7 0 10c1 3 1 6 2 9c0 2 1 5 2 9c2 4 3 7 3 9c1 1 2 4 4 9c2 5 3 7 3 9c11 31 32 61 62 91c30 30 60 51 91 62c2 0 4 1 9 3c5 2 8 3 9 4c2 0 5 1 9 3c4 1 7 2 9 2c3 1 6 1 9 2c3 0 7 0 10 0c11 0 23-3 37-9c14-7 23-15 27-23c4-10 6-20 6-29z m73-222l0 274c0 23-8 42-24 58c-16 16-35 24-58 24l-274 0c-23 0-42-8-58-24c-16-16-24-35-24-58l0-274c0-23 8-42 24-58c16-16 35-24 58-24l274 0c23 0 42 8 58 24c16 16 24 35 24 58z"/>
    </symbol>
  
    <symbol id="icon-call-phone" viewBox="0 0 512 512">
      <path d="m457 354c0 5-1 12-3 20c-2 9-4 15-6 20c-4 10-15 20-35 30c-17 10-35 15-53 15c-5 0-10 0-15-1c-5-1-10-2-16-4c-6-1-11-3-14-4c-3-1-8-3-16-6c-7-3-12-4-14-5c-18-7-35-14-50-24c-24-15-49-35-75-61c-26-26-47-51-62-76c-9-14-17-31-23-50c-1-1-3-6-6-14c-2-7-4-13-5-16c-1-3-3-7-5-13c-1-6-2-12-3-17c-1-4-1-9-1-15c0-17 5-35 14-53c11-19 21-31 31-35c4-2 11-4 19-6c9-1 15-2 20-2c3 0 5 0 6 0c4 2 9 9 16 22c2 4 5 9 8 16c4 6 7 12 10 18c3 5 6 10 9 15c1 1 2 3 5 7c3 4 5 8 6 10c1 3 2 6 2 8c0 4-3 9-8 15c-5 5-11 11-18 15c-6 5-12 10-17 16c-6 5-9 9-9 13c0 1 1 4 2 6c1 3 2 5 2 6c1 1 2 4 4 7c2 3 3 5 4 5c14 26 31 49 49 67c19 19 41 36 67 50c1 0 3 1 6 3c3 2 5 4 7 4c1 1 3 2 6 3c2 1 4 1 6 1c3 0 8-2 13-8c5-5 11-11 15-18c5-6 10-12 16-17c6-6 10-8 14-8c3 0 6 0 8 2c3 1 7 3 11 6c4 2 6 4 7 5c4 3 10 6 15 9c5 3 11 6 18 10c7 3 12 6 16 8c13 7 20 12 21 15c1 2 1 4 1 6z"/>
    </symbol>
  
    <symbol id="icon-check-mark" viewBox="0 0 512 512">
      <path d="m477 162c0 7-2 14-8 19l-206 207l-39 39c-6 5-12 8-20 8c-7 0-14-3-19-8l-142-142c-6-6-8-12-8-20c0-7 2-14 8-19l38-39c6-5 12-8 20-8c7 0 14 3 19 8l84 84l188-188c5-5 12-8 19-8c8 0 14 3 20 8l38 39c6 6 8 12 8 20z"/>
    </symbol>
  
    <symbol id="icon-clock" viewBox="0 0 512 512">
      <path d="m293 155l0 128c0 3-1 5-3 7c-2 2-4 3-7 3l-91 0c-3 0-5-1-7-3c-1-2-2-4-2-7l0-18c0-3 1-5 2-6c2-2 4-3 7-3l64 0l0-101c0-2 1-4 3-6c1-2 3-3 6-3l18 0c3 0 5 1 7 3c2 2 3 4 3 6z m118 101c0-28-7-54-20-78c-14-24-33-43-57-57c-24-13-50-20-78-20c-28 0-54 7-78 20c-24 14-43 33-57 57c-13 24-20 50-20 78c0 28 7 54 20 78c14 24 33 43 57 57c24 13 50 20 78 20c28 0 54-7 78-20c24-14 43-33 57-57c13-24 20-50 20-78z m64 0c0 40-9 77-29 110c-20 34-46 60-80 80c-33 20-70 29-110 29c-40 0-77-9-110-29c-34-20-60-46-80-80c-20-33-29-70-29-110c0-40 9-77 29-110c20-34 46-60 80-80c33-20 70-29 110-29c40 0 77 9 110 29c34 20 60 46 80 80c20 33 29 70 29 110z"/>
    </symbol>
  
    <symbol id="icon-cog-gear" viewBox="0 0 512 512">
      <path d="m329 256c0-20-7-37-21-52c-15-14-32-21-52-21c-20 0-37 7-52 21c-14 15-21 32-21 52c0 20 7 37 21 52c15 14 32 21 52 21c20 0 37-7 52-21c14-15 21-32 21-52z m146-31l0 63c0 3 0 5-2 7c-1 2-3 3-6 4l-52 8c-4 10-8 19-12 26c7 9 17 22 31 39c2 2 3 5 3 7c0 3-1 5-3 7c-5 7-14 17-28 31c-14 13-23 20-27 20c-2 0-5-1-7-3l-40-31c-8 5-17 8-26 11c-3 26-6 44-8 53c-1 6-5 8-10 8l-64 0c-2 0-5 0-7-2c-2-2-3-4-3-6l-8-53c-9-3-18-6-26-10l-40 30c-2 2-4 3-7 3c-3 0-5-1-7-3c-24-22-40-38-47-48c-2-2-2-4-2-7c0-2 0-4 2-6c3-4 8-11 14-19c7-9 12-16 16-21c-5-9-9-19-12-28l-52-8c-3 0-5-1-6-3c-2-2-2-4-2-7l0-63c0-3 0-5 2-7c1-2 3-3 5-4l53-8c3-8 7-17 12-26c-8-11-18-24-31-39c-2-3-3-5-3-7c0-2 1-4 3-7c5-7 14-17 28-30c14-14 23-21 27-21c2 0 5 1 7 3l40 31c8-5 17-8 26-11c3-26 6-44 8-53c1-6 5-8 10-8l64 0c2 0 5 0 7 2c2 2 3 4 3 6l8 53c9 3 18 6 26 10l40-30c2-2 4-3 7-3c3 0 5 1 7 3c25 23 41 39 47 49c2 1 2 3 2 6c0 2 0 4-2 6c-3 4-8 11-14 19c-7 9-12 16-16 21c5 9 9 18 12 28l52 8c3 0 5 1 6 3c2 2 2 4 2 7z"/>
    </symbol>
  
    <symbol id="icon-exclamation-triangle" viewBox="0 0 512 512">
      <path d="m293 393l0-54c0-3-1-5-3-7c-2-2-4-3-7-3l-54 0c-3 0-5 1-7 3c-2 2-3 4-3 7l0 54c0 3 1 5 3 7c2 1 4 2 7 2l54 0c3 0 5-1 7-2c2-2 3-4 3-7z m-1-107l5-131c0-2-1-4-3-6c-2-2-4-3-7-3l-62 0c-3 0-5 1-7 3c-2 2-3 4-3 6l5 131c0 2 1 3 3 5c1 1 4 2 6 2l53 0c3 0 5-1 7-2c2-2 3-3 3-5z m-4-267l219 402c7 12 7 24 0 36c-3 6-8 10-13 14c-6 3-12 4-19 4l-438 0c-7 0-13-1-19-4c-5-4-10-8-13-14c-7-12-7-24 0-36l219-402c3-6 8-10 13-14c6-3 12-5 19-5c7 0 13 2 19 5c5 4 10 8 13 14z"/>
    </symbol>
  
    <symbol id="icon-exclamation-circle" viewBox="0 0 512 512">
      <path d="m256 37c40 0 77 9 110 29c34 20 60 46 80 80c20 33 29 70 29 110c0 40-9 77-29 110c-20 34-46 60-80 80c-33 20-70 29-110 29c-40 0-77-9-110-29c-34-20-60-46-80-80c-20-33-29-70-29-110c0-40 9-77 29-110c20-34 46-60 80-80c33-20 70-29 110-29z m37 356l0-54c0-3-1-5-3-7c-2-2-4-3-6-3l-55 0c-3 0-5 1-7 3c-2 2-3 4-3 7l0 54c0 2 1 5 3 6c2 2 4 3 7 3l55 0c2 0 4-1 6-2c2-2 3-4 3-7z m-1-98l5-178c0-2-1-4-3-5c-2-2-4-2-7-2l-62 0c-3 0-5 0-7 2c-2 1-3 3-3 5l5 178c0 1 1 3 3 5c1 1 4 2 6 2l53 0c3 0 5-1 7-2c2-2 3-4 3-5z"/>
    </symbol>
  
    <symbol id="icon-exclamation" viewBox="0 0 512 512">
      <path d="m311 357l0 64c0 5-2 9-6 12c-3 4-7 6-12 6l-74 0c-5 0-9-2-12-6c-4-3-6-7-6-12l0-64c0-5 2-10 6-13c3-4 7-6 12-6l74 0c5 0 9 2 12 6c4 3 6 8 6 13z m8-302l-8 219c0 5-2 10-5 13c-4 4-8 6-13 6l-74 0c-5 0-9-2-13-6c-3-3-5-8-5-13l-8-219c-1-5 1-9 5-13c3-4 7-5 12-5l92 0c5 0 9 1 12 5c4 4 6 8 5 13z"/>
    </symbol>
  
    <symbol id="icon-ellipsis-2" viewBox="0 0 512 512">
      <path d="m165 210l0 55c0 8-3 14-8 20c-6 5-12 8-20 8l-55 0c-7 0-14-3-19-8c-5-6-8-12-8-20l0-55c0-7 3-14 8-19c5-5 12-8 19-8l55 0c8 0 14 3 20 8c5 5 8 12 8 19z m146 0l0 55c0 8-3 14-8 20c-5 5-12 8-20 8l-54 0c-8 0-15-3-20-8c-5-6-8-12-8-20l0-55c0-7 3-14 8-19c5-5 12-8 20-8l54 0c8 0 15 3 20 8c5 5 8 12 8 19z m146 0l0 55c0 8-3 14-8 20c-5 5-12 8-19 8l-55 0c-8 0-14-3-20-8c-5-6-8-12-8-20l0-55c0-7 3-14 8-19c6-5 12-8 20-8l55 0c7 0 14 3 19 8c5 5 8 12 8 19z"/>
    </symbol>
  
    <symbol id="icon-ellipsis" viewBox="0 0 512 512">
      <path d="m311 357l0 54c0 8-3 15-8 20c-5 5-12 8-20 8l-54 0c-8 0-15-3-20-8c-5-5-8-12-8-20l0-54c0-8 3-15 8-20c5-5 12-8 20-8l54 0c8 0 15 3 20 8c5 5 8 12 8 20z m0-147l0 55c0 8-3 14-8 20c-5 5-12 8-20 8l-54 0c-8 0-15-3-20-8c-5-6-8-12-8-20l0-55c0-7 3-14 8-19c5-5 12-8 20-8l54 0c8 0 15 3 20 8c5 5 8 12 8 19z m0-146l0 55c0 7-3 14-8 19c-5 6-12 8-20 8l-54 0c-8 0-15-2-20-8c-5-5-8-12-8-19l0-55c0-8 3-14 8-19c5-6 12-8 20-8l54 0c8 0 15 2 20 8c5 5 8 11 8 19z"/>
    </symbol>
  
    <symbol id="icon-delete-circle" viewBox="0 0 512 512">
      <path d="m365 321c0-5-2-10-6-13l-51-52l51-52c4-3 6-8 6-13c0-5-2-9-6-13l-25-25c-4-4-8-6-13-6c-5 0-10 2-13 6l-52 51l-52-51c-3-4-8-6-13-6c-5 0-9 2-13 6l-25 25c-4 4-6 8-6 13c0 5 2 10 6 13l51 52l-51 52c-4 3-6 8-6 13c0 5 2 9 6 13l25 25c4 4 8 6 13 6c5 0 10-2 13-6l52-51l52 51c3 4 8 6 13 6c5 0 9-2 13-6l25-25c4-4 6-8 6-13z m110-65c0 40-9 77-29 110c-20 34-46 60-80 80c-33 20-70 29-110 29c-40 0-77-9-110-29c-34-20-60-46-80-80c-20-33-29-70-29-110c0-40 9-77 29-110c20-34 46-60 80-80c33-20 70-29 110-29c40 0 77 9 110 29c34 20 60 46 80 80c20 33 29 70 29 110z"/>
    </symbol>
  
    <symbol id="icon-facebook" viewBox="0 0 512 512">
      <path d="m292 159l74 0l-9 81l-65 0l0 235l-97 0l0-235l-49 0l0-81l49 0l0-49c0-35 8-61 24-79c17-18 44-26 81-26l65 0l0 81l-40 0c-8 0-14 0-18 2c-5 1-8 3-10 6c-2 4-3 7-4 10c0 3-1 8-1 14z"/>
    </symbol>
  
    <symbol id="icon-facebook-square" viewBox="0 0 512 512">
      <path d="m410 262l7-62l-57 0l0-31c0-10 1-16 4-20c3-4 10-6 21-6l31 0l0-62l-50 0c-29 0-49 7-62 20c-13 14-19 34-19 61l0 38l-37 0l0 62l37 0l0 182l75 0l0-182z m65-143l0 274c0 23-8 42-24 58c-16 16-35 24-58 24l-274 0c-23 0-42-8-58-24c-16-16-24-35-24-58l0-274c0-23 8-42 24-58c16-16 35-24 58-24l274 0c23 0 42 8 58 24c16 16 24 35 24 58z"/>
    </symbol>
  
    <symbol id="icon-eye" viewBox="0 0 512 512">
      <path d="m475 274c-29-45-65-78-108-101c11 20 17 42 17 65c0 35-13 65-38 90c-25 25-55 38-90 38c-35 0-65-13-90-38c-25-25-38-55-38-90c0-23 6-45 17-65c-43 23-79 56-108 101c25 39 57 70 95 94c38 23 79 34 124 34c45 0 86-11 124-34c38-24 70-55 95-94z m-205-109c0-4-2-7-4-10c-3-3-6-4-10-4c-24 0-44 8-61 25c-17 17-26 38-26 62c0 4 1 7 4 9c3 3 6 4 10 4c4 0 7-1 10-4c2-2 4-5 4-9c0-17 5-31 17-42c12-12 26-18 42-18c4 0 7-1 10-4c2-2 4-6 4-9z m242 109c0 7-2 13-6 20c-26 44-62 79-107 105c-45 27-93 40-143 40c-50 0-98-13-143-40c-45-26-81-61-107-105c-4-7-6-13-6-20c0-6 2-13 6-19c26-44 62-79 107-106c45-26 93-39 143-39c50 0 98 13 143 39c45 27 81 62 107 106c4 6 6 13 6 19z"/>
    </symbol>
  
    <symbol id="icon-eye-slash-close" viewBox="0 0 512 512">
      <path d="m159 381l22-40c-17-12-30-27-39-45c-9-19-14-38-14-58c0-23 6-45 17-65c-43 23-79 56-108 101c31 49 72 85 122 107z m111-216c0-4-2-7-4-10c-3-3-6-4-10-4c-24 0-44 8-61 25c-17 17-26 38-26 62c0 4 1 7 4 9c3 3 6 4 10 4c4 0 7-1 10-4c2-2 4-5 4-9c0-17 5-31 17-42c12-12 26-18 42-18c4 0 7-1 10-4c2-2 4-6 4-9z m103-55c0 1 0 2 0 3c-20 35-50 89-90 161c-40 72-70 126-90 162l-14 26c-2 3-5 4-8 4c-2 0-15-6-38-20c-3-2-5-4-5-8c0-2 4-10 13-25c-28-12-53-28-76-49c-23-21-43-44-59-70c-4-6-6-12-6-20c0-7 2-14 6-19c29-45 65-81 108-106c44-26 91-39 142-39c17 0 34 1 51 5l16-28c2-3 4-5 8-5c1 0 3 1 5 2c2 1 5 3 9 4c3 2 6 4 9 6c3 1 6 3 9 5c3 2 5 3 6 3c3 2 4 5 4 8z m11 128c0 26-8 50-23 72c-15 22-35 38-59 47l80-143c1 8 2 16 2 24z m128 36c0 7-2 14-6 20c-7 12-18 26-31 41c-28 33-62 59-99 77c-38 18-78 27-120 27l21-38c41-3 78-16 112-39c35-23 63-52 86-88c-21-34-48-62-80-84l18-32c18 12 35 27 52 44c17 17 30 34 41 53c4 6 6 13 6 19z"/>
    </symbol>
  
    <symbol id="icon-female" viewBox="0 0 512 512">
      <path d="m439 302c0 7-3 14-8 19c-5 5-12 8-20 8c-9 0-17-4-22-12l-65-98l-13 0l0 38l70 118c2 2 3 6 3 9c0 5-2 9-5 13c-4 3-8 5-13 5l-55 0l0 78c0 9-3 16-10 23c-6 6-13 9-22 9l-46 0c-9 0-16-3-22-9c-7-7-10-14-10-23l0-78l-55 0c-5 0-9-2-13-5c-3-4-5-8-5-13c0-3 1-7 3-9l70-118l0-38l-13 0l-65 98c-5 8-13 12-22 12c-8 0-15-3-20-8c-5-5-8-12-8-19c0-6 2-11 5-15l73-110c14-21 31-31 50-31l110 0c19 0 36 10 50 31l73 110c3 4 5 9 5 15z m-119-229c0 18-6 33-19 45c-12 13-27 19-45 19c-18 0-33-6-45-19c-13-12-19-27-19-45c0-18 6-33 19-45c12-13 27-19 45-19c18 0 33 6 45 19c13 12 19 27 19 45z"/>
    </symbol>
  
    <symbol id="icon-google-plus" viewBox="0 0 512 512">
      <path d="m230 455c0 7-1 14-3 20l-108 0c-18 0-35-5-49-16c-15-10-25-25-30-42c5-8 11-16 20-22c9-6 18-11 29-14c10-3 20-6 30-7c10-1 20-2 31-2c6 0 10 0 14 1c1 0 4 2 8 6c5 3 8 5 10 6c1 1 4 3 9 7c4 3 7 5 9 7c2 2 4 4 8 7c3 4 6 6 7 9c2 2 4 5 6 8c3 4 4 7 5 10c1 3 2 7 3 11c1 3 1 7 1 11z m-83-100c-45 1-82 9-110 24l0-124c19 23 45 34 78 34c6 0 12 0 20-1c-4 11-6 20-6 24c0 13 6 27 18 43z m49-146c0 19-4 34-12 46c-9 11-22 17-41 17c-9 0-19-2-27-7c-9-5-16-12-23-20c-6-8-11-17-16-26c-4-10-8-20-10-30c-2-10-3-19-3-28c0-19 5-34 15-48c10-13 23-19 41-19c13 0 24 4 34 11c10 8 18 18 24 30c6 12 10 25 13 37c3 13 5 25 5 37z m279-26l0 210c0 23-8 42-24 58c-16 16-35 24-58 24l-134 0c8-13 12-28 12-44c0-13-3-25-7-35c-4-11-9-20-16-27c-6-7-13-14-20-20c-7-7-14-13-21-17c-6-5-11-10-16-16c-4-5-6-11-6-17c0-7 2-13 7-19c4-6 9-12 16-18c6-5 12-12 18-18c7-7 12-16 16-27c5-11 7-23 7-37c0-14-3-28-8-42c-5-14-12-25-21-34c-1-1-3-2-4-3c-2-1-3-2-4-2c-1 0-2-1-3-3c-1-1-2-3-3-5l39 0l38-18l-124 0c-27 0-50 4-70 11c-21 7-38 20-52 38c0-24 7-44 23-61c15-16 35-24 59-24l274 0c23 0 42 8 58 24c16 16 24 35 24 58l0 27l-73 0l0-73l-36 0l0 73l-73 0l0 37l73 0l0 73l36 0l0-73z"/>
    </symbol>
  
    <symbol id="icon-heart-empty" viewBox="0 0 512 512">
      <path d="m475 170c0-15-2-29-6-41c-4-11-9-21-15-28c-7-7-15-12-24-17c-9-4-18-7-27-9c-8-1-18-2-28-2c-9 0-20 3-32 7c-11 5-22 11-31 19c-10 7-18 14-25 20c-7 7-12 13-17 18c-3 4-8 6-14 6c-6 0-11-2-14-6c-5-5-10-11-17-18c-7-6-15-13-25-20c-9-8-20-14-31-19c-12-4-23-7-32-7c-10 0-20 1-28 2c-9 2-18 5-27 9c-9 5-17 10-24 17c-6 7-11 17-15 28c-4 12-6 26-6 41c0 32 17 66 53 102l166 160l166-160c36-36 53-70 53-102z m37 0c0 42-22 85-65 129l-178 171c-4 4-8 5-13 5c-5 0-9-1-13-5l-178-172c-2-1-4-4-8-7c-3-4-8-10-16-19c-7-9-13-18-19-28c-6-9-11-21-15-34c-5-14-7-27-7-40c0-42 12-74 36-98c24-24 58-35 101-35c11 0 23 2 36 6c12 4 23 9 34 16c11 7 20 14 27 20c8 6 15 12 22 19c7-7 14-13 22-19c7-6 16-13 27-20c11-7 22-12 34-16c13-4 25-6 36-6c43 0 77 11 101 35c24 24 36 56 36 98z"/>
    </symbol>
  
    <symbol id="icon-heart" viewBox="0 0 512 512">
      <path d="m256 475c-5 0-9-1-13-5l-178-172c-2-1-4-4-8-7c-3-4-8-10-16-19c-7-9-13-18-19-28c-6-9-11-21-15-34c-5-14-7-27-7-40c0-42 12-74 36-98c24-24 58-35 101-35c11 0 23 2 36 6c12 4 23 9 34 16c11 7 20 14 27 20c8 6 15 12 22 19c7-7 14-13 22-19c7-6 16-13 27-20c11-7 22-12 34-16c13-4 25-6 36-6c43 0 77 11 101 35c24 24 36 56 36 98c0 42-22 85-65 129l-178 171c-4 4-8 5-13 5z"/>
    </symbol>
  
    <symbol id="icon-google-plus-1" viewBox="0 0 512 512">
      <path d="m269 419c0-4-1-8-2-12c-1-4-1-7-2-10c-1-3-3-7-5-10c-3-4-5-6-6-9c-2-2-5-5-8-8c-3-4-6-6-8-8c-2-1-5-4-9-7c-4-3-7-5-9-6c-1-2-5-4-9-7c-5-3-8-5-9-6c-3 0-8-1-14-1c-11 0-21 1-31 2c-9 2-20 4-30 8c-11 3-20 7-28 13c-8 5-15 12-20 21c-5 9-8 19-8 31c0 13 4 24 10 34c7 11 16 19 27 24c11 6 22 11 34 13c12 3 24 5 37 5c11 0 22-1 32-4c10-2 19-6 28-11c9-5 16-12 22-21c5-9 8-19 8-31z m-35-247c0-11-1-23-4-36c-4-13-8-25-14-37c-6-12-14-22-24-30c-10-8-21-12-34-12c-18 0-31 7-41 20c-10 13-15 29-15 47c0 9 1 18 4 28c2 10 5 20 10 30c4 10 10 19 16 27c6 8 13 14 22 19c9 5 18 7 28 7c18 0 32-5 40-17c8-11 12-27 12-46z m-37-135l125 0l-39 22l-38 0c13 9 24 21 31 36c7 16 11 32 11 48c0 15-2 27-6 38c-5 11-10 20-16 26c-7 7-13 13-19 19c-7 5-12 11-16 17c-5 6-7 13-7 20c0 5 2 9 5 14c3 5 7 9 12 14c5 4 11 9 17 14c6 4 12 10 18 15c6 6 12 13 17 19c5 7 9 15 12 25c3 9 5 19 5 30c0 30-13 57-40 81c-29 25-69 37-120 37c-11 0-23-1-34-3c-12-2-23-5-35-9c-12-5-22-10-31-17c-9-7-16-15-22-25c-6-11-9-22-9-35c0-12 4-25 11-39c6-12 15-22 27-31c12-9 26-16 42-21c15-4 30-8 44-10c14-2 28-3 43-4c-12-16-18-30-18-42c0-3 0-5 0-7c1-2 1-4 2-6c0-1 1-3 2-6c1-2 1-4 2-6c-8 1-14 2-20 2c-29 0-53-10-73-28c-20-19-31-43-31-71c0-26 9-50 28-71c18-21 40-35 66-41c18-4 36-5 54-5z m297 73l0 36l-73 0l0 73l-37 0l0-73l-73 0l0-36l73 0l0-73l37 0l0 73z"/>
    </symbol>
  
    <symbol id="icon-group" viewBox="0 0 512 512">
      <path d="m158 256c-29 1-52 12-71 34l-35 0c-15 0-27-3-37-11c-10-7-15-17-15-31c0-63 11-94 33-94c1 0 5 1 12 5c6 4 15 8 26 12c10 3 21 5 31 5c12 0 24-2 36-6c-1 7-1 13-1 18c0 24 7 47 21 68z m286 170c0 21-7 38-20 50c-13 13-30 19-51 19l-234 0c-21 0-38-6-51-19c-13-12-20-29-20-50c0-10 1-19 1-28c1-9 2-18 4-29c2-10 4-20 7-29c3-9 7-17 11-26c5-8 11-15 17-21c6-6 14-11 23-15c9-3 19-5 30-5c1 0 5 2 11 6c6 4 12 8 19 13c8 4 17 9 29 12c12 4 24 6 36 6c12 0 24-2 36-6c12-3 21-8 29-12c7-5 13-9 19-13c6-4 10-6 11-6c11 0 21 2 30 5c9 4 17 9 23 15c6 6 12 13 17 21c4 9 8 17 11 26c3 9 5 19 7 29c2 11 3 20 4 29c0 9 1 18 1 28z m-273-341c0 19-7 35-20 49c-14 13-30 20-49 20c-18 0-35-7-48-20c-13-14-20-30-20-49c0-19 7-35 20-48c13-13 30-20 48-20c19 0 35 7 49 20c13 13 20 29 20 48z m187 103c0 28-10 52-30 72c-20 20-44 30-72 30c-28 0-52-10-72-30c-20-20-30-44-30-72c0-29 10-53 30-73c20-20 44-30 72-30c28 0 52 10 72 30c20 20 30 44 30 73z m154 60c0 14-5 24-15 31c-10 8-22 11-37 11l-35 0c-19-22-42-33-71-34c14-21 21-44 21-68c0-5 0-11-1-18c12 4 24 6 36 6c10 0 21-2 31-5c11-4 20-8 26-12c7-4 11-5 12-5c22 0 33 31 33 94z m-34-163c0 19-7 35-20 49c-13 13-30 20-48 20c-19 0-35-7-49-20c-13-14-20-30-20-49c0-19 7-35 20-48c14-13 30-20 49-20c18 0 35 7 48 20c13 13 20 29 20 48z"/>
    </symbol>
  
    <symbol id="icon-like" viewBox="0 0 512 512">
      <path d="m110 384c0-5-2-9-6-13c-3-3-8-5-13-5c-5 0-9 2-12 5c-4 4-6 8-6 13c0 5 2 9 6 13c3 3 7 5 12 5c5 0 10-2 13-5c4-4 6-8 6-13z m329-165c0-9-4-18-11-25c-8-7-16-11-26-11l-100 0c0-11 4-26 13-46c10-19 14-34 14-46c0-18-3-32-9-41c-6-9-18-13-37-13c-5 5-8 13-10 24c-3 11-6 23-9 36c-4 12-9 23-17 31c-4 4-12 13-22 26c-1 1-3 4-7 9c-3 4-6 8-9 11c-2 3-5 7-10 12c-4 5-8 10-11 13c-3 3-7 7-11 10c-4 4-8 6-11 8c-4 2-8 2-11 2l-9 0l0 183l9 0c3 0 6 1 9 1c4 1 7 1 10 2c3 1 6 2 11 3c4 2 8 3 10 3c2 1 5 2 10 4c4 2 7 3 8 3c40 14 73 21 98 21l34 0c37 0 55-16 55-48c0-5 0-10-1-16c6-3 10-8 13-15c4-7 5-14 5-21c0-7-1-13-5-20c10-9 15-20 15-34c0-4-1-10-2-15c-2-6-5-11-8-14c7 0 12-5 16-13c4-9 6-17 6-24z m36 0c0 17-4 33-14 47c2 6 3 13 3 19c0 15-4 29-11 42c1 4 1 8 1 12c0 19-6 36-17 51c0 26-8 47-24 62c-17 16-38 23-65 23l-37 0c-18 0-36-2-54-6c-18-4-39-11-62-19c-22-7-35-11-40-11l-82 0c-10 0-19-4-26-11c-7-7-10-16-10-26l0-183c0-10 3-18 10-25c7-8 16-11 26-11l78 0c7-5 20-19 40-44c11-15 21-27 30-37c5-5 8-13 10-24c2-12 5-24 9-37c4-12 10-22 18-30c7-7 16-11 25-11c16 0 31 3 44 9c12 6 22 16 29 29c6 13 10 31 10 53c0 18-5 36-14 55l50 0c20 0 37 8 52 22c14 14 21 32 21 51z"/>
    </symbol>
  
    <symbol id="icon-rss-two" viewBox="0 0 512 512">
      <path d="m165 384c0 15-6 28-16 39c-11 11-24 16-39 16c-16 0-28-5-39-16c-11-11-16-24-16-39c0-15 5-28 16-39c11-11 23-16 39-16c15 0 28 5 39 16c10 11 16 24 16 39z m146 35c0 5-1 10-5 14c-3 4-8 6-13 6l-39 0c-5 0-9-2-12-5c-4-3-6-7-6-12c-4-43-22-81-53-112c-31-31-68-48-112-52c-4-1-8-3-11-6c-4-3-5-8-5-12l0-39c0-5 2-10 6-13c3-4 7-5 12-5l2 0c30 2 59 10 87 23c28 13 52 30 74 52c22 21 39 46 52 74c13 28 20 57 23 87z m146 1c1 5-1 9-5 13c-3 4-8 6-13 6l-41 0c-5 0-9-2-13-5c-3-3-5-8-5-12c-3-41-12-80-29-117c-17-37-39-69-66-96c-27-27-59-49-96-66c-37-17-76-27-117-29c-5 0-9-2-12-6c-3-3-5-8-5-12l0-41c0-5 2-10 6-13c3-4 7-5 12-5l1 0c50 2 98 13 143 34c46 20 86 48 122 84c35 35 63 76 84 121c20 46 32 94 34 144z"/>
    </symbol>
  
    <symbol id="icon-rss" viewBox="0 0 512 512">
      <path d="m183 366c0-10-4-19-11-26c-7-7-16-11-26-11c-10 0-18 4-26 11c-7 7-10 16-10 26c0 10 3 18 10 26c8 7 16 10 26 10c10 0 19-3 26-10c7-8 11-16 11-26z m100 27c-2-45-19-82-50-114c-32-31-69-48-114-50c-2 0-5 1-6 2c-2 2-3 5-3 7l0 37c0 2 1 4 2 6c2 2 4 3 6 3c30 2 55 13 76 34c21 21 32 46 34 76c0 2 1 4 3 6c2 1 4 2 6 2l37 0c2 0 5-1 7-3c1-1 2-4 2-6z m110 0c-1-29-6-58-16-85c-10-27-23-52-40-74c-17-23-36-42-59-59c-22-17-47-30-74-40c-27-10-56-15-85-16c-3 0-5 1-6 3c-2 2-3 4-3 6l0 37c0 2 1 4 2 6c2 2 4 3 7 3c38 1 74 12 108 32c33 20 59 46 79 79c20 34 31 70 32 108c0 3 1 5 3 7c2 1 4 2 6 2l37 0c2 0 4-1 6-3c2-1 3-3 3-6z m82-274l0 274c0 23-8 42-24 58c-16 16-35 24-58 24l-274 0c-23 0-42-8-58-24c-16-16-24-35-24-58l0-274c0-23 8-42 24-58c16-16 35-24 58-24l274 0c23 0 42 8 58 24c16 16 24 35 24 58z"/>
    </symbol>
  
    <symbol id="icon-remove" viewBox="0 0 512 512">
      <path d="m426 378c0 7-3 14-8 19l-39 39c-5 5-12 8-20 8c-7 0-14-3-19-8l-84-84l-84 84c-5 5-12 8-19 8c-8 0-15-3-20-8l-39-39c-5-5-8-12-8-19c0-8 3-14 8-20l84-84l-84-84c-5-5-8-12-8-19c0-8 3-14 8-20l39-38c5-6 12-8 20-8c7 0 14 2 19 8l84 84l84-84c5-6 12-8 19-8c8 0 15 2 20 8l39 38c5 6 8 12 8 20c0 7-3 14-8 19l-84 84l84 84c5 6 8 12 8 20z"/>
    </symbol>
  
    <symbol id="icon-sort-amount-two" viewBox="0 0 512 512">
      <path d="m210 411c0 3-1 5-3 7l-91 91c-2 2-4 3-6 3c-3 0-5-1-7-3l-91-91c-3-3-4-6-2-10c1-4 4-6 8-6l55 0l0-393c0-3 1-5 3-6c1-2 4-3 6-3l55 0c3 0 5 1 7 3c1 1 2 3 2 6l0 393l55 0c3 0 5 1 7 3c1 2 2 4 2 6z m302 37l0 55c0 3-1 5-3 6c-1 2-3 3-6 3l-238 0c-3 0-5-1-6-3c-2-1-3-3-3-6l0-55c0-3 1-5 3-7c1-1 3-2 6-2l238 0c3 0 5 1 6 2c2 2 3 4 3 7z m-55-146l0 55c0 2-1 4-2 6c-2 2-4 3-7 3l-183 0c-3 0-5-1-6-3c-2-2-3-4-3-6l0-55c0-3 1-5 3-7c1-2 3-2 6-2l183 0c3 0 5 0 7 2c1 2 2 4 2 7z m-55-147l0 55c0 3-1 5-2 7c-2 2-4 2-7 2l-128 0c-3 0-5 0-6-2c-2-2-3-4-3-7l0-55c0-2 1-4 3-6c1-2 3-3 6-3l128 0c3 0 5 1 7 3c1 2 2 4 2 6z m-55-146l0 55c0 3 0 5-2 7c-2 1-4 2-7 2l-73 0c-3 0-5-1-6-2c-2-2-3-4-3-7l0-55c0-3 1-5 3-6c1-2 3-3 6-3l73 0c3 0 5 1 7 3c2 1 2 3 2 6z"/>
    </symbol>
  
    <symbol id="icon-sort-amount" viewBox="0 0 512 512">
      <path d="m347 448l0 55c0 3 0 5-2 6c-2 2-4 3-7 3l-73 0c-3 0-5-1-6-3c-2-1-3-3-3-6l0-55c0-3 1-5 3-7c1-1 3-2 6-2l73 0c3 0 5 1 7 2c2 2 2 4 2 7z m-137-37c0 3-1 5-3 7l-91 91c-2 2-4 3-6 3c-3 0-5-1-7-3l-91-91c-3-3-4-6-2-10c1-4 4-6 8-6l55 0l0-393c0-3 1-5 3-6c1-2 4-3 6-3l55 0c3 0 5 1 7 3c1 1 2 3 2 6l0 393l55 0c3 0 5 1 7 3c1 2 2 4 2 6z m192-109l0 55c0 2-1 4-2 6c-2 2-4 3-7 3l-128 0c-3 0-5-1-6-3c-2-2-3-4-3-6l0-55c0-3 1-5 3-7c1-2 3-2 6-2l128 0c3 0 5 0 7 2c1 2 2 4 2 7z m55-147l0 55c0 3-1 5-2 7c-2 2-4 2-7 2l-183 0c-3 0-5 0-6-2c-2-2-3-4-3-7l0-55c0-2 1-4 3-6c1-2 3-3 6-3l183 0c3 0 5 1 7 3c1 2 2 4 2 6z m55-146l0 55c0 3-1 5-3 7c-1 1-3 2-6 2l-238 0c-3 0-5-1-6-2c-2-2-3-4-3-7l0-55c0-3 1-5 3-6c1-2 3-3 6-3l238 0c3 0 5 1 6 3c2 1 3 3 3 6z"/>
    </symbol>
  
    <symbol id="icon-sort-alpha-two" viewBox="0 0 512 512">
      <path d="m359 117l50 0l-20-63l-4-13c0-3 0-5 0-6l-2 0l0 6c0 0-1 2-1 5c-1 3-2 6-3 8z m-130 294c0 3-1 5-3 7l-91 91c-2 2-5 3-7 3c-2 0-4-1-7-3l-91-91c-3-3-4-6-2-10c2-4 4-6 9-6l54 0l0-393c0-3 1-5 3-6c2-2 4-3 7-3l54 0c3 0 5 1 7 3c2 1 3 3 3 6l0 393l54 0c3 0 5 1 7 3c2 2 3 4 3 6z m238 34l0 67l-166 0l0-26l105-151c2-3 4-6 6-8l3-2l0-1c0 0-1 0-2 0c-1 0-1 0-2 0c-2 1-5 1-8 1l-67 0l0 33l-34 0l0-65l162 0l0 25l-105 151c-2 2-4 4-6 8l-4 3l0 1l4-1c2 0 5-1 9-1l71 0l0-34z m26-256l0 30l-82 0l0-30l21 0l-13-41l-70 0l-13 41l21 0l0 30l-82 0l0-30l20 0l66-189l46 0l66 189z"/>
    </symbol>
  
    <symbol id="icon-sort-numeric" viewBox="0 0 512 512">
      <path d="m421 83c0-12-4-23-12-34c-9-10-19-15-30-15c-10 0-18 4-24 11c-5 7-8 16-8 27c0 11 3 20 10 27c7 7 17 11 30 11c9 0 17-3 24-8c7-5 10-12 10-19z m-174 328c0 3-1 5-3 7l-91 91c-2 2-4 3-7 3c-2 0-4-1-6-3l-92-91c-3-3-3-6-2-10c2-4 5-6 9-6l55 0l0-393c0-3 1-5 2-6c2-2 4-3 7-3l55 0c2 0 5 1 6 3c2 1 3 3 3 6l0 393l55 0c2 0 5 1 6 3c2 2 3 4 3 6z m206 68l0 33l-134 0l0-33l47 0l0-123c0-1 0-3 0-5c1-3 1-4 1-5l0-5l-1 0l-2 4c-2 2-4 5-7 8l-18 17l-24-25l55-52l35 0l0 186z m8-380c0 12-1 24-4 35c-2 11-6 22-11 32c-6 11-12 20-20 28c-7 8-17 14-28 18c-11 5-23 7-36 7c-12 0-22-1-31-4c-5-2-9-3-12-4l11-33c3 2 6 3 9 3c7 3 14 4 21 4c16 0 29-5 39-17c9-11 16-25 19-41l-1 0c-4 4-10 8-17 10c-8 3-16 4-25 4c-20 0-36-6-49-20c-13-14-19-30-19-49c0-20 7-37 20-51c14-14 31-21 52-21c24 0 43 9 59 27c15 18 23 42 23 72z"/>
    </symbol>
  
    <symbol id="icon-sort-numeric-two" viewBox="0 0 512 512">
      <path d="m421 375c0-12-4-23-12-33c-9-10-19-15-30-15c-10 0-18 3-24 10c-5 7-8 16-8 27c0 11 3 20 10 27c7 8 17 11 30 11c9 0 17-2 24-7c7-6 10-12 10-20z m-174 36c0 3-1 5-3 7l-91 91c-2 2-4 3-7 3c-2 0-4-1-6-3l-92-91c-3-3-3-6-2-10c2-4 5-6 9-6l55 0l0-393c0-3 1-5 2-6c2-2 4-3 7-3l55 0c2 0 5 1 6 3c2 1 3 3 3 6l0 393l55 0c2 0 5 1 6 3c2 2 3 4 3 6z m214-19c0 12-1 23-4 34c-2 12-6 23-11 33c-6 10-12 19-20 27c-7 8-17 14-28 19c-11 5-23 7-36 7c-12 0-22-2-31-5c-5-1-9-3-12-4l11-32c3 1 6 2 9 3c7 2 14 4 21 4c16 0 29-6 39-17c9-11 16-25 19-42l-1 0c-4 5-10 8-17 11c-8 3-16 4-25 4c-20 0-36-7-49-20c-13-14-19-30-19-50c0-20 7-37 20-51c14-13 31-20 52-20c24 0 43 9 59 27c15 18 23 42 23 72z m-8-205l0 32l-134 0l0-32l47 0l0-124c0-1 0-3 0-5c1-2 1-4 1-5l0-4l-1 0l-2 3c-2 2-4 5-7 9l-18 16l-24-24l55-53l35 0l0 187z"/>
    </symbol>
  
    <symbol id="icon-spinner" viewBox="0 0 512 512">
      <path d="m174 384c0 11-4 21-12 29c-9 8-18 12-29 12c-12 0-22-4-30-12c-8-8-12-18-12-29c0-11 4-21 12-29c8-8 18-12 30-12c11 0 20 4 29 12c8 8 12 18 12 29z m123 55c0 10-3 19-11 26c-7 7-15 10-25 10c-11 0-19-3-26-10c-7-7-11-16-11-26c0-10 4-19 11-26c7-7 15-11 26-11c10 0 18 4 25 11c8 7 11 16 11 26z m-174-183c0 13-4 23-13 32c-9 9-20 14-32 14c-13 0-24-5-33-14c-9-9-13-19-13-32c0-13 4-23 13-32c9-9 20-14 33-14c12 0 23 5 32 14c9 9 13 19 13 32z m298 128c0 9-4 16-10 23c-6 6-14 9-22 9c-9 0-17-3-23-9c-6-7-9-14-9-23c0-9 3-16 9-23c6-6 14-9 23-9c8 0 16 3 22 9c6 7 10 14 10 23z m-238-256c0 14-5 26-15 36c-10 9-22 14-35 14c-14 0-26-5-36-14c-10-10-15-22-15-36c0-14 5-26 15-36c10-9 22-14 36-14c13 0 25 5 35 14c10 10 15 22 15 36z m132-55c0 15-5 28-16 39c-10 11-23 16-38 16c-16 0-29-5-39-16c-11-11-16-24-16-39c0-15 5-28 16-39c10-10 23-16 39-16c15 0 28 6 38 16c11 11 16 24 16 39z m156 183c0 8-3 14-8 19c-5 6-12 8-20 8c-7 0-14-2-19-8c-5-5-8-11-8-19c0-8 3-14 8-19c5-6 12-8 19-8c8 0 15 2 20 8c5 5 8 11 8 19z m-60-128c0 6-2 12-6 16c-5 5-10 7-16 7c-7 0-12-2-17-7c-4-4-6-10-6-16c0-6 2-12 6-16c5-5 10-7 17-7c6 0 11 2 16 7c4 4 6 10 6 16z"/>
    </symbol>
  
    <symbol id="icon-star" viewBox="0 0 512 512">
      <path d="m343 287l88-85l-121-18l-54-109l-54 109l-121 18l88 85l-21 120l108-57l108 57z m151-102c0 4-3 9-8 14l-103 101l24 143c0 1 0 3 0 5c0 10-3 15-11 15c-4 0-8-2-12-4l-128-67l-128 67c-4 2-8 4-12 4c-4 0-7-2-9-5c-2-2-3-6-3-10c0-1 0-3 1-5l24-143l-104-101c-4-6-7-10-7-14c0-7 6-12 16-13l144-21l64-130c4-8 8-12 14-12c6 0 10 4 14 12l64 130l144 21c10 1 16 6 16 13z"/>
    </symbol>
  
    <symbol id="icon-star-half" viewBox="0 0 512 512">
      <path d="m357 273l74-71l-102-15l-19-3l-9-17l-45-92l0 275l17 9l91 48l-17-101l-4-19z m129-74l-103 101l24 143c1 6 1 11-2 14c-2 4-5 6-9 6c-4 0-7-2-12-4l-128-67l-128 67c-5 2-8 4-12 4c-4 0-7-2-9-6c-3-3-3-8-2-14l24-143l-104-101c-6-7-8-12-6-17c2-6 7-9 15-10l144-21l64-130c4-8 8-12 14-12c5 0 10 4 14 12l64 130l144 21c8 1 13 4 15 10c2 5 0 10-7 17z"/>
    </symbol>
  
    <symbol id="icon-star-half-1" viewBox="0 0 512 512">
      <path d="m366 9l0 383l-129 67c-4 2-8 4-11 4c-4 0-7-2-9-5c-2-2-3-6-3-10c0-1 0-3 1-5l24-143l-104-101c-5-6-7-10-7-14c0-7 5-12 16-13l143-21l65-130c3-8 8-12 14-12z"/>
    </symbol>
  
    <symbol id="icon-star-two" viewBox="0 0 512 512">
      <path d="m494 185c0 4-3 9-8 14l-103 101l24 143c0 1 0 3 0 5c0 4-1 8-3 10c-2 3-4 5-8 5c-4 0-8-2-12-4l-128-67l-128 67c-4 2-8 4-12 4c-4 0-7-2-9-5c-2-2-3-6-3-10c0-1 0-3 1-5l24-143l-104-101c-4-6-7-10-7-14c0-7 6-12 16-13l144-21l64-130c4-8 8-12 14-12c6 0 10 4 14 12l64 130l144 21c10 1 16 6 16 13z"/>
    </symbol>
  
    <symbol id="icon-youtube" viewBox="0 0 512 512">
      <path d="m314 355l0 61c0 12-4 19-11 19c-5 0-9-2-13-6l0-86c4-5 8-7 13-7c7 0 11 7 11 19z m97 1l0 13l-26 0l0-13c0-13 4-20 13-20c8 0 13 7 13 20z m-276-63l30 0l0-26l-89 0l0 26l30 0l0 163l29 0z m82 163l25 0l0-141l-25 0l0 108c-6 8-11 12-16 12c-4 0-6-2-6-6c-1-1-1-4-1-10l0-104l-25 0l0 112c0 9 1 16 2 20c2 7 8 11 17 11c9 0 19-6 29-17z m122-42l0-57c0-13 0-23-2-28c-3-11-10-16-20-16c-10 0-19 5-27 16l0-62l-25 0l0 189l25 0l0-14c9 11 17 16 27 16c10 0 17-5 20-16c2-5 2-14 2-28z m97-3l0-4l-26 0c0 10 0 16-1 18c-1 6-5 10-11 10c-9 0-13-7-13-20l0-25l51 0l0-29c0-15-3-26-8-33c-7-10-17-15-30-15c-13 0-23 5-31 15c-5 7-8 18-8 33l0 49c0 15 3 26 9 33c7 10 17 15 31 15c13 0 24-5 30-15c4-5 6-10 6-16c1-1 1-7 1-16z m-174-261l0-60c0-13-4-20-12-20c-8 0-12 7-12 20l0 60c0 13 4 20 12 20c8 0 12-7 12-20z m206 215c0 44-3 77-8 100c-2 11-8 20-16 28c-9 7-18 12-29 13c-35 4-88 6-159 6c-71 0-124-2-159-6c-11-1-20-6-29-13c-8-8-14-17-16-28c-5-22-8-55-8-100c0-45 3-78 8-100c2-12 8-21 16-29c9-7 18-12 30-13c35-4 87-6 158-6c71 0 124 2 159 6c11 1 20 6 29 13c8 8 14 17 16 29c5 21 8 54 8 100z m-285-365l29 0l-35 114l0 77l-28 0l0-77c-3-14-9-34-18-61c-7-19-13-37-18-53l30 0l20 75z m105 95l0 50c0 16-2 27-8 34c-7 10-17 14-30 14c-13 0-23-4-30-14c-5-7-8-19-8-34l0-50c0-15 3-26 8-33c7-10 17-15 30-15c13 0 23 5 30 15c6 7 8 18 8 33z m96-46l0 142l-26 0l0-15c-10 12-20 17-29 17c-9 0-15-3-17-10c-2-5-3-12-3-22l0-112l26 0l0 105c0 6 1 9 1 10c0 4 2 6 6 6c5 0 10-4 16-12l0-109z"/>
    </symbol>
  
    <symbol id="icon-youtube-square" viewBox="0 0 512 512">
      <path d="m299 372l0-45c0-9-3-14-8-14c-3 0-7 2-10 5l0 64c3 3 7 4 10 4c5 0 8-4 8-14z m53-35l19 0l0-9c0-10-4-15-10-15c-6 0-9 5-9 15z m-163-76l0 20l-23 0l0 121l-21 0l0-121l-23 0l0-20z m57 36l0 105l-19 0l0-11c-8 8-15 13-22 13c-6 0-10-3-12-8c-1-3-2-8-2-16l0-83l19 0l0 78c0 4 0 7 1 7c0 3 1 4 4 4c4 0 8-3 12-9l0-80z m72 32l0 42c0 10-1 17-2 21c-2 8-7 12-15 12c-7 0-13-4-20-12l0 10l-19 0l0-141l19 0l0 46c7-7 13-11 20-11c8 0 13 4 15 12c1 4 2 11 2 21z m72 37l0 3c0 5 0 9-1 12c0 4-2 8-4 11c-5 8-13 12-23 12c-10 0-18-4-23-11c-4-5-6-13-6-25l0-37c0-11 2-19 6-24c5-7 13-11 22-11c10 0 18 4 23 11c4 5 6 13 6 24l0 22l-38 0l0 19c0 9 3 14 9 14c5 0 8-2 9-7c0 0 0-1 0-2c0-1 0-3 0-5l0-6z m-129-235l0 44c0 10-3 15-9 15c-6 0-9-5-9-15l0-44c0-10 3-15 9-15c6 0 9 5 9 15z m152 203c0-33-2-58-5-74c-2-8-6-15-13-21c-6-6-13-9-21-10c-26-3-65-4-118-4c-52 0-92 1-117 4c-9 1-16 4-22 10c-6 6-11 13-12 21c-4 17-6 41-6 74c0 34 2 59 6 75c1 8 6 15 12 20c6 6 13 9 21 10c26 3 66 5 118 5c52 0 92-2 118-5c8-1 15-4 21-10c6-5 11-12 12-20c4-16 6-41 6-75z m-216-186l26-84l-21 0l-15 55l-15-55l-22 0l7 19c0 0 2 7 6 20c7 20 11 35 13 45l0 58l21 0z m83 23l0-37c0-11-2-19-6-25c-6-7-13-10-22-10c-10 0-17 3-23 10c-4 6-6 14-6 25l0 37c0 11 2 20 6 25c6 8 13 11 23 11c9 0 16-3 22-11c4-5 6-13 6-25z m52 35l19 0l0-106l-19 0l0 81c-4 6-8 9-12 9c-3 0-5-2-5-5c0 0 0-3 0-7l0-78l-19 0l0 84c0 7 0 12 1 15c3 6 7 8 13 8c7 0 14-4 22-13z m143-87l0 274c0 23-8 42-24 58c-16 16-35 24-58 24l-274 0c-23 0-42-8-58-24c-16-16-24-35-24-58l0-274c0-23 8-42 24-58c16-16 35-24 58-24l274 0c23 0 42 8 58 24c16 16 24 35 24 58z"/>
    </symbol>
  
    <symbol id="icon-youtube-play" viewBox="0 0 512 512">
      <path d="m366 256c0-7-3-12-9-15l-146-92c-6-4-12-4-19 0c-6 3-9 8-9 16l0 182c0 8 3 13 9 16c3 2 6 3 9 3c4 0 7-1 10-3l146-92c6-3 9-8 9-15z m146 0c0 18 0 33 0 43c0 10-1 23-3 39c-1 16-3 30-6 42c-3 14-10 26-20 35c-10 10-22 15-35 17c-43 4-106 7-192 7c-86 0-149-3-192-7c-13-2-25-7-35-17c-10-9-17-21-20-35c-3-12-5-26-6-42c-2-16-3-29-3-39c0-10 0-25 0-43c0-18 0-33 0-43c0-10 1-23 3-39c1-16 3-30 6-42c3-14 10-26 20-35c10-10 22-15 35-17c43-4 106-7 192-7c86 0 149 3 192 7c13 2 25 7 35 17c10 9 17 21 20 35c3 12 5 26 6 42c2 16 3 29 3 39c0 10 0 25 0 43z"/>
    </symbol>
  
    <symbol id="icon-twitter-square" viewBox="0 0 512 512">
      <path d="m402 174c-10 5-22 8-34 10c13-8 22-19 26-33c-12 7-25 12-38 14c-12-12-26-19-44-19c-16 0-30 6-42 18c-12 12-18 26-18 42c0 6 1 10 2 14c-25-1-48-8-69-19c-22-11-40-25-55-44c-6 10-9 20-9 30c0 22 9 39 26 50c-9 0-18-2-28-7l0 1c0 14 5 27 14 38c10 11 21 18 35 20c-5 2-10 3-14 3c-3 0-6-1-11-1c4 12 11 21 21 29c10 8 22 12 35 12c-23 17-47 26-75 26c-5 0-10 0-14-1c28 18 59 27 92 27c21 0 41-3 60-10c18-7 34-16 48-27c13-12 25-25 34-39c10-15 17-31 22-47c4-16 7-32 7-48c0-3-1-6-1-8c12-8 22-19 30-31z m73-55l0 274c0 23-8 42-24 58c-16 16-35 24-58 24l-274 0c-23 0-42-8-58-24c-16-16-24-35-24-58l0-274c0-23 8-42 24-58c16-16 35-24 58-24l274 0c23 0 42 8 58 24c16 16 24 35 24 58z"/>
    </symbol>
  
    <symbol id="icon-twitter" viewBox="0 0 512 512">
      <path d="m481 117c-13 18-28 34-46 47c0 3 0 7 0 12c0 25-3 50-11 74c-7 25-18 49-33 71c-14 23-32 43-52 61c-21 17-45 31-74 41c-29 11-60 16-92 16c-52 0-99-14-142-42c7 1 14 2 22 2c43 0 81-14 115-40c-20 0-38-6-54-18c-16-12-27-27-33-46c7 1 13 2 18 2c8 0 16-1 24-4c-21-4-39-15-53-31c-14-17-21-37-21-59l0-1c13 7 27 11 42 11c-13-8-23-19-30-32c-8-14-11-29-11-44c0-17 4-33 12-47c23 28 51 51 84 68c33 17 69 27 107 29c-2-8-3-15-3-22c0-25 9-47 27-65c18-18 40-27 66-27c26 0 49 10 67 29c21-4 40-11 59-22c-7 22-21 39-41 51c18-2 35-7 53-14z"/>
    </symbol>
  
    <symbol id="icon-pin-map" viewBox="0 0 512 512">
      <path d="m329 183c0-20-7-38-21-52c-15-14-32-21-52-21c-20 0-37 7-52 21c-14 14-21 32-21 52c0 20 7 37 21 52c15 14 32 21 52 21c20 0 37-7 52-21c14-15 21-32 21-52z m73 0c0 21-3 38-9 51l-104 221c-3 6-8 11-14 15c-6 4-12 5-19 5c-7 0-13-1-19-5c-6-4-11-9-14-15l-104-221c-6-13-9-30-9-51c0-41 14-75 43-104c28-28 63-42 103-42c40 0 75 14 103 42c29 29 43 63 43 104z"/>
    </symbol>
  
    <symbol id="icon-pin-map-2" viewBox="0 0 512 512">
      <path d="m229 247l0-128c0-3-1-5-3-7c-2-1-4-2-7-2c-2 0-4 1-6 2c-2 2-3 4-3 7l0 128c0 3 1 5 3 6c2 2 4 3 6 3c3 0 5-1 7-3c2-1 3-3 3-6z m192 100c0 5-2 10-6 13c-3 4-8 6-13 6l-122 0l-15 138c0 2-1 4-3 6c-1 1-3 2-6 2l0 0c-5 0-8-3-9-8l-22-138l-115 0c-5 0-10-2-13-6c-4-3-6-8-6-13c0-23 8-44 23-63c15-19 32-28 51-28l0-146c-10 0-19-4-26-11c-7-7-11-16-11-26c0-10 4-18 11-26c7-7 16-10 26-10l182 0c10 0 19 3 26 10c7 8 11 16 11 26c0 10-4 19-11 26c-7 7-16 11-26 11l0 146c19 0 36 9 51 28c15 19 23 40 23 63z"/>
    </symbol>
  
    <symbol id="icon-pinterest-square" viewBox="0 0 512 512">
      <path d="m393 37c23 0 42 8 58 24c16 16 24 35 24 58l0 274c0 23-8 42-24 58c-16 16-35 24-58 24l-207 0c16-23 26-43 31-60c2-6 7-26 15-59c4 7 11 14 21 19c10 5 21 8 32 8c35 0 63-14 85-42c21-28 32-64 32-107c0-16-3-31-10-46c-6-15-16-29-27-40c-12-12-27-21-44-28c-17-7-36-10-56-10c-20 0-38 2-56 8c-17 5-32 13-43 22c-12 9-23 19-31 31c-9 12-15 24-19 37c-4 12-6 25-6 37c0 20 3 37 11 52c8 15 19 25 33 31c3 1 5 1 7 0c2-1 3-2 4-5c2-9 3-14 4-18c2-4 1-8-3-12c-9-11-14-26-14-42c0-29 10-53 30-74c19-20 45-30 77-30c28 0 50 8 66 23c16 15 24 35 24 60c0 32-6 59-19 82c-13 22-30 33-50 33c-11 0-20-4-27-12c-7-8-10-18-7-30c2-6 4-15 8-26c3-11 6-21 8-29c2-8 3-16 3-21c0-10-2-18-7-24c-5-6-13-9-22-9c-12 0-21 5-30 16c-8 11-12 24-12 40c0 14 3 25 7 35l-28 118c-4 19-5 43-2 72l-52 0c-23 0-42-8-58-24c-16-16-24-35-24-58l0-274c0-23 8-42 24-58c16-16 35-24 58-24z"/>
    </symbol>
  
    <symbol id="icon-pinterest" viewBox="0 0 512 512">
      <path d="m475 256c0 40-9 77-29 110c-20 34-46 60-80 80c-33 20-70 29-110 29c-21 0-42-3-62-9c11-17 18-33 22-47c2-6 7-26 15-60c4 8 11 14 21 19c10 6 21 9 33 9c23 0 43-7 62-20c18-13 32-31 42-54c9-23 14-48 14-77c0-22-5-42-17-61c-11-19-27-35-49-47c-21-12-46-18-73-18c-20 0-38 3-56 9c-17 5-32 12-44 22c-12 9-22 19-31 31c-9 12-15 24-19 37c-4 13-6 26-6 38c0 20 4 38 11 53c8 15 19 25 34 31c5 3 9 1 10-5c1-2 2-5 3-9c1-5 2-8 2-9c1-4 0-8-3-12c-10-12-15-26-15-43c0-29 10-54 30-74c20-21 46-31 78-31c29 0 51 8 68 23c16 16 24 36 24 61c0 32-7 60-20 83c-13 22-30 34-50 34c-12 0-21-5-28-13c-7-8-9-18-7-30c2-6 4-15 8-26c4-12 6-21 9-30c2-8 3-16 3-21c0-10-3-18-8-24c-5-6-12-10-22-10c-12 0-22 6-30 17c-8 11-12 24-12 40c0 14 2 26 7 35l-28 120c-4 13-5 30-4 50c-39-17-71-44-95-80c-24-36-36-77-36-121c0-40 9-77 29-110c20-34 46-60 80-80c33-20 70-29 110-29c40 0 77 9 110 29c34 20 60 46 80 80c20 33 29 70 29 110z"/>
    </symbol>
  
    <symbol id="icon-quote-left" viewBox="0 0 512 512">
      <path d="m238 274l0 110c0 15-6 28-16 39c-11 11-24 16-39 16l-110 0c-15 0-28-5-39-16c-10-11-16-24-16-39l0-201c0-20 4-39 12-57c8-18 18-33 31-47c13-13 29-23 47-31c18-8 37-11 57-11l18 0c5 0 9 1 13 5c3 4 5 8 5 13l0 36c0 5-2 10-5 13c-4 4-8 6-13 6l-18 0c-21 0-38 7-52 21c-14 14-22 32-22 52l0 9c0 8 3 14 8 19c6 6 12 8 20 8l64 0c15 0 28 6 39 16c10 11 16 24 16 39z m256 0l0 110c0 15-6 28-16 39c-11 11-24 16-39 16l-110 0c-15 0-28-5-39-16c-10-11-16-24-16-39l0-201c0-20 4-39 12-57c8-18 18-33 31-47c13-13 29-23 47-31c18-8 37-11 57-11l18 0c5 0 9 1 13 5c3 4 5 8 5 13l0 36c0 5-2 10-5 13c-4 4-8 6-13 6l-18 0c-21 0-38 7-52 21c-14 14-22 32-22 52l0 9c0 8 3 14 8 19c6 6 12 8 20 8l64 0c15 0 28 6 39 16c10 11 16 24 16 39z"/>
    </symbol>
  
    <symbol id="icon-quote-right" viewBox="0 0 512 512">
      <path d="m238 91l0 202c0 19-4 38-12 56c-8 18-18 34-31 47c-13 13-29 24-47 31c-18 8-37 12-57 12l-18 0c-5 0-9-2-13-6c-3-3-5-7-5-12l0-37c0-5 2-9 5-13c4-3 8-5 13-5l18 0c21 0 38-7 52-22c14-14 22-31 22-51l0-10c0-7-3-14-8-19c-6-5-12-8-20-8l-64 0c-15 0-28-5-39-16c-10-11-16-24-16-39l0-110c0-15 6-28 16-38c11-11 24-16 39-16l110 0c15 0 28 5 39 16c10 10 16 23 16 38z m256 0l0 202c0 19-4 38-12 56c-8 18-18 34-31 47c-13 13-29 24-47 31c-18 8-37 12-57 12l-18 0c-5 0-9-2-13-6c-3-3-5-7-5-12l0-37c0-5 2-9 5-13c4-3 8-5 13-5l18 0c21 0 38-7 52-22c14-14 22-31 22-51l0-10c0-7-3-14-8-19c-6-5-12-8-20-8l-64 0c-15 0-28-5-39-16c-10-11-16-24-16-39l0-110c0-15 6-28 16-38c11-11 24-16 39-16l110 0c15 0 28 5 39 16c10 10 16 23 16 38z"/>
    </symbol>
  
    <symbol id="icon-icon-as-listens" viewBox="0 0 512 512">
      <path d="m169 98c-82-5-154 42-158 102-4 72 47 119 116 135 5 1 9 4 11 8 8 9 17 28-8 51 72-24 172-65 179-166 5-78-57-125-140-130z m196 66c30 0 59 10 80 26 20 16 31 35 31 55 1 40-20 59-84 76-13 4-28 17-34 23-6 7-10 16-12 26-22-8-43-16-61-28-27-19-41-43-43-75-5-69 55-98 112-102 4 0 7-1 11-1m0-27c-4 0-8 0-12 0-83 6-144 53-139 132 7 100 106 122 178 146-28-22-20-44-12-54 3-3 14-11 18-13 63-16 107-40 106-103-2-58-62-108-139-108z"/>
    </symbol>
  
    <symbol id="icon-credit-card" viewBox="0 0 512 512">
      <path d="m469 51c12 0 22 4 30 13c9 8 13 18 13 30l0 324c0 12-4 22-13 30c-8 9-18 13-30 13l-426 0c-12 0-22-4-30-13c-9-8-13-18-13-30l0-324c0-12 4-22 13-30c8-9 18-13 30-13z m-426 34c-3 0-5 1-6 3c-2 2-3 4-3 6l0 60l444 0l0-60c0-2-1-4-3-6c-1-2-3-3-6-3z m426 342c3 0 5-1 6-3c2-2 3-4 3-6l0-162l-444 0l0 162c0 2 1 4 3 6c1 2 3 3 6 3z m-401-34l0-35l69 0l0 35z m103 0l0-35l102 0l0 35z"/>
    </symbol>
  
    <symbol id="icon-icon-as-listens" viewBox="0 0 512 512">
      <path d="m169 98c-82-5-154 42-158 102-4 72 47 119 116 135 5 1 9 4 11 8 8 9 17 28-8 51 72-24 172-65 179-166 5-78-57-125-140-130z m196 66c30 0 59 10 80 26 20 16 31 35 31 55 1 40-20 59-84 76-13 4-28 17-34 23-6 7-10 16-12 26-22-8-43-16-61-28-27-19-41-43-43-75-5-69 55-98 112-102 4 0 7-1 11-1m0-27c-4 0-8 0-12 0-83 6-144 53-139 132 7 100 106 122 178 146-28-22-20-44-12-54 3-3 14-11 18-13 63-16 107-40 106-103-2-58-62-108-139-108z"/>
    </symbol>
  
    <symbol id="icon-icon-email" viewBox="0 0 512 512">
      <path d="m13 423l485 0 0-344-485 0z m83-35l113-123 20 16c0 0 1 0 1 0 8 5 17 8 26 8 9 0 18-2 26-8 0 0 1 0 1 0l20-16 113 122-320 0z m367 0l-11 0 1-1-127-138 137-103z m-16-274l-185 139c-3 2-9 2-12 0l-185-139z m-398 32l137 103-128 138 1 1-10 0z"/>
    </symbol>
  
    <symbol id="icon-icon-gift-certificate" viewBox="0 0 512 512">
      <path d="m438 113c0-17-10-34-25-44-14-10-34-16-54-16-20 0-39 6-53 16-11 7-18 17-22 28-6-6-16-10-27-10-12 0-21 4-28 10-4-11-12-22-22-28-14-10-33-16-53-16-20 0-40 6-54 16-15 10-25 27-25 44 0 16 9 27 18 34l-82 0 0 125 27 0 0 171 436 0 0-171 27 0 0-125-81 0c9-7 18-18 18-34z m-230 295l-135 0 0-136 135 0z m0-171l-162 0 0-55 162 0z m0-92l-55 0c-15 0-30-4-40-11-13-9-15-15-15-21 0-9 6-19 15-25 10-7 25-11 40-11 15 0 30 4 41 11 8 6 14 16 14 25z m23 2z m50 0z m23-34c0-9 6-19 14-25 11-7 26-11 41-11 15 0 30 4 40 11 9 6 15 16 15 25 0 6-2 12-15 21-10 7-25 11-40 11l-55 0z m135 295l-135 0 0-136 135 0z m27-226l0 55-162 0 0-55z"/>
    </symbol>
  
    <symbol id="icon-icon-mobile" viewBox="0 0 512 512">
      <path d="m324 50l-136 0c-28 0-51 22-51 51l0 310c0 29 23 51 51 51l136 0c28 0 51-22 51-51l0-310c0-29-23-51-51-51z m-68 385c-13 0-24-11-24-24 0-13 11-24 24-24 13 0 24 11 24 24 0 13-11 24-24 24z m88-69l-176 0 0-260 176 0z"/>
    </symbol>
  
    <symbol id="icon-icon-new-destinations" viewBox="0 0 512 512">
      <path d="m197 395c11 0 17-10 17-10-11-13-24-28-35-46-13-20-24-43-30-70 7 5 17 13 31 21 37 20 60 22 60 22-6-31-31-62-41-68-10-5-20-7-31-6 7-4 14-8 22-13 32-22 47-45 47-45-28-8-50-3-69 10-9 7-18 16-25 27 0-9-3-18-8-28-5-8-30-36-49-35 0 0-3 25 15 57 2 4 4 8 7 11-5-1-10-2-15-2-12-1-51-1-74 21 0 0 20 12 62 16 6 1 11 1 15 1-5 4-10 8-15 12-16 17-25 38-22 67 0 0 26-11 53-40 9-9 15-17 21-24 2 28 8 52 17 72 7 15 14 28 23 38 1 2 8 12 24 12z m90-14c-19 0-28-16-28-16 8-10 15-19 23-29-13-1-25-2-38-2-23 0-45 2-65 5 11 18 24 33 36 46 0 0-6 10-17 10-17 0-24-10-24-10-9-10-16-23-23-38-44 13-73 35-73 61 0 40 332 40 332 0 0-28-33-51-81-64-2 6-5 11-7 16-7 12-7 21-35 21z m204-216c-26-25-72-26-85-25-6 1-12 2-17 3 3-4 5-8 8-13 20-37 17-66 17-66-22-1-51 31-57 41-6 11-9 21-9 32-8-13-18-23-29-31-22-15-47-21-79-12 0 0 18 27 54 52 9 6 18 11 25 15-12-1-25 1-36 7-12 7-40 42-46 78 0 0 27-1 69-25 17-10 28-18 36-24-9 47-31 96-60 138-8 11-15 20-23 29 0 0 10 16 28 16 28 0 27-8 34-21 3-4 5-10 7-15 20-52 32-142 32-142 0 0 14 18 25 28 31 33 60 46 60 46 4-34-6-58-25-77-5-5-11-10-18-14 6 0 12-1 18-1 48-5 71-19 71-19z"/>
    </symbol>
  
    <symbol id="icon-icon-price-guarantee" viewBox="0 0 512 512">
      <path d="m411 256c0 86-70 155-155 155-85 0-155-69-155-155 0-86 69-155 155-155 86 0 155 69 155 155z m-55-55l-31-26-98 119-57-49-20 24 83 67z m-118-166c10-6 26-6 36 0l17 10c11 5 28 10 40 10l20 0c11 0 26 8 31 19l10 17c6 10 19 23 29 29l17 10c11 5 19 20 19 31l0 20c0 12 4 29 10 40l10 17c6 10 6 26 0 36l-10 17c-5 11-10 28-10 40l0 20c0 11-8 26-19 31l-17 10c-10 6-23 19-29 29l-10 17c-5 11-20 19-31 19l-20 0c-12 0-29 4-40 10l-17 10c-10 6-26 6-36 0l-17-10c-11-5-28-10-40-10l-20 0c-11 0-26-8-31-19l-10-17c-6-10-19-23-29-29l-17-10c-11-5-19-20-19-31l0-20c0-12-4-29-10-40l-10-17c-6-10-6-26 0-36l10-17c5-11 10-28 10-40l0-20c0-11 8-26 19-31l17-10c10-6 23-19 29-29l10-17c5-11 20-19 31-19l20 0c12 0 29-4 40-10z m193 221c0-96-78-175-175-175-97 0-175 79-175 175 0 96 79 175 175 175 96 0 175-79 175-175z"/>
    </symbol>
  
    <symbol id="icon-icon-sustainability" viewBox="0 0 512 512">
      <path d="m205 404c114-35 154-321-168-320-36 88-73 286 135 330 11-82-13-192-55-245 82 50 100 192 88 235z m243-242c76 208-47 239-111 246 3-49 37-130 64-175-47 35-91 110-108 154-33-35-117-151 155-225m19-37l-27 7c-64 18-114 38-149 63-33 23-54 50-63 80-8 27-5 55 8 83 10 22 24 39 34 50l34 35 1-2 0 1 35-3c67-7 114-31 140-73 15-25 23-55 23-89 0-36-9-78-26-125z"/>
    </symbol>
  
    <symbol id="icon-caret-left" viewBox="0 0 512 512">
      <path d="m347 128l0 256c0 5-1 9-5 13c-4 3-8 5-13 5c-5 0-9-2-13-5l-128-128c-3-4-5-8-5-13c0-5 2-9 5-13l128-128c4-3 8-5 13-5c5 0 9 2 13 5c4 4 5 8 5 13z"/>
    </symbol>
  
    <symbol id="icon-caret-right" viewBox="0 0 512 512">
      <path d="m329 256c0 5-2 9-5 13l-128 128c-4 3-8 5-13 5c-5 0-9-2-13-5c-4-4-5-8-5-13l0-256c0-5 1-9 5-13c4-3 8-5 13-5c5 0 9 2 13 5l128 128c3 4 5 8 5 13z"/>
    </symbol>
  
    <symbol id="icon-caret-up" viewBox="0 0 512 512">
      <path d="m402 201c0 5-2 9-5 13c-4 4-8 5-13 5l-256 0c-5 0-9-1-13-5c-3-4-5-8-5-13c0-5 2-9 5-13l128-128c4-3 8-5 13-5c5 0 9 2 13 5l128 128c3 4 5 8 5 13z"/>
    </symbol>
  
    <symbol id="icon-caret-up-down" viewBox="0 0 512 512">
      <path d="m402 311c0 5-2 9-5 13l-128 128c-4 3-8 5-13 5c-5 0-9-2-13-5l-128-128c-3-4-5-8-5-13c0-5 2-9 5-13c4-4 8-5 13-5l256 0c5 0 9 1 13 5c3 4 5 8 5 13z m0-110c0 5-2 9-5 13c-4 4-8 5-13 5l-256 0c-5 0-9-1-13-5c-3-4-5-8-5-13c0-5 2-9 5-13l128-128c4-3 8-5 13-5c5 0 9 2 13 5l128 128c3 4 5 8 5 13z"/>
    </symbol>
  
    <symbol id="icon-caret-up-two" viewBox="0 0 512 512">
      <path d="m402 347c0 5-2 10-5 13c-4 4-8 6-13 6l-256 0c-5 0-9-2-13-6c-3-3-5-8-5-13c0-5 2-9 5-12l128-128c4-4 8-6 13-6c5 0 9 2 13 6l128 128c3 3 5 7 5 12z"/>
    </symbol>
  
    <symbol id="icon-shop-share" viewBox="0 0 512 512">
      <path d="m140 138l-34-29c0-1 0-3 0-4 0-20-17-37-37-37-20 0-37 17-37 37 0 21 17 37 37 37 2 0 4 0 6-1l23 23 42 190 294 0 31-216-325 0z m34 181c-16 0-28-13-28-29 0-15 12-28 28-28 16 0 29 13 29 28 0 16-13 29-29 29z m0-79c-16 0-28-13-28-29 0-16 12-29 28-29 16 0 29 13 29 29 0 16-13 29-29 29z m74 79c-16 0-29-13-29-29 0-15 13-28 29-28 16 0 29 13 29 28 0 16-13 29-29 29z m0-79c-16 0-29-13-29-29 0-16 13-29 29-29 16 0 29 13 29 29 0 16-13 29-29 29z m74 79c-16 0-29-13-29-29 0-15 13-28 29-28 16 0 29 13 29 28 0 16-13 29-29 29z m0-79c-16 0-29-13-29-29 0-16 13-29 29-29 16 0 29 13 29 29 0 16-13 29-29 29z m74 79c-16 0-29-13-29-29 0-15 13-28 29-28 16 0 29 13 29 28 0 16-13 29-29 29z m0-79c-16 0-29-13-29-29 0-16 13-29 29-29 16 0 29 13 29 29 0 16-13 29-29 29z m-170 173c0 19-15 34-34 34-19 0-34-15-34-34 0-19 15-34 34-34 19 0 34 15 34 34z m182 0c0 19-15 34-34 34-19 0-34-15-34-34 0-19 15-34 34-34 19 0 34 15 34 34z"/>
    </symbol>
  
    <symbol id="icon-instagram" viewBox="0 0 512 512">
      <path d="m426 407l0-185l-39 0c4 12 6 25 6 38c0 24-6 46-18 66c-13 20-29 36-50 48c-21 12-44 18-69 18c-37 0-69-13-96-39c-27-26-40-57-40-93c0-13 2-26 6-38l-41 0l0 185c0 5 2 10 5 13c4 3 8 5 13 5l305 0c5 0 9-2 13-5c3-3 5-8 5-13z m-81-152c0-23-9-44-26-60c-18-17-38-25-63-25c-24 0-45 8-62 25c-17 16-26 37-26 60c0 24 9 44 26 61c17 16 38 25 62 25c25 0 45-9 63-25c17-17 26-37 26-61z m81-103l0-47c0-5-2-10-6-14c-4-4-8-6-14-6l-50 0c-5 0-10 2-14 6c-4 4-5 9-5 14l0 47c0 6 1 10 5 14c4 4 9 6 14 6l50 0c6 0 10-2 14-6c4-4 6-8 6-14z m49-59l0 326c0 16-5 29-16 40c-11 11-24 16-40 16l-326 0c-16 0-29-5-40-16c-11-11-16-24-16-40l0-326c0-16 5-29 16-40c11-11 24-16 40-16l326 0c16 0 29 5 40 16c11 11 16 24 16 40z"/>
    </symbol>
  
</svg>
